<svg width="343" height="927" viewBox="0 0 343 927" fill="none" xmlns="http://www.w3.org/2000/svg">
<rect width="343" height="927" rx="8" fill="#F1F1F1"/>
<path d="M45.4 88.22C45.4 90.5133 45.2133 92.5667 44.84 94.38C44.4933 96.1933 43.92 97.74 43.12 99.02C42.3467 100.273 41.32 101.233 40.04 101.9C38.7867 102.567 37.24 102.9 35.4 102.9C33.1067 102.9 31.2267 102.313 29.76 101.14C28.2933 99.9667 27.2 98.2867 26.48 96.1C25.7867 93.9133 25.44 91.2867 25.44 88.22C25.44 85.1267 25.76 82.4867 26.4 80.3C27.04 78.1133 28.0933 76.4333 29.56 75.26C31.0267 74.0867 32.9733 73.5 35.4 73.5C37.6933 73.5 39.5733 74.0867 41.04 75.26C42.5067 76.4067 43.6 78.0867 44.32 80.3C45.04 82.4867 45.4 85.1267 45.4 88.22ZM31.44 88.22C31.44 90.38 31.56 92.1933 31.8 93.66C32.04 95.1 32.44 96.1933 33 96.94C33.5867 97.66 34.3867 98.02 35.4 98.02C36.4133 98.02 37.2 97.66 37.76 96.94C38.3467 96.22 38.76 95.14 39 93.7C39.2667 92.2333 39.4 90.4067 39.4 88.22C39.4 86.0333 39.2667 84.22 39 82.78C38.76 81.3133 38.3467 80.22 37.76 79.5C37.2 78.7533 36.4133 78.38 35.4 78.38C34.3867 78.38 33.5867 78.7533 33 79.5C32.44 80.22 32.04 81.3133 31.8 82.78C31.56 84.22 31.44 86.0333 31.44 88.22ZM67.6506 102.5H47.6906V98.3L54.8506 91.06C56.2906 89.5667 57.4506 88.3267 58.3306 87.34C59.2106 86.3267 59.8506 85.42 60.2506 84.62C60.6506 83.7933 60.8506 82.9133 60.8506 81.98C60.8506 80.8333 60.5306 79.98 59.8906 79.42C59.2773 78.86 58.4373 78.58 57.3706 78.58C56.2773 78.58 55.2106 78.8333 54.1706 79.34C53.1306 79.8467 52.0373 80.5667 50.8906 81.5L47.6106 77.62C48.4373 76.9 49.304 76.2333 50.2106 75.62C51.144 75.0067 52.2106 74.5133 53.4106 74.14C54.6373 73.74 56.104 73.54 57.8106 73.54C59.6773 73.54 61.2773 73.8867 62.6106 74.58C63.9706 75.2467 65.0106 76.1667 65.7306 77.34C66.4773 78.4867 66.8506 79.7933 66.8506 81.26C66.8506 82.46 66.664 83.5667 66.2906 84.58C65.944 85.5933 65.424 86.58 64.7306 87.54C64.064 88.4733 63.2373 89.4467 62.2506 90.46C61.264 91.4467 60.144 92.5267 58.8906 93.7L55.2106 97.14V97.42H67.6506V102.5Z" fill="#B73D24"/>
<path d="M34.689 138.207H39.561V140.454H34.689V138.207ZM30.216 134.721C31.196 134.721 32.071 134.924 32.841 135.33C33.625 135.722 34.241 136.268 34.689 136.968C35.137 137.654 35.361 138.452 35.361 139.362C35.361 140.258 35.137 141.056 34.689 141.756C34.241 142.456 33.625 143.009 32.841 143.415C32.071 143.807 31.196 144.003 30.216 144.003C29.25 144.003 28.375 143.807 27.591 143.415C26.821 143.009 26.212 142.456 25.764 141.756C25.316 141.056 25.092 140.258 25.092 139.362C25.092 138.452 25.316 137.654 25.764 136.968C26.212 136.268 26.821 135.722 27.591 135.33C28.375 134.924 29.25 134.721 30.216 134.721ZM30.216 137.031C29.74 137.031 29.313 137.122 28.935 137.304C28.571 137.486 28.284 137.752 28.074 138.102C27.864 138.452 27.759 138.872 27.759 139.362C27.759 139.838 27.864 140.251 28.074 140.601C28.284 140.951 28.571 141.217 28.935 141.399C29.313 141.581 29.74 141.672 30.216 141.672C30.692 141.672 31.112 141.581 31.476 141.399C31.854 141.217 32.148 140.951 32.358 140.601C32.568 140.251 32.673 139.838 32.673 139.362C32.673 138.872 32.568 138.452 32.358 138.102C32.148 137.752 31.854 137.486 31.476 137.304C31.112 137.122 30.692 137.031 30.216 137.031ZM38.322 133.923H41.136V144.36H38.322V133.923ZM28.221 145.221H30.993V147.048H38.364V145.221H41.136V153.159H28.221V145.221ZM30.993 149.19V150.933H38.364V149.19H30.993ZM51.2564 139.047H55.1834V141.252H51.2564V139.047ZM51.1514 143.898H55.1204V146.124H51.1514V143.898ZM57.8294 133.902H60.4964V153.348H57.8294V133.902ZM53.8394 134.322H56.4434V152.487H53.8394V134.322ZM49.4504 136.191H52.1174C52.1174 138.039 51.9004 139.761 51.4664 141.357C51.0464 142.939 50.3184 144.395 49.2824 145.725C48.2604 147.055 46.8464 148.252 45.0404 149.316L43.4654 147.363C44.9354 146.481 46.1044 145.522 46.9724 144.486C47.8544 143.436 48.4844 142.281 48.8624 141.021C49.2544 139.747 49.4504 138.326 49.4504 136.758V136.191ZM44.5784 136.191H50.3744V138.438H44.5784V136.191ZM70.4277 141.063H73.6197V143.31H70.4277V141.063ZM76.6857 133.902H79.3527V153.348H76.6857V133.902ZM72.7377 134.217H75.3417V152.487H72.7377V134.217ZM67.0257 135.267C67.8797 135.267 68.6217 135.554 69.2517 136.128C69.8957 136.688 70.3857 137.5 70.7217 138.564C71.0717 139.614 71.2467 140.874 71.2467 142.344C71.2467 143.8 71.0717 145.06 70.7217 146.124C70.3857 147.188 69.8957 148.007 69.2517 148.581C68.6217 149.141 67.8727 149.421 67.0047 149.421C66.1647 149.421 65.4227 149.141 64.7787 148.581C64.1487 148.007 63.6587 147.188 63.3087 146.124C62.9727 145.06 62.8047 143.8 62.8047 142.344C62.8047 140.874 62.9727 139.614 63.3087 138.564C63.6587 137.5 64.1487 136.688 64.7787 136.128C65.4227 135.554 66.1717 135.267 67.0257 135.267ZM67.0257 137.913C66.6757 137.913 66.3747 138.074 66.1227 138.396C65.8707 138.718 65.6747 139.208 65.5347 139.866C65.4087 140.51 65.3457 141.336 65.3457 142.344C65.3457 143.324 65.4087 144.143 65.5347 144.801C65.6747 145.459 65.8707 145.956 66.1227 146.292C66.3747 146.614 66.6757 146.775 67.0257 146.775C67.3757 146.775 67.6767 146.614 67.9287 146.292C68.1947 145.956 68.3907 145.459 68.5167 144.801C68.6427 144.143 68.7057 143.324 68.7057 142.344C68.7057 141.336 68.6427 140.51 68.5167 139.866C68.3907 139.208 68.1947 138.718 67.9287 138.396C67.6767 138.074 67.3757 137.913 67.0257 137.913ZM100.619 133.902H103.286V153.348H100.619V133.902ZM98.0362 141.399H101.27V143.646H98.0362V141.399ZM96.2722 134.238H98.8552V152.445H96.2722V134.238ZM87.1372 146.67H88.4812C89.2932 146.67 90.0632 146.663 90.7912 146.649C91.5192 146.621 92.2402 146.572 92.9542 146.502C93.6822 146.418 94.4242 146.313 95.1802 146.187L95.4112 148.455C94.6272 148.595 93.8642 148.707 93.1222 148.791C92.3802 148.875 91.6312 148.931 90.8752 148.959C90.1192 148.973 89.3212 148.98 88.4812 148.98H87.1372V146.67ZM87.1372 136.17H94.2982V138.417H89.8882V147.783H87.1372V136.17ZM117.985 133.923H120.778V148.455H117.985V133.923ZM120.001 139.845H123.361V142.155H120.001V139.845ZM105.49 135.96H116.914V138.144H105.49V135.96ZM111.202 138.837C112.14 138.837 112.966 138.998 113.68 139.32C114.408 139.628 114.975 140.069 115.381 140.643C115.787 141.203 115.99 141.847 115.99 142.575C115.99 143.317 115.787 143.975 115.381 144.549C114.975 145.109 114.408 145.55 113.68 145.872C112.966 146.18 112.14 146.334 111.202 146.334C110.278 146.334 109.452 146.18 108.724 145.872C107.996 145.55 107.429 145.109 107.023 144.549C106.617 143.975 106.414 143.317 106.414 142.575C106.414 141.847 106.617 141.203 107.023 140.643C107.429 140.069 107.996 139.628 108.724 139.32C109.452 138.998 110.278 138.837 111.202 138.837ZM111.202 140.958C110.586 140.958 110.082 141.098 109.69 141.378C109.298 141.658 109.102 142.064 109.102 142.596C109.102 143.114 109.298 143.513 109.69 143.793C110.082 144.073 110.586 144.213 111.202 144.213C111.832 144.213 112.336 144.073 112.714 143.793C113.106 143.513 113.302 143.114 113.302 142.596C113.302 142.064 113.106 141.658 112.714 141.378C112.336 141.098 111.832 140.958 111.202 140.958ZM109.816 133.902H112.588V137.01H109.816V133.902ZM108.241 150.786H121.471V153.033H108.241V150.786ZM108.241 147.363H111.055V151.752H108.241V147.363ZM139.335 136.758H144.123V138.984H139.335V136.758ZM142.884 133.923H145.698V143.793H142.884V133.923ZM132.846 144.591H145.698V149.841H135.639V152.277H132.867V147.825H142.926V146.754H132.846V144.591ZM132.867 150.975H146.244V153.159H132.867V150.975ZM133.854 134.532H136.122V135.939C136.122 137.143 135.926 138.284 135.534 139.362C135.156 140.44 134.568 141.378 133.77 142.176C132.972 142.96 131.95 143.548 130.704 143.94L129.276 141.756C130.354 141.42 131.229 140.958 131.901 140.37C132.573 139.768 133.063 139.082 133.371 138.312C133.693 137.542 133.854 136.751 133.854 135.939V134.532ZM134.421 134.532H136.668V135.939C136.668 136.499 136.752 137.059 136.92 137.619C137.102 138.179 137.368 138.704 137.718 139.194C138.068 139.684 138.516 140.118 139.062 140.496C139.622 140.874 140.28 141.182 141.036 141.42L139.608 143.562C138.432 143.184 137.459 142.617 136.689 141.861C135.919 141.105 135.345 140.216 134.967 139.194C134.603 138.172 134.421 137.087 134.421 135.939V134.532ZM157.708 136.716H162.664V138.942H157.708V136.716ZM157.708 140.601H162.748V142.827H157.708V140.601ZM161.782 133.923H164.596V145.305H161.782V133.923ZM149.098 135.309H158.296V144.255H149.098V135.309ZM155.566 137.514H151.849V142.071H155.566V137.514ZM158.002 145.809C160.06 145.809 161.684 146.145 162.874 146.817C164.064 147.475 164.659 148.392 164.659 149.568C164.659 150.772 164.064 151.703 162.874 152.361C161.684 153.033 160.06 153.369 158.002 153.369C155.944 153.369 154.32 153.033 153.13 152.361C151.94 151.703 151.345 150.772 151.345 149.568C151.345 148.392 151.94 147.475 153.13 146.817C154.32 146.145 155.944 145.809 158.002 145.809ZM158.002 147.951C157.162 147.951 156.455 148.007 155.881 148.119C155.307 148.231 154.866 148.413 154.558 148.665C154.264 148.903 154.117 149.211 154.117 149.589C154.117 149.953 154.264 150.261 154.558 150.513C154.866 150.751 155.307 150.933 155.881 151.059C156.455 151.171 157.162 151.227 158.002 151.227C158.842 151.227 159.549 151.171 160.123 151.059C160.697 150.933 161.131 150.751 161.425 150.513C161.719 150.261 161.866 149.953 161.866 149.589C161.866 149.211 161.719 148.903 161.425 148.665C161.131 148.413 160.697 148.231 160.123 148.119C159.549 148.007 158.842 147.951 158.002 147.951ZM167.199 143.835H184.797V146.04H167.199V143.835ZM169.341 150.786H182.823V153.033H169.341V150.786ZM169.341 147.342H172.134V151.5H169.341V147.342ZM175.998 134.49C177.412 134.49 178.644 134.651 179.694 134.973C180.758 135.295 181.584 135.757 182.172 136.359C182.76 136.961 183.054 137.668 183.054 138.48C183.054 139.306 182.76 140.02 182.172 140.622C181.584 141.224 180.758 141.686 179.694 142.008C178.644 142.33 177.412 142.491 175.998 142.491C174.598 142.491 173.366 142.33 172.302 142.008C171.252 141.686 170.433 141.224 169.845 140.622C169.257 140.02 168.963 139.306 168.963 138.48C168.963 137.668 169.257 136.961 169.845 136.359C170.433 135.757 171.252 135.295 172.302 134.973C173.366 134.651 174.598 134.49 175.998 134.49ZM175.998 136.695C175.144 136.695 174.402 136.765 173.772 136.905C173.142 137.045 172.666 137.248 172.344 137.514C172.022 137.766 171.861 138.088 171.861 138.48C171.861 138.872 172.022 139.201 172.344 139.467C172.666 139.733 173.142 139.936 173.772 140.076C174.402 140.216 175.144 140.286 175.998 140.286C176.88 140.286 177.629 140.216 178.245 140.076C178.861 139.936 179.33 139.733 179.652 139.467C179.988 139.201 180.156 138.872 180.156 138.48C180.156 138.088 179.988 137.766 179.652 137.514C179.33 137.248 178.861 137.045 178.245 136.905C177.629 136.765 176.88 136.695 175.998 136.695ZM204.551 133.923H207.365V143.877H204.551V133.923ZM194.198 144.654H207.365V149.904H196.991V152.235H194.219V147.888H204.572V146.796H194.198V144.654ZM194.219 151.059H207.89V153.243H194.219V151.059ZM191.972 135.078H202.451V137.241H191.972V135.078ZM191.762 143.541L191.489 141.315C192.623 141.315 193.855 141.308 195.185 141.294C196.515 141.266 197.866 141.217 199.238 141.147C200.624 141.077 201.94 140.965 203.186 140.811L203.333 142.785C202.045 143.009 200.722 143.17 199.364 143.268C198.02 143.366 196.697 143.436 195.395 143.478C194.093 143.506 192.882 143.527 191.762 143.541ZM193.526 136.065H196.193V142.428H193.526V136.065ZM198.23 136.065H200.918V142.428H198.23V136.065ZM213.915 143.793H216.708V149.232H213.915V143.793ZM220.971 143.793H223.764V149.232H220.971V143.793ZM210.051 148.833H227.67V151.101H210.051V148.833ZM218.829 134.868C220.229 134.868 221.475 135.085 222.567 135.519C223.673 135.953 224.534 136.562 225.15 137.346C225.78 138.116 226.095 139.033 226.095 140.097C226.095 141.147 225.78 142.064 225.15 142.848C224.534 143.618 223.673 144.22 222.567 144.654C221.475 145.088 220.229 145.305 218.829 145.305C217.443 145.305 216.197 145.088 215.091 144.654C213.999 144.22 213.138 143.618 212.508 142.848C211.878 142.064 211.563 141.147 211.563 140.097C211.563 139.033 211.878 138.116 212.508 137.346C213.138 136.562 213.999 135.953 215.091 135.519C216.197 135.085 217.443 134.868 218.829 134.868ZM218.829 137.031C217.933 137.031 217.142 137.157 216.456 137.409C215.784 137.647 215.259 137.99 214.881 138.438C214.503 138.886 214.314 139.439 214.314 140.097C214.314 140.727 214.503 141.273 214.881 141.735C215.259 142.183 215.784 142.533 216.456 142.785C217.142 143.023 217.933 143.142 218.829 143.142C219.739 143.142 220.53 143.023 221.202 142.785C221.888 142.533 222.413 142.183 222.777 141.735C223.155 141.273 223.344 140.727 223.344 140.097C223.344 139.439 223.155 138.886 222.777 138.438C222.413 137.99 221.888 137.647 221.202 137.409C220.53 137.157 219.739 137.031 218.829 137.031ZM236.106 145.305H238.71V147.216H240.642V145.305H243.204V153.159H236.106V145.305ZM238.71 149.232V151.059H240.642V149.232H238.71ZM246.228 145.137H248.328V146.586C248.328 147.538 248.195 148.462 247.929 149.358C247.663 150.24 247.229 151.024 246.627 151.71C246.039 152.41 245.262 152.949 244.296 153.327L242.931 151.248C243.715 150.926 244.345 150.52 244.821 150.03C245.311 149.526 245.668 148.98 245.892 148.392C246.116 147.79 246.228 147.188 246.228 146.586V145.137ZM246.858 145.137H249V146.586C249 147.258 249.105 147.902 249.315 148.518C249.539 149.12 249.889 149.659 250.365 150.135C250.855 150.611 251.492 150.982 252.276 151.248L250.89 153.327C249.91 152.977 249.126 152.466 248.538 151.794C247.95 151.122 247.523 150.345 247.257 149.463C246.991 148.567 246.858 147.608 246.858 146.586V145.137ZM243.813 138.081H248.685V140.328H243.813V138.081ZM239.34 134.637C240.32 134.637 241.195 134.833 241.965 135.225C242.749 135.617 243.365 136.156 243.813 136.842C244.261 137.528 244.485 138.319 244.485 139.215C244.485 140.111 244.261 140.909 243.813 141.609C243.365 142.295 242.749 142.834 241.965 143.226C241.195 143.618 240.32 143.814 239.34 143.814C238.374 143.814 237.499 143.618 236.715 143.226C235.945 142.834 235.336 142.295 234.888 141.609C234.44 140.909 234.216 140.111 234.216 139.215C234.216 138.319 234.44 137.528 234.888 136.842C235.336 136.156 235.945 135.617 236.715 135.225C237.499 134.833 238.374 134.637 239.34 134.637ZM239.34 136.926C238.864 136.926 238.437 137.017 238.059 137.199C237.695 137.381 237.408 137.647 237.198 137.997C236.988 138.333 236.883 138.739 236.883 139.215C236.883 139.691 236.988 140.104 237.198 140.454C237.408 140.804 237.695 141.07 238.059 141.252C238.437 141.434 238.864 141.525 239.34 141.525C239.816 141.525 240.236 141.434 240.6 141.252C240.978 141.07 241.272 140.804 241.482 140.454C241.692 140.104 241.797 139.691 241.797 139.215C241.797 138.739 241.692 138.333 241.482 137.997C241.272 137.647 240.978 137.381 240.6 137.199C240.236 137.017 239.816 136.926 239.34 136.926ZM247.446 133.923H250.26V144.213H247.446V133.923ZM254.92 145.557H257.692V147.195H265.483V145.557H268.234V153.159H254.92V145.557ZM257.692 149.295V150.975H265.483V149.295H257.692ZM252.862 142.407H270.46V144.591H252.862V142.407ZM260.233 134.112H262.627V134.7C262.627 135.386 262.508 136.037 262.27 136.653C262.046 137.269 261.717 137.843 261.283 138.375C260.849 138.907 260.31 139.39 259.666 139.824C259.036 140.244 258.308 140.601 257.482 140.895C256.656 141.175 255.739 141.385 254.731 141.525L253.723 139.362C254.605 139.264 255.396 139.103 256.096 138.879C256.796 138.655 257.405 138.389 257.923 138.081C258.441 137.759 258.868 137.416 259.204 137.052C259.554 136.674 259.813 136.289 259.981 135.897C260.149 135.491 260.233 135.092 260.233 134.7V134.112ZM260.695 134.112H263.089V134.7C263.089 135.092 263.173 135.491 263.341 135.897C263.509 136.289 263.761 136.674 264.097 137.052C264.447 137.416 264.881 137.759 265.399 138.081C265.917 138.389 266.526 138.655 267.226 138.879C267.94 139.103 268.731 139.264 269.599 139.362L268.591 141.525C267.583 141.385 266.666 141.175 265.84 140.895C265.028 140.601 264.3 140.244 263.656 139.824C263.012 139.39 262.473 138.907 262.039 138.375C261.605 137.843 261.269 137.269 261.031 136.653C260.807 136.023 260.695 135.372 260.695 134.7V134.112ZM285.243 133.902H288.015V153.348H285.243V133.902ZM272.79 135.75H275.583V147.846H272.79V135.75ZM272.79 146.187H274.512C275.94 146.187 277.431 146.131 278.985 146.019C280.539 145.893 282.121 145.669 283.731 145.347L284.025 147.678C282.373 148.028 280.742 148.266 279.132 148.392C277.536 148.504 275.996 148.56 274.512 148.56H272.79V146.187ZM303.091 133.881H305.905V153.39H303.091V133.881ZM305.296 141.084H308.719V143.394H305.296V141.084ZM291.415 146.418H293.053C294.159 146.418 295.195 146.404 296.161 146.376C297.127 146.334 298.065 146.271 298.975 146.187C299.885 146.089 300.816 145.956 301.768 145.788L302.041 148.098C301.061 148.266 300.095 148.399 299.143 148.497C298.205 148.595 297.239 148.658 296.245 148.686C295.251 148.714 294.187 148.728 293.053 148.728H291.415V146.418ZM291.415 135.687H300.487V137.934H294.208V147.51H291.415V135.687Z" fill="#534F4B"/>
<path d="M35.312 174.268H36.64V188.764H35.312V174.268ZM29.008 175.388C29.7227 175.388 30.352 175.596 30.896 176.012C31.4507 176.417 31.8827 176.999 32.192 177.756C32.512 178.513 32.672 179.404 32.672 180.428C32.672 181.452 32.512 182.343 32.192 183.1C31.8827 183.857 31.4507 184.444 30.896 184.86C30.352 185.276 29.7227 185.484 29.008 185.484C28.2933 185.484 27.6587 185.276 27.104 184.86C26.5493 184.444 26.112 183.857 25.792 183.1C25.4827 182.343 25.328 181.452 25.328 180.428C25.328 179.404 25.4827 178.513 25.792 177.756C26.112 176.999 26.5493 176.417 27.104 176.012C27.6587 175.596 28.2933 175.388 29.008 175.388ZM29.008 176.572C28.528 176.572 28.1067 176.732 27.744 177.052C27.392 177.361 27.1147 177.809 26.912 178.396C26.7093 178.972 26.608 179.649 26.608 180.428C26.608 181.207 26.7093 181.889 26.912 182.476C27.1147 183.052 27.392 183.5 27.744 183.82C28.1067 184.14 28.528 184.3 29.008 184.3C29.4773 184.3 29.888 184.14 30.24 183.82C30.6027 183.5 30.8853 183.052 31.088 182.476C31.2907 181.889 31.392 181.207 31.392 180.428C31.392 179.649 31.2907 178.972 31.088 178.396C30.8853 177.809 30.6027 177.361 30.24 177.052C29.888 176.732 29.4773 176.572 29.008 176.572ZM40.0148 175.692H46.6708V185.116H40.0148V175.692ZM45.3908 176.748H41.3268V184.044H45.3908V176.748ZM49.7108 174.268H51.0388V188.764H49.7108V174.268ZM67.2258 174.268H68.5538V188.764H67.2258V174.268ZM68.2498 179.98H70.9218V181.084H68.2498V179.98ZM58.0578 184.028H59.1938C60.0791 184.028 60.8898 184.017 61.6258 183.996C62.3724 183.964 63.0871 183.911 63.7698 183.836C64.4631 183.761 65.1671 183.66 65.8818 183.532L66.0418 184.668C65.2951 184.796 64.5698 184.897 63.8658 184.972C63.1724 185.047 62.4471 185.095 61.6898 185.116C60.9324 185.137 60.1004 185.148 59.1938 185.148H58.0578V184.028ZM58.0578 175.676H64.7618V176.764H59.3698V184.54H58.0578V175.676ZM82.5968 176.94H86.4688V178.012H82.5968V176.94ZM82.4688 179.948H86.3728V181.036H82.4688V179.948ZM86.2448 174.284H87.5728V182.94H86.2448V174.284ZM81.7168 175.356H83.1248C83.1248 176.593 82.8528 177.708 82.3088 178.7C81.7754 179.692 81.0021 180.545 79.9888 181.26C78.9861 181.964 77.7914 182.524 76.4048 182.94L75.8608 181.884C77.0874 181.521 78.1381 181.052 79.0128 180.476C79.8874 179.889 80.5541 179.217 81.0128 178.46C81.4821 177.692 81.7168 176.849 81.7168 175.932V175.356ZM76.5968 175.356H82.6128V176.444H76.5968V175.356ZM82.8688 183.1C83.8501 183.1 84.6928 183.212 85.3968 183.436C86.1114 183.66 86.6661 183.98 87.0608 184.396C87.4554 184.812 87.6528 185.308 87.6528 185.884C87.6528 186.471 87.4554 186.972 87.0608 187.388C86.6661 187.793 86.1114 188.108 85.3968 188.332C84.6928 188.567 83.8501 188.684 82.8688 188.684C81.8981 188.684 81.0501 188.567 80.3248 188.332C79.6101 188.108 79.0554 187.793 78.6608 187.388C78.2661 186.972 78.0688 186.471 78.0688 185.884C78.0688 185.308 78.2661 184.812 78.6608 184.396C79.0554 183.98 79.6101 183.66 80.3248 183.436C81.0501 183.212 81.8981 183.1 82.8688 183.1ZM82.8688 184.156C82.1648 184.156 81.5514 184.225 81.0288 184.364C80.5061 184.503 80.1008 184.7 79.8128 184.956C79.5248 185.212 79.3808 185.521 79.3808 185.884C79.3808 186.247 79.5248 186.556 79.8128 186.812C80.1008 187.068 80.5061 187.265 81.0288 187.404C81.5514 187.543 82.1648 187.612 82.8688 187.612C83.5834 187.612 84.1968 187.543 84.7088 187.404C85.2208 187.265 85.6208 187.068 85.9088 186.812C86.1968 186.556 86.3408 186.247 86.3408 185.884C86.3408 185.521 86.1968 185.212 85.9088 184.956C85.6208 184.7 85.2208 184.503 84.7088 184.364C84.1968 184.225 83.5834 184.156 82.8688 184.156ZM100.644 174.268H101.972V183.036H100.644V174.268ZM98.2435 178.668H101.236V179.772H98.2435V178.668ZM92.5795 183.804H101.972V188.556H92.5795V183.804ZM100.676 184.876H93.8915V187.468H100.676V184.876ZM90.0835 175.772H98.4515V176.86H90.0835V175.772ZM94.2755 177.596C94.9262 177.596 95.5022 177.703 96.0035 177.916C96.5048 178.129 96.8942 178.433 97.1715 178.828C97.4595 179.212 97.6035 179.66 97.6035 180.172C97.6035 180.695 97.4595 181.148 97.1715 181.532C96.8942 181.916 96.5048 182.215 96.0035 182.428C95.5022 182.641 94.9262 182.748 94.2755 182.748C93.6248 182.748 93.0435 182.641 92.5315 182.428C92.0302 182.215 91.6355 181.916 91.3475 181.532C91.0702 181.148 90.9315 180.695 90.9315 180.172C90.9315 179.66 91.0702 179.212 91.3475 178.828C91.6355 178.433 92.0302 178.129 92.5315 177.916C93.0435 177.703 93.6248 177.596 94.2755 177.596ZM94.2755 178.62C93.8702 178.62 93.5075 178.684 93.1875 178.812C92.8782 178.94 92.6328 179.121 92.4515 179.356C92.2808 179.591 92.1955 179.863 92.1955 180.172C92.1955 180.481 92.2808 180.753 92.4515 180.988C92.6328 181.223 92.8782 181.409 93.1875 181.548C93.5075 181.676 93.8702 181.74 94.2755 181.74C94.6808 181.74 95.0382 181.676 95.3475 181.548C95.6568 181.409 95.8968 181.223 96.0675 180.988C96.2488 180.753 96.3395 180.481 96.3395 180.172C96.3395 179.863 96.2488 179.591 96.0675 179.356C95.8968 179.121 95.6568 178.94 95.3475 178.812C95.0382 178.684 94.6808 178.62 94.2755 178.62ZM93.6195 174.14H94.9315V176.556H93.6195V174.14ZM104.434 176.748H111.618V177.836H104.434V176.748ZM108.034 178.796C108.642 178.796 109.176 178.935 109.634 179.212C110.104 179.489 110.472 179.879 110.738 180.38C111.005 180.871 111.138 181.441 111.138 182.092C111.138 182.743 111.005 183.319 110.738 183.82C110.472 184.311 110.104 184.7 109.634 184.988C109.176 185.265 108.642 185.404 108.034 185.404C107.437 185.404 106.904 185.265 106.434 184.988C105.965 184.7 105.597 184.311 105.33 183.82C105.064 183.319 104.93 182.743 104.93 182.092C104.93 181.441 105.064 180.871 105.33 180.38C105.597 179.889 105.965 179.505 106.434 179.228C106.904 178.94 107.437 178.796 108.034 178.796ZM108.034 179.916C107.672 179.916 107.341 180.012 107.042 180.204C106.754 180.385 106.525 180.641 106.354 180.972C106.194 181.292 106.114 181.665 106.114 182.092C106.114 182.519 106.194 182.897 106.354 183.228C106.525 183.559 106.754 183.815 107.042 183.996C107.341 184.177 107.672 184.268 108.034 184.268C108.408 184.268 108.738 184.177 109.026 183.996C109.314 183.815 109.538 183.559 109.698 183.228C109.869 182.897 109.954 182.519 109.954 182.092C109.954 181.665 109.869 181.292 109.698 180.972C109.538 180.641 109.314 180.385 109.026 180.204C108.738 180.012 108.408 179.916 108.034 179.916ZM115.442 174.268H116.706V188.748H115.442V174.268ZM113.122 180.364H115.858V181.452H113.122V180.364ZM112.338 174.604H113.586V188.044H112.338V174.604ZM107.378 174.7H108.69V177.404H107.378V174.7ZM120.593 174.844H121.905V176.652H128.913V174.844H130.225V180.636H120.593V174.844ZM121.905 177.708V179.564H128.913V177.708H121.905ZM118.865 182.172H131.937V183.26H118.865V182.172ZM124.737 179.996H126.065V182.652H124.737V179.996ZM120.545 187.34H130.481V188.428H120.545V187.34ZM120.545 184.412H121.873V187.708H120.545V184.412ZM137.084 181.916H150.204V182.988H137.084V181.916ZM143.068 182.46H144.396V185.788H143.068V182.46ZM138.748 187.34H148.748V188.428H138.748V187.34ZM138.748 184.492H140.06V187.74H138.748V184.492ZM138.828 174.732H140.14V176.572H147.148V174.732H148.46V180.524H138.828V174.732ZM140.14 177.596V179.452H147.148V177.596H140.14ZM155.339 175.388C156.053 175.388 156.683 175.596 157.227 176.012C157.771 176.417 158.197 176.999 158.507 177.756C158.816 178.513 158.971 179.404 158.971 180.428C158.971 181.452 158.816 182.343 158.507 183.1C158.197 183.857 157.771 184.444 157.227 184.86C156.683 185.276 156.053 185.484 155.339 185.484C154.635 185.484 154.005 185.276 153.451 184.86C152.907 184.444 152.48 183.857 152.171 183.1C151.861 182.343 151.707 181.452 151.707 180.428C151.707 179.404 151.861 178.513 152.171 177.756C152.48 176.999 152.907 176.417 153.451 176.012C154.005 175.596 154.635 175.388 155.339 175.388ZM155.339 176.572C154.88 176.572 154.469 176.732 154.107 177.052C153.755 177.361 153.477 177.809 153.275 178.396C153.072 178.972 152.971 179.649 152.971 180.428C152.971 181.207 153.072 181.889 153.275 182.476C153.477 183.052 153.755 183.5 154.107 183.82C154.469 184.14 154.885 184.3 155.355 184.3C155.813 184.3 156.219 184.14 156.571 183.82C156.933 183.5 157.211 183.052 157.403 182.476C157.605 181.889 157.707 181.207 157.707 180.428C157.707 179.649 157.605 178.972 157.403 178.396C157.211 177.809 156.933 177.361 156.571 177.052C156.219 176.732 155.808 176.572 155.339 176.572ZM162.251 177.9H164.923V179.02H162.251V177.9ZM162.251 182.22H164.923V183.324H162.251V182.22ZM161.291 174.268H162.619V188.748H161.291V174.268ZM180.262 174.268H181.59V182.044H180.262V174.268ZM172.278 182.764H173.574V184.508H180.278V182.764H181.59V188.556H172.278V182.764ZM173.574 185.564V187.468H180.278V185.564H173.574ZM173.83 174.956C174.566 174.956 175.216 175.1 175.782 175.388C176.347 175.665 176.79 176.055 177.11 176.556C177.44 177.057 177.606 177.639 177.606 178.3C177.606 178.951 177.44 179.532 177.11 180.044C176.79 180.545 176.347 180.935 175.782 181.212C175.216 181.489 174.566 181.628 173.83 181.628C173.104 181.628 172.454 181.489 171.878 181.212C171.312 180.935 170.864 180.545 170.534 180.044C170.214 179.532 170.054 178.951 170.054 178.3C170.054 177.639 170.214 177.057 170.534 176.556C170.864 176.055 171.312 175.665 171.878 175.388C172.454 175.1 173.104 174.956 173.83 174.956ZM173.83 176.076C173.35 176.076 172.923 176.172 172.55 176.364C172.176 176.545 171.883 176.807 171.67 177.148C171.456 177.479 171.35 177.863 171.35 178.3C171.35 178.727 171.456 179.111 171.67 179.452C171.883 179.783 172.176 180.044 172.55 180.236C172.923 180.428 173.35 180.524 173.83 180.524C174.31 180.524 174.736 180.428 175.11 180.236C175.483 180.044 175.776 179.783 175.99 179.452C176.203 179.111 176.31 178.727 176.31 178.3C176.31 177.863 176.203 177.479 175.99 177.148C175.776 176.807 175.483 176.545 175.11 176.364C174.736 176.172 174.31 176.076 173.83 176.076ZM194.661 174.268H195.973V188.748H194.661V174.268ZM185.045 175.692H186.357V184.652H185.045V175.692ZM185.045 183.868H186.229C187.338 183.868 188.463 183.82 189.605 183.724C190.757 183.617 191.941 183.441 193.157 183.196L193.333 184.316C192.074 184.583 190.863 184.769 189.701 184.876C188.538 184.972 187.381 185.02 186.229 185.02H185.045V183.868ZM208.323 174.268H209.651V188.764H208.323V174.268ZM209.347 179.98H212.019V181.084H209.347V179.98ZM199.155 184.028H200.291C201.177 184.028 201.987 184.017 202.723 183.996C203.47 183.964 204.185 183.911 204.867 183.836C205.561 183.761 206.265 183.66 206.979 183.532L207.139 184.668C206.393 184.796 205.667 184.897 204.963 184.972C204.27 185.047 203.545 185.095 202.787 185.116C202.03 185.137 201.198 185.148 200.291 185.148H199.155V184.028ZM199.155 175.676H205.859V176.764H200.467V184.54H199.155V175.676ZM213.282 186.636C213.282 186.241 213.378 185.964 213.57 185.804C213.762 185.644 213.991 185.564 214.258 185.564C214.535 185.564 214.77 185.644 214.962 185.804C215.165 185.964 215.266 186.241 215.266 186.636C215.266 187.02 215.165 187.297 214.962 187.468C214.77 187.639 214.535 187.724 214.258 187.724C213.991 187.724 213.762 187.639 213.57 187.468C213.378 187.297 213.282 187.02 213.282 186.636Z" fill="#534F4B"/>
<rect x="24" y="214.5" width="292" height="658" fill="#F1F1F1"/>
</svg>
