<svg width="343" height="359" viewBox="0 0 343 359" fill="none" xmlns="http://www.w3.org/2000/svg">
<rect width="343" height="358.444" rx="8" fill="#F1F1F1"/>
<path d="M45.4 57.72C45.4 60.0133 45.2133 62.0667 44.84 63.88C44.4933 65.6933 43.92 67.24 43.12 68.52C42.3467 69.7733 41.32 70.7333 40.04 71.4C38.7867 72.0667 37.24 72.4 35.4 72.4C33.1067 72.4 31.2267 71.8133 29.76 70.64C28.2933 69.4667 27.2 67.7867 26.48 65.6C25.7867 63.4133 25.44 60.7867 25.44 57.72C25.44 54.6267 25.76 51.9867 26.4 49.8C27.04 47.6133 28.0933 45.9333 29.56 44.76C31.0267 43.5867 32.9733 43 35.4 43C37.6933 43 39.5733 43.5867 41.04 44.76C42.5067 45.9067 43.6 47.5867 44.32 49.8C45.04 51.9867 45.4 54.6267 45.4 57.72ZM31.44 57.72C31.44 59.88 31.56 61.6933 31.8 63.16C32.04 64.6 32.44 65.6933 33 66.44C33.5867 67.16 34.3867 67.52 35.4 67.52C36.4133 67.52 37.2 67.16 37.76 66.44C38.3467 65.72 38.76 64.64 39 63.2C39.2667 61.7333 39.4 59.9067 39.4 57.72C39.4 55.5333 39.2667 53.72 39 52.28C38.76 50.8133 38.3467 49.72 37.76 49C37.2 48.2533 36.4133 47.88 35.4 47.88C34.3867 47.88 33.5867 48.2533 33 49C32.44 49.72 32.04 50.8133 31.8 52.28C31.56 53.72 31.44 55.5333 31.44 57.72ZM62.6106 72H56.5706V55.48C56.5706 55.0267 56.5706 54.4667 56.5706 53.8C56.5973 53.1333 56.624 52.44 56.6506 51.72C56.6773 51 56.704 50.36 56.7306 49.8C56.5973 49.96 56.304 50.2533 55.8506 50.68C55.424 51.08 55.024 51.44 54.6506 51.76L51.3706 54.4L48.4506 50.76L57.6506 43.44H62.6106V72Z" fill="#B73D24"/>
<path d="M34.731 109.366C34.731 110.052 34.584 110.647 34.29 111.151C34.01 111.655 33.625 112.068 33.135 112.39C32.659 112.712 32.113 112.95 31.497 113.104V113.167C32.701 113.307 33.611 113.671 34.227 114.259C34.857 114.847 35.172 115.638 35.172 116.632C35.172 117.5 34.955 118.284 34.521 118.984C34.101 119.67 33.443 120.216 32.547 120.622C31.665 121.014 30.524 121.21 29.124 121.21C28.298 121.21 27.528 121.14 26.814 121C26.1 120.86 25.428 120.657 24.798 120.391V117.703C25.442 118.025 26.114 118.27 26.814 118.438C27.528 118.606 28.186 118.69 28.788 118.69C29.922 118.69 30.713 118.494 31.161 118.102C31.623 117.71 31.854 117.157 31.854 116.443C31.854 116.023 31.749 115.673 31.539 115.393C31.329 115.099 30.958 114.882 30.426 114.742C29.908 114.588 29.18 114.511 28.242 114.511H27.108V112.075H28.263C29.187 112.075 29.887 111.991 30.363 111.823C30.853 111.641 31.182 111.403 31.35 111.109C31.532 110.801 31.623 110.451 31.623 110.059C31.623 109.527 31.455 109.114 31.119 108.82C30.797 108.512 30.251 108.358 29.481 108.358C29.005 108.358 28.571 108.421 28.179 108.547C27.787 108.659 27.43 108.799 27.108 108.967C26.8 109.135 26.527 109.296 26.289 109.45L24.819 107.266C25.211 106.986 25.645 106.734 26.121 106.51C26.611 106.286 27.15 106.111 27.738 105.985C28.326 105.859 28.984 105.796 29.712 105.796C31.252 105.796 32.47 106.111 33.366 106.741C34.276 107.357 34.731 108.232 34.731 109.366ZM45.0476 105.943H50.8016V108.19H45.0476V105.943ZM45.0476 110.269H50.8016V112.495H45.0476V110.269ZM41.8136 104.452C42.7936 104.452 43.6686 104.662 44.4386 105.082C45.2086 105.488 45.8176 106.048 46.2656 106.762C46.7276 107.476 46.9586 108.295 46.9586 109.219C46.9586 110.129 46.7276 110.941 46.2656 111.655C45.8176 112.369 45.2086 112.936 44.4386 113.356C43.6686 113.762 42.7936 113.965 41.8136 113.965C40.8616 113.965 39.9936 113.762 39.2096 113.356C38.4396 112.936 37.8236 112.369 37.3616 111.655C36.9136 110.941 36.6896 110.129 36.6896 109.219C36.6896 108.295 36.9136 107.476 37.3616 106.762C37.8236 106.048 38.4396 105.488 39.2096 105.082C39.9936 104.662 40.8616 104.452 41.8136 104.452ZM41.8136 106.804C41.3516 106.804 40.9316 106.902 40.5536 107.098C40.1756 107.28 39.8746 107.553 39.6506 107.917C39.4406 108.267 39.3356 108.701 39.3356 109.219C39.3356 109.709 39.4406 110.136 39.6506 110.5C39.8746 110.864 40.1756 111.144 40.5536 111.34C40.9316 111.522 41.3516 111.613 41.8136 111.613C42.3036 111.613 42.7306 111.522 43.0946 111.34C43.4726 111.144 43.7666 110.864 43.9766 110.5C44.1866 110.136 44.2916 109.709 44.2916 109.219C44.2916 108.701 44.1866 108.267 43.9766 107.917C43.7666 107.553 43.4726 107.28 43.0946 107.098C42.7306 106.902 42.3036 106.804 41.8136 106.804ZM49.9196 103.423H52.7336V114.805H49.9196V103.423ZM46.1396 115.204C47.5116 115.204 48.6876 115.358 49.6676 115.666C50.6616 115.96 51.4316 116.394 51.9776 116.968C52.5236 117.542 52.7966 118.228 52.7966 119.026C52.7966 119.824 52.5236 120.51 51.9776 121.084C51.4316 121.672 50.6616 122.113 49.6676 122.407C48.6876 122.715 47.5116 122.869 46.1396 122.869C44.7676 122.869 43.5846 122.715 42.5906 122.407C41.5966 122.113 40.8266 121.672 40.2806 121.084C39.7486 120.51 39.4826 119.824 39.4826 119.026C39.4826 118.228 39.7486 117.542 40.2806 116.968C40.8266 116.394 41.5966 115.96 42.5906 115.666C43.5846 115.358 44.7676 115.204 46.1396 115.204ZM46.1396 117.346C45.2996 117.346 44.5856 117.409 43.9976 117.535C43.4096 117.661 42.9686 117.85 42.6746 118.102C42.3806 118.34 42.2336 118.648 42.2336 119.026C42.2336 119.404 42.3806 119.719 42.6746 119.971C42.9686 120.223 43.4096 120.412 43.9976 120.538C44.5856 120.65 45.2996 120.706 46.1396 120.706C46.9936 120.706 47.7076 120.65 48.2816 120.538C48.8696 120.412 49.3106 120.223 49.6046 119.971C49.8986 119.719 50.0456 119.404 50.0456 119.026C50.0456 118.648 49.8986 118.34 49.6046 118.102C49.3106 117.85 48.8696 117.661 48.2816 117.535C47.7076 117.409 46.9936 117.346 46.1396 117.346ZM65.1849 107.707H70.0569V109.954H65.1849V107.707ZM60.7119 104.221C61.6919 104.221 62.5669 104.424 63.3369 104.83C64.1209 105.222 64.7369 105.768 65.1849 106.468C65.6329 107.154 65.8569 107.952 65.8569 108.862C65.8569 109.758 65.6329 110.556 65.1849 111.256C64.7369 111.956 64.1209 112.509 63.3369 112.915C62.5669 113.307 61.6919 113.503 60.7119 113.503C59.7459 113.503 58.8709 113.307 58.0869 112.915C57.3169 112.509 56.7079 111.956 56.2599 111.256C55.8119 110.556 55.5879 109.758 55.5879 108.862C55.5879 107.952 55.8119 107.154 56.2599 106.468C56.7079 105.768 57.3169 105.222 58.0869 104.83C58.8709 104.424 59.7459 104.221 60.7119 104.221ZM60.7119 106.531C60.2359 106.531 59.8089 106.622 59.4309 106.804C59.0669 106.986 58.7799 107.252 58.5699 107.602C58.3599 107.952 58.2549 108.372 58.2549 108.862C58.2549 109.338 58.3599 109.751 58.5699 110.101C58.7799 110.451 59.0669 110.717 59.4309 110.899C59.8089 111.081 60.2359 111.172 60.7119 111.172C61.1879 111.172 61.6079 111.081 61.9719 110.899C62.3499 110.717 62.6439 110.451 62.8539 110.101C63.0639 109.751 63.1689 109.338 63.1689 108.862C63.1689 108.372 63.0639 107.952 62.8539 107.602C62.6439 107.252 62.3499 106.986 61.9719 106.804C61.6079 106.622 61.1879 106.531 60.7119 106.531ZM68.8179 103.423H71.6319V113.86H68.8179V103.423ZM58.7169 114.721H61.4889V116.548H68.8599V114.721H71.6319V122.659H58.7169V114.721ZM61.4889 118.69V120.433H68.8599V118.69H61.4889ZM79.7153 103.969C80.7233 103.969 81.6123 104.165 82.3823 104.557C83.1663 104.935 83.7823 105.46 84.2303 106.132C84.6923 106.79 84.9233 107.553 84.9233 108.421C84.9233 109.289 84.6923 110.059 84.2303 110.731C83.7823 111.389 83.1663 111.907 82.3823 112.285C81.6123 112.663 80.7233 112.852 79.7153 112.852C78.7353 112.852 77.8533 112.663 77.0693 112.285C76.2853 111.907 75.6623 111.389 75.2003 110.731C74.7523 110.059 74.5283 109.289 74.5283 108.421C74.5283 107.553 74.7523 106.783 75.2003 106.111C75.6623 105.439 76.2853 104.914 77.0693 104.536C77.8533 104.158 78.7353 103.969 79.7153 103.969ZM79.7363 106.237C79.2603 106.237 78.8333 106.328 78.4553 106.51C78.0773 106.678 77.7763 106.923 77.5523 107.245C77.3423 107.567 77.2373 107.959 77.2373 108.421C77.2373 108.883 77.3423 109.282 77.5523 109.618C77.7763 109.94 78.0703 110.185 78.4343 110.353C78.8123 110.521 79.2463 110.605 79.7363 110.605C80.2123 110.605 80.6323 110.521 80.9963 110.353C81.3743 110.185 81.6683 109.94 81.8783 109.618C82.1023 109.282 82.2143 108.883 82.2143 108.421C82.2143 107.959 82.1023 107.567 81.8783 107.245C81.6683 106.923 81.3743 106.678 80.9963 106.51C80.6183 106.328 80.1983 106.237 79.7363 106.237ZM87.6113 103.423H90.4043V113.146H87.6113V103.423ZM77.4473 113.944H90.4043V119.257H80.2193V121.63H77.4683V117.241H87.6323V116.086H77.4473V113.944ZM77.4683 120.475H90.8873V122.659H77.4683V120.475ZM111.524 103.381H114.317V122.89H111.524V103.381ZM103.838 104.746C104.832 104.746 105.714 105.033 106.484 105.607C107.254 106.167 107.856 106.972 108.29 108.022C108.738 109.058 108.962 110.283 108.962 111.697C108.962 113.125 108.738 114.364 108.29 115.414C107.856 116.45 107.254 117.255 106.484 117.829C105.714 118.389 104.832 118.669 103.838 118.669C102.858 118.669 101.983 118.389 101.213 117.829C100.443 117.255 99.8337 116.45 99.3857 115.414C98.9517 114.364 98.7347 113.125 98.7347 111.697C98.7347 110.283 98.9517 109.058 99.3857 108.022C99.8337 106.972 100.443 106.167 101.213 105.607C101.983 105.033 102.858 104.746 103.838 104.746ZM103.838 107.287C103.362 107.287 102.942 107.455 102.578 107.791C102.214 108.127 101.927 108.624 101.717 109.282C101.521 109.926 101.423 110.731 101.423 111.697C101.423 112.649 101.521 113.461 101.717 114.133C101.927 114.791 102.214 115.288 102.578 115.624C102.942 115.96 103.362 116.128 103.838 116.128C104.328 116.128 104.755 115.96 105.119 115.624C105.483 115.288 105.763 114.791 105.959 114.133C106.169 113.461 106.274 112.649 106.274 111.697C106.274 110.731 106.169 109.926 105.959 109.282C105.763 108.624 105.483 108.127 105.119 107.791C104.755 107.455 104.328 107.287 103.838 107.287ZM131.073 103.402H133.719V122.848H131.073V103.402ZM128.532 110.899H131.766V113.146H128.532V110.899ZM126.726 103.738H129.33V121.945H126.726V103.738ZM117.843 105.565H120.636V116.8H117.843V105.565ZM117.843 115.729H119.187C120.125 115.729 121.133 115.701 122.211 115.645C123.303 115.575 124.451 115.421 125.655 115.183L125.907 117.577C124.647 117.801 123.457 117.948 122.337 118.018C121.217 118.088 120.167 118.123 119.187 118.123H117.843V115.729ZM154.377 103.423H157.17V117.598H154.377V103.423ZM144.213 120.286H157.674V122.533H144.213V120.286ZM144.213 116.233H147.006V121.441H144.213V116.233ZM145.578 104.494H147.888V106.384C147.888 107.644 147.685 108.848 147.279 109.996C146.887 111.144 146.285 112.152 145.473 113.02C144.661 113.888 143.625 114.546 142.365 114.994L140.937 112.768C142.029 112.39 142.911 111.865 143.583 111.193C144.269 110.521 144.773 109.765 145.095 108.925C145.417 108.085 145.578 107.238 145.578 106.384V104.494ZM146.145 104.494H148.413V106.384C148.413 107.014 148.497 107.637 148.665 108.253C148.847 108.855 149.12 109.429 149.484 109.975C149.848 110.507 150.317 110.99 150.891 111.424C151.465 111.858 152.144 112.201 152.928 112.453L151.521 114.658C150.289 114.252 149.274 113.636 148.476 112.81C147.678 111.984 147.09 111.018 146.712 109.912C146.334 108.806 146.145 107.63 146.145 106.384V104.494ZM164.266 106.825H166.534V107.518C166.534 108.652 166.338 109.723 165.946 110.731C165.554 111.739 164.952 112.614 164.14 113.356C163.342 114.098 162.327 114.651 161.095 115.015L159.772 112.852C160.822 112.544 161.676 112.117 162.334 111.571C163.006 111.011 163.496 110.381 163.804 109.681C164.112 108.967 164.266 108.246 164.266 107.518V106.825ZM164.791 106.825H167.059V107.518C167.059 108.022 167.143 108.519 167.311 109.009C167.493 109.499 167.766 109.961 168.13 110.395C168.508 110.829 168.984 111.214 169.558 111.55C170.132 111.886 170.804 112.159 171.574 112.369L170.314 114.553C169.082 114.217 168.053 113.706 167.227 113.02C166.415 112.32 165.806 111.494 165.4 110.542C164.994 109.59 164.791 108.582 164.791 107.518V106.825ZM160.444 105.418H170.902V107.623H160.444V105.418ZM164.266 103.339H167.059V106.3H164.266V103.339ZM170.356 108.589H174.052V110.836H170.356V108.589ZM173.38 103.423H176.194V115.162H173.38V103.423ZM169.6 115.477C171.658 115.477 173.282 115.799 174.472 116.443C175.662 117.087 176.257 117.997 176.257 119.173C176.257 120.335 175.662 121.238 174.472 121.882C173.282 122.54 171.658 122.869 169.6 122.869C167.542 122.869 165.918 122.54 164.728 121.882C163.538 121.238 162.943 120.335 162.943 119.173C162.943 117.997 163.538 117.087 164.728 116.443C165.918 115.799 167.542 115.477 169.6 115.477ZM169.6 117.619C168.76 117.619 168.046 117.675 167.458 117.787C166.884 117.899 166.45 118.074 166.156 118.312C165.862 118.536 165.715 118.823 165.715 119.173C165.715 119.509 165.862 119.796 166.156 120.034C166.45 120.272 166.884 120.447 167.458 120.559C168.046 120.671 168.76 120.727 169.6 120.727C170.454 120.727 171.168 120.671 171.742 120.559C172.316 120.447 172.743 120.272 173.023 120.034C173.317 119.796 173.464 119.509 173.464 119.173C173.464 118.823 173.317 118.536 173.023 118.312C172.743 118.074 172.316 117.899 171.742 117.787C171.168 117.675 170.454 117.619 169.6 117.619ZM188.624 109.492H193.748V111.739H188.624V109.492ZM183.332 104.893H185.579V107.728C185.579 108.946 185.474 110.129 185.264 111.277C185.054 112.425 184.732 113.496 184.298 114.49C183.864 115.484 183.311 116.359 182.639 117.115C181.981 117.871 181.197 118.48 180.287 118.942L178.544 116.716C179.37 116.324 180.077 115.813 180.665 115.183C181.267 114.553 181.764 113.839 182.156 113.041C182.562 112.229 182.856 111.375 183.038 110.479C183.234 109.569 183.332 108.652 183.332 107.728V104.893ZM183.899 104.893H186.125V107.728C186.125 108.638 186.216 109.541 186.398 110.437C186.58 111.319 186.853 112.145 187.217 112.915C187.595 113.685 188.078 114.371 188.666 114.973C189.254 115.561 189.954 116.037 190.766 116.401L189.086 118.627C188.176 118.179 187.392 117.591 186.734 116.863C186.076 116.121 185.537 115.274 185.117 114.322C184.711 113.37 184.403 112.334 184.193 111.214C183.997 110.094 183.899 108.932 183.899 107.728V104.893ZM192.341 103.381H195.134V122.89H192.341V103.381ZM213.272 107.77H216.947V110.017H213.272V107.77ZM216.212 103.423H219.005V114.049H216.212V103.423ZM206.111 114.826H208.883V116.611H216.254V114.826H219.005V122.659H206.111V114.826ZM208.883 118.753V120.412H216.254V118.753H208.883ZM207.245 104.914H209.513V106.153C209.513 107.371 209.317 108.533 208.925 109.639C208.533 110.745 207.931 111.711 207.119 112.537C206.321 113.363 205.292 113.986 204.032 114.406L202.646 112.201C203.444 111.921 204.13 111.571 204.704 111.151C205.292 110.731 205.768 110.248 206.132 109.702C206.51 109.156 206.79 108.582 206.972 107.98C207.154 107.378 207.245 106.769 207.245 106.153V104.914ZM207.833 104.914H210.059V106.132C210.059 106.888 210.213 107.644 210.521 108.4C210.829 109.142 211.305 109.814 211.949 110.416C212.607 111.018 213.447 111.494 214.469 111.844L213.104 114.028C211.9 113.622 210.906 113.02 210.122 112.222C209.352 111.424 208.778 110.5 208.4 109.45C208.022 108.4 207.833 107.294 207.833 106.132V104.914ZM203.402 104.305H213.86V106.51H203.402V104.305ZM228.978 103.969H231.414V104.893C231.414 105.635 231.295 106.356 231.057 107.056C230.833 107.742 230.497 108.386 230.049 108.988C229.601 109.59 229.055 110.129 228.411 110.605C227.767 111.081 227.018 111.487 226.164 111.823C225.324 112.145 224.4 112.39 223.392 112.558L222.3 110.311C223.196 110.199 223.994 110.01 224.694 109.744C225.408 109.478 226.031 109.163 226.563 108.799C227.109 108.435 227.557 108.036 227.907 107.602C228.257 107.168 228.523 106.72 228.705 106.258C228.887 105.796 228.978 105.341 228.978 104.893V103.969ZM229.503 103.969H231.939V104.893C231.939 105.341 232.03 105.796 232.212 106.258C232.394 106.72 232.66 107.168 233.01 107.602C233.36 108.036 233.801 108.435 234.333 108.799C234.879 109.163 235.502 109.478 236.202 109.744C236.916 110.01 237.721 110.199 238.617 110.311L237.525 112.558C236.503 112.39 235.572 112.145 234.732 111.823C233.892 111.487 233.15 111.081 232.506 110.605C231.862 110.115 231.316 109.569 230.868 108.967C230.42 108.365 230.077 107.721 229.839 107.035C229.615 106.349 229.503 105.635 229.503 104.893V103.969ZM228.978 115.729H231.771V122.869H228.978V115.729ZM221.649 113.965H239.247V116.233H221.649V113.965ZM245.582 118.333H263.201V120.601H245.582V118.333ZM252.974 114.175H255.746V118.879H252.974V114.175ZM247.43 104.641H250.223V107.644H258.497V104.641H261.269V114.763H247.43V104.641ZM250.223 109.828V112.537H258.497V109.828H250.223ZM268.807 105.586H271.096V106.804C271.096 108.036 270.893 109.205 270.487 110.311C270.095 111.417 269.493 112.39 268.681 113.23C267.869 114.056 266.84 114.672 265.594 115.078L264.208 112.873C265.272 112.523 266.14 112.033 266.812 111.403C267.498 110.759 268.002 110.038 268.324 109.24C268.646 108.428 268.807 107.616 268.807 106.804V105.586ZM269.374 105.586H271.621V106.804C271.621 107.56 271.775 108.295 272.083 109.009C272.391 109.709 272.867 110.339 273.511 110.899C274.169 111.459 275.023 111.9 276.073 112.222L274.729 114.406C273.497 114.042 272.482 113.482 271.684 112.726C270.9 111.956 270.319 111.067 269.941 110.059C269.563 109.037 269.374 107.952 269.374 106.804V105.586ZM264.922 104.704H275.443V106.93H264.922V104.704ZM276.976 103.423H279.769V114.952H276.976V103.423ZM279.013 107.875H282.352V110.164H279.013V107.875ZM273.427 115.288C274.785 115.288 275.954 115.442 276.934 115.75C277.914 116.044 278.67 116.471 279.202 117.031C279.734 117.591 280 118.27 280 119.068C280 119.866 279.734 120.545 279.202 121.105C278.67 121.679 277.914 122.113 276.934 122.407C275.954 122.715 274.785 122.869 273.427 122.869C272.083 122.869 270.914 122.715 269.92 122.407C268.94 122.113 268.177 121.679 267.631 121.105C267.099 120.545 266.833 119.866 266.833 119.068C266.833 118.27 267.099 117.591 267.631 117.031C268.177 116.471 268.94 116.044 269.92 115.75C270.914 115.442 272.083 115.288 273.427 115.288ZM273.427 117.472C272.601 117.472 271.908 117.528 271.348 117.64C270.788 117.752 270.361 117.927 270.067 118.165C269.773 118.403 269.626 118.704 269.626 119.068C269.626 119.446 269.773 119.754 270.067 119.992C270.361 120.23 270.788 120.412 271.348 120.538C271.908 120.65 272.601 120.706 273.427 120.706C274.253 120.706 274.946 120.65 275.506 120.538C276.08 120.412 276.507 120.23 276.787 119.992C277.081 119.754 277.228 119.446 277.228 119.068C277.228 118.704 277.081 118.403 276.787 118.165C276.507 117.927 276.08 117.752 275.506 117.64C274.946 117.528 274.253 117.472 273.427 117.472Z" fill="#534F4B"/>
<path d="M35.808 143.768H37.072V158.248H35.808V143.768ZM33.36 149.576H36.144V150.664H33.36V149.576ZM32.528 144.088H33.76V157.496H32.528V144.088ZM25.312 153.56H26.256C26.9707 153.56 27.616 153.555 28.192 153.544C28.7787 153.523 29.3333 153.48 29.856 153.416C30.3893 153.352 30.9333 153.261 31.488 153.144L31.616 154.248C31.04 154.365 30.48 154.456 29.936 154.52C29.4027 154.584 28.8373 154.627 28.24 154.648C27.6533 154.669 26.992 154.68 26.256 154.68H25.312V153.56ZM25.312 145.528H30.688V146.616H26.64V154.072H25.312V145.528ZM42.8308 151.608H44.1588V155.736H42.8308V151.608ZM47.2788 151.624H48.6068V155.752H47.2788V151.624ZM39.1988 155.384H52.3188V156.488H39.1988V155.384ZM40.3508 145.112H51.0868V146.2H40.3508V145.112ZM40.3828 150.888H51.0548V151.976H40.3828V150.888ZM42.5908 145.992H43.9188V151.112H42.5908V145.992ZM47.5188 145.992H48.8308V151.112H47.5188V145.992ZM64.1255 143.768H65.4535V151.96H64.1255V143.768ZM54.4935 144.616H55.8215V150.504H54.4935V144.616ZM54.4935 149.768H55.6615C56.8775 149.768 58.0402 149.72 59.1495 149.624C60.2588 149.528 61.3895 149.357 62.5415 149.112L62.7335 150.216C61.5388 150.461 60.3762 150.637 59.2455 150.744C58.1148 150.84 56.9202 150.888 55.6615 150.888H54.4935V149.768ZM56.1095 152.664H65.4535V158.04H56.1095V152.664ZM64.1415 153.72H57.4055V156.968H64.1415V153.72ZM67.9963 149.816H81.0843V150.888H67.9963V149.816ZM69.7403 147.576H79.5163V148.648H69.7403V147.576ZM69.7403 144.248H79.3723V145.32H71.0523V148.424H69.7403V144.248ZM69.5803 152.152H79.3883V155.544H70.9083V157.368H69.6123V154.552H78.0923V153.192H69.5803V152.152ZM69.6123 157.016H79.8203V158.072H69.6123V157.016ZM87.083 144.824C87.8403 144.824 88.507 144.968 89.083 145.256C89.6697 145.533 90.1283 145.928 90.459 146.44C90.7897 146.952 90.955 147.549 90.955 148.232C90.955 148.904 90.7897 149.501 90.459 150.024C90.1283 150.536 89.6697 150.936 89.083 151.224C88.507 151.501 87.8403 151.64 87.083 151.64C86.3363 151.64 85.6697 151.501 85.083 151.224C84.4963 150.936 84.0323 150.536 83.691 150.024C83.3603 149.501 83.195 148.904 83.195 148.232C83.195 147.549 83.3603 146.952 83.691 146.44C84.0323 145.928 84.4963 145.533 85.083 145.256C85.6697 144.968 86.3363 144.824 87.083 144.824ZM87.083 145.976C86.5923 145.976 86.1497 146.072 85.755 146.264C85.371 146.445 85.067 146.707 84.843 147.048C84.619 147.389 84.507 147.784 84.507 148.232C84.507 148.68 84.619 149.075 84.843 149.416C85.067 149.757 85.371 150.024 85.755 150.216C86.1497 150.397 86.5923 150.488 87.083 150.488C87.5843 150.488 88.027 150.397 88.411 150.216C88.795 150.024 89.099 149.757 89.323 149.416C89.547 149.075 89.659 148.68 89.659 148.232C89.659 147.784 89.547 147.389 89.323 147.048C89.099 146.707 88.795 146.445 88.411 146.264C88.027 146.072 87.5843 145.976 87.083 145.976ZM92.859 143.768H94.187V158.264H92.859V143.768ZM82.651 155.096L82.475 153.976C83.3603 153.976 84.331 153.971 85.387 153.96C86.443 153.939 87.531 153.896 88.651 153.832C89.7817 153.757 90.8697 153.64 91.915 153.48L92.027 154.456C90.939 154.659 89.835 154.808 88.715 154.904C87.6057 154.989 86.5337 155.043 85.499 155.064C84.4643 155.085 83.515 155.096 82.651 155.096ZM103.878 144.984C104.507 144.984 105.051 145.187 105.51 145.592C105.979 145.997 106.342 146.579 106.598 147.336C106.854 148.093 106.982 148.984 106.982 150.008C106.982 151.043 106.854 151.939 106.598 152.696C106.342 153.453 105.979 154.04 105.51 154.456C105.051 154.861 104.507 155.064 103.878 155.064C103.27 155.064 102.731 154.861 102.262 154.456C101.803 154.04 101.446 153.453 101.19 152.696C100.934 151.939 100.806 151.043 100.806 150.008C100.806 148.984 100.934 148.093 101.19 147.336C101.446 146.579 101.803 145.997 102.262 145.592C102.731 145.187 103.27 144.984 103.878 144.984ZM103.878 146.216C103.505 146.216 103.179 146.371 102.902 146.68C102.625 146.989 102.411 147.427 102.262 147.992C102.113 148.557 102.038 149.229 102.038 150.008C102.038 150.787 102.113 151.464 102.262 152.04C102.411 152.605 102.625 153.043 102.902 153.352C103.179 153.661 103.505 153.816 103.878 153.816C104.262 153.816 104.593 153.661 104.87 153.352C105.147 153.043 105.361 152.605 105.51 152.04C105.67 151.464 105.75 150.787 105.75 150.008C105.75 149.229 105.67 148.557 105.51 147.992C105.361 147.427 105.147 146.989 104.87 146.68C104.593 146.371 104.262 146.216 103.878 146.216ZM111.654 143.768H112.934V158.248H111.654V143.768ZM109.35 149.496H112.134V150.6H109.35V149.496ZM108.438 144.072H109.702V157.512H108.438V144.072ZM115.653 153.656H116.789C117.674 153.656 118.485 153.645 119.221 153.624C119.957 153.603 120.666 153.56 121.349 153.496C122.042 153.432 122.751 153.336 123.477 153.208L123.605 154.296C122.869 154.424 122.149 154.525 121.445 154.6C120.741 154.664 120.01 154.707 119.253 154.728C118.506 154.749 117.685 154.76 116.789 154.76H115.653V153.656ZM115.653 145.08H122.389V146.184H116.981V154.04H115.653V145.08ZM116.645 149.144H122.069V150.216H116.645V149.144ZM124.821 143.768H126.149V158.248H124.821V143.768ZM125.845 149.576H128.517V150.696H125.845V149.576ZM131.188 148.12H141.028V149.192H131.188V148.12ZM129.412 151.128H142.532V152.216H129.412V151.128ZM131.188 144.296H132.5V148.664H131.188V144.296ZM131.092 156.808H141.108V157.896H131.092V156.808ZM131.092 153.672H132.42V157.096H131.092V153.672ZM148.239 145.224H154.879V154.568H148.239V145.224ZM153.567 146.28H149.535V153.496H153.567V146.28ZM157.455 143.768H158.783V158.248H157.455V143.768ZM158.479 149.544H161.151V150.664H158.479V149.544ZM168.589 144.088C169.635 144.088 170.536 144.2 171.293 144.424C172.061 144.637 172.648 144.947 173.053 145.352C173.469 145.757 173.677 146.253 173.677 146.84C173.677 147.405 173.469 147.896 173.053 148.312C172.648 148.717 172.061 149.027 171.293 149.24C170.536 149.453 169.635 149.56 168.589 149.56C167.555 149.56 166.653 149.453 165.885 149.24C165.128 149.027 164.541 148.717 164.125 148.312C163.709 147.896 163.501 147.405 163.501 146.84C163.501 146.253 163.709 145.757 164.125 145.352C164.541 144.947 165.128 144.637 165.885 144.424C166.653 144.2 167.555 144.088 168.589 144.088ZM168.589 145.144C167.832 145.144 167.171 145.213 166.605 145.352C166.051 145.48 165.619 145.672 165.309 145.928C165.011 146.173 164.861 146.477 164.861 146.84C164.861 147.181 165.011 147.48 165.309 147.736C165.619 147.981 166.051 148.173 166.605 148.312C167.171 148.44 167.832 148.504 168.589 148.504C169.357 148.504 170.019 148.44 170.573 148.312C171.139 148.173 171.571 147.981 171.869 147.736C172.168 147.48 172.317 147.181 172.317 146.84C172.317 146.477 172.168 146.173 171.869 145.928C171.571 145.672 171.139 145.48 170.573 145.352C170.019 145.213 169.357 145.144 168.589 145.144ZM163.661 153.288H173.533V158.056H163.661V153.288ZM172.237 154.36H164.957V156.968H172.237V154.36ZM162.061 150.792H175.133V151.88H162.061V150.792ZM182.988 144.024C184.588 144.024 185.836 144.243 186.732 144.68C187.628 145.107 188.076 145.72 188.076 146.52C188.076 147.331 187.628 147.955 186.732 148.392C185.836 148.819 184.588 149.032 182.988 149.032C181.399 149.032 180.151 148.819 179.244 148.392C178.348 147.955 177.9 147.331 177.9 146.52C177.9 145.72 178.348 145.107 179.244 144.68C180.151 144.243 181.399 144.024 182.988 144.024ZM182.988 145.016C182.209 145.016 181.543 145.075 180.988 145.192C180.433 145.309 180.007 145.48 179.708 145.704C179.42 145.928 179.276 146.2 179.276 146.52C179.276 146.84 179.42 147.117 179.708 147.352C180.007 147.576 180.433 147.747 180.988 147.864C181.543 147.971 182.209 148.024 182.988 148.024C183.777 148.024 184.449 147.971 185.004 147.864C185.559 147.747 185.98 147.576 186.268 147.352C186.567 147.117 186.716 146.84 186.716 146.52C186.716 146.2 186.567 145.928 186.268 145.704C185.98 145.48 185.559 145.309 185.004 145.192C184.449 145.075 183.777 145.016 182.988 145.016ZM176.46 150.008H189.532V151.08H176.46V150.008ZM178.044 152.312H187.852V155.576H179.372V157.32H178.076V154.6H186.556V153.336H178.044V152.312ZM178.076 157.048H188.284V158.088H178.076V157.048ZM196.375 148.632H206.295V149.72H196.375V148.632ZM194.695 151.88H207.815V152.984H194.695V151.88ZM200.535 152.472H201.863V158.248H200.535V152.472ZM196.375 144.504H197.703V149.16H196.375V144.504ZM210.726 144.712H219.782V145.784H210.726V144.712ZM209.094 150.92H222.166V152.024H209.094V150.92ZM214.934 151.656H216.262V158.264H214.934V151.656ZM219.142 144.712H220.454V145.976C220.454 146.477 220.443 147.005 220.422 147.56C220.411 148.115 220.368 148.728 220.294 149.4C220.219 150.061 220.091 150.797 219.91 151.608L218.582 151.432C218.87 150.269 219.035 149.251 219.078 148.376C219.12 147.501 219.142 146.701 219.142 145.976V144.712ZM223.493 155.304H236.613V156.408H223.493V155.304ZM229.365 151.832H230.677V155.624H229.365V151.832ZM225.029 144.792H226.357V147.368H233.717V144.792H235.029V152.2H225.029V144.792ZM226.357 148.456V151.112H233.717V148.456H226.357ZM247.683 143.768H249.011V158.264H247.683V143.768ZM248.707 149.48H251.379V150.584H248.707V149.48ZM238.515 153.528H239.651C240.537 153.528 241.347 153.517 242.083 153.496C242.83 153.464 243.545 153.411 244.227 153.336C244.921 153.261 245.625 153.16 246.339 153.032L246.499 154.168C245.753 154.296 245.027 154.397 244.323 154.472C243.63 154.547 242.905 154.595 242.147 154.616C241.39 154.637 240.558 154.648 239.651 154.648H238.515V153.528ZM238.515 145.176H245.219V146.264H239.827V154.04H238.515V145.176ZM253.954 150.536H263.89V151.608H253.954V150.536ZM252.29 155.32H265.41V156.424H252.29V155.32ZM258.162 151H259.474V155.752H258.162V151ZM253.954 144.92H263.746V146.024H255.282V151.016H253.954V144.92ZM274.077 144.904H275.149V146.056C275.149 146.888 274.978 147.656 274.637 148.36C274.296 149.064 273.816 149.677 273.197 150.2C272.589 150.712 271.874 151.096 271.053 151.352L270.397 150.312C271.133 150.088 271.773 149.763 272.317 149.336C272.872 148.909 273.304 148.413 273.613 147.848C273.922 147.283 274.077 146.685 274.077 146.056V144.904ZM274.317 144.904H275.405V146.04C275.405 146.605 275.554 147.149 275.853 147.672C276.152 148.184 276.568 148.637 277.101 149.032C277.634 149.427 278.258 149.731 278.973 149.944L278.349 150.984C277.538 150.749 276.829 150.392 276.221 149.912C275.624 149.421 275.154 148.845 274.813 148.184C274.482 147.523 274.317 146.808 274.317 146.04V144.904ZM270.845 144.568H278.589V145.656H270.845V144.568ZM280.429 143.768H281.757V151.224H280.429V143.768ZM281.165 146.92H283.885V148.008H281.165V146.92ZM272.557 151.912H281.757V155.416H273.901V157.64H272.605V154.424H280.445V152.952H272.557V151.912ZM272.605 157.064H282.269V158.104H272.605V157.064ZM298.664 143.768H299.992V151.128H298.664V143.768ZM299.4 146.888H302.12V147.992H299.4V146.888ZM290.792 151.816H299.992V155.368H292.136V157.544H290.84V154.376H298.68V152.872H290.792V151.816ZM290.84 156.984H300.504V158.056H290.84V156.984ZM292.76 144.296C293.485 144.296 294.125 144.429 294.68 144.696C295.245 144.963 295.688 145.341 296.008 145.832C296.328 146.312 296.488 146.872 296.488 147.512C296.488 148.141 296.328 148.701 296.008 149.192C295.688 149.672 295.245 150.051 294.68 150.328C294.125 150.595 293.485 150.728 292.76 150.728C292.045 150.728 291.405 150.595 290.84 150.328C290.275 150.051 289.827 149.672 289.496 149.192C289.176 148.701 289.016 148.136 289.016 147.496C289.016 146.867 289.176 146.312 289.496 145.832C289.827 145.341 290.275 144.963 290.84 144.696C291.405 144.429 292.045 144.296 292.76 144.296ZM292.76 145.384C292.291 145.384 291.869 145.475 291.496 145.656C291.133 145.837 290.845 146.088 290.632 146.408C290.419 146.717 290.312 147.085 290.312 147.512C290.312 147.928 290.419 148.296 290.632 148.616C290.845 148.936 291.133 149.192 291.496 149.384C291.869 149.565 292.291 149.656 292.76 149.656C293.229 149.656 293.645 149.565 294.008 149.384C294.381 149.192 294.675 148.936 294.888 148.616C295.101 148.296 295.208 147.928 295.208 147.512C295.208 147.085 295.101 146.717 294.888 146.408C294.675 146.088 294.381 145.837 294.008 145.656C293.645 145.475 293.229 145.384 292.76 145.384ZM313.703 143.768H315.031V158.248H313.703V143.768ZM309.463 145.336H310.775C310.775 146.381 310.647 147.389 310.391 148.36C310.145 149.331 309.756 150.253 309.223 151.128C308.689 151.992 307.996 152.797 307.143 153.544C306.289 154.291 305.255 154.957 304.039 155.544L303.335 154.472C304.732 153.8 305.884 153.016 306.791 152.12C307.697 151.224 308.369 150.227 308.807 149.128C309.244 148.019 309.463 146.824 309.463 145.544V145.336ZM304.007 145.336H310.023V146.408H304.007V145.336ZM30.672 175.4H33.392V176.488H30.672V175.4ZM35.824 169.768H37.104V184.248H35.824V169.768ZM32.944 170.072H34.208V183.512H32.944V170.072ZM28.048 170.984C28.6773 170.984 29.2213 171.187 29.68 171.592C30.1493 171.997 30.512 172.579 30.768 173.336C31.024 174.093 31.152 174.984 31.152 176.008C31.152 177.043 31.024 177.939 30.768 178.696C30.512 179.453 30.1493 180.04 29.68 180.456C29.2213 180.861 28.6773 181.064 28.048 181.064C27.44 181.064 26.9013 180.861 26.432 180.456C25.9733 180.04 25.616 179.453 25.36 178.696C25.104 177.939 24.976 177.043 24.976 176.008C24.976 174.984 25.104 174.093 25.36 173.336C25.616 172.579 25.9733 171.997 26.432 171.592C26.9013 171.187 27.44 170.984 28.048 170.984ZM28.048 172.216C27.6747 172.216 27.3493 172.371 27.072 172.68C26.7947 172.989 26.5813 173.427 26.432 173.992C26.2827 174.557 26.208 175.229 26.208 176.008C26.208 176.787 26.2827 177.464 26.432 178.04C26.5813 178.605 26.7947 179.043 27.072 179.352C27.3493 179.661 27.6747 179.816 28.048 179.816C28.432 179.816 28.7627 179.661 29.04 179.352C29.328 179.043 29.5467 178.605 29.696 178.04C29.8453 177.464 29.92 176.787 29.92 176.008C29.92 175.229 29.8453 174.557 29.696 173.992C29.5467 173.427 29.328 172.989 29.04 172.68C28.7627 172.371 28.432 172.216 28.048 172.216ZM53.243 169.768H54.555V184.248H53.243V169.768ZM53.803 175.416H56.475V176.536H53.803V175.416ZM43.307 171.112H44.443V174.824H46.187V171.112H47.307V180.744H43.307V171.112ZM44.443 175.896V179.64H46.187V175.896H44.443ZM48.075 171.112H49.195V174.824H50.891V171.112H52.011V180.744H48.075V171.112ZM49.195 175.896V179.64H50.891V175.896H49.195ZM57.4338 181.32H70.5538V182.424H57.4338V181.32ZM59.0338 170.872H68.9218V175.272H60.3778V178.152H59.0658V174.2H67.6098V171.96H59.0338V170.872ZM59.0658 177.608H69.2578V178.68H59.0658V177.608ZM82.8565 169.768H84.1365V184.248H82.8565V169.768ZM76.5685 175.688H80.2165V176.76H76.5685V175.688ZM79.8485 170.152H81.0965V183.512H79.8485V170.152ZM76.7445 171.608H78.0245C78.0245 172.867 77.8432 174.077 77.4805 175.24C77.1285 176.392 76.5525 177.469 75.7525 178.472C74.9525 179.464 73.9018 180.349 72.6005 181.128L71.8325 180.168C72.9632 179.485 73.8912 178.717 74.6165 177.864C75.3418 177 75.8752 176.067 76.2165 175.064C76.5685 174.051 76.7445 172.979 76.7445 171.848V171.608ZM72.4565 171.608H77.2405V172.696H72.4565V171.608ZM93.4275 178.728H94.7875V184.248H93.4275V178.728ZM98.4035 178.728H99.7475V184.248H98.4035V178.728ZM90.0515 178.008H103.172V179.096H90.0515V178.008ZM96.5795 170.344C97.5928 170.344 98.4782 170.477 99.2355 170.744C99.9928 171 100.585 171.363 101.012 171.832C101.438 172.301 101.652 172.861 101.652 173.512C101.652 174.141 101.438 174.696 101.012 175.176C100.585 175.645 99.9928 176.008 99.2355 176.264C98.4782 176.52 97.5928 176.648 96.5795 176.648C95.5875 176.648 94.7075 176.52 93.9395 176.264C93.1822 176.008 92.5902 175.645 92.1635 175.176C91.7368 174.696 91.5235 174.141 91.5235 173.512C91.5235 172.861 91.7368 172.301 92.1635 171.832C92.5902 171.363 93.1822 171 93.9395 170.744C94.7075 170.477 95.5875 170.344 96.5795 170.344ZM96.5795 171.416C95.8542 171.416 95.2088 171.501 94.6435 171.672C94.0888 171.843 93.6568 172.088 93.3475 172.408C93.0382 172.717 92.8835 173.085 92.8835 173.512C92.8835 173.928 93.0382 174.296 93.3475 174.616C93.6568 174.925 94.0888 175.165 94.6435 175.336C95.2088 175.496 95.8542 175.576 96.5795 175.576C97.3262 175.576 97.9768 175.496 98.5315 175.336C99.0862 175.165 99.5182 174.925 99.8275 174.616C100.137 174.296 100.292 173.928 100.292 173.512C100.292 173.085 100.137 172.717 99.8275 172.408C99.5182 172.088 99.0862 171.843 98.5315 171.672C97.9768 171.501 97.3262 171.416 96.5795 171.416ZM104.466 176.904H117.554V177.976H104.466V176.904ZM110.354 174.584H111.65V177.352H110.354V174.584ZM106.114 174.168H116.018V175.24H106.114V174.168ZM106.114 170.44H115.922V171.496H107.426V174.808H106.114V170.44ZM110.994 179.016C112.541 179.016 113.752 179.245 114.626 179.704C115.501 180.152 115.938 180.792 115.938 181.624C115.938 182.456 115.501 183.096 114.626 183.544C113.752 184.003 112.541 184.232 110.994 184.232C109.448 184.232 108.232 184.003 107.346 183.544C106.472 183.096 106.034 182.456 106.034 181.624C106.034 180.792 106.472 180.152 107.346 179.704C108.232 179.245 109.448 179.016 110.994 179.016ZM110.978 180.056C110.232 180.056 109.586 180.12 109.042 180.248C108.509 180.365 108.098 180.541 107.81 180.776C107.522 181 107.378 181.283 107.378 181.624C107.378 181.955 107.522 182.237 107.81 182.472C108.098 182.707 108.509 182.883 109.042 183C109.586 183.128 110.232 183.192 110.978 183.192C111.746 183.192 112.397 183.128 112.93 183C113.474 182.883 113.89 182.707 114.178 182.472C114.466 182.237 114.61 181.955 114.61 181.624C114.61 181.283 114.466 181 114.178 180.776C113.89 180.541 113.474 180.365 112.93 180.248C112.397 180.12 111.746 180.056 110.978 180.056ZM122.513 170.584H123.617V172.072C123.617 173.011 123.446 173.875 123.105 174.664C122.774 175.453 122.305 176.147 121.697 176.744C121.1 177.331 120.385 177.779 119.553 178.088L118.849 177.016C119.596 176.749 120.241 176.371 120.785 175.88C121.329 175.389 121.75 174.819 122.049 174.168C122.358 173.507 122.513 172.808 122.513 172.072V170.584ZM122.753 170.584H123.825V172.024C123.825 172.707 123.974 173.352 124.273 173.96C124.572 174.568 124.982 175.107 125.505 175.576C126.038 176.035 126.657 176.381 127.361 176.616L126.641 177.656C125.862 177.357 125.18 176.936 124.593 176.392C124.006 175.848 123.553 175.203 123.233 174.456C122.913 173.709 122.753 172.899 122.753 172.024V170.584ZM129.441 169.768H130.769V178.328H129.441V169.768ZM126.001 178.76C127.494 178.76 128.668 179 129.521 179.48C130.385 179.96 130.817 180.632 130.817 181.496C130.817 182.349 130.385 183.016 129.521 183.496C128.668 183.976 127.494 184.216 126.001 184.216C124.508 184.216 123.329 183.976 122.465 183.496C121.612 183.016 121.185 182.349 121.185 181.496C121.185 180.632 121.612 179.96 122.465 179.48C123.329 179 124.508 178.76 126.001 178.76ZM126.001 179.816C125.276 179.816 124.652 179.885 124.129 180.024C123.606 180.152 123.201 180.344 122.913 180.6C122.636 180.845 122.497 181.144 122.497 181.496C122.497 181.837 122.636 182.136 122.913 182.392C123.201 182.637 123.606 182.829 124.129 182.968C124.652 183.096 125.276 183.16 126.001 183.16C126.737 183.16 127.361 183.096 127.873 182.968C128.396 182.829 128.796 182.637 129.073 182.392C129.361 182.136 129.505 181.837 129.505 181.496C129.505 181.144 129.361 180.845 129.073 180.6C128.796 180.344 128.396 180.152 127.873 180.024C127.361 179.885 126.737 179.816 126.001 179.816ZM126.289 172.824H129.713V173.928H126.289V172.824ZM137.084 177.16H150.204V178.248H137.084V177.16ZM143.068 177.848H144.396V181.176H143.068V177.848ZM138.78 170.456H148.492V175.528H138.78V170.456ZM147.196 171.512H140.076V174.472H147.196V171.512ZM138.748 182.84H148.748V183.928H138.748V182.84ZM138.748 179.784H140.076V183.208H138.748V179.784ZM162.507 169.768H163.771V184.248H162.507V169.768ZM157.227 174.968H160.011V176.056H157.227V174.968ZM159.611 170.104H160.859V183.496H159.611V170.104ZM154.459 172.024H155.483V173.864C155.483 174.653 155.408 175.427 155.259 176.184C155.109 176.931 154.891 177.635 154.603 178.296C154.315 178.947 153.963 179.539 153.547 180.072C153.131 180.595 152.661 181.021 152.139 181.352L151.323 180.36C151.995 179.955 152.56 179.411 153.019 178.728C153.488 178.045 153.845 177.283 154.091 176.44C154.336 175.597 154.459 174.739 154.459 173.864V172.024ZM154.731 172.024H155.739V173.864C155.739 174.696 155.856 175.512 156.091 176.312C156.336 177.112 156.683 177.837 157.131 178.488C157.589 179.128 158.149 179.64 158.811 180.024L158.011 181.016C157.307 180.579 156.709 179.997 156.219 179.272C155.739 178.536 155.371 177.704 155.115 176.776C154.859 175.837 154.731 174.867 154.731 173.864V172.024ZM151.723 171.464H158.331V172.552H151.723V171.464ZM165.882 176.488H179.002V177.512H165.882V176.488ZM167.45 178.664H177.37V181.752H168.794V183.448H167.482V180.84H176.058V179.624H167.45V178.664ZM167.482 183.096H177.834V184.056H167.482V183.096ZM167.546 170.2H177.322V173.208H168.89V174.776H167.578V172.312H176.01V171.144H167.546V170.2ZM167.578 174.456H177.578V175.416H167.578V174.456ZM184.101 172.248H191.285V173.336H184.101V172.248ZM187.701 174.296C188.309 174.296 188.842 174.435 189.301 174.712C189.77 174.989 190.138 175.379 190.405 175.88C190.671 176.371 190.805 176.941 190.805 177.592C190.805 178.243 190.671 178.819 190.405 179.32C190.138 179.811 189.77 180.2 189.301 180.488C188.842 180.765 188.309 180.904 187.701 180.904C187.103 180.904 186.57 180.765 186.101 180.488C185.631 180.2 185.263 179.811 184.997 179.32C184.73 178.819 184.597 178.243 184.597 177.592C184.597 176.941 184.73 176.371 184.997 175.88C185.263 175.389 185.631 175.005 186.101 174.728C186.57 174.44 187.103 174.296 187.701 174.296ZM187.701 175.416C187.338 175.416 187.007 175.512 186.709 175.704C186.421 175.885 186.191 176.141 186.021 176.472C185.861 176.792 185.781 177.165 185.781 177.592C185.781 178.019 185.861 178.397 186.021 178.728C186.191 179.059 186.421 179.315 186.709 179.496C187.007 179.677 187.338 179.768 187.701 179.768C188.074 179.768 188.405 179.677 188.693 179.496C188.981 179.315 189.205 179.059 189.365 178.728C189.535 178.397 189.621 178.019 189.621 177.592C189.621 177.165 189.535 176.792 189.365 176.472C189.205 176.141 188.981 175.885 188.693 175.704C188.405 175.512 188.074 175.416 187.701 175.416ZM195.109 169.768H196.373V184.248H195.109V169.768ZM192.789 175.864H195.525V176.952H192.789V175.864ZM192.005 170.104H193.253V183.544H192.005V170.104ZM187.045 170.2H188.357V172.904H187.045V170.2ZM209.107 169.768H210.435V177.16H209.107V169.768ZM204.531 170.488H205.971C205.971 171.693 205.699 172.76 205.155 173.688C204.622 174.616 203.854 175.4 202.851 176.04C201.849 176.669 200.643 177.149 199.235 177.48L198.771 176.392C200.019 176.104 201.07 175.709 201.923 175.208C202.777 174.696 203.422 174.099 203.859 173.416C204.307 172.723 204.531 171.96 204.531 171.128V170.488ZM199.507 170.488H205.123V171.576H199.507V170.488ZM205.443 171.864H209.315V172.904H205.443V171.864ZM205.315 174.632H209.235V175.672H205.315V174.632ZM201.123 177.816H210.435V181.368H202.467V183.672H201.155V180.36H209.107V178.888H201.123V177.816ZM201.155 183.032H210.915V184.104H201.155V183.032ZM212.898 172.248H220.082V173.336H212.898V172.248ZM216.498 174.296C217.106 174.296 217.639 174.435 218.098 174.712C218.567 174.989 218.935 175.379 219.202 175.88C219.469 176.371 219.602 176.941 219.602 177.592C219.602 178.243 219.469 178.819 219.202 179.32C218.935 179.811 218.567 180.2 218.098 180.488C217.639 180.765 217.106 180.904 216.498 180.904C215.901 180.904 215.367 180.765 214.898 180.488C214.429 180.2 214.061 179.811 213.794 179.32C213.527 178.819 213.394 178.243 213.394 177.592C213.394 176.941 213.527 176.371 213.794 175.88C214.061 175.389 214.429 175.005 214.898 174.728C215.367 174.44 215.901 174.296 216.498 174.296ZM216.498 175.416C216.135 175.416 215.805 175.512 215.506 175.704C215.218 175.885 214.989 176.141 214.818 176.472C214.658 176.792 214.578 177.165 214.578 177.592C214.578 178.019 214.658 178.397 214.818 178.728C214.989 179.059 215.218 179.315 215.506 179.496C215.805 179.677 216.135 179.768 216.498 179.768C216.871 179.768 217.202 179.677 217.49 179.496C217.778 179.315 218.002 179.059 218.162 178.728C218.333 178.397 218.418 178.019 218.418 177.592C218.418 177.165 218.333 176.792 218.162 176.472C218.002 176.141 217.778 175.885 217.49 175.704C217.202 175.512 216.871 175.416 216.498 175.416ZM223.906 169.768H225.17V184.248H223.906V169.768ZM221.586 175.864H224.322V176.952H221.586V175.864ZM220.802 170.104H222.05V183.544H220.802V170.104ZM215.842 170.2H217.154V172.904H215.842V170.2ZM228.993 176.712H238.929V177.8H228.993V176.712ZM227.329 181.176H240.449V182.28H227.329V181.176ZM228.993 171.112H238.785V172.2H230.305V177.192H228.993V171.112ZM252.272 169.768H253.584V184.264H252.272V169.768ZM242.56 179.656H243.76C244.581 179.656 245.37 179.645 246.128 179.624C246.896 179.592 247.669 179.539 248.448 179.464C249.237 179.389 250.058 179.283 250.912 179.144L251.04 180.232C249.738 180.445 248.512 180.589 247.36 180.664C246.208 180.728 245.008 180.76 243.76 180.76H242.56V179.656ZM242.528 171.112H249.216V176.28H243.904V180.072H242.56V175.208H247.872V172.2H242.528V171.112ZM261.15 170.84H262.478C262.478 171.992 262.265 173.048 261.838 174.008C261.422 174.957 260.804 175.8 259.982 176.536C259.161 177.272 258.148 177.901 256.942 178.424L256.27 177.432C257.337 176.995 258.228 176.472 258.942 175.864C259.668 175.256 260.217 174.568 260.59 173.8C260.964 173.021 261.15 172.173 261.15 171.256V170.84ZM256.878 170.84H261.662V171.928H256.878V170.84ZM267.054 169.784H268.318V178.136H267.054V169.784ZM260.99 173.88H264.478V174.968H260.99V173.88ZM264.174 170.088H265.422V177.912H264.174V170.088ZM259.886 178.632H260.894V179.576C260.894 180.205 260.766 180.824 260.51 181.432C260.265 182.04 259.897 182.584 259.406 183.064C258.916 183.544 258.324 183.923 257.63 184.2L256.974 183.208C257.582 182.984 258.1 182.68 258.526 182.296C258.964 181.901 259.3 181.464 259.534 180.984C259.769 180.504 259.886 180.035 259.886 179.576V178.632ZM260.174 178.632H261.15V179.576C261.15 180.056 261.246 180.541 261.438 181.032C261.63 181.512 261.918 181.955 262.302 182.36C262.686 182.755 263.166 183.075 263.742 183.32L263.182 184.312C262.489 184.035 261.918 183.645 261.47 183.144C261.033 182.653 260.708 182.099 260.494 181.48C260.281 180.851 260.174 180.216 260.174 179.576V178.632ZM265.198 178.632H266.174V179.576C266.174 180.141 266.068 180.733 265.854 181.352C265.641 181.971 265.316 182.541 264.878 183.064C264.441 183.597 263.876 184.013 263.182 184.312L262.606 183.32C263.182 183.053 263.662 182.707 264.046 182.28C264.43 181.843 264.718 181.389 264.91 180.92C265.102 180.44 265.198 179.992 265.198 179.576V178.632ZM265.47 178.632H266.494V179.576C266.494 180.077 266.606 180.568 266.83 181.048C267.065 181.517 267.401 181.944 267.838 182.328C268.276 182.712 268.793 183.005 269.39 183.208L268.75 184.2C268.046 183.933 267.449 183.565 266.958 183.096C266.478 182.637 266.11 182.104 265.854 181.496C265.598 180.877 265.47 180.237 265.47 179.576V178.632ZM272.173 178.456H273.485V180.12H280.573V178.456H281.885V184.056H272.173V178.456ZM273.485 181.16V182.984H280.573V181.16H273.485ZM270.525 176.36H283.597V177.448H270.525V176.36ZM276.381 169.928H277.533V170.584C277.533 171.085 277.426 171.56 277.213 172.008C277 172.445 276.706 172.851 276.333 173.224C275.97 173.587 275.544 173.912 275.053 174.2C274.573 174.488 274.05 174.728 273.485 174.92C272.93 175.112 272.354 175.256 271.757 175.352L271.261 174.296C271.784 174.221 272.29 174.104 272.781 173.944C273.282 173.784 273.752 173.592 274.189 173.368C274.626 173.133 275.01 172.872 275.341 172.584C275.672 172.285 275.928 171.971 276.109 171.64C276.29 171.299 276.381 170.947 276.381 170.584V169.928ZM276.605 169.928H277.741V170.584C277.741 170.936 277.832 171.283 278.013 171.624C278.205 171.955 278.466 172.269 278.797 172.568C279.128 172.856 279.506 173.117 279.933 173.352C280.37 173.587 280.834 173.789 281.325 173.96C281.826 174.12 282.333 174.232 282.845 174.296L282.365 175.352C281.768 175.256 281.186 175.112 280.621 174.92C280.066 174.728 279.544 174.488 279.053 174.2C278.573 173.901 278.146 173.565 277.773 173.192C277.41 172.819 277.122 172.413 276.909 171.976C276.706 171.539 276.605 171.075 276.605 170.584V169.928ZM295.452 169.768H296.764V184.248H295.452V169.768ZM285.836 171.192H287.148V180.152H285.836V171.192ZM285.836 179.368H287.02C288.129 179.368 289.254 179.32 290.396 179.224C291.548 179.117 292.732 178.941 293.948 178.696L294.124 179.816C292.865 180.083 291.654 180.269 290.492 180.376C289.329 180.472 288.172 180.52 287.02 180.52H285.836V179.368ZM309.114 169.768H310.442V184.264H309.114V169.768ZM310.138 175.48H312.81V176.584H310.138V175.48ZM299.946 179.528H301.082C301.968 179.528 302.778 179.517 303.514 179.496C304.261 179.464 304.976 179.411 305.658 179.336C306.352 179.261 307.056 179.16 307.77 179.032L307.93 180.168C307.184 180.296 306.458 180.397 305.754 180.472C305.061 180.547 304.336 180.595 303.578 180.616C302.821 180.637 301.989 180.648 301.082 180.648H299.946V179.528ZM299.946 171.176H306.65V172.264H301.258V180.04H299.946V171.176ZM314.073 182.136C314.073 181.741 314.169 181.464 314.361 181.304C314.553 181.144 314.783 181.064 315.049 181.064C315.327 181.064 315.561 181.144 315.753 181.304C315.956 181.464 316.057 181.741 316.057 182.136C316.057 182.52 315.956 182.797 315.753 182.968C315.561 183.139 315.327 183.224 315.049 183.224C314.783 183.224 314.553 183.139 314.361 182.968C314.169 182.797 314.073 182.52 314.073 182.136Z" fill="#534F4B"/>
<rect x="29.6133" y="297.306" width="224.532" height="37.1375" fill="#9B938C"/>
<path d="M29.6133 334.444L29.6133 235.101" stroke="#9B938C" stroke-width="0.703074"/>
<rect x="29.6133" y="250.885" width="96.3617" height="37.1375" fill="#B73D24"/>
<path d="M26.6576 215.322H27.3269V216.228C27.3269 216.799 27.2252 217.33 27.0218 217.823C26.825 218.315 26.5428 218.745 26.1753 219.112C25.8078 219.473 25.378 219.749 24.8859 219.939L24.4429 219.289C24.8957 219.125 25.2862 218.889 25.6143 218.58C25.9489 218.272 26.2048 217.918 26.382 217.517C26.5658 217.111 26.6576 216.681 26.6576 216.228V215.322ZM26.8053 215.322H27.4647V216.297C27.4647 216.592 27.5172 216.884 27.6222 217.173C27.7272 217.455 27.8749 217.718 28.0652 217.96C28.262 218.203 28.4917 218.42 28.7542 218.61C29.0167 218.794 29.3087 218.941 29.6302 219.053L29.1971 219.693C28.7247 219.516 28.308 219.26 27.9471 218.925C27.5861 218.584 27.304 218.19 27.1006 217.744C26.9037 217.291 26.8053 216.809 26.8053 216.297V215.322ZM30.585 214.86H31.402V220.264H30.585V214.86ZM31.1756 217.163H32.7111V217.852H31.1756V217.163ZM28.5672 220.5C29.1709 220.5 29.6893 220.565 30.1224 220.697C30.562 220.821 30.9 221.005 31.1362 221.248C31.3724 221.491 31.4905 221.783 31.4905 222.124C31.4905 222.465 31.3724 222.757 31.1362 223C30.9 223.243 30.562 223.427 30.1224 223.551C29.6893 223.682 29.1709 223.748 28.5672 223.748C27.9635 223.748 27.4418 223.682 27.0021 223.551C26.5625 223.427 26.2245 223.243 25.9883 223C25.7521 222.757 25.6339 222.465 25.6339 222.124C25.6339 221.783 25.7521 221.491 25.9883 221.248C26.2245 221.005 26.5625 220.821 27.0021 220.697C27.4418 220.565 27.9635 220.5 28.5672 220.5ZM28.5672 221.15C28.1275 221.15 27.7469 221.189 27.4254 221.268C27.1104 221.346 26.8676 221.458 26.697 221.602C26.5264 221.747 26.4411 221.921 26.4411 222.124C26.4411 222.334 26.5264 222.511 26.697 222.655C26.8676 222.8 27.1104 222.911 27.4254 222.99C27.7469 223.062 28.1275 223.098 28.5672 223.098C29.0068 223.098 29.3841 223.062 29.6991 222.99C30.0141 222.911 30.2569 222.8 30.4275 222.655C30.5981 222.511 30.6834 222.334 30.6834 222.124C30.6834 221.921 30.5981 221.747 30.4275 221.602C30.2569 221.458 30.0141 221.346 29.6991 221.268C29.3841 221.189 29.0068 221.15 28.5672 221.15ZM39.4429 214.86H40.2599V219.899H39.4429V214.86ZM40.0335 217.035H41.569V217.714H40.0335V217.035ZM33.7635 218.728H34.4525C35.0628 218.728 35.5976 218.722 36.0569 218.708C36.5163 218.689 36.9395 218.659 37.3267 218.62C37.7139 218.574 38.1043 218.512 38.498 218.433L38.5964 219.092C38.183 219.178 37.7762 219.243 37.3759 219.289C36.9822 219.335 36.5524 219.365 36.0865 219.378C35.6206 219.391 35.0759 219.397 34.4525 219.397H33.7635V218.728ZM33.7635 215.46H37.6712V216.12H34.5706V219.112H33.7635V215.46ZM34.6691 220.372H40.2599V223.64H34.6691V220.372ZM39.4528 221.031H35.4664V222.98H39.4528V221.031ZM44.5507 215.628H45.2299V217.222C45.2299 217.734 45.1643 218.233 45.033 218.718C44.9083 219.197 44.7279 219.647 44.4917 220.067C44.262 220.48 43.9897 220.848 43.6747 221.169C43.3663 221.484 43.0283 221.734 42.6609 221.917L42.1589 221.238C42.4935 221.087 42.8052 220.871 43.0939 220.588C43.3827 220.306 43.6353 219.988 43.8519 219.634C44.0684 219.273 44.239 218.886 44.3637 218.472C44.4884 218.059 44.5507 217.642 44.5507 217.222V215.628ZM44.6885 215.628H45.3677V217.222C45.3677 217.629 45.4267 218.029 45.5449 218.423C45.6695 218.817 45.8402 219.191 46.0567 219.545C46.2798 219.893 46.5324 220.201 46.8146 220.47C47.1033 220.733 47.4118 220.94 47.7399 221.09L47.2477 221.74C46.8868 221.569 46.5521 221.33 46.2437 221.022C45.9353 220.713 45.663 220.359 45.4267 219.959C45.1971 219.558 45.0166 219.125 44.8854 218.659C44.7541 218.193 44.6885 217.714 44.6885 217.222V215.628ZM48.6749 214.86H49.4919V223.778H48.6749V214.86ZM53.261 215.775H53.9304V216.494C53.9304 217.038 53.8254 217.547 53.6154 218.019C53.412 218.485 53.1265 218.892 52.759 219.24C52.3916 219.581 51.9585 219.84 51.4598 220.018L51.0267 219.388C51.4729 219.23 51.8633 219.004 52.198 218.708C52.5326 218.413 52.7918 218.078 52.9756 217.704C53.1659 217.324 53.261 216.92 53.261 216.494V215.775ZM53.4087 215.775H54.078V216.494C54.078 216.881 54.1666 217.255 54.3438 217.616C54.5209 217.977 54.7703 218.295 55.0918 218.571C55.4199 218.846 55.8005 219.06 56.2336 219.21L55.8202 219.85C55.3346 219.673 54.9081 219.42 54.5406 219.092C54.1797 218.758 53.9008 218.367 53.704 217.921C53.5071 217.475 53.4087 216.999 53.4087 216.494V215.775ZM51.2727 215.48H56.0368V216.149H51.2727V215.48ZM57.1589 214.86H57.9758V220.224H57.1589V214.86ZM57.7494 217.202H59.285V217.891H57.7494V217.202ZM52.1881 220.697H57.9758V223.768H57.1589V221.366H52.1881V220.697Z" fill="#534F4B"/>
<path d="M125.975 288.022L125.975 235.101" stroke="#9B938C" stroke-width="0.703074"/>
<path d="M125.303 217.882H127.774V218.551H125.303V217.882ZM123.147 215.628H123.817V217.222C123.817 217.714 123.754 218.2 123.63 218.679C123.512 219.158 123.341 219.604 123.118 220.018C122.895 220.431 122.632 220.798 122.33 221.12C122.035 221.442 121.71 221.697 121.356 221.888L120.844 221.228C121.172 221.071 121.474 220.851 121.75 220.569C122.032 220.287 122.278 219.965 122.488 219.604C122.698 219.237 122.859 218.853 122.97 218.453C123.088 218.046 123.147 217.636 123.147 217.222V215.628ZM123.315 215.628H123.974V217.222C123.974 217.622 124.03 218.019 124.142 218.413C124.26 218.807 124.424 219.178 124.634 219.525C124.844 219.867 125.086 220.172 125.362 220.441C125.644 220.71 125.946 220.92 126.268 221.071L125.775 221.73C125.421 221.547 125.093 221.3 124.791 220.992C124.489 220.684 124.227 220.329 124.004 219.929C123.787 219.529 123.617 219.099 123.492 218.64C123.374 218.18 123.315 217.708 123.315 217.222V215.628ZM127.37 214.86H128.177V223.778H127.37V214.86ZM129.702 220.165H137.773V220.825H129.702V220.165ZM131.799 220.529H132.616V223.768H131.799V220.529ZM134.86 220.529H135.677V223.768H134.86V220.529ZM130.667 215.204H136.799V217.498H131.513V219.033H130.696V216.878H135.972V215.874H130.667V215.204ZM130.696 218.59H136.996V219.26H130.696V218.59ZM143.314 217.015H145.293V217.695H143.314V217.015ZM145.076 214.86H145.883V219.703H145.076V214.86ZM140.194 220.126H141.001V221.218H145.076V220.126H145.883V223.65H140.194V220.126ZM141.001 221.868V222.98H145.076V221.868H141.001ZM140.834 215.559H141.503V216.287C141.503 216.825 141.398 217.33 141.188 217.803C140.985 218.275 140.696 218.689 140.322 219.043C139.948 219.397 139.515 219.666 139.023 219.85L138.599 219.201C138.928 219.082 139.226 218.925 139.495 218.728C139.771 218.531 140.01 218.305 140.214 218.049C140.417 217.786 140.571 217.508 140.676 217.212C140.781 216.91 140.834 216.602 140.834 216.287V215.559ZM140.991 215.559H141.661V216.287C141.661 216.668 141.749 217.038 141.926 217.399C142.104 217.754 142.356 218.072 142.684 218.354C143.012 218.63 143.39 218.846 143.816 219.004L143.403 219.644C142.917 219.466 142.494 219.21 142.133 218.876C141.772 218.541 141.49 218.151 141.287 217.704C141.09 217.252 140.991 216.779 140.991 216.287V215.559ZM138.855 215.391H143.61V216.061H138.855V215.391ZM151.03 215.175H151.749V215.677C151.749 216.018 151.683 216.34 151.552 216.641C151.421 216.937 151.24 217.209 151.011 217.458C150.788 217.708 150.525 217.931 150.223 218.128C149.921 218.325 149.593 218.489 149.239 218.62C148.891 218.751 148.534 218.846 148.166 218.905L147.831 218.246C148.16 218.2 148.478 218.121 148.786 218.01C149.101 217.898 149.393 217.764 149.662 217.606C149.931 217.442 150.167 217.258 150.371 217.055C150.581 216.851 150.742 216.635 150.853 216.405C150.971 216.169 151.03 215.926 151.03 215.677V215.175ZM151.168 215.175H151.877V215.677C151.877 215.926 151.936 216.166 152.054 216.395C152.172 216.625 152.333 216.842 152.536 217.045C152.746 217.248 152.986 217.432 153.255 217.596C153.524 217.76 153.813 217.898 154.121 218.01C154.436 218.121 154.754 218.2 155.076 218.246L154.751 218.905C154.384 218.846 154.026 218.751 153.678 218.62C153.33 218.482 153.002 218.315 152.694 218.118C152.392 217.921 152.126 217.698 151.897 217.449C151.673 217.199 151.496 216.927 151.365 216.632C151.234 216.33 151.168 216.011 151.168 215.677V215.175ZM151.03 220.382H151.838V223.768H151.03V220.382ZM147.428 219.87H155.47V220.549H147.428V219.87Z" fill="#534F4B"/>
<path d="M254.146 334.444L254.146 281.523" stroke="#9B938C" stroke-width="0.703074"/>
<path d="M253.473 264.337H255.944V265.006H253.473V264.337ZM251.318 262.083H251.987V263.677C251.987 264.169 251.925 264.655 251.8 265.134C251.682 265.613 251.511 266.059 251.288 266.473C251.065 266.886 250.802 267.254 250.501 267.575C250.205 267.897 249.88 268.153 249.526 268.343L249.014 267.683C249.342 267.526 249.644 267.306 249.92 267.024C250.202 266.742 250.448 266.42 250.658 266.059C250.868 265.692 251.029 265.308 251.14 264.908C251.259 264.501 251.318 264.091 251.318 263.677V262.083ZM251.485 262.083H252.144V263.677C252.144 264.078 252.2 264.475 252.312 264.868C252.43 265.262 252.594 265.633 252.804 265.98C253.014 266.322 253.257 266.627 253.532 266.896C253.814 267.165 254.116 267.375 254.438 267.526L253.946 268.185C253.591 268.002 253.263 267.756 252.961 267.447C252.659 267.139 252.397 266.784 252.174 266.384C251.957 265.984 251.787 265.554 251.662 265.095C251.544 264.635 251.485 264.163 251.485 263.677V262.083ZM255.54 261.315H256.347V270.233H255.54V261.315ZM257.872 266.62H265.944V267.28H257.872V266.62ZM259.969 266.984H260.786V270.223H259.969V266.984ZM263.03 266.984H263.847V270.223H263.03V266.984ZM258.837 261.659H264.969V263.953H259.683V265.488H258.866V263.333H264.142V262.329H258.837V261.659ZM258.866 265.045H265.166V265.715H258.866V265.045ZM271.484 263.471H273.463V264.15H271.484V263.471ZM273.246 261.315H274.053V266.158H273.246V261.315ZM268.364 266.581H269.171V267.673H273.246V266.581H274.053V270.105H268.364V266.581ZM269.171 268.323V269.435H273.246V268.323H269.171ZM269.004 262.014H269.673V262.742C269.673 263.28 269.568 263.785 269.358 264.258C269.155 264.73 268.866 265.144 268.492 265.498C268.118 265.853 267.685 266.122 267.193 266.305L266.77 265.656C267.098 265.538 267.396 265.38 267.665 265.183C267.941 264.986 268.18 264.76 268.384 264.504C268.587 264.242 268.741 263.963 268.846 263.667C268.951 263.366 269.004 263.057 269.004 262.742V262.014ZM269.161 262.014H269.831V262.742C269.831 263.123 269.919 263.493 270.097 263.854C270.274 264.209 270.526 264.527 270.854 264.809C271.183 265.085 271.56 265.301 271.986 265.459L271.573 266.099C271.087 265.921 270.664 265.666 270.303 265.331C269.942 264.996 269.66 264.606 269.457 264.16C269.26 263.707 269.161 263.234 269.161 262.742V262.014ZM267.026 261.846H271.78V262.516H267.026V261.846ZM279.201 261.63H279.919V262.132C279.919 262.473 279.853 262.795 279.722 263.096C279.591 263.392 279.411 263.664 279.181 263.913C278.958 264.163 278.695 264.386 278.393 264.583C278.092 264.78 277.763 264.944 277.409 265.075C277.061 265.206 276.704 265.301 276.336 265.36L276.002 264.701C276.33 264.655 276.648 264.576 276.956 264.465C277.271 264.353 277.563 264.219 277.832 264.061C278.101 263.897 278.338 263.713 278.541 263.51C278.751 263.306 278.912 263.09 279.023 262.86C279.142 262.624 279.201 262.381 279.201 262.132V261.63ZM279.338 261.63H280.047V262.132C280.047 262.381 280.106 262.621 280.224 262.85C280.342 263.08 280.503 263.297 280.707 263.5C280.917 263.703 281.156 263.887 281.425 264.051C281.694 264.215 281.983 264.353 282.291 264.465C282.606 264.576 282.925 264.655 283.246 264.701L282.921 265.36C282.554 265.301 282.196 265.206 281.848 265.075C281.501 264.937 281.172 264.77 280.864 264.573C280.562 264.376 280.296 264.153 280.067 263.904C279.844 263.654 279.666 263.382 279.535 263.087C279.404 262.785 279.338 262.467 279.338 262.132V261.63ZM279.201 266.837H280.008V270.223H279.201V266.837ZM275.598 266.325H283.64V267.004H275.598V266.325Z" fill="#534F4B"/>
<path d="M148.118 268.39C148.118 268.795 148.043 269.145 147.891 269.44C147.739 269.735 147.519 269.976 147.233 270.161C146.954 270.347 146.625 270.478 146.245 270.554V270.604C146.971 270.689 147.511 270.916 147.865 271.288C148.22 271.659 148.397 272.144 148.397 272.743C148.397 273.266 148.275 273.734 148.03 274.148C147.785 274.553 147.406 274.869 146.891 275.097C146.385 275.325 145.731 275.439 144.929 275.439C144.457 275.439 144.018 275.401 143.613 275.325C143.208 275.257 142.82 275.131 142.449 274.945V273.907C142.829 274.093 143.238 274.241 143.676 274.35C144.115 274.451 144.537 274.502 144.942 274.502C145.752 274.502 146.334 274.346 146.688 274.034C147.051 273.713 147.233 273.275 147.233 272.718C147.233 272.338 147.131 272.034 146.929 271.806C146.735 271.57 146.448 271.397 146.068 271.288C145.689 271.178 145.233 271.123 144.702 271.123H143.828V270.174H144.714C145.212 270.174 145.625 270.102 145.954 269.959C146.292 269.815 146.545 269.617 146.714 269.364C146.891 269.102 146.979 268.803 146.979 268.465C146.979 268.027 146.832 267.689 146.537 267.453C146.241 267.208 145.841 267.086 145.334 267.086C145.014 267.086 144.723 267.12 144.461 267.187C144.2 267.246 143.955 267.335 143.727 267.453C143.508 267.563 143.284 267.694 143.056 267.845L142.5 267.086C142.719 266.917 142.968 266.761 143.246 266.618C143.533 266.474 143.849 266.36 144.195 266.276C144.541 266.192 144.917 266.15 145.322 266.15C146.267 266.15 146.967 266.36 147.422 266.782C147.886 267.204 148.118 267.74 148.118 268.39ZM152.716 265.264C153.289 265.264 153.796 265.373 154.234 265.593C154.682 265.804 155.032 266.099 155.285 266.479C155.538 266.858 155.664 267.301 155.664 267.807C155.664 268.305 155.538 268.748 155.285 269.136C155.032 269.516 154.682 269.811 154.234 270.022C153.796 270.233 153.289 270.338 152.716 270.338C152.15 270.338 151.644 270.233 151.197 270.022C150.75 269.811 150.396 269.516 150.134 269.136C149.881 268.748 149.754 268.305 149.754 267.807C149.754 267.301 149.881 266.858 150.134 266.479C150.396 266.099 150.75 265.804 151.197 265.593C151.644 265.373 152.15 265.264 152.716 265.264ZM152.716 266.137C152.344 266.137 152.011 266.209 151.716 266.352C151.429 266.487 151.201 266.681 151.033 266.934C150.864 267.187 150.779 267.478 150.779 267.807C150.779 268.136 150.864 268.428 151.033 268.681C151.201 268.925 151.429 269.119 151.716 269.263C152.011 269.406 152.344 269.478 152.716 269.478C153.087 269.478 153.416 269.406 153.703 269.263C153.998 269.119 154.23 268.925 154.399 268.681C154.568 268.428 154.652 268.136 154.652 267.807C154.652 267.478 154.568 267.187 154.399 266.934C154.23 266.681 153.998 266.487 153.703 266.352C153.416 266.209 153.087 266.137 152.716 266.137ZM157.828 264.846H158.879V270.705H157.828V264.846ZM151.475 271.275H158.879V274.046H152.526V275.768H151.513V273.262H157.841V272.11H151.475V271.275ZM151.513 275.299H159.271V276.147H151.513V275.299Z" fill="#534F4B"/>
<path d="M271.771 321.734L275.479 313.711H270.606V312.698H276.668V313.559L272.998 321.734H271.771ZM280.886 311.686C281.46 311.686 281.966 311.796 282.405 312.015C282.852 312.226 283.202 312.521 283.455 312.901C283.708 313.281 283.835 313.724 283.835 314.23C283.835 314.728 283.708 315.17 283.455 315.559C283.202 315.938 282.852 316.234 282.405 316.444C281.966 316.655 281.46 316.761 280.886 316.761C280.321 316.761 279.814 316.655 279.367 316.444C278.92 316.234 278.566 315.938 278.304 315.559C278.051 315.17 277.925 314.728 277.925 314.23C277.925 313.724 278.051 313.281 278.304 312.901C278.566 312.521 278.92 312.226 279.367 312.015C279.814 311.796 280.321 311.686 280.886 311.686ZM280.886 312.559C280.515 312.559 280.181 312.631 279.886 312.774C279.599 312.909 279.371 313.103 279.203 313.357C279.034 313.61 278.95 313.901 278.95 314.23C278.95 314.559 279.034 314.85 279.203 315.103C279.371 315.348 279.599 315.542 279.886 315.685C280.181 315.829 280.515 315.9 280.886 315.9C281.257 315.9 281.586 315.829 281.873 315.685C282.168 315.542 282.4 315.348 282.569 315.103C282.738 314.85 282.822 314.559 282.822 314.23C282.822 313.901 282.738 313.61 282.569 313.357C282.4 313.103 282.168 312.909 281.873 312.774C281.586 312.631 281.257 312.559 280.886 312.559ZM285.999 311.268H287.049V317.128H285.999V311.268ZM279.646 317.697H287.049V320.469H280.696V322.19H279.684V319.684H286.011V318.533H279.646V317.697ZM279.684 321.722H287.441V322.57H279.684V321.722ZM300.409 311.268H301.459V322.734H300.409V311.268ZM295.423 312.154C295.988 312.154 296.486 312.319 296.916 312.648C297.355 312.968 297.697 313.428 297.941 314.027C298.194 314.626 298.321 315.331 298.321 316.141C298.321 316.951 298.194 317.655 297.941 318.254C297.697 318.853 297.355 319.317 296.916 319.646C296.486 319.975 295.988 320.14 295.423 320.14C294.858 320.14 294.356 319.975 293.917 319.646C293.478 319.317 293.132 318.853 292.879 318.254C292.635 317.655 292.512 316.951 292.512 316.141C292.512 315.331 292.635 314.626 292.879 314.027C293.132 313.428 293.478 312.968 293.917 312.648C294.356 312.319 294.858 312.154 295.423 312.154ZM295.423 313.091C295.043 313.091 294.71 313.217 294.423 313.47C294.145 313.715 293.925 314.069 293.765 314.533C293.605 314.989 293.525 315.525 293.525 316.141C293.525 316.757 293.605 317.297 293.765 317.761C293.925 318.216 294.145 318.571 294.423 318.824C294.71 319.077 295.043 319.203 295.423 319.203C295.794 319.203 296.119 319.077 296.397 318.824C296.684 318.571 296.908 318.216 297.068 317.761C297.228 317.297 297.309 316.757 297.309 316.141C297.309 315.525 297.228 314.989 297.068 314.533C296.908 314.069 296.684 313.715 296.397 313.47C296.119 313.217 295.794 313.091 295.423 313.091ZM306.268 311.863H307.128V313.028C307.128 313.762 306.997 314.445 306.736 315.078C306.483 315.71 306.12 316.263 305.647 316.736C305.175 317.2 304.622 317.554 303.99 317.799L303.42 316.963C304.002 316.752 304.504 316.449 304.926 316.052C305.356 315.656 305.685 315.2 305.913 314.685C306.149 314.162 306.268 313.61 306.268 313.028V311.863ZM306.457 311.863H307.305V313.116C307.305 313.496 307.373 313.871 307.508 314.242C307.643 314.605 307.833 314.943 308.077 315.255C308.33 315.567 308.626 315.845 308.963 316.09C309.301 316.326 309.676 316.516 310.089 316.66L309.533 317.482C308.925 317.254 308.389 316.925 307.925 316.495C307.461 316.056 307.099 315.55 306.837 314.976C306.584 314.394 306.457 313.774 306.457 313.116V311.863ZM311.317 311.268H312.367V318.216H311.317V311.268ZM312.076 314.23H314.051V315.116H312.076V314.23ZM308.723 318.52C309.499 318.52 310.165 318.604 310.722 318.773C311.287 318.933 311.722 319.17 312.026 319.482C312.329 319.794 312.481 320.169 312.481 320.608C312.481 321.047 312.329 321.422 312.026 321.734C311.722 322.047 311.287 322.283 310.722 322.443C310.165 322.612 309.499 322.696 308.723 322.696C307.946 322.696 307.276 322.612 306.71 322.443C306.145 322.283 305.711 322.047 305.407 321.734C305.103 321.422 304.951 321.047 304.951 320.608C304.951 320.169 305.103 319.794 305.407 319.482C305.711 319.17 306.145 318.933 306.71 318.773C307.276 318.604 307.946 318.52 308.723 318.52ZM308.723 319.355C308.157 319.355 307.668 319.406 307.255 319.507C306.85 319.608 306.538 319.752 306.318 319.937C306.099 320.123 305.989 320.347 305.989 320.608C305.989 320.878 306.099 321.106 306.318 321.291C306.538 321.477 306.85 321.62 307.255 321.722C307.668 321.815 308.157 321.861 308.723 321.861C309.288 321.861 309.773 321.815 310.178 321.722C310.583 321.62 310.895 321.477 311.115 321.291C311.334 321.106 311.444 320.878 311.444 320.608C311.444 320.347 311.334 320.123 311.115 319.937C310.895 319.752 310.583 319.608 310.178 319.507C309.773 319.406 309.288 319.355 308.723 319.355Z" fill="#534F4B"/>
<path d="M49.4545 265.39H50.9098V266.238C50.9098 266.744 50.8381 267.238 50.6947 267.719C50.5597 268.191 50.3572 268.638 50.0872 269.06C49.8172 269.482 49.484 269.866 49.0874 270.212C48.6994 270.549 48.2522 270.84 47.746 271.085C47.2398 271.33 46.6829 271.511 46.0755 271.629L45.3541 270.225C45.8772 270.132 46.3539 269.993 46.7842 269.807C47.2229 269.613 47.6068 269.381 47.9358 269.111C48.2649 268.841 48.5433 268.55 48.7711 268.238C48.9989 267.917 49.1676 267.588 49.2773 267.251C49.3954 266.905 49.4545 266.567 49.4545 266.238V265.39ZM49.7835 265.39H51.2515V266.238C51.2515 266.576 51.3064 266.917 51.416 267.263C51.5341 267.609 51.7029 267.942 51.9222 268.263C52.15 268.575 52.4285 268.862 52.7575 269.124C53.0865 269.385 53.4662 269.613 53.8965 269.807C54.3268 269.993 54.8119 270.132 55.3518 270.225L54.6305 271.629C54.023 271.511 53.4662 271.33 52.96 271.085C52.4538 270.84 52.0024 270.549 51.6059 270.212C51.2178 269.874 50.8845 269.495 50.6061 269.073C50.3361 268.651 50.1294 268.2 49.986 267.719C49.851 267.238 49.7835 266.744 49.7835 266.238V265.39ZM45.101 273.629H55.7188V275.008H45.101V273.629ZM56.8821 270.389H57.6921C58.2574 270.389 58.7636 270.385 59.2107 270.376C59.6663 270.368 60.0966 270.347 60.5016 270.313C60.9065 270.271 61.3242 270.212 61.7544 270.136L61.9063 271.477C61.4592 271.545 61.0247 271.6 60.6028 271.642C60.181 271.684 59.7338 271.714 59.2613 271.731C58.7973 271.739 58.2742 271.743 57.6921 271.743H56.8821V270.389ZM56.8821 265.631H61.4887V266.972H58.502V270.933H56.8821V265.631ZM58.0211 268.023H61.3748V269.301H58.0211V268.023ZM64.8677 264.707H66.4749V273.439H64.8677V264.707ZM63.4376 267.947H65.2979V269.301H63.4376V267.947ZM62.3746 264.922H63.9438V273.199H62.3746V264.922ZM58.578 274.882H66.766V276.236H58.578V274.882ZM58.578 272.477H60.2738V275.755H58.578V272.477ZM75.3579 264.694H77.0537V276.451H75.3579V264.694ZM76.6867 269.035H78.7496V270.427H76.6867V269.035ZM68.3216 272.249H69.3087C69.9752 272.249 70.5995 272.241 71.1817 272.224C71.7638 272.199 72.3291 272.161 72.8775 272.11C73.4259 272.051 73.9869 271.971 74.5606 271.87L74.7252 273.262C74.1346 273.363 73.5524 273.443 72.9787 273.502C72.4135 273.561 71.8313 273.599 71.2323 273.616C70.6333 273.633 69.9921 273.642 69.3087 273.642H68.3216V272.249ZM68.3216 265.783H73.7887V267.137H70.0047V272.907H68.3216V265.783ZM80.5077 270.123H88.7463V271.452H80.5077V270.123ZM79.2674 273.654H89.8853V275.021H79.2674V273.654ZM80.5077 265.669H88.6577V267.035H82.1782V270.68H80.5077V265.669Z" fill="white"/>
<path d="M45.5566 318.849H46.5311C47.1892 318.849 47.805 318.845 48.3788 318.836C48.9525 318.819 49.5135 318.79 50.0619 318.748C50.6103 318.697 51.1798 318.63 51.7704 318.545L51.9222 319.874C51.3317 319.967 50.7495 320.039 50.1758 320.089C49.6105 320.14 49.0284 320.174 48.4294 320.19C47.8388 320.199 47.206 320.203 46.5311 320.203H45.5566V318.849ZM45.5566 312.104H51.0617V313.47H47.2398V319.292H45.5566V312.104ZM46.8348 315.369H50.8972V316.685H46.8348V315.369ZM52.5803 311.142H54.2761V322.861H52.5803V311.142ZM53.9091 315.584H55.9719V316.963H53.9091V315.584ZM59.1221 312.04H60.4763V313.736C60.4763 314.462 60.413 315.17 60.2864 315.862C60.1599 316.546 59.9616 317.183 59.6916 317.773C59.4301 318.364 59.0968 318.891 58.6919 319.355C58.2869 319.811 57.8102 320.174 57.2618 320.444L56.2494 319.089C56.7472 318.862 57.1732 318.558 57.5276 318.178C57.8904 317.799 58.1899 317.368 58.4261 316.887C58.6623 316.406 58.8353 315.9 58.945 315.369C59.0631 314.829 59.1221 314.285 59.1221 313.736V312.04ZM59.4512 312.04H60.8053V313.736C60.8053 314.268 60.8559 314.791 60.9572 315.305C61.0668 315.82 61.2314 316.309 61.4507 316.773C61.6785 317.229 61.9611 317.638 62.2986 318.001C62.6361 318.364 63.0411 318.663 63.5135 318.9L62.4885 320.241C61.9654 319.971 61.5098 319.617 61.1217 319.178C60.742 318.731 60.4299 318.22 60.1852 317.647C59.9405 317.065 59.7549 316.444 59.6283 315.786C59.5102 315.12 59.4512 314.436 59.4512 313.736V312.04ZM63.9691 311.142H65.6649V322.861H63.9691V311.142ZM65.2979 315.647H67.3608V317.039H65.2979V315.647Z" fill="white"/>
</svg>
