<svg width="721" height="417" viewBox="0 0 721 417" fill="none" xmlns="http://www.w3.org/2000/svg">
<path d="M170.444 93C176.944 86.5 166.944 77.25 166.944 77.25L185.13 77.25C185.13 77.25 180.444 93 170.444 93Z" fill="white"/>
<rect x="107.944" width="378" height="78" rx="8" fill="white"/>
<path d="M158.668 30.864C158.524 31.488 158.372 32.152 158.212 32.856C158.068 33.56 157.932 34.248 157.804 34.92C157.676 35.576 157.572 36.184 157.492 36.744H154.204L154.036 36.48C154.18 35.904 154.364 35.296 154.588 34.656C154.812 34.016 155.052 33.368 155.308 32.712C155.58 32.056 155.844 31.44 156.1 30.864H158.668ZM153.196 30.864C153.052 31.488 152.9 32.152 152.74 32.856C152.596 33.56 152.46 34.248 152.332 34.92C152.204 35.576 152.1 36.184 152.02 36.744H148.732L148.564 36.48C148.708 35.904 148.892 35.296 149.116 34.656C149.34 34.016 149.58 33.368 149.836 32.712C150.108 32.056 150.372 31.44 150.628 30.864H153.196ZM170.364 31.608H176.028V34.152H170.364V31.608ZM170.364 36.384H176.1V38.928H170.364V36.384ZM174.852 27.912H178.068V44.304H174.852V27.912ZM163.356 47.184H178.548V49.752H163.356V47.184ZM163.356 42.696H166.548V48.648H163.356V42.696ZM160.38 29.376H163.548V32.736H167.772V29.376H170.916V40.848H160.38V29.376ZM163.548 35.184V38.304H167.772V35.184H163.548ZM181.93 30.672H200.242V33.216H181.93V30.672ZM181.066 45.336H201.202V47.904H181.066V45.336ZM189.49 42.384H192.682V46.344H189.49V42.384ZM191.074 34.152C192.61 34.152 193.938 34.328 195.058 34.68C196.194 35.016 197.066 35.512 197.674 36.168C198.282 36.808 198.586 37.584 198.586 38.496C198.586 39.408 198.282 40.192 197.674 40.848C197.066 41.488 196.194 41.984 195.058 42.336C193.938 42.672 192.602 42.84 191.05 42.84C189.514 42.84 188.178 42.672 187.042 42.336C185.922 41.984 185.058 41.488 184.45 40.848C183.842 40.192 183.538 39.408 183.538 38.496C183.538 37.584 183.842 36.808 184.45 36.168C185.058 35.512 185.922 35.016 187.042 34.68C188.178 34.328 189.522 34.152 191.074 34.152ZM191.05 36.624C190.138 36.624 189.362 36.696 188.722 36.84C188.082 36.968 187.594 37.168 187.258 37.44C186.938 37.712 186.778 38.064 186.778 38.496C186.778 38.912 186.938 39.264 187.258 39.552C187.594 39.824 188.082 40.024 188.722 40.152C189.362 40.28 190.138 40.344 191.05 40.344C191.994 40.344 192.778 40.28 193.402 40.152C194.026 40.024 194.498 39.824 194.818 39.552C195.154 39.264 195.322 38.912 195.322 38.496C195.322 38.064 195.154 37.712 194.818 37.44C194.498 37.168 194.026 36.968 193.402 36.84C192.778 36.696 191.994 36.624 191.05 36.624ZM189.49 28.128H192.682V32.256H189.49V28.128ZM207.656 29.616H210.224V32.832C210.224 34.208 210.104 35.552 209.864 36.864C209.624 38.16 209.248 39.368 208.736 40.488C208.24 41.608 207.608 42.608 206.84 43.488C206.072 44.352 205.168 45.04 204.128 45.552L202.208 42.984C203.152 42.552 203.96 41.976 204.632 41.256C205.32 40.536 205.888 39.72 206.336 38.808C206.784 37.896 207.112 36.936 207.32 35.928C207.544 34.904 207.656 33.872 207.656 32.832V29.616ZM208.28 29.616H210.848V32.832C210.848 33.84 210.944 34.832 211.136 35.808C211.344 36.784 211.656 37.712 212.072 38.592C212.504 39.456 213.04 40.232 213.68 40.92C214.32 41.608 215.088 42.176 215.984 42.624L214.04 45.168C213.048 44.656 212.184 43.984 211.448 43.152C210.728 42.304 210.136 41.336 209.672 40.248C209.208 39.144 208.856 37.968 208.616 36.72C208.392 35.456 208.28 34.16 208.28 32.832V29.616ZM216.848 27.912H220.064V50.136H216.848V27.912ZM219.368 36.456H223.28V39.096H219.368V36.456ZM238.446 27.864H241.662V50.088H238.446V27.864ZM240.846 36.384H244.758V39H240.846V36.384ZM232.614 30.168H235.758C235.758 32.392 235.438 34.496 234.798 36.48C234.174 38.464 233.134 40.288 231.678 41.952C230.238 43.6 228.286 45.04 225.822 46.272L224.022 43.848C225.974 42.84 227.582 41.704 228.846 40.44C230.126 39.176 231.07 37.744 231.678 36.144C232.302 34.528 232.614 32.728 232.614 30.744V30.168ZM225.246 30.168H234.27V32.736H225.246V30.168ZM261.646 30.984H268.198V33.552H261.646V30.984ZM261.646 36.384H268.198V38.952H261.646V36.384ZM266.998 27.912H270.214V44.16H266.998V27.912ZM255.526 47.184H270.718V49.752H255.526V47.184ZM255.526 42.576H258.718V48.528H255.526V42.576ZM257.734 29.232C258.838 29.232 259.83 29.48 260.71 29.976C261.606 30.456 262.31 31.128 262.822 31.992C263.35 32.856 263.614 33.848 263.614 34.968C263.614 36.072 263.35 37.064 262.822 37.944C262.31 38.808 261.606 39.488 260.71 39.984C259.83 40.48 258.838 40.728 257.734 40.728C256.646 40.728 255.654 40.48 254.758 39.984C253.878 39.488 253.174 38.808 252.646 37.944C252.134 37.064 251.878 36.072 251.878 34.968C251.878 33.848 252.134 32.856 252.646 31.992C253.174 31.128 253.878 30.456 254.758 29.976C255.654 29.48 256.646 29.232 257.734 29.232ZM257.734 32.016C257.206 32.016 256.726 32.136 256.294 32.376C255.862 32.616 255.518 32.96 255.262 33.408C255.022 33.84 254.902 34.36 254.902 34.968C254.902 35.592 255.022 36.128 255.262 36.576C255.518 37.008 255.862 37.344 256.294 37.584C256.726 37.808 257.206 37.92 257.734 37.92C258.278 37.92 258.758 37.808 259.174 37.584C259.606 37.344 259.942 37.008 260.182 36.576C260.438 36.128 260.566 35.592 260.566 34.968C260.566 34.36 260.438 33.84 260.182 33.408C259.942 32.96 259.606 32.616 259.174 32.376C258.758 32.136 258.278 32.016 257.734 32.016ZM274.005 38.064H275.877C277.333 38.064 278.629 38.048 279.765 38.016C280.917 37.984 281.981 37.92 282.957 37.824C283.949 37.712 284.957 37.568 285.981 37.392L286.269 39.936C285.245 40.128 284.213 40.28 283.173 40.392C282.149 40.488 281.045 40.552 279.861 40.584C278.693 40.616 277.365 40.632 275.877 40.632H274.005V38.064ZM273.957 29.112H284.109V35.952H277.149V39.264H274.005V33.6H280.965V31.656H273.957V29.112ZM287.493 27.912H290.685V41.424H287.493V27.912ZM289.797 33.192H293.637V35.832H289.797V33.192ZM275.853 42.432H290.685V50.136H287.493V44.952H275.853V42.432ZM310.051 27.864H313.243V50.16H310.051V27.864ZM301.267 29.424C302.403 29.424 303.411 29.752 304.291 30.408C305.171 31.048 305.859 31.968 306.355 33.168C306.867 34.352 307.123 35.752 307.123 37.368C307.123 39 306.867 40.416 306.355 41.616C305.859 42.8 305.171 43.72 304.291 44.376C303.411 45.016 302.403 45.336 301.267 45.336C300.147 45.336 299.147 45.016 298.267 44.376C297.387 43.72 296.691 42.8 296.179 41.616C295.683 40.416 295.435 39 295.435 37.368C295.435 35.752 295.683 34.352 296.179 33.168C296.691 31.968 297.387 31.048 298.267 30.408C299.147 29.752 300.147 29.424 301.267 29.424ZM301.267 32.328C300.723 32.328 300.243 32.52 299.827 32.904C299.411 33.288 299.083 33.856 298.843 34.608C298.619 35.344 298.507 36.264 298.507 37.368C298.507 38.456 298.619 39.384 298.843 40.152C299.083 40.904 299.411 41.472 299.827 41.856C300.243 42.24 300.723 42.432 301.267 42.432C301.827 42.432 302.315 42.24 302.731 41.856C303.147 41.472 303.467 40.904 303.691 40.152C303.931 39.384 304.051 38.456 304.051 37.368C304.051 36.264 303.931 35.344 303.691 34.608C303.467 33.856 303.147 33.288 302.731 32.904C302.315 32.52 301.827 32.328 301.267 32.328ZM327.035 29.568H329.651V30.912C329.651 32.224 329.419 33.464 328.955 34.632C328.507 35.8 327.811 36.816 326.867 37.68C325.923 38.544 324.723 39.184 323.267 39.6L321.731 37.08C322.979 36.728 323.995 36.232 324.779 35.592C325.563 34.952 326.131 34.224 326.483 33.408C326.851 32.576 327.035 31.744 327.035 30.912V29.568ZM327.707 29.568H330.275V30.912C330.275 31.664 330.451 32.416 330.803 33.168C331.171 33.92 331.731 34.6 332.483 35.208C333.251 35.816 334.227 36.288 335.411 36.624L333.947 39.096C332.539 38.712 331.371 38.112 330.443 37.296C329.515 36.48 328.827 35.52 328.379 34.416C327.931 33.312 327.707 32.144 327.707 30.912V29.568ZM322.619 28.896H334.619V31.44H322.619V28.896ZM336.443 27.912H339.635V39.264H336.443V27.912ZM338.363 32.256H342.563V34.848H338.363V32.256ZM324.971 40.128H339.635V46.08H328.163V48.888H324.995V43.824H336.491V42.528H324.971V40.128ZM324.995 47.496H340.283V49.92H324.995V47.496ZM363.796 27.912H366.988V44.064H363.796V27.912ZM366.1 34.248H369.94V36.888H366.1V34.248ZM352.66 47.184H367.78V49.752H352.66V47.184ZM352.66 42.384H355.876V48.336H352.66V42.384ZM355.684 29.328C356.82 29.328 357.844 29.568 358.756 30.048C359.668 30.528 360.388 31.192 360.916 32.04C361.46 32.888 361.732 33.864 361.732 34.968C361.732 36.056 361.46 37.032 360.916 37.896C360.388 38.744 359.668 39.416 358.756 39.912C357.844 40.392 356.82 40.632 355.684 40.632C354.548 40.632 353.524 40.392 352.612 39.912C351.7 39.416 350.98 38.744 350.452 37.896C349.924 37.032 349.66 36.056 349.66 34.968C349.66 33.864 349.924 32.888 350.452 32.04C350.98 31.192 351.7 30.528 352.612 30.048C353.524 29.568 354.548 29.328 355.684 29.328ZM355.684 32.088C355.14 32.088 354.644 32.208 354.196 32.448C353.764 32.672 353.42 33 353.164 33.432C352.908 33.848 352.78 34.36 352.78 34.968C352.78 35.576 352.908 36.096 353.164 36.528C353.42 36.944 353.764 37.272 354.196 37.512C354.644 37.736 355.14 37.848 355.684 37.848C356.244 37.848 356.74 37.736 357.172 37.512C357.62 37.272 357.972 36.944 358.228 36.528C358.484 36.096 358.612 35.576 358.612 34.968C358.612 34.36 358.484 33.848 358.228 33.432C357.972 33 357.62 32.672 357.172 32.448C356.74 32.208 356.244 32.088 355.684 32.088ZM376.802 35.352H380.018V38.952H376.802V35.352ZM386.474 27.888H389.666V40.8H386.474V27.888ZM371.546 40.56L371.162 38.088C372.49 38.088 373.938 38.08 375.506 38.064C377.09 38.032 378.698 37.968 380.33 37.872C381.978 37.776 383.562 37.624 385.082 37.416L385.298 39.6C383.73 39.888 382.13 40.104 380.498 40.248C378.882 40.376 377.306 40.456 375.77 40.488C374.25 40.52 372.842 40.544 371.546 40.56ZM373.034 33.768H383.834V36.288H373.034V33.768ZM373.034 28.92H383.69V31.44H376.226V34.584H373.034V28.92ZM374.618 41.688H377.762V43.344H386.498V41.688H389.666V49.896H374.618V41.688ZM377.762 45.744V47.376H386.498V45.744H377.762ZM408.096 27.888H411.264V50.112H408.096V27.888ZM393.864 30H397.056V43.824H393.864V30ZM393.864 41.928H395.832C397.464 41.928 399.168 41.864 400.944 41.736C402.72 41.592 404.528 41.336 406.368 40.968L406.704 43.632C404.816 44.032 402.952 44.304 401.112 44.448C399.288 44.576 397.528 44.64 395.832 44.64H393.864V41.928ZM428.494 27.864H431.71V50.16H428.494V27.864ZM431.014 36.096H434.926V38.736H431.014V36.096ZM415.15 42.192H417.022C418.286 42.192 419.47 42.176 420.574 42.144C421.678 42.096 422.75 42.024 423.79 41.928C424.83 41.816 425.894 41.664 426.982 41.472L427.294 44.112C426.174 44.304 425.07 44.456 423.982 44.568C422.91 44.68 421.806 44.752 420.67 44.784C419.534 44.816 418.318 44.832 417.022 44.832H415.15V42.192ZM415.15 29.928H425.518V32.496H418.342V43.44H415.15V29.928ZM445.316 31.128C445.172 31.688 444.988 32.296 444.764 32.952C444.54 33.592 444.3 34.24 444.044 34.896C443.788 35.536 443.524 36.152 443.252 36.744H440.684C440.844 36.104 440.996 35.44 441.14 34.752C441.284 34.048 441.42 33.36 441.548 32.688C441.676 32.016 441.78 31.408 441.86 30.864H445.148L445.316 31.128ZM439.844 31.128C439.7 31.688 439.516 32.296 439.292 32.952C439.068 33.592 438.828 34.24 438.572 34.896C438.316 35.536 438.052 36.152 437.78 36.744H435.212C435.324 36.264 435.436 35.768 435.548 35.256C435.66 34.744 435.764 34.232 435.86 33.72C435.972 33.192 436.068 32.688 436.148 32.208C436.244 31.728 436.324 31.28 436.388 30.864H439.676L439.844 31.128Z" fill="#534F4B"/>
<path d="M574.13 417C567.63 410.5 577.63 401.25 577.63 401.25L559.444 401.25C559.444 401.25 564.13 417 574.13 417Z" fill="white"/>
<rect x="321.944" y="324" width="307" height="78" rx="8" fill="white"/>
<path d="M372.442 354.864C372.298 355.488 372.146 356.152 371.986 356.856C371.842 357.56 371.706 358.248 371.578 358.92C371.45 359.576 371.346 360.184 371.266 360.744H367.978L367.81 360.48C367.954 359.904 368.138 359.296 368.362 358.656C368.586 358.016 368.826 357.368 369.082 356.712C369.354 356.056 369.618 355.44 369.874 354.864H372.442ZM366.97 354.864C366.826 355.488 366.674 356.152 366.514 356.856C366.37 357.56 366.234 358.248 366.106 358.92C365.978 359.576 365.874 360.184 365.794 360.744H362.506L362.338 360.48C362.482 359.904 362.666 359.296 362.89 358.656C363.114 358.016 363.354 357.368 363.61 356.712C363.882 356.056 364.146 355.44 364.402 354.864H366.97ZM387.426 351.864H390.642V374.088H387.426V351.864ZM389.826 360.384H393.738V363H389.826V360.384ZM381.594 354.168H384.738C384.738 356.392 384.418 358.496 383.778 360.48C383.154 362.464 382.114 364.288 380.658 365.952C379.218 367.6 377.266 369.04 374.802 370.272L373.002 367.848C374.954 366.84 376.562 365.704 377.826 364.44C379.106 363.176 380.05 361.744 380.658 360.144C381.282 358.528 381.594 356.728 381.594 354.744V354.168ZM374.226 354.168H383.25V356.736H374.226V354.168ZM403.264 353.304H406.624C406.624 355.288 406.216 357.056 405.4 358.608C404.6 360.16 403.432 361.48 401.896 362.568C400.36 363.656 398.488 364.496 396.28 365.088L395.056 362.592C396.88 362.112 398.4 361.488 399.616 360.72C400.832 359.936 401.744 359.048 402.352 358.056C402.96 357.064 403.264 356 403.264 354.864V353.304ZM396.304 353.304H405.328V355.848H396.304V353.304ZM398.272 366.024H413.44V374.064H410.224V368.544H398.272V366.024ZM410.224 351.888H413.44V365.088H410.224V351.888ZM405.568 355.464H410.776V358.008H405.568V355.464ZM405.352 360.192H410.56V362.76H405.352V360.192ZM431.678 351.864H434.87V374.16H431.678V351.864ZM422.894 353.424C424.03 353.424 425.038 353.752 425.918 354.408C426.798 355.048 427.486 355.968 427.982 357.168C428.494 358.352 428.75 359.752 428.75 361.368C428.75 363 428.494 364.416 427.982 365.616C427.486 366.8 426.798 367.72 425.918 368.376C425.038 369.016 424.03 369.336 422.894 369.336C421.774 369.336 420.774 369.016 419.894 368.376C419.014 367.72 418.318 366.8 417.806 365.616C417.31 364.416 417.062 363 417.062 361.368C417.062 359.752 417.31 358.352 417.806 357.168C418.318 355.968 419.014 355.048 419.894 354.408C420.774 353.752 421.774 353.424 422.894 353.424ZM422.894 356.328C422.35 356.328 421.87 356.52 421.454 356.904C421.038 357.288 420.71 357.856 420.47 358.608C420.246 359.344 420.134 360.264 420.134 361.368C420.134 362.456 420.246 363.384 420.47 364.152C420.71 364.904 421.038 365.472 421.454 365.856C421.87 366.24 422.35 366.432 422.894 366.432C423.454 366.432 423.942 366.24 424.358 365.856C424.774 365.472 425.094 364.904 425.318 364.152C425.558 363.384 425.678 362.456 425.678 361.368C425.678 360.264 425.558 359.344 425.318 358.608C425.094 357.856 424.774 357.288 424.358 356.904C423.942 356.52 423.454 356.328 422.894 356.328ZM459.247 351.888H462.439V374.184H459.247V351.888ZM453.271 358.776H460.183V361.344H453.271V358.776ZM444.919 354.264H448.087V368.088H444.919V354.264ZM444.919 366.312H446.815C447.871 366.312 448.935 366.288 450.007 366.24C451.095 366.176 452.199 366.08 453.319 365.952C454.439 365.824 455.567 365.648 456.703 365.424L457.039 368.04C455.855 368.28 454.687 368.472 453.535 368.616C452.383 368.744 451.247 368.84 450.127 368.904C449.007 368.952 447.903 368.976 446.815 368.976H444.919V366.312ZM465.389 364.32H485.501V366.888H465.389V364.32ZM473.765 365.952H476.957V374.136H473.765V365.952ZM467.693 352.992H483.101V361.944H467.693V352.992ZM479.981 355.488H470.837V359.448H479.981V355.488ZM507.981 351.864H511.173V374.16H507.981V351.864ZM493.821 353.64H496.989V359.064H501.597V353.64H504.765V368.976H493.821V353.64ZM496.989 361.536V366.432H501.597V361.536H496.989ZM529.291 351.912H532.507V364.032H529.291V351.912ZM530.899 356.544H534.715V359.16H530.899V356.544ZM517.507 364.92H520.675V366.936H529.339V364.92H532.507V373.848H517.507V364.92ZM520.675 369.408V371.304H529.339V369.408H520.675ZM517.123 352.848H519.379V353.952C519.379 354.896 519.323 355.84 519.211 356.784C519.099 357.712 518.899 358.608 518.611 359.472C518.339 360.32 517.963 361.096 517.483 361.8C517.003 362.488 516.379 363.064 515.611 363.528L513.907 361.272C514.547 360.856 515.075 360.376 515.491 359.832C515.907 359.272 516.235 358.672 516.475 358.032C516.715 357.376 516.883 356.704 516.979 356.016C517.075 355.328 517.123 354.64 517.123 353.952V352.848ZM517.915 352.848H520.123V353.952C520.123 354.608 520.155 355.28 520.219 355.968C520.299 356.656 520.443 357.336 520.651 358.008C520.859 358.664 521.155 359.288 521.539 359.88C521.939 360.472 522.451 360.992 523.075 361.44L521.563 363.768C520.795 363.256 520.171 362.632 519.691 361.896C519.211 361.16 518.843 360.352 518.587 359.472C518.331 358.576 518.155 357.656 518.059 356.712C517.963 355.768 517.915 354.848 517.915 353.952V352.848ZM523.027 352.848H525.235V353.952C525.235 354.864 525.187 355.792 525.091 356.736C524.995 357.68 524.819 358.6 524.563 359.496C524.307 360.376 523.939 361.184 523.459 361.92C522.979 362.656 522.347 363.272 521.563 363.768L520.075 361.44C520.699 360.992 521.203 360.48 521.587 359.904C521.987 359.312 522.291 358.688 522.499 358.032C522.707 357.36 522.843 356.68 522.907 355.992C522.987 355.304 523.027 354.624 523.027 353.952V352.848ZM523.747 352.848H526.027V353.952C526.027 354.896 526.115 355.824 526.291 356.736C526.467 357.648 526.787 358.496 527.251 359.28C527.715 360.064 528.371 360.728 529.219 361.272L527.515 363.528C526.507 362.92 525.731 362.112 525.187 361.104C524.643 360.096 524.267 358.976 524.059 357.744C523.851 356.512 523.747 355.248 523.747 353.952V352.848ZM551.322 351.888H554.49V374.112H551.322V351.888ZM537.09 354H540.282V367.824H537.09V354ZM537.09 365.928H539.058C540.69 365.928 542.394 365.864 544.17 365.736C545.946 365.592 547.754 365.336 549.594 364.968L549.93 367.632C548.042 368.032 546.178 368.304 544.338 368.448C542.514 368.576 540.754 368.64 539.058 368.64H537.09V365.928ZM571.72 351.864H574.936V374.16H571.72V351.864ZM574.24 360.096H578.152V362.736H574.24V360.096ZM558.376 366.192H560.248C561.512 366.192 562.696 366.176 563.8 366.144C564.904 366.096 565.976 366.024 567.016 365.928C568.056 365.816 569.12 365.664 570.208 365.472L570.52 368.112C569.4 368.304 568.296 368.456 567.208 368.568C566.136 368.68 565.032 368.752 563.896 368.784C562.76 368.816 561.544 368.832 560.248 368.832H558.376V366.192ZM558.376 353.928H568.744V356.496H561.568V367.44H558.376V353.928ZM588.542 355.128C588.398 355.688 588.214 356.296 587.99 356.952C587.766 357.592 587.526 358.24 587.27 358.896C587.014 359.536 586.75 360.152 586.478 360.744H583.91C584.07 360.104 584.222 359.44 584.366 358.752C584.51 358.048 584.646 357.36 584.774 356.688C584.902 356.016 585.006 355.408 585.086 354.864H588.374L588.542 355.128ZM583.07 355.128C582.926 355.688 582.742 356.296 582.518 356.952C582.294 357.592 582.054 358.24 581.798 358.896C581.542 359.536 581.278 360.152 581.006 360.744H578.438C578.55 360.264 578.662 359.768 578.774 359.256C578.886 358.744 578.99 358.232 579.086 357.72C579.198 357.192 579.294 356.688 579.374 356.208C579.47 355.728 579.55 355.28 579.614 354.864H582.902L583.07 355.128Z" fill="#534F4B"/>
<path d="M62.5 309C69 302.5 59 293.25 59 293.25L77.1865 293.25C77.1865 293.25 72.5 309 62.5 309Z" fill="white"/>
<rect y="216" width="427" height="78" rx="8" fill="white"/>
<path d="M50.7489 246.864C50.6049 247.488 50.4529 248.152 50.2929 248.856C50.1489 249.56 50.0129 250.248 49.8849 250.92C49.7569 251.576 49.6529 252.184 49.5729 252.744H46.2849L46.1169 252.48C46.2609 251.904 46.4449 251.296 46.6689 250.656C46.8929 250.016 47.1329 249.368 47.3889 248.712C47.6609 248.056 47.9249 247.44 48.1809 246.864H50.7489ZM45.2769 246.864C45.1329 247.488 44.9809 248.152 44.8209 248.856C44.6769 249.56 44.5409 250.248 44.4129 250.92C44.2849 251.576 44.1809 252.184 44.1009 252.744H40.8129L40.6449 252.48C40.7889 251.904 40.9729 251.296 41.1969 250.656C41.4209 250.016 41.6609 249.368 41.9169 248.712C42.1889 248.056 42.4529 247.44 42.7089 246.864H45.2769ZM56.5404 245.616H59.1084V248.832C59.1084 250.208 58.9884 251.552 58.7484 252.864C58.5084 254.16 58.1324 255.368 57.6204 256.488C57.1244 257.608 56.4924 258.608 55.7244 259.488C54.9564 260.352 54.0524 261.04 53.0124 261.552L51.0924 258.984C52.0364 258.552 52.8444 257.976 53.5164 257.256C54.2044 256.536 54.7724 255.72 55.2204 254.808C55.6684 253.896 55.9964 252.936 56.2044 251.928C56.4284 250.904 56.5404 249.872 56.5404 248.832V245.616ZM57.1644 245.616H59.7324V248.832C59.7324 249.84 59.8284 250.832 60.0204 251.808C60.2284 252.784 60.5404 253.712 60.9564 254.592C61.3884 255.456 61.9244 256.232 62.5644 256.92C63.2044 257.608 63.9724 258.176 64.8684 258.624L62.9244 261.168C61.9324 260.656 61.0684 259.984 60.3324 259.152C59.6124 258.304 59.0204 257.336 58.5564 256.248C58.0924 255.144 57.7404 253.968 57.5004 252.72C57.2764 251.456 57.1644 250.16 57.1644 248.832V245.616ZM65.7324 243.912H68.9484V266.136H65.7324V243.912ZM68.2524 252.456H72.1644V255.096H68.2524V252.456ZM88.5305 243.888H91.7465V260.136H88.5305V243.888ZM84.7145 250.368H88.9865V252.96H84.7145V250.368ZM81.5465 245.568H84.8825C84.8825 247.568 84.4825 249.376 83.6825 250.992C82.8825 252.608 81.7225 254.008 80.2025 255.192C78.6985 256.376 76.8665 257.312 74.7065 258L73.3865 255.456C75.0985 254.912 76.5625 254.224 77.7785 253.392C78.9945 252.544 79.9225 251.584 80.5625 250.512C81.2185 249.424 81.5465 248.256 81.5465 247.008V245.568ZM74.5385 245.568H83.5625V248.112H74.5385V245.568ZM77.1785 263.184H92.2985V265.752H77.1785V263.184ZM77.1785 258.528H80.3705V264.672H77.1785V258.528ZM112.523 248.88H116.723V251.448H112.523V248.88ZM115.883 243.912H119.075V256.056H115.883V243.912ZM104.339 256.944H107.507V258.984H115.931V256.944H119.075V265.896H104.339V256.944ZM107.507 261.432V263.328H115.931V261.432H107.507ZM105.635 245.616H108.227V247.032C108.227 248.424 108.003 249.752 107.555 251.016C107.107 252.28 106.419 253.384 105.491 254.328C104.579 255.272 103.403 255.984 101.963 256.464L100.379 253.944C101.291 253.624 102.075 253.224 102.731 252.744C103.403 252.264 103.947 251.712 104.363 251.088C104.795 250.464 105.115 249.808 105.323 249.12C105.531 248.432 105.635 247.736 105.635 247.032V245.616ZM106.307 245.616H108.851V247.008C108.851 247.872 109.027 248.736 109.379 249.6C109.731 250.448 110.275 251.216 111.011 251.904C111.763 252.592 112.723 253.136 113.891 253.536L112.331 256.032C110.955 255.568 109.819 254.88 108.923 253.968C108.043 253.056 107.387 252 106.955 250.8C106.523 249.6 106.307 248.336 106.307 247.008V245.616ZM101.243 244.92H113.195V247.44H101.243V244.92ZM130.473 244.536H133.257V245.592C133.257 246.44 133.121 247.264 132.849 248.064C132.593 248.848 132.209 249.584 131.697 250.272C131.185 250.96 130.561 251.576 129.825 252.12C129.089 252.664 128.233 253.128 127.257 253.512C126.297 253.88 125.241 254.16 124.089 254.352L122.841 251.784C123.865 251.656 124.777 251.44 125.577 251.136C126.393 250.832 127.105 250.472 127.713 250.056C128.337 249.64 128.849 249.184 129.249 248.688C129.649 248.192 129.953 247.68 130.161 247.152C130.369 246.624 130.473 246.104 130.473 245.592V244.536ZM131.073 244.536H133.857V245.592C133.857 246.104 133.961 246.624 134.169 247.152C134.377 247.68 134.681 248.192 135.081 248.688C135.481 249.184 135.985 249.64 136.593 250.056C137.217 250.472 137.929 250.832 138.729 251.136C139.545 251.44 140.465 251.656 141.489 251.784L140.241 254.352C139.073 254.16 138.009 253.88 137.049 253.512C136.089 253.128 135.241 252.664 134.505 252.12C133.769 251.56 133.145 250.936 132.633 250.248C132.121 249.56 131.729 248.824 131.457 248.04C131.201 247.256 131.073 246.44 131.073 245.592V244.536ZM130.473 257.976H133.665V266.136H130.473V257.976ZM122.097 255.96H142.209V258.552H122.097V255.96ZM157.879 243.864H161.095V266.088H157.879V243.864ZM160.279 252.384H164.191V255H160.279V252.384ZM152.047 246.168H155.191C155.191 248.392 154.871 250.496 154.231 252.48C153.607 254.464 152.567 256.288 151.111 257.952C149.671 259.6 147.719 261.04 145.255 262.272L143.455 259.848C145.407 258.84 147.015 257.704 148.279 256.44C149.559 255.176 150.503 253.744 151.111 252.144C151.735 250.528 152.047 248.728 152.047 246.744V246.168ZM144.679 246.168H153.703V248.736H144.679V246.168ZM186.216 243.912H189.36V266.136H186.216V243.912ZM187.608 252.096H191.52V254.736H187.608V252.096ZM171.144 245.928H173.784V251.04H175.08V245.928H177.648V260.976H171.144V245.928ZM173.784 253.536V258.432H175.08V253.536H173.784ZM178.512 245.928H181.104V251.04H182.448V245.928H185.064V260.976H178.512V245.928ZM181.104 253.536V258.432H182.448V253.536H181.104ZM192.646 261.024H212.782V263.64H192.646V261.024ZM194.926 245.376H210.502V252.816H198.118V256.536H194.95V250.32H207.334V247.944H194.926V245.376ZM194.95 255.288H211.006V257.832H194.95V255.288ZM230.324 243.888H233.372V266.112H230.324V243.888ZM221.54 252.408H226.268V254.952H221.54V252.408ZM225.644 244.368H228.62V265.128H225.644V244.368ZM220.82 246.504H223.892C223.892 248.616 223.644 250.584 223.148 252.408C222.652 254.232 221.812 255.904 220.628 257.424C219.46 258.944 217.836 260.304 215.756 261.504L213.956 259.272C215.636 258.264 216.972 257.168 217.964 255.984C218.972 254.784 219.7 253.464 220.148 252.024C220.596 250.568 220.82 248.944 220.82 247.152V246.504ZM215.18 246.504H221.804V249.072H215.18V246.504ZM243.085 252.888H254.701V255.456H243.085V252.888ZM247.261 254.952H250.477V259.656H247.261V254.952ZM243.085 245.856H254.581V248.4H246.301V253.68H243.085V245.856ZM256.933 243.864H260.125V266.16H256.933V243.864ZM242.053 261.792L241.693 259.2C243.117 259.2 244.621 259.192 246.205 259.176C247.789 259.16 249.389 259.12 251.005 259.056C252.637 258.976 254.213 258.848 255.733 258.672L255.949 261C254.349 261.256 252.741 261.44 251.125 261.552C249.525 261.664 247.957 261.736 246.421 261.768C244.901 261.784 243.445 261.792 242.053 261.792ZM268.547 247.416H271.091V249.912C271.091 251.192 270.955 252.448 270.683 253.68C270.427 254.912 270.035 256.072 269.507 257.16C268.995 258.232 268.347 259.184 267.563 260.016C266.779 260.832 265.867 261.48 264.827 261.96L263.003 259.44C263.931 259.008 264.739 258.448 265.427 257.76C266.131 257.072 266.707 256.304 267.155 255.456C267.619 254.592 267.963 253.688 268.187 252.744C268.427 251.784 268.547 250.84 268.547 249.912V247.416ZM269.243 247.416H271.763V249.912C271.763 250.792 271.875 251.688 272.099 252.6C272.339 253.496 272.683 254.352 273.131 255.168C273.579 255.968 274.147 256.688 274.835 257.328C275.523 257.968 276.339 258.48 277.283 258.864L275.531 261.408C274.475 260.944 273.555 260.32 272.771 259.536C271.987 258.752 271.331 257.848 270.803 256.824C270.275 255.8 269.883 254.704 269.627 253.536C269.371 252.352 269.243 251.144 269.243 249.912V247.416ZM263.891 246.024H276.371V248.664H263.891V246.024ZM278.435 243.912H281.627V266.136H278.435V243.912ZM296.595 244.968C297.747 244.968 298.763 245.192 299.643 245.64C300.539 246.088 301.243 246.704 301.755 247.488C302.283 248.256 302.547 249.144 302.547 250.152C302.547 251.16 302.283 252.056 301.755 252.84C301.243 253.624 300.539 254.24 299.643 254.688C298.763 255.136 297.747 255.36 296.595 255.36C295.475 255.36 294.467 255.136 293.571 254.688C292.691 254.24 291.987 253.624 291.459 252.84C290.947 252.056 290.691 251.16 290.691 250.152C290.691 249.144 290.947 248.256 291.459 247.488C291.987 246.704 292.691 246.088 293.571 245.64C294.467 245.192 295.475 244.968 296.595 244.968ZM296.619 247.56C296.075 247.56 295.587 247.664 295.155 247.872C294.723 248.064 294.379 248.36 294.123 248.76C293.883 249.144 293.763 249.608 293.763 250.152C293.763 250.696 293.883 251.16 294.123 251.544C294.379 251.928 294.723 252.224 295.155 252.432C295.587 252.64 296.075 252.744 296.619 252.744C297.163 252.744 297.643 252.64 298.059 252.432C298.491 252.224 298.827 251.928 299.067 251.544C299.323 251.16 299.451 250.696 299.451 250.152C299.451 249.608 299.323 249.144 299.067 248.76C298.827 248.36 298.491 248.064 298.059 247.872C297.643 247.664 297.163 247.56 296.619 247.56ZM304.827 243.912H308.019V254.832H304.827V243.912ZM306.771 248.496H310.971V251.112H306.771V248.496ZM292.491 262.992H293.739C294.379 262.992 294.995 262.976 295.587 262.944C296.195 262.912 296.779 262.848 297.339 262.752C297.915 262.64 298.475 262.488 299.019 262.296L299.475 264.816C298.867 265.024 298.259 265.176 297.651 265.272C297.043 265.384 296.419 265.456 295.779 265.488C295.155 265.536 294.475 265.56 293.739 265.56H292.491V262.992ZM292.491 256.968H295.587V263.784H292.491V256.968ZM298.707 257.04H309.795V259.32H298.707V257.04ZM304.251 259.896C305.515 259.896 306.547 260.184 307.347 260.76C308.147 261.32 308.547 262.072 308.547 263.016C308.547 263.992 308.147 264.76 307.347 265.32C306.547 265.88 305.515 266.16 304.251 266.16C302.987 266.16 301.955 265.88 301.155 265.32C300.355 264.76 299.955 263.992 299.955 263.016C299.955 262.072 300.355 261.32 301.155 260.76C301.955 260.184 302.987 259.896 304.251 259.896ZM304.251 262.056C303.835 262.056 303.483 262.136 303.195 262.296C302.923 262.456 302.787 262.696 302.787 263.016C302.787 263.352 302.923 263.6 303.195 263.76C303.483 263.92 303.835 264 304.251 264C304.667 264 305.011 263.92 305.283 263.76C305.571 263.6 305.715 263.352 305.715 263.016C305.715 262.696 305.571 262.456 305.283 262.296C305.011 262.136 304.667 262.056 304.251 262.056ZM302.715 255.456H305.811V258.768H302.715V255.456ZM314.473 257.208H317.641V259.08H326.545V257.208H329.689V265.896H314.473V257.208ZM317.641 261.48V263.4H326.545V261.48H317.641ZM312.121 253.608H332.233V256.104H312.121V253.608ZM320.545 244.128H323.281V244.8C323.281 245.584 323.145 246.328 322.873 247.032C322.617 247.736 322.241 248.392 321.745 249C321.249 249.608 320.633 250.16 319.897 250.656C319.177 251.136 318.345 251.544 317.401 251.88C316.457 252.2 315.409 252.44 314.257 252.6L313.105 250.128C314.113 250.016 315.017 249.832 315.817 249.576C316.617 249.32 317.313 249.016 317.905 248.664C318.497 248.296 318.985 247.904 319.369 247.488C319.769 247.056 320.065 246.616 320.257 246.168C320.449 245.704 320.545 245.248 320.545 244.8V244.128ZM321.073 244.128H323.809V244.8C323.809 245.248 323.905 245.704 324.097 246.168C324.289 246.616 324.577 247.056 324.961 247.488C325.361 247.904 325.857 248.296 326.449 248.664C327.041 249.016 327.737 249.32 328.537 249.576C329.353 249.832 330.257 250.016 331.249 250.128L330.097 252.6C328.945 252.44 327.897 252.2 326.953 251.88C326.025 251.544 325.193 251.136 324.457 250.656C323.721 250.16 323.105 249.608 322.609 249C322.113 248.392 321.729 247.736 321.457 247.032C321.201 246.312 321.073 245.568 321.073 244.8V244.128ZM349.127 243.888H352.295V266.112H349.127V243.888ZM334.895 246H338.087V259.824H334.895V246ZM334.895 257.928H336.863C338.495 257.928 340.199 257.864 341.975 257.736C343.751 257.592 345.559 257.336 347.399 256.968L347.735 259.632C345.847 260.032 343.983 260.304 342.143 260.448C340.319 260.576 338.559 260.64 336.863 260.64H334.895V257.928ZM369.525 243.864H372.741V266.16H369.525V243.864ZM372.045 252.096H375.957V254.736H372.045V252.096ZM356.181 258.192H358.053C359.317 258.192 360.501 258.176 361.605 258.144C362.709 258.096 363.781 258.024 364.821 257.928C365.861 257.816 366.925 257.664 368.013 257.472L368.325 260.112C367.205 260.304 366.101 260.456 365.013 260.568C363.941 260.68 362.837 260.752 361.701 260.784C360.565 260.816 359.349 260.832 358.053 260.832H356.181V258.192ZM356.181 245.928H366.549V248.496H359.373V259.44H356.181V245.928ZM386.348 247.128C386.204 247.688 386.02 248.296 385.796 248.952C385.572 249.592 385.332 250.24 385.076 250.896C384.82 251.536 384.556 252.152 384.284 252.744H381.716C381.876 252.104 382.028 251.44 382.172 250.752C382.316 250.048 382.452 249.36 382.58 248.688C382.708 248.016 382.812 247.408 382.892 246.864H386.18L386.348 247.128ZM380.876 247.128C380.732 247.688 380.548 248.296 380.324 248.952C380.1 249.592 379.86 250.24 379.604 250.896C379.348 251.536 379.084 252.152 378.812 252.744H376.244C376.356 252.264 376.468 251.768 376.58 251.256C376.692 250.744 376.796 250.232 376.892 249.72C377.004 249.192 377.1 248.688 377.18 248.208C377.276 247.728 377.356 247.28 377.42 246.864H380.708L380.876 247.128Z" fill="#534F4B"/>
<path d="M663.687 201C657.187 194.5 667.187 185.25 667.187 185.25L649 185.25C649 185.25 653.687 201 663.687 201Z" fill="white"/>
<rect x="321.5" y="108" width="399" height="78" rx="8" fill="white"/>
<path d="M371.925 138.864C371.781 139.488 371.629 140.152 371.469 140.856C371.325 141.56 371.189 142.248 371.061 142.92C370.933 143.576 370.829 144.184 370.749 144.744H367.461L367.293 144.48C367.437 143.904 367.621 143.296 367.845 142.656C368.069 142.016 368.309 141.368 368.565 140.712C368.837 140.056 369.101 139.44 369.357 138.864H371.925ZM366.453 138.864C366.309 139.488 366.157 140.152 365.997 140.856C365.853 141.56 365.717 142.248 365.589 142.92C365.461 143.576 365.357 144.184 365.277 144.744H361.989L361.821 144.48C361.965 143.904 362.149 143.296 362.373 142.656C362.597 142.016 362.837 141.368 363.093 140.712C363.365 140.056 363.629 139.44 363.885 138.864H366.453ZM383.957 140.808H389.525V143.376H383.957V140.808ZM378.845 136.824C379.965 136.824 380.965 137.056 381.845 137.52C382.741 137.968 383.445 138.592 383.957 139.392C384.469 140.176 384.725 141.088 384.725 142.128C384.725 143.152 384.469 144.064 383.957 144.864C383.445 145.664 382.741 146.296 381.845 146.76C380.965 147.208 379.965 147.432 378.845 147.432C377.741 147.432 376.741 147.208 375.845 146.76C374.965 146.296 374.269 145.664 373.757 144.864C373.245 144.064 372.989 143.152 372.989 142.128C372.989 141.088 373.245 140.176 373.757 139.392C374.269 138.592 374.965 137.968 375.845 137.52C376.741 137.056 377.741 136.824 378.845 136.824ZM378.845 139.464C378.301 139.464 377.813 139.568 377.381 139.776C376.965 139.984 376.637 140.288 376.397 140.688C376.157 141.088 376.037 141.568 376.037 142.128C376.037 142.672 376.157 143.144 376.397 143.544C376.637 143.944 376.965 144.248 377.381 144.456C377.813 144.664 378.301 144.768 378.845 144.768C379.389 144.768 379.869 144.664 380.285 144.456C380.717 144.248 381.053 143.944 381.293 143.544C381.533 143.144 381.653 142.672 381.653 142.128C381.653 141.568 381.533 141.088 381.293 140.688C381.053 140.288 380.717 139.984 380.285 139.776C379.869 139.568 379.389 139.464 378.845 139.464ZM388.109 135.912H391.325V147.84H388.109V135.912ZM376.565 148.824H379.733V150.912H388.157V148.824H391.325V157.896H376.565V148.824ZM379.733 153.36V155.352H388.157V153.36H379.733ZM402.891 141.768H407.379V144.288H402.891V141.768ZM402.771 147.312H407.307V149.856H402.771V147.312ZM410.403 135.888H413.451V158.112H410.403V135.888ZM405.843 136.368H408.819V157.128H405.843V136.368ZM400.827 138.504H403.875C403.875 140.616 403.627 142.584 403.131 144.408C402.651 146.216 401.819 147.88 400.635 149.4C399.467 150.92 397.851 152.288 395.787 153.504L393.987 151.272C395.667 150.264 397.003 149.168 397.995 147.984C399.003 146.784 399.723 145.464 400.155 144.024C400.603 142.568 400.827 140.944 400.827 139.152V138.504ZM395.259 138.504H401.883V141.072H395.259V138.504ZM424.801 144.072H428.449V146.64H424.801V144.072ZM431.953 135.888H435.001V158.112H431.953V135.888ZM427.441 136.248H430.417V157.128H427.441V136.248ZM420.913 137.448C421.889 137.448 422.737 137.776 423.457 138.432C424.193 139.072 424.753 140 425.137 141.216C425.537 142.416 425.737 143.856 425.737 145.536C425.737 147.2 425.537 148.64 425.137 149.856C424.753 151.072 424.193 152.008 423.457 152.664C422.737 153.304 421.881 153.624 420.889 153.624C419.929 153.624 419.081 153.304 418.345 152.664C417.625 152.008 417.065 151.072 416.665 149.856C416.281 148.64 416.089 147.2 416.089 145.536C416.089 143.856 416.281 142.416 416.665 141.216C417.065 140 417.625 139.072 418.345 138.432C419.081 137.776 419.937 137.448 420.913 137.448ZM420.913 140.472C420.513 140.472 420.169 140.656 419.881 141.024C419.593 141.392 419.369 141.952 419.209 142.704C419.065 143.44 418.993 144.384 418.993 145.536C418.993 146.656 419.065 147.592 419.209 148.344C419.369 149.096 419.593 149.664 419.881 150.048C420.169 150.416 420.513 150.6 420.913 150.6C421.313 150.6 421.657 150.416 421.945 150.048C422.249 149.664 422.473 149.096 422.617 148.344C422.761 147.592 422.833 146.656 422.833 145.536C422.833 144.384 422.761 143.44 422.617 142.704C422.473 141.952 422.249 141.392 421.945 141.024C421.657 140.656 421.313 140.472 420.913 140.472ZM459.305 135.888H462.353V158.112H459.305V135.888ZM456.353 144.456H460.049V147.024H456.353V144.456ZM454.337 136.272H457.289V157.08H454.337V136.272ZM443.897 150.48H445.433C446.361 150.48 447.241 150.472 448.073 150.456C448.905 150.424 449.729 150.368 450.545 150.288C451.377 150.192 452.225 150.072 453.089 149.928L453.353 152.52C452.457 152.68 451.585 152.808 450.737 152.904C449.889 153 449.033 153.064 448.169 153.096C447.305 153.112 446.393 153.12 445.433 153.12H443.897V150.48ZM443.897 138.48H452.081V141.048H447.041V151.752H443.897V138.48ZM479.152 135.912H482.344V152.52H479.152V135.912ZM481.456 142.68H485.296V145.32H481.456V142.68ZM464.872 138.24H477.928V140.736H464.872V138.24ZM471.4 141.528C472.472 141.528 473.416 141.712 474.232 142.08C475.064 142.432 475.712 142.936 476.176 143.592C476.64 144.232 476.872 144.968 476.872 145.8C476.872 146.648 476.64 147.4 476.176 148.056C475.712 148.696 475.064 149.2 474.232 149.568C473.416 149.92 472.472 150.096 471.4 150.096C470.344 150.096 469.4 149.92 468.568 149.568C467.736 149.2 467.088 148.696 466.624 148.056C466.16 147.4 465.928 146.648 465.928 145.8C465.928 144.968 466.16 144.232 466.624 143.592C467.088 142.936 467.736 142.432 468.568 142.08C469.4 141.712 470.344 141.528 471.4 141.528ZM471.4 143.952C470.696 143.952 470.12 144.112 469.672 144.432C469.224 144.752 469 145.216 469 145.824C469 146.416 469.224 146.872 469.672 147.192C470.12 147.512 470.696 147.672 471.4 147.672C472.12 147.672 472.696 147.512 473.128 147.192C473.576 146.872 473.8 146.416 473.8 145.824C473.8 145.216 473.576 144.752 473.128 144.432C472.696 144.112 472.12 143.952 471.4 143.952ZM469.816 135.888H472.984V139.44H469.816V135.888ZM468.016 155.184H483.136V157.752H468.016V155.184ZM468.016 151.272H471.232V156.288H468.016V151.272ZM507.464 135.864H510.656V158.16H507.464V135.864ZM498.68 137.424C499.816 137.424 500.824 137.752 501.704 138.408C502.584 139.048 503.272 139.968 503.768 141.168C504.28 142.352 504.536 143.752 504.536 145.368C504.536 147 504.28 148.416 503.768 149.616C503.272 150.8 502.584 151.72 501.704 152.376C500.824 153.016 499.816 153.336 498.68 153.336C497.56 153.336 496.56 153.016 495.68 152.376C494.8 151.72 494.104 150.8 493.592 149.616C493.096 148.416 492.848 147 492.848 145.368C492.848 143.752 493.096 142.352 493.592 141.168C494.104 139.968 494.8 139.048 495.68 138.408C496.56 137.752 497.56 137.424 498.68 137.424ZM498.68 140.328C498.136 140.328 497.656 140.52 497.24 140.904C496.824 141.288 496.496 141.856 496.256 142.608C496.032 143.344 495.92 144.264 495.92 145.368C495.92 146.456 496.032 147.384 496.256 148.152C496.496 148.904 496.824 149.472 497.24 149.856C497.656 150.24 498.136 150.432 498.68 150.432C499.24 150.432 499.728 150.24 500.144 149.856C500.56 149.472 500.88 148.904 501.104 148.152C501.344 147.384 501.464 146.456 501.464 145.368C501.464 144.264 501.344 143.344 501.104 142.608C500.88 141.856 500.56 141.288 500.144 140.904C499.728 140.52 499.24 140.328 498.68 140.328ZM513.798 139.248H524.43V141.768H513.798V139.248ZM519.15 142.776C520.094 142.776 520.926 143 521.646 143.448C522.382 143.896 522.958 144.52 523.374 145.32C523.806 146.104 524.022 147.016 524.022 148.056C524.022 149.096 523.806 150.016 523.374 150.816C522.958 151.6 522.382 152.216 521.646 152.664C520.926 153.112 520.094 153.336 519.15 153.336C518.206 153.336 517.366 153.112 516.63 152.664C515.894 152.216 515.318 151.6 514.902 150.816C514.486 150.016 514.278 149.096 514.278 148.056C514.278 147.016 514.486 146.104 514.902 145.32C515.318 144.52 515.894 143.896 516.63 143.448C517.382 143 518.222 142.776 519.15 142.776ZM519.15 145.416C518.766 145.416 518.414 145.52 518.094 145.728C517.774 145.936 517.526 146.24 517.35 146.64C517.174 147.024 517.086 147.496 517.086 148.056C517.086 148.616 517.174 149.096 517.35 149.496C517.526 149.896 517.774 150.2 518.094 150.408C518.414 150.6 518.766 150.696 519.15 150.696C519.55 150.696 519.902 150.6 520.206 150.408C520.51 150.2 520.75 149.896 520.926 149.496C521.102 149.096 521.19 148.616 521.19 148.056C521.19 147.496 521.102 147.024 520.926 146.64C520.75 146.24 520.51 145.936 520.206 145.728C519.902 145.52 519.55 145.416 519.15 145.416ZM529.878 135.888H532.902V158.112H529.878V135.888ZM527.214 144.936H530.862V147.504H527.214V144.936ZM525.198 136.296H528.174V157.176H525.198V136.296ZM517.59 136.488H520.734V140.832H517.59V136.488ZM537.772 145.8H553.396V148.368H537.772V145.8ZM535.42 153.024H555.556V155.64H535.42V153.024ZM543.868 146.976H547.036V153.864H543.868V146.976ZM537.772 137.424H553.228V139.968H540.94V146.904H537.772V137.424ZM571.202 135.864H574.418V158.088H571.202V135.864ZM573.602 144.384H577.514V147H573.602V144.384ZM565.37 138.168H568.514C568.514 140.392 568.194 142.496 567.554 144.48C566.93 146.464 565.89 148.288 564.434 149.952C562.994 151.6 561.042 153.04 558.578 154.272L556.778 151.848C558.73 150.84 560.338 149.704 561.602 148.44C562.882 147.176 563.826 145.744 564.434 144.144C565.058 142.528 565.37 140.728 565.37 138.744V138.168ZM558.002 138.168H567.026V140.736H558.002V138.168ZM598.651 135.888H601.843V148.056H598.651V135.888ZM600.979 140.736H604.795V143.352H600.979V140.736ZM585.259 136.944H588.451V146.064H585.259V136.944ZM585.259 144.384H587.107C588.627 144.384 590.203 144.328 591.835 144.216C593.483 144.088 595.179 143.848 596.923 143.496L597.283 146.064C595.491 146.416 593.739 146.664 592.027 146.808C590.331 146.936 588.691 147 587.107 147H585.259V144.384ZM592.987 150.408H595.699V150.96C595.699 151.824 595.523 152.64 595.171 153.408C594.819 154.176 594.291 154.872 593.587 155.496C592.899 156.12 592.043 156.632 591.019 157.032C589.995 157.448 588.819 157.752 587.491 157.944L586.315 155.52C587.467 155.392 588.459 155.176 589.291 154.872C590.139 154.568 590.835 154.208 591.379 153.792C591.923 153.36 592.323 152.904 592.579 152.424C592.851 151.928 592.987 151.44 592.987 150.96V150.408ZM593.707 150.408H596.419V150.96C596.419 151.424 596.547 151.896 596.803 152.376C597.075 152.856 597.483 153.312 598.027 153.744C598.587 154.176 599.283 154.552 600.115 154.872C600.947 155.192 601.931 155.424 603.067 155.568L601.915 157.968C600.587 157.792 599.411 157.488 598.387 157.056C597.363 156.624 596.499 156.096 595.795 155.472C595.107 154.832 594.587 154.136 594.235 153.384C593.883 152.616 593.707 151.808 593.707 150.96V150.408ZM587.251 148.992H602.131V151.488H587.251V148.992ZM608.297 149.208H611.465V151.08H620.369V149.208H623.513V157.896H608.297V149.208ZM611.465 153.48V155.4H620.369V153.48H611.465ZM605.945 145.608H626.057V148.104H605.945V145.608ZM614.369 136.128H617.105V136.8C617.105 137.584 616.969 138.328 616.697 139.032C616.441 139.736 616.065 140.392 615.569 141C615.073 141.608 614.457 142.16 613.721 142.656C613.001 143.136 612.169 143.544 611.225 143.88C610.281 144.2 609.233 144.44 608.081 144.6L606.929 142.128C607.937 142.016 608.841 141.832 609.641 141.576C610.441 141.32 611.137 141.016 611.729 140.664C612.321 140.296 612.809 139.904 613.193 139.488C613.593 139.056 613.889 138.616 614.081 138.168C614.273 137.704 614.369 137.248 614.369 136.8V136.128ZM614.897 136.128H617.633V136.8C617.633 137.248 617.729 137.704 617.921 138.168C618.113 138.616 618.401 139.056 618.785 139.488C619.185 139.904 619.681 140.296 620.273 140.664C620.865 141.016 621.561 141.32 622.361 141.576C623.177 141.832 624.081 142.016 625.073 142.128L623.921 144.6C622.769 144.44 621.721 144.2 620.777 143.88C619.849 143.544 619.017 143.136 618.281 142.656C617.545 142.16 616.929 141.608 616.433 141C615.937 140.392 615.553 139.736 615.281 139.032C615.025 138.312 614.897 137.568 614.897 136.8V136.128ZM642.951 135.888H646.119V158.112H642.951V135.888ZM628.719 138H631.911V151.824H628.719V138ZM628.719 149.928H630.687C632.319 149.928 634.023 149.864 635.799 149.736C637.575 149.592 639.383 149.336 641.223 148.968L641.559 151.632C639.671 152.032 637.807 152.304 635.967 152.448C634.143 152.576 632.383 152.64 630.687 152.64H628.719V149.928ZM663.349 135.864H666.565V158.16H663.349V135.864ZM665.869 144.096H669.781V146.736H665.869V144.096ZM650.005 150.192H651.877C653.141 150.192 654.325 150.176 655.429 150.144C656.533 150.096 657.605 150.024 658.645 149.928C659.685 149.816 660.749 149.664 661.837 149.472L662.149 152.112C661.029 152.304 659.925 152.456 658.837 152.568C657.765 152.68 656.661 152.752 655.525 152.784C654.389 152.816 653.173 152.832 651.877 152.832H650.005V150.192ZM650.005 137.928H660.373V140.496H653.197V151.44H650.005V137.928ZM680.171 139.128C680.027 139.688 679.843 140.296 679.619 140.952C679.395 141.592 679.155 142.24 678.899 142.896C678.643 143.536 678.379 144.152 678.107 144.744H675.539C675.699 144.104 675.851 143.44 675.995 142.752C676.139 142.048 676.275 141.36 676.403 140.688C676.531 140.016 676.635 139.408 676.715 138.864H680.003L680.171 139.128ZM674.699 139.128C674.555 139.688 674.371 140.296 674.147 140.952C673.923 141.592 673.683 142.24 673.427 142.896C673.171 143.536 672.907 144.152 672.635 144.744H670.067C670.179 144.264 670.291 143.768 670.403 143.256C670.515 142.744 670.619 142.232 670.715 141.72C670.827 141.192 670.923 140.688 671.003 140.208C671.099 139.728 671.179 139.28 671.243 138.864H674.531L674.699 139.128Z" fill="#534F4B"/>
</svg>
