<svg width="398" height="570" viewBox="0 0 398 570" fill="none" xmlns="http://www.w3.org/2000/svg">
<rect x="0.5" y="31.9629" width="397" height="537" rx="7.5" fill="white" stroke="#4E4034"/>
<path d="M199 436.118C195.084 436.118 191.748 434.748 188.992 432.008C186.235 429.268 184.857 425.952 184.857 422.059C184.857 418.166 186.235 414.85 188.992 412.11C191.748 409.37 195.084 408 199 408C202.916 408 206.252 409.37 209.008 412.11C211.765 414.85 213.143 418.166 213.143 422.059C213.143 425.952 211.765 429.268 209.008 432.008C206.252 434.748 202.916 436.118 199 436.118ZM166 465.136V462.286C166 460.352 166.566 458.544 167.697 456.86C168.832 455.172 170.356 453.863 172.27 452.932C176.72 450.811 181.174 449.221 185.63 448.162C190.084 447.1 194.54 446.568 199 446.568C203.46 446.568 207.918 447.1 212.374 448.162C216.831 449.224 221.281 450.814 225.725 452.932C227.642 453.863 229.167 455.172 230.298 456.86C231.433 458.544 232 460.352 232 462.286V465.136C232 466.51 231.53 467.666 230.59 468.603C229.651 469.534 228.488 470 227.102 470H170.903C169.517 470 168.354 469.533 167.414 468.599C166.475 467.665 166.003 466.51 166 465.136Z" fill="#4E4034"/>
<path d="M184.264 486.346C184.926 486.346 185.51 486.472 186.014 486.724C186.527 486.967 186.928 487.312 187.218 487.76C187.507 488.208 187.652 488.731 187.652 489.328C187.652 489.916 187.507 490.439 187.218 490.896C186.928 491.344 186.527 491.694 186.014 491.946C185.51 492.189 184.926 492.31 184.264 492.31C183.61 492.31 183.027 492.189 182.514 491.946C182 491.694 181.594 491.344 181.296 490.896C181.006 490.439 180.862 489.916 180.862 489.328C180.862 488.731 181.006 488.208 181.296 487.76C181.594 487.312 182 486.967 182.514 486.724C183.027 486.472 183.61 486.346 184.264 486.346ZM184.264 487.354C183.834 487.354 183.447 487.438 183.102 487.606C182.766 487.765 182.5 487.993 182.304 488.292C182.108 488.591 182.01 488.936 182.01 489.328C182.01 489.72 182.108 490.065 182.304 490.364C182.5 490.663 182.766 490.896 183.102 491.064C183.447 491.223 183.834 491.302 184.264 491.302C184.702 491.302 185.09 491.223 185.426 491.064C185.762 490.896 186.028 490.663 186.224 490.364C186.42 490.065 186.518 489.72 186.518 489.328C186.518 488.936 186.42 488.591 186.224 488.292C186.028 487.993 185.762 487.765 185.426 487.606C185.09 487.438 184.702 487.354 184.264 487.354ZM189.318 485.422H190.48V498.106H189.318V485.422ZM180.386 495.334L180.232 494.354C181.006 494.354 181.856 494.349 182.78 494.34C183.704 494.321 184.656 494.284 185.636 494.228C186.625 494.163 187.577 494.06 188.492 493.92L188.59 494.774C187.638 494.951 186.672 495.082 185.692 495.166C184.721 495.241 183.783 495.287 182.878 495.306C181.972 495.325 181.142 495.334 180.386 495.334ZM193.727 486.598H200.083V489.958H194.903V491.904H193.755V489.076H198.935V487.536H193.727V486.598ZM193.755 491.54H200.419V492.464H193.755V491.54ZM196.387 492.184H197.549V494.872H196.387V492.184ZM201.917 485.422H203.079V498.106H201.917V485.422ZM192.985 495.628L192.831 494.648C193.661 494.648 194.543 494.643 195.477 494.634C196.41 494.615 197.357 494.583 198.319 494.536C199.28 494.48 200.204 494.401 201.091 494.298L201.189 495.152C200.265 495.292 199.322 495.399 198.361 495.474C197.409 495.549 196.475 495.595 195.561 495.614C194.655 495.623 193.797 495.628 192.985 495.628ZM214.571 485.436H215.733V494.676H214.571V485.436ZM207.599 496.86H216.125V497.812H207.599V496.86ZM207.599 493.738H208.761V497.182H207.599V493.738ZM208.943 486.318C209.578 486.318 210.143 486.449 210.637 486.71C211.132 486.971 211.524 487.34 211.813 487.816C212.103 488.283 212.247 488.819 212.247 489.426C212.247 490.033 212.103 490.574 211.813 491.05C211.524 491.517 211.132 491.885 210.637 492.156C210.143 492.417 209.578 492.548 208.943 492.548C208.318 492.548 207.753 492.417 207.249 492.156C206.755 491.885 206.363 491.517 206.073 491.05C205.784 490.574 205.639 490.033 205.639 489.426C205.639 488.819 205.784 488.283 206.073 487.816C206.363 487.34 206.755 486.971 207.249 486.71C207.753 486.449 208.318 486.318 208.943 486.318ZM208.943 487.326C208.533 487.326 208.164 487.415 207.837 487.592C207.511 487.769 207.249 488.017 207.053 488.334C206.867 488.651 206.773 489.015 206.773 489.426C206.773 489.846 206.867 490.215 207.053 490.532C207.249 490.84 207.511 491.083 207.837 491.26C208.164 491.437 208.533 491.526 208.943 491.526C209.354 491.526 209.723 491.437 210.049 491.26C210.385 491.083 210.647 490.84 210.833 490.532C211.02 490.215 211.113 489.846 211.113 489.426C211.113 489.015 211.02 488.651 210.833 488.334C210.647 488.017 210.385 487.769 210.049 487.592C209.723 487.415 209.354 487.326 208.943 487.326Z" fill="#4E4034"/>
<path d="M199 170.118C195.084 170.118 191.748 168.748 188.992 166.008C186.235 163.268 184.857 159.952 184.857 156.059C184.857 152.166 186.235 148.85 188.992 146.11C191.748 143.37 195.084 142 199 142C202.916 142 206.252 143.37 209.008 146.11C211.765 148.85 213.143 152.166 213.143 156.059C213.143 159.952 211.765 163.268 209.008 166.008C206.252 168.748 202.916 170.118 199 170.118ZM166 199.136V196.286C166 194.352 166.566 192.544 167.697 190.86C168.832 189.172 170.356 187.863 172.27 186.932C176.72 184.811 181.174 183.221 185.63 182.162C190.084 181.1 194.54 180.568 199 180.568C203.46 180.568 207.918 181.1 212.374 182.162C216.831 183.224 221.281 184.814 225.725 186.932C227.642 187.863 229.167 189.172 230.298 190.86C231.433 192.544 232 194.352 232 196.286V199.136C232 200.51 231.53 201.666 230.59 202.603C229.651 203.534 228.488 204 227.102 204H170.903C169.517 204 168.354 203.533 167.414 202.599C166.475 201.665 166.003 200.51 166 199.136Z" fill="#4E4034"/>
<path d="M129 170.118C125.084 170.118 121.748 168.748 118.992 166.008C116.235 163.268 114.857 159.952 114.857 156.059C114.857 152.166 116.235 148.85 118.992 146.11C121.748 143.37 125.084 142 129 142C132.916 142 136.252 143.37 139.008 146.11C141.765 148.85 143.143 152.166 143.143 156.059C143.143 159.952 141.765 163.268 139.008 166.008C136.252 168.748 132.916 170.118 129 170.118ZM96 199.136V196.286C96 194.352 96.5657 192.544 97.6971 190.86C98.8317 189.172 100.356 187.863 102.27 186.932C106.72 184.811 111.174 183.221 115.63 182.162C120.084 181.1 124.54 180.568 129 180.568C133.46 180.568 137.918 181.1 142.374 182.162C146.831 183.224 151.281 184.814 155.725 186.932C157.642 187.863 159.167 189.172 160.298 190.86C161.433 192.544 162 194.352 162 196.286V199.136C162 200.51 161.53 201.666 160.59 202.603C159.651 203.534 158.488 204 157.102 204H100.903C99.5169 204 98.354 203.533 97.4143 202.599C96.4746 201.665 96.0031 200.51 96 199.136Z" fill="#4E4034"/>
<path d="M269 170.118C265.084 170.118 261.748 168.748 258.992 166.008C256.235 163.268 254.857 159.952 254.857 156.059C254.857 152.166 256.235 148.85 258.992 146.11C261.748 143.37 265.084 142 269 142C272.916 142 276.252 143.37 279.008 146.11C281.765 148.85 283.143 152.166 283.143 156.059C283.143 159.952 281.765 163.268 279.008 166.008C276.252 168.748 272.916 170.118 269 170.118ZM236 199.136V196.286C236 194.352 236.566 192.544 237.697 190.86C238.832 189.172 240.356 187.863 242.27 186.932C246.72 184.811 251.174 183.221 255.63 182.162C260.084 181.1 264.54 180.568 269 180.568C273.46 180.568 277.918 181.1 282.374 182.162C286.831 183.224 291.281 184.814 295.725 186.932C297.642 187.863 299.167 189.172 300.298 190.86C301.433 192.544 302 194.352 302 196.286V199.136C302 200.51 301.53 201.666 300.59 202.603C299.651 203.534 298.488 204 297.102 204H240.903C239.517 204 238.354 203.533 237.414 202.599C236.475 201.665 236.003 200.51 236 199.136Z" fill="#4E4034"/>
<path d="M147.942 225.344H156.636V226.282H147.942V225.344ZM146.486 229.53H157.966V230.496H146.486V229.53ZM151.624 225.75H152.772V229.908H151.624V225.75ZM147.942 220.43H156.51V221.396H149.104V225.764H147.942V220.43ZM162.193 220.192H163.159V221.746C163.159 222.577 163.014 223.342 162.725 224.042C162.436 224.733 162.03 225.335 161.507 225.848C160.984 226.361 160.368 226.753 159.659 227.024L159.029 226.1C159.673 225.876 160.233 225.549 160.709 225.12C161.185 224.681 161.549 224.173 161.801 223.594C162.062 223.015 162.193 222.399 162.193 221.746V220.192ZM162.403 220.192H163.341V221.788C163.341 222.217 163.416 222.637 163.565 223.048C163.724 223.459 163.938 223.846 164.209 224.21C164.489 224.565 164.816 224.877 165.189 225.148C165.572 225.409 165.996 225.624 166.463 225.792L165.875 226.716C165.184 226.455 164.578 226.081 164.055 225.596C163.532 225.111 163.126 224.541 162.837 223.888C162.548 223.235 162.403 222.535 162.403 221.788V220.192ZM167.751 219.422H168.913V228.774H167.751V219.422ZM168.549 223.3H170.775V224.28H168.549V223.3ZM161.045 230.86H169.473V231.812H161.045V230.86ZM161.045 227.878H162.221V231.322H161.045V227.878ZM178.39 222.922H181.596V223.874H178.39V222.922ZM180.938 219.436H182.1V228.718H180.938V219.436ZM174.022 230.86H182.45V231.812H174.022V230.86ZM174.022 227.892H175.17V231.336H174.022V227.892ZM174.904 221.004H175.856V222.026C175.856 222.791 175.706 223.515 175.408 224.196C175.118 224.868 174.708 225.456 174.176 225.96C173.644 226.455 173.028 226.837 172.328 227.108L171.726 226.17C172.192 226.002 172.617 225.778 173 225.498C173.392 225.218 173.732 224.896 174.022 224.532C174.311 224.168 174.53 223.771 174.68 223.342C174.829 222.913 174.904 222.474 174.904 222.026V221.004ZM175.128 221.004H176.08V222.026C176.08 222.567 176.206 223.095 176.458 223.608C176.71 224.121 177.069 224.579 177.536 224.98C178.002 225.372 178.539 225.675 179.146 225.89L178.558 226.814C177.867 226.562 177.265 226.198 176.752 225.722C176.238 225.237 175.837 224.677 175.548 224.042C175.268 223.407 175.128 222.735 175.128 222.026V221.004ZM172.09 220.458H178.852V221.41H172.09V220.458ZM184.269 225.89H195.749V226.842H184.269V225.89ZM189.505 226.492H190.667V229.404H189.505V226.492ZM185.753 220.024H194.251V224.462H185.753V220.024ZM193.117 220.948H186.887V223.538H193.117V220.948ZM185.725 230.86H194.475V231.812H185.725V230.86ZM185.725 228.186H186.887V231.182H185.725V228.186ZM206.286 221.746H209.926V222.698H206.286V221.746ZM206.286 224.476H209.954V225.428H206.286V224.476ZM209.492 219.436H210.654V228.802H209.492V219.436ZM202.52 230.86H210.948V231.812H202.52V230.86ZM202.52 227.892H203.682V231.336H202.52V227.892ZM200.854 220.276H202.016V222.502H205.432V220.276H206.58V226.646H200.854V220.276ZM202.016 223.412V225.708H205.432V223.412H202.016ZM213.397 221.284H223.687V222.236H213.397V221.284ZM212.837 229.656H224.317V230.608H212.837V229.656ZM217.975 227.64H219.123V230.02H217.975V227.64ZM218.549 223.076C219.399 223.076 220.131 223.174 220.747 223.37C221.373 223.557 221.853 223.827 222.189 224.182C222.525 224.537 222.693 224.971 222.693 225.484C222.693 225.988 222.525 226.422 222.189 226.786C221.853 227.15 221.373 227.43 220.747 227.626C220.131 227.813 219.399 227.906 218.549 227.906C217.7 227.906 216.963 227.813 216.337 227.626C215.721 227.43 215.245 227.15 214.909 226.786C214.573 226.422 214.405 225.988 214.405 225.484C214.405 224.971 214.573 224.537 214.909 224.182C215.245 223.827 215.721 223.557 216.337 223.37C216.963 223.174 217.7 223.076 218.549 223.076ZM218.549 224C217.933 224 217.401 224.061 216.953 224.182C216.515 224.294 216.174 224.462 215.931 224.686C215.698 224.901 215.581 225.167 215.581 225.484C215.581 225.792 215.698 226.058 215.931 226.282C216.174 226.506 216.515 226.679 216.953 226.8C217.401 226.912 217.933 226.968 218.549 226.968C219.165 226.968 219.693 226.912 220.131 226.8C220.57 226.679 220.911 226.506 221.153 226.282C221.396 226.058 221.517 225.792 221.517 225.484C221.517 225.167 221.396 224.901 221.153 224.686C220.911 224.462 220.57 224.294 220.131 224.182C219.693 224.061 219.165 224 218.549 224ZM217.975 219.632H219.123V221.858H217.975V219.632ZM234.648 219.436H235.81V228.676H234.648V219.436ZM227.676 230.86H236.202V231.812H227.676V230.86ZM227.676 227.738H228.838V231.182H227.676V227.738ZM229.02 220.318C229.655 220.318 230.22 220.449 230.714 220.71C231.209 220.971 231.601 221.34 231.89 221.816C232.18 222.283 232.324 222.819 232.324 223.426C232.324 224.033 232.18 224.574 231.89 225.05C231.601 225.517 231.209 225.885 230.714 226.156C230.22 226.417 229.655 226.548 229.02 226.548C228.395 226.548 227.83 226.417 227.326 226.156C226.832 225.885 226.44 225.517 226.15 225.05C225.861 224.574 225.716 224.033 225.716 223.426C225.716 222.819 225.861 222.283 226.15 221.816C226.44 221.34 226.832 220.971 227.326 220.71C227.83 220.449 228.395 220.318 229.02 220.318ZM229.02 221.326C228.61 221.326 228.241 221.415 227.914 221.592C227.588 221.769 227.326 222.017 227.13 222.334C226.944 222.651 226.85 223.015 226.85 223.426C226.85 223.846 226.944 224.215 227.13 224.532C227.326 224.84 227.588 225.083 227.914 225.26C228.241 225.437 228.61 225.526 229.02 225.526C229.431 225.526 229.8 225.437 230.126 225.26C230.462 225.083 230.724 224.84 230.91 224.532C231.097 224.215 231.19 223.846 231.19 223.426C231.19 223.015 231.097 222.651 230.91 222.334C230.724 222.017 230.462 221.769 230.126 221.592C229.8 221.415 229.431 221.326 229.02 221.326ZM246.701 219.422H247.863V228.592H246.701V219.422ZM247.499 223.174H249.739V224.14H247.499V223.174ZM238.623 225.386H239.603C240.471 225.386 241.232 225.377 241.885 225.358C242.538 225.339 243.14 225.297 243.691 225.232C244.242 225.167 244.797 225.078 245.357 224.966L245.497 225.918C244.909 226.03 244.33 226.119 243.761 226.184C243.201 226.249 242.59 226.296 241.927 226.324C241.264 226.343 240.49 226.352 239.603 226.352H238.623V225.386ZM238.623 220.514H244.209V221.466H239.771V225.904H238.623V220.514ZM239.981 230.86H248.423V231.812H239.981V230.86ZM239.981 227.668H241.129V231.294H239.981V227.668ZM80.5413 241.922H83.7473V242.874H80.5413V241.922ZM83.0893 238.436H84.2513V247.718H83.0893V238.436ZM76.1733 249.86H84.6013V250.812H76.1733V249.86ZM76.1733 246.892H77.3213V250.336H76.1733V246.892ZM77.0553 240.004H78.0073V241.026C78.0073 241.791 77.858 242.515 77.5593 243.196C77.27 243.868 76.8593 244.456 76.3273 244.96C75.7953 245.455 75.1793 245.837 74.4793 246.108L73.8773 245.17C74.344 245.002 74.7686 244.778 75.1513 244.498C75.5433 244.218 75.884 243.896 76.1733 243.532C76.4626 243.168 76.682 242.771 76.8313 242.342C76.9806 241.913 77.0553 241.474 77.0553 241.026V240.004ZM77.2793 240.004H78.2313V241.026C78.2313 241.567 78.3573 242.095 78.6093 242.608C78.8613 243.121 79.2206 243.579 79.6873 243.98C80.154 244.372 80.6906 244.675 81.2973 244.89L80.7093 245.814C80.0186 245.562 79.4166 245.198 78.9033 244.722C78.39 244.237 77.9886 243.677 77.6993 243.042C77.4193 242.407 77.2793 241.735 77.2793 241.026V240.004ZM74.2413 239.458H81.0033V240.41H74.2413V239.458ZM90.0182 244.806H91.1802V247.62H90.0182V244.806ZM95.6322 238.436H96.7942V248.054H95.6322V238.436ZM88.1562 249.86H97.1022V250.812H88.1562V249.86ZM88.1562 247.116H89.3182V250.112H88.1562V247.116ZM86.5182 245.24L86.3642 244.274C87.1482 244.274 87.9976 244.269 88.9122 244.26C89.8362 244.241 90.7789 244.209 91.7402 244.162C92.7016 244.106 93.6302 244.022 94.5262 243.91L94.6102 244.75C93.7049 244.899 92.7716 245.011 91.8102 245.086C90.8582 245.151 89.9296 245.193 89.0242 245.212C88.1189 245.231 87.2836 245.24 86.5182 245.24ZM93.0562 245.912H95.9402V246.752H93.0562V245.912ZM90.4802 238.94C91.1056 238.94 91.6516 239.033 92.1182 239.22C92.5849 239.397 92.9442 239.654 93.1962 239.99C93.4576 240.317 93.5882 240.704 93.5882 241.152C93.5882 241.591 93.4576 241.978 93.1962 242.314C92.9442 242.65 92.5849 242.907 92.1182 243.084C91.6516 243.261 91.1056 243.35 90.4802 243.35C89.8642 243.35 89.3182 243.261 88.8422 243.084C88.3756 242.907 88.0116 242.65 87.7502 242.314C87.4982 241.978 87.3722 241.591 87.3722 241.152C87.3722 240.704 87.4982 240.317 87.7502 239.99C88.0116 239.654 88.3756 239.397 88.8422 239.22C89.3182 239.033 89.8642 238.94 90.4802 238.94ZM90.4802 239.808C89.8829 239.808 89.3976 239.929 89.0242 240.172C88.6509 240.415 88.4642 240.741 88.4642 241.152C88.4642 241.553 88.6509 241.875 89.0242 242.118C89.3976 242.361 89.8829 242.482 90.4802 242.482C91.0682 242.482 91.5489 242.361 91.9222 242.118C92.2956 241.875 92.4822 241.553 92.4822 241.152C92.4822 240.872 92.3982 240.634 92.2302 240.438C92.0622 240.242 91.8289 240.088 91.5302 239.976C91.2316 239.864 90.8816 239.808 90.4802 239.808ZM112.022 238.422H113.128V251.092H112.022V238.422ZM109.88 243.504H112.316V244.456H109.88V243.504ZM109.152 238.702H110.23V250.434H109.152V238.702ZM102.838 246.99H103.664C104.289 246.99 104.854 246.985 105.358 246.976C105.871 246.957 106.357 246.92 106.814 246.864C107.281 246.808 107.757 246.729 108.242 246.626L108.354 247.592C107.85 247.695 107.36 247.774 106.884 247.83C106.417 247.886 105.923 247.923 105.4 247.942C104.887 247.961 104.308 247.97 103.664 247.97H102.838V246.99ZM102.838 239.962H107.542V240.914H104V247.438H102.838V239.962ZM123.655 238.436H124.817V247.928H123.655V238.436ZM124.453 242.594H126.679V243.56H124.453V242.594ZM115.017 239.976H122.493V240.914H115.017V239.976ZM118.755 241.6C119.352 241.6 119.879 241.703 120.337 241.908C120.794 242.104 121.149 242.379 121.401 242.734C121.653 243.079 121.779 243.49 121.779 243.966C121.779 244.442 121.653 244.857 121.401 245.212C121.149 245.557 120.794 245.828 120.337 246.024C119.879 246.22 119.352 246.318 118.755 246.318C118.157 246.318 117.63 246.22 117.173 246.024C116.715 245.828 116.356 245.557 116.095 245.212C115.843 244.857 115.717 244.442 115.717 243.966C115.717 243.49 115.843 243.079 116.095 242.734C116.356 242.379 116.715 242.104 117.173 241.908C117.63 241.703 118.157 241.6 118.755 241.6ZM118.755 242.51C118.185 242.51 117.723 242.645 117.369 242.916C117.014 243.177 116.837 243.527 116.837 243.966C116.837 244.405 117.014 244.755 117.369 245.016C117.723 245.277 118.185 245.408 118.755 245.408C119.333 245.408 119.795 245.277 120.141 245.016C120.495 244.755 120.673 244.405 120.673 243.966C120.673 243.527 120.495 243.177 120.141 242.916C119.795 242.645 119.333 242.51 118.755 242.51ZM118.181 238.436H119.343V240.452H118.181V238.436ZM116.935 249.86H125.377V250.812H116.935V249.86ZM116.935 247.172H118.083V250.252H116.935V247.172ZM133.636 240.746H137.276V241.698H133.636V240.746ZM133.636 243.476H137.304V244.428H133.636V243.476ZM136.842 238.436H138.004V247.802H136.842V238.436ZM129.87 249.86H138.298V250.812H129.87V249.86ZM129.87 246.892H131.032V250.336H129.87V246.892ZM128.204 239.276H129.366V241.502H132.782V239.276H133.93V245.646H128.204V239.276ZM129.366 242.412V244.708H132.782V242.412H129.366ZM140.747 240.284H151.037V241.236H140.747V240.284ZM140.187 248.656H151.667V249.608H140.187V248.656ZM145.325 246.64H146.473V249.02H145.325V246.64ZM145.899 242.076C146.748 242.076 147.481 242.174 148.097 242.37C148.722 242.557 149.203 242.827 149.539 243.182C149.875 243.537 150.043 243.971 150.043 244.484C150.043 244.988 149.875 245.422 149.539 245.786C149.203 246.15 148.722 246.43 148.097 246.626C147.481 246.813 146.748 246.906 145.899 246.906C145.049 246.906 144.312 246.813 143.687 246.626C143.071 246.43 142.595 246.15 142.259 245.786C141.923 245.422 141.755 244.988 141.755 244.484C141.755 243.971 141.923 243.537 142.259 243.182C142.595 242.827 143.071 242.557 143.687 242.37C144.312 242.174 145.049 242.076 145.899 242.076ZM145.899 243C145.283 243 144.751 243.061 144.303 243.182C143.864 243.294 143.523 243.462 143.281 243.686C143.047 243.901 142.931 244.167 142.931 244.484C142.931 244.792 143.047 245.058 143.281 245.282C143.523 245.506 143.864 245.679 144.303 245.8C144.751 245.912 145.283 245.968 145.899 245.968C146.515 245.968 147.042 245.912 147.481 245.8C147.919 245.679 148.26 245.506 148.503 245.282C148.745 245.058 148.867 244.792 148.867 244.484C148.867 244.167 148.745 243.901 148.503 243.686C148.26 243.462 147.919 243.294 147.481 243.182C147.042 243.061 146.515 243 145.899 243ZM145.325 238.632H146.473V240.858H145.325V238.632ZM155.879 239.514H156.831V241.782C156.831 242.482 156.743 243.168 156.565 243.84C156.397 244.512 156.155 245.142 155.837 245.73C155.52 246.318 155.147 246.841 154.717 247.298C154.288 247.755 153.821 248.119 153.317 248.39L152.603 247.452C153.07 247.219 153.499 246.906 153.891 246.514C154.293 246.113 154.643 245.655 154.941 245.142C155.24 244.629 155.469 244.087 155.627 243.518C155.795 242.939 155.879 242.361 155.879 241.782V239.514ZM156.089 239.514H157.027V241.782C157.027 242.342 157.107 242.897 157.265 243.448C157.433 243.999 157.667 244.517 157.965 245.002C158.264 245.487 158.605 245.921 158.987 246.304C159.379 246.687 159.799 246.99 160.247 247.214L159.533 248.138C159.039 247.886 158.581 247.541 158.161 247.102C157.751 246.663 157.387 246.164 157.069 245.604C156.761 245.035 156.519 244.428 156.341 243.784C156.173 243.131 156.089 242.463 156.089 241.782V239.514ZM161.353 238.422H162.515V251.092H161.353V238.422ZM162.249 243.546H164.587V244.54H162.249V243.546ZM172.496 241.376H175.086V242.328H172.496V241.376ZM172.482 243.84H175.058V244.792H172.482V243.84ZM165.398 239.696H172.496V240.634H165.398V239.696ZM168.982 241.25C169.552 241.25 170.051 241.348 170.48 241.544C170.91 241.731 171.246 241.997 171.488 242.342C171.731 242.678 171.852 243.075 171.852 243.532C171.852 243.989 171.731 244.391 171.488 244.736C171.246 245.072 170.91 245.333 170.48 245.52C170.051 245.707 169.552 245.8 168.982 245.8C168.422 245.8 167.928 245.707 167.498 245.52C167.069 245.333 166.733 245.072 166.49 244.736C166.248 244.391 166.126 243.989 166.126 243.532C166.126 243.075 166.248 242.678 166.49 242.342C166.733 241.997 167.069 241.731 167.498 241.544C167.928 241.348 168.422 241.25 168.982 241.25ZM168.982 242.146C168.45 242.146 168.021 242.272 167.694 242.524C167.377 242.776 167.218 243.112 167.218 243.532C167.218 243.952 167.377 244.293 167.694 244.554C168.021 244.806 168.45 244.932 168.982 244.932C169.514 244.932 169.944 244.806 170.27 244.554C170.606 244.293 170.774 243.952 170.774 243.532C170.774 243.112 170.606 242.776 170.27 242.524C169.944 242.272 169.514 242.146 168.982 242.146ZM168.422 238.31H169.57V240.27H168.422V238.31ZM174.638 238.422H175.8V245.912H174.638V238.422ZM167.61 246.458H168.758V247.76H174.652V246.458H175.8V250.924H167.61V246.458ZM168.758 248.656V250H174.652V248.656H168.758ZM181.595 246.024H182.757V248.11H181.595V246.024ZM187.139 238.422H188.301V251.092H187.139V238.422ZM178.221 248.684L178.053 247.704C178.856 247.695 179.724 247.685 180.657 247.676C181.591 247.667 182.543 247.634 183.513 247.578C184.484 247.522 185.422 247.433 186.327 247.312L186.411 248.18C185.478 248.329 184.531 248.441 183.569 248.516C182.608 248.581 181.67 248.628 180.755 248.656C179.841 248.675 178.996 248.684 178.221 248.684ZM178.319 239.976H186.005V240.914H178.319V239.976ZM182.155 241.628C182.762 241.628 183.294 241.726 183.751 241.922C184.209 242.118 184.563 242.393 184.815 242.748C185.077 243.093 185.207 243.504 185.207 243.98C185.207 244.447 185.077 244.857 184.815 245.212C184.563 245.567 184.209 245.842 183.751 246.038C183.294 246.225 182.762 246.318 182.155 246.318C181.558 246.318 181.031 246.225 180.573 246.038C180.116 245.842 179.761 245.567 179.509 245.212C179.257 244.857 179.131 244.447 179.131 243.98C179.131 243.504 179.257 243.093 179.509 242.748C179.761 242.393 180.116 242.118 180.573 241.922C181.031 241.726 181.558 241.628 182.155 241.628ZM182.155 242.538C181.595 242.538 181.133 242.669 180.769 242.93C180.405 243.191 180.223 243.541 180.223 243.98C180.223 244.409 180.405 244.755 180.769 245.016C181.133 245.277 181.595 245.408 182.155 245.408C182.734 245.408 183.201 245.277 183.555 245.016C183.919 244.755 184.101 244.409 184.101 243.98C184.101 243.541 183.919 243.191 183.555 242.93C183.201 242.669 182.734 242.538 182.155 242.538ZM181.595 238.436H182.757V240.48H181.595V238.436ZM195.395 244.344H204.089V245.282H195.395V244.344ZM193.939 248.53H205.419V249.496H193.939V248.53ZM199.077 244.75H200.225V248.908H199.077V244.75ZM195.395 239.43H203.963V240.396H196.557V244.764H195.395V239.43ZM209.646 239.192H210.612V240.746C210.612 241.577 210.467 242.342 210.178 243.042C209.888 243.733 209.482 244.335 208.96 244.848C208.437 245.361 207.821 245.753 207.112 246.024L206.482 245.1C207.126 244.876 207.686 244.549 208.162 244.12C208.638 243.681 209.002 243.173 209.254 242.594C209.515 242.015 209.646 241.399 209.646 240.746V239.192ZM209.856 239.192H210.794V240.788C210.794 241.217 210.868 241.637 211.018 242.048C211.176 242.459 211.391 242.846 211.662 243.21C211.942 243.565 212.268 243.877 212.642 244.148C213.024 244.409 213.449 244.624 213.916 244.792L213.328 245.716C212.637 245.455 212.03 245.081 211.508 244.596C210.985 244.111 210.579 243.541 210.29 242.888C210 242.235 209.856 241.535 209.856 240.788V239.192ZM215.204 238.422H216.366V247.774H215.204V238.422ZM216.002 242.3H218.228V243.28H216.002V242.3ZM208.498 249.86H216.926V250.812H208.498V249.86ZM208.498 246.878H209.674V250.322H208.498V246.878ZM225.843 241.922H229.049V242.874H225.843V241.922ZM228.391 238.436H229.553V247.718H228.391V238.436ZM221.475 249.86H229.903V250.812H221.475V249.86ZM221.475 246.892H222.623V250.336H221.475V246.892ZM222.357 240.004H223.309V241.026C223.309 241.791 223.159 242.515 222.861 243.196C222.571 243.868 222.161 244.456 221.629 244.96C221.097 245.455 220.481 245.837 219.781 246.108L219.179 245.17C219.645 245.002 220.07 244.778 220.453 244.498C220.845 244.218 221.185 243.896 221.475 243.532C221.764 243.168 221.983 242.771 222.133 242.342C222.282 241.913 222.357 241.474 222.357 241.026V240.004ZM222.581 240.004H223.533V241.026C223.533 241.567 223.659 242.095 223.911 242.608C224.163 243.121 224.522 243.579 224.989 243.98C225.455 244.372 225.992 244.675 226.599 244.89L226.011 245.814C225.32 245.562 224.718 245.198 224.205 244.722C223.691 244.237 223.29 243.677 223.001 243.042C222.721 242.407 222.581 241.735 222.581 241.026V240.004ZM219.543 239.458H226.305V240.41H219.543V239.458ZM231.722 244.89H243.202V245.842H231.722V244.89ZM236.958 245.492H238.12V248.404H236.958V245.492ZM233.206 239.024H241.704V243.462H233.206V239.024ZM240.57 239.948H234.34V242.538H240.57V239.948ZM233.178 249.86H241.928V250.812H233.178V249.86ZM233.178 247.186H234.34V250.182H233.178V247.186ZM250.383 240.746H254.023V241.698H250.383V240.746ZM250.383 243.476H254.051V244.428H250.383V243.476ZM253.589 238.436H254.751V247.802H253.589V238.436ZM246.617 249.86H255.045V250.812H246.617V249.86ZM246.617 246.892H247.779V250.336H246.617V246.892ZM244.951 239.276H246.113V241.502H249.529V239.276H250.677V245.646H244.951V239.276ZM246.113 242.412V244.708H249.529V242.412H246.113ZM257.493 240.284H267.783V241.236H257.493V240.284ZM256.933 248.656H268.413V249.608H256.933V248.656ZM262.071 246.64H263.219V249.02H262.071V246.64ZM262.645 242.076C263.495 242.076 264.227 242.174 264.843 242.37C265.469 242.557 265.949 242.827 266.285 243.182C266.621 243.537 266.789 243.971 266.789 244.484C266.789 244.988 266.621 245.422 266.285 245.786C265.949 246.15 265.469 246.43 264.843 246.626C264.227 246.813 263.495 246.906 262.645 246.906C261.796 246.906 261.059 246.813 260.433 246.626C259.817 246.43 259.341 246.15 259.005 245.786C258.669 245.422 258.501 244.988 258.501 244.484C258.501 243.971 258.669 243.537 259.005 243.182C259.341 242.827 259.817 242.557 260.433 242.37C261.059 242.174 261.796 242.076 262.645 242.076ZM262.645 243C262.029 243 261.497 243.061 261.049 243.182C260.611 243.294 260.27 243.462 260.027 243.686C259.794 243.901 259.677 244.167 259.677 244.484C259.677 244.792 259.794 245.058 260.027 245.282C260.27 245.506 260.611 245.679 261.049 245.8C261.497 245.912 262.029 245.968 262.645 245.968C263.261 245.968 263.789 245.912 264.227 245.8C264.666 245.679 265.007 245.506 265.249 245.282C265.492 245.058 265.613 244.792 265.613 244.484C265.613 244.167 265.492 243.901 265.249 243.686C265.007 243.462 264.666 243.294 264.227 243.182C263.789 243.061 263.261 243 262.645 243ZM262.071 238.632H263.219V240.858H262.071V238.632ZM272.626 239.514H273.578V241.782C273.578 242.482 273.49 243.168 273.312 243.84C273.144 244.512 272.902 245.142 272.584 245.73C272.267 246.318 271.894 246.841 271.464 247.298C271.035 247.755 270.568 248.119 270.064 248.39L269.35 247.452C269.817 247.219 270.246 246.906 270.638 246.514C271.04 246.113 271.39 245.655 271.688 245.142C271.987 244.629 272.216 244.087 272.374 243.518C272.542 242.939 272.626 242.361 272.626 241.782V239.514ZM272.836 239.514H273.774V241.782C273.774 242.342 273.854 242.897 274.012 243.448C274.18 243.999 274.414 244.517 274.712 245.002C275.011 245.487 275.352 245.921 275.734 246.304C276.126 246.687 276.546 246.99 276.994 247.214L276.28 248.138C275.786 247.886 275.328 247.541 274.908 247.102C274.498 246.663 274.134 246.164 273.816 245.604C273.508 245.035 273.266 244.428 273.088 243.784C272.92 243.131 272.836 242.463 272.836 241.782V239.514ZM278.1 238.422H279.262V251.092H278.1V238.422ZM278.996 243.546H281.334V244.54H278.996V243.546ZM282.131 248.558H293.611V249.524H282.131V248.558ZM287.269 245.856H288.417V248.964H287.269V245.856ZM283.531 239.36H292.183V243.196H284.707V245.73H283.559V242.272H291.035V240.312H283.531V239.36ZM283.559 245.24H292.477V246.192H283.559V245.24ZM299.515 239.248H307.439V240.186H299.515V239.248ZM298.087 244.68H309.525V245.646H298.087V244.68ZM303.197 245.324H304.359V251.106H303.197V245.324ZM306.879 239.248H308.027V240.354C308.027 240.793 308.018 241.255 307.999 241.74C307.99 242.225 307.952 242.762 307.887 243.35C307.822 243.929 307.71 244.573 307.551 245.282L306.389 245.128C306.641 244.111 306.786 243.219 306.823 242.454C306.86 241.689 306.879 240.989 306.879 240.354V239.248ZM313.878 239.136H314.844V240.438C314.844 241.259 314.694 242.015 314.396 242.706C314.106 243.397 313.696 244.003 313.164 244.526C312.641 245.039 312.016 245.431 311.288 245.702L310.672 244.764C311.325 244.531 311.89 244.199 312.366 243.77C312.842 243.341 313.21 242.841 313.472 242.272C313.742 241.693 313.878 241.082 313.878 240.438V239.136ZM314.088 239.136H315.026V240.396C315.026 240.993 315.156 241.558 315.418 242.09C315.679 242.622 316.038 243.093 316.496 243.504C316.962 243.905 317.504 244.209 318.12 244.414L317.49 245.324C316.808 245.063 316.211 244.694 315.698 244.218C315.184 243.742 314.788 243.177 314.508 242.524C314.228 241.871 314.088 241.161 314.088 240.396V239.136ZM319.94 238.422H321.102V245.912H319.94V238.422ZM316.93 246.29C318.236 246.29 319.263 246.5 320.01 246.92C320.766 247.34 321.144 247.928 321.144 248.684C321.144 249.431 320.766 250.014 320.01 250.434C319.263 250.854 318.236 251.064 316.93 251.064C315.623 251.064 314.592 250.854 313.836 250.434C313.089 250.014 312.716 249.431 312.716 248.684C312.716 247.928 313.089 247.34 313.836 246.92C314.592 246.5 315.623 246.29 316.93 246.29ZM316.93 247.214C316.295 247.214 315.749 247.275 315.292 247.396C314.834 247.508 314.48 247.676 314.228 247.9C313.985 248.115 313.864 248.376 313.864 248.684C313.864 248.983 313.985 249.244 314.228 249.468C314.48 249.683 314.834 249.851 315.292 249.972C315.749 250.084 316.295 250.14 316.93 250.14C317.574 250.14 318.12 250.084 318.568 249.972C319.025 249.851 319.375 249.683 319.618 249.468C319.87 249.244 319.996 248.983 319.996 248.684C319.996 248.376 319.87 248.115 319.618 247.9C319.375 247.676 319.025 247.508 318.568 247.396C318.12 247.275 317.574 247.214 316.93 247.214ZM317.182 241.096H320.178V242.062H317.182V241.096ZM151.917 265.164C151.917 264.399 151.987 263.652 152.127 262.924C152.276 262.196 152.505 261.501 152.813 260.838C153.121 260.175 153.508 259.564 153.975 259.004H155.137C154.708 259.583 154.344 260.208 154.045 260.88C153.756 261.552 153.536 262.247 153.387 262.966C153.238 263.685 153.163 264.413 153.163 265.15C153.163 265.869 153.238 266.583 153.387 267.292C153.536 268.001 153.756 268.683 154.045 269.336C154.334 269.999 154.694 270.624 155.123 271.212H153.975C153.508 270.661 153.121 270.059 152.813 269.406C152.505 268.762 152.276 268.081 152.127 267.362C151.987 266.643 151.917 265.911 151.917 265.164ZM164.64 257.422H165.802V264.786H164.64V257.422ZM165.298 260.656H167.664V261.636H165.298V260.656ZM157.836 265.346H158.984V266.676H164.64V265.346H165.802V269.924H157.836V265.346ZM158.984 267.586V268.986H164.64V267.586H158.984ZM156.002 258.724H163.478V259.662H156.002V258.724ZM159.74 260.25C160.347 260.25 160.874 260.343 161.322 260.53C161.78 260.707 162.134 260.964 162.386 261.3C162.638 261.627 162.764 262.014 162.764 262.462C162.764 262.91 162.638 263.302 162.386 263.638C162.134 263.974 161.78 264.235 161.322 264.422C160.874 264.599 160.347 264.688 159.74 264.688C159.134 264.688 158.602 264.599 158.144 264.422C157.696 264.235 157.342 263.974 157.08 263.638C156.828 263.302 156.702 262.91 156.702 262.462C156.702 262.014 156.828 261.627 157.08 261.3C157.342 260.964 157.696 260.707 158.144 260.53C158.602 260.343 159.134 260.25 159.74 260.25ZM159.74 261.132C159.162 261.132 158.695 261.253 158.34 261.496C157.995 261.739 157.822 262.061 157.822 262.462C157.822 262.873 157.995 263.199 158.34 263.442C158.695 263.685 159.162 263.806 159.74 263.806C160.31 263.806 160.772 263.685 161.126 263.442C161.481 263.199 161.658 262.873 161.658 262.462C161.658 262.061 161.481 261.739 161.126 261.496C160.781 261.253 160.319 261.132 159.74 261.132ZM159.166 257.31H160.328V259.228H159.166V257.31ZM171.681 258.192H172.647V259.746C172.647 260.577 172.503 261.342 172.213 262.042C171.924 262.733 171.518 263.335 170.995 263.848C170.473 264.361 169.857 264.753 169.147 265.024L168.517 264.1C169.161 263.876 169.721 263.549 170.197 263.12C170.673 262.681 171.037 262.173 171.289 261.594C171.551 261.015 171.681 260.399 171.681 259.746V258.192ZM171.891 258.192H172.829V259.788C172.829 260.217 172.904 260.637 173.053 261.048C173.212 261.459 173.427 261.846 173.697 262.21C173.977 262.565 174.304 262.877 174.677 263.148C175.06 263.409 175.485 263.624 175.951 263.792L175.363 264.716C174.673 264.455 174.066 264.081 173.543 263.596C173.021 263.111 172.615 262.541 172.325 261.888C172.036 261.235 171.891 260.535 171.891 259.788V258.192ZM177.239 257.422H178.401V266.774H177.239V257.422ZM178.037 261.3H180.263V262.28H178.037V261.3ZM170.533 268.86H178.961V269.812H170.533V268.86ZM170.533 265.878H171.709V269.322H170.533V265.878ZM190.731 261.342C190.731 261.79 190.647 262.177 190.479 262.504C190.311 262.831 190.068 263.097 189.751 263.302C189.443 263.507 189.079 263.652 188.659 263.736V263.792C189.461 263.885 190.059 264.137 190.451 264.548C190.843 264.959 191.039 265.495 191.039 266.158C191.039 266.737 190.903 267.255 190.633 267.712C190.362 268.16 189.942 268.51 189.373 268.762C188.813 269.014 188.089 269.14 187.203 269.14C186.68 269.14 186.195 269.098 185.747 269.014C185.299 268.939 184.869 268.799 184.459 268.594V267.446C184.879 267.651 185.331 267.815 185.817 267.936C186.302 268.048 186.769 268.104 187.217 268.104C188.113 268.104 188.757 267.931 189.149 267.586C189.55 267.231 189.751 266.746 189.751 266.13C189.751 265.71 189.639 265.374 189.415 265.122C189.2 264.861 188.883 264.669 188.463 264.548C188.043 264.427 187.539 264.366 186.951 264.366H185.985V263.316H186.965C187.515 263.316 187.973 263.237 188.337 263.078C188.71 262.919 188.99 262.7 189.177 262.42C189.373 262.131 189.471 261.799 189.471 261.426C189.471 260.941 189.307 260.567 188.981 260.306C188.654 260.035 188.211 259.9 187.651 259.9C187.296 259.9 186.974 259.937 186.685 260.012C186.395 260.077 186.125 260.175 185.873 260.306C185.63 260.427 185.383 260.572 185.131 260.74L184.515 259.9C184.757 259.713 185.033 259.541 185.341 259.382C185.658 259.223 186.008 259.097 186.391 259.004C186.773 258.911 187.189 258.864 187.637 258.864C188.682 258.864 189.457 259.097 189.961 259.564C190.474 260.031 190.731 260.623 190.731 261.342ZM198.883 263.988C198.883 264.8 198.822 265.523 198.701 266.158C198.579 266.793 198.383 267.334 198.113 267.782C197.851 268.221 197.506 268.557 197.077 268.79C196.657 269.023 196.148 269.14 195.551 269.14C194.804 269.14 194.183 268.935 193.689 268.524C193.203 268.113 192.839 267.525 192.597 266.76C192.363 265.985 192.247 265.061 192.247 263.988C192.247 262.905 192.354 261.981 192.569 261.216C192.793 260.451 193.147 259.867 193.633 259.466C194.118 259.055 194.757 258.85 195.551 258.85C196.297 258.85 196.918 259.055 197.413 259.466C197.907 259.867 198.276 260.451 198.519 261.216C198.761 261.981 198.883 262.905 198.883 263.988ZM193.479 263.988C193.479 264.903 193.544 265.663 193.675 266.27C193.815 266.877 194.034 267.334 194.333 267.642C194.641 267.941 195.047 268.09 195.551 268.09C196.055 268.09 196.456 267.941 196.755 267.642C197.063 267.343 197.287 266.891 197.427 266.284C197.567 265.668 197.637 264.903 197.637 263.988C197.637 263.073 197.567 262.317 197.427 261.72C197.287 261.113 197.063 260.661 196.755 260.362C196.456 260.054 196.055 259.9 195.551 259.9C195.047 259.9 194.641 260.054 194.333 260.362C194.034 260.661 193.815 261.113 193.675 261.72C193.544 262.317 193.479 263.073 193.479 263.988ZM209.246 257.436H210.408V266.816H209.246V257.436ZM205.662 259.074H209.68V260.012H205.662V259.074ZM202.302 268.86H210.744V269.812H202.302V268.86ZM202.302 266.004H203.464V269.28H202.302V266.004ZM200.734 258.346H201.882V264.324H200.734V258.346ZM200.734 263.96H201.686C202.582 263.96 203.469 263.927 204.346 263.862C205.233 263.797 206.166 263.675 207.146 263.498L207.272 264.464C206.264 264.651 205.312 264.777 204.416 264.842C203.52 264.898 202.61 264.926 201.686 264.926H200.734V263.96ZM205.662 261.496H209.68V262.434H205.662V261.496ZM222.01 259.76H225.398V260.698H222.01V259.76ZM221.898 262.392H225.314V263.344H221.898V262.392ZM225.202 257.436H226.364V265.01H225.202V257.436ZM221.24 258.374H222.472C222.472 259.457 222.234 260.432 221.758 261.3C221.291 262.168 220.615 262.915 219.728 263.54C218.851 264.156 217.805 264.646 216.592 265.01L216.116 264.086C217.189 263.769 218.109 263.358 218.874 262.854C219.639 262.341 220.223 261.753 220.624 261.09C221.035 260.418 221.24 259.681 221.24 258.878V258.374ZM216.76 258.374H222.024V259.326H216.76V258.374ZM222.248 265.15C223.107 265.15 223.844 265.248 224.46 265.444C225.085 265.64 225.571 265.92 225.916 266.284C226.261 266.648 226.434 267.082 226.434 267.586C226.434 268.099 226.261 268.538 225.916 268.902C225.571 269.257 225.085 269.532 224.46 269.728C223.844 269.933 223.107 270.036 222.248 270.036C221.399 270.036 220.657 269.933 220.022 269.728C219.397 269.532 218.911 269.257 218.566 268.902C218.221 268.538 218.048 268.099 218.048 267.586C218.048 267.082 218.221 266.648 218.566 266.284C218.911 265.92 219.397 265.64 220.022 265.444C220.657 265.248 221.399 265.15 222.248 265.15ZM222.248 266.074C221.632 266.074 221.095 266.135 220.638 266.256C220.181 266.377 219.826 266.55 219.574 266.774C219.322 266.998 219.196 267.269 219.196 267.586C219.196 267.903 219.322 268.174 219.574 268.398C219.826 268.622 220.181 268.795 220.638 268.916C221.095 269.037 221.632 269.098 222.248 269.098C222.873 269.098 223.41 269.037 223.858 268.916C224.306 268.795 224.656 268.622 224.908 268.398C225.16 268.174 225.286 267.903 225.286 267.586C225.286 267.269 225.16 266.998 224.908 266.774C224.656 266.55 224.306 266.377 223.858 266.256C223.41 266.135 222.873 266.074 222.248 266.074ZM229.079 263.708H229.975C230.805 263.708 231.515 263.703 232.103 263.694C232.7 263.675 233.241 263.643 233.727 263.596C234.221 263.549 234.721 263.479 235.225 263.386L235.337 264.338C234.954 264.403 234.576 264.459 234.203 264.506C233.829 264.543 233.437 264.571 233.027 264.59C232.616 264.609 232.163 264.623 231.669 264.632C231.174 264.641 230.609 264.646 229.975 264.646H229.079V263.708ZM229.051 258.192H234.497V261.776H230.227V264.268H229.079V260.88H233.349V259.13H229.051V258.192ZM237.801 257.436H238.963V265.22H237.801V257.436ZM235.337 259.312H238.067V260.25H235.337V259.312ZM235.337 261.93H238.067V262.882H235.337V261.93ZM230.493 265.892H238.963V270.106H237.801V266.844H230.493V265.892ZM244.086 265.164C244.086 265.911 244.011 266.643 243.862 267.362C243.722 268.081 243.498 268.762 243.19 269.406C242.891 270.059 242.504 270.661 242.028 271.212H240.88C241.309 270.624 241.668 269.999 241.958 269.336C242.247 268.683 242.466 268.001 242.616 267.292C242.765 266.583 242.84 265.869 242.84 265.15C242.84 264.413 242.765 263.685 242.616 262.966C242.466 262.247 242.247 261.552 241.958 260.88C241.668 260.208 241.304 259.583 240.866 259.004H242.028C242.504 259.564 242.891 260.175 243.19 260.838C243.498 261.501 243.722 262.196 243.862 262.924C244.011 263.652 244.086 264.399 244.086 265.164Z" fill="#4E4034"/>
<path d="M199 293L196.113 298L201.887 298L199 293ZM199.5 388L199.5 297.5L198.5 297.5L198.5 388L199.5 388Z" fill="#4E4034"/>
<rect x="132" width="135" height="62" rx="8" fill="#4E4034"/>
<path d="M165.24 21.184H168V22.792C168 23.752 167.864 24.688 167.592 25.6C167.336 26.496 166.952 27.344 166.44 28.144C165.928 28.944 165.296 29.672 164.544 30.328C163.808 30.968 162.96 31.52 162 31.984C161.04 32.448 159.984 32.792 158.832 33.016L157.464 30.352C158.456 30.176 159.36 29.912 160.176 29.56C161.008 29.192 161.736 28.752 162.36 28.24C162.984 27.728 163.512 27.176 163.944 26.584C164.376 25.976 164.696 25.352 164.904 24.712C165.128 24.056 165.24 23.416 165.24 22.792V21.184ZM165.864 21.184H168.648V22.792C168.648 23.432 168.752 24.08 168.96 24.736C169.184 25.392 169.504 26.024 169.92 26.632C170.352 27.224 170.88 27.768 171.504 28.264C172.128 28.76 172.848 29.192 173.664 29.56C174.48 29.912 175.4 30.176 176.424 30.352L175.056 33.016C173.904 32.792 172.848 32.448 171.888 31.984C170.928 31.52 170.072 30.968 169.32 30.328C168.584 29.688 167.952 28.968 167.424 28.168C166.912 27.368 166.52 26.512 166.248 25.6C165.992 24.688 165.864 23.752 165.864 22.792V21.184ZM156.984 36.808H177.12V39.424H156.984V36.808ZM179.326 30.664H180.862C181.934 30.664 182.894 30.656 183.742 30.64C184.606 30.624 185.422 30.584 186.19 30.52C186.958 30.44 187.75 30.328 188.566 30.184L188.854 32.728C188.006 32.856 187.182 32.96 186.382 33.04C185.582 33.12 184.734 33.176 183.838 33.208C182.958 33.224 181.966 33.232 180.862 33.232H179.326V30.664ZM179.326 21.64H188.062V24.184H182.398V31.696H179.326V21.64ZM181.486 26.176H187.846V28.6H181.486V26.176ZM194.47 19.888H197.518V36.448H194.47V19.888ZM191.758 26.032H195.286V28.6H191.758V26.032ZM189.742 20.296H192.718V35.992H189.742V20.296ZM182.542 39.184H198.07V41.752H182.542V39.184ZM182.542 34.624H185.758V40.84H182.542V34.624ZM214.364 19.864H217.58V42.16H214.364V19.864ZM216.884 28.096H220.796V30.736H216.884V28.096ZM201.02 34.192H202.892C204.156 34.192 205.34 34.176 206.444 34.144C207.548 34.096 208.62 34.024 209.66 33.928C210.7 33.816 211.764 33.664 212.852 33.472L213.164 36.112C212.044 36.304 210.94 36.456 209.852 36.568C208.78 36.68 207.676 36.752 206.54 36.784C205.404 36.816 204.188 36.832 202.892 36.832H201.02V34.192ZM201.02 21.928H211.388V24.496H204.212V35.44H201.02V21.928ZM224.13 30.16H239.754V32.68H224.13V30.16ZM221.778 36.856H241.914V39.448H221.778V36.856ZM224.13 21.712H239.586V24.304H227.298V31.216H224.13V21.712Z" fill="white"/>
</svg>
