<svg width="980" height="603" viewBox="0 0 980 603" fill="none" xmlns="http://www.w3.org/2000/svg">
<rect width="980" height="603" rx="8" fill="#F1F1F1"/>
<rect x="80" y="60" width="471" height="483" fill="#F1F1F1"/>
<path d="M643.1 231.58C643.1 235.02 642.82 238.1 642.26 240.82C641.74 243.54 640.88 245.86 639.68 247.78C638.52 249.66 636.98 251.1 635.06 252.1C633.18 253.1 630.86 253.6 628.1 253.6C624.66 253.6 621.84 252.72 619.64 250.96C617.44 249.2 615.8 246.68 614.72 243.4C613.68 240.12 613.16 236.18 613.16 231.58C613.16 226.94 613.64 222.98 614.6 219.7C615.56 216.42 617.14 213.9 619.34 212.14C621.54 210.38 624.46 209.5 628.1 209.5C631.54 209.5 634.36 210.38 636.56 212.14C638.76 213.86 640.4 216.38 641.48 219.7C642.56 222.98 643.1 226.94 643.1 231.58ZM622.16 231.58C622.16 234.82 622.34 237.54 622.7 239.74C623.06 241.9 623.66 243.54 624.5 244.66C625.38 245.74 626.58 246.28 628.1 246.28C629.62 246.28 630.8 245.74 631.64 244.66C632.52 243.58 633.14 241.96 633.5 239.8C633.9 237.6 634.1 234.86 634.1 231.58C634.1 228.3 633.9 225.58 633.5 223.42C633.14 221.22 632.52 219.58 631.64 218.5C630.8 217.38 629.62 216.82 628.1 216.82C626.58 216.82 625.38 217.38 624.5 218.5C623.66 219.58 623.06 221.22 622.7 223.42C622.34 225.58 622.16 228.3 622.16 231.58ZM677.676 253H647.736V246.7L658.476 235.84C660.636 233.6 662.376 231.74 663.696 230.26C665.016 228.74 665.976 227.38 666.576 226.18C667.176 224.94 667.476 223.62 667.476 222.22C667.476 220.5 666.996 219.22 666.036 218.38C665.116 217.54 663.856 217.12 662.256 217.12C660.616 217.12 659.016 217.5 657.456 218.26C655.896 219.02 654.256 220.1 652.536 221.5L647.616 215.68C648.856 214.6 650.156 213.6 651.516 212.68C652.916 211.76 654.516 211.02 656.316 210.46C658.156 209.86 660.356 209.56 662.916 209.56C665.716 209.56 668.116 210.08 670.116 211.12C672.156 212.12 673.716 213.5 674.796 215.26C675.916 216.98 676.476 218.94 676.476 221.14C676.476 222.94 676.196 224.6 675.636 226.12C675.116 227.64 674.336 229.12 673.296 230.56C672.296 231.96 671.056 233.42 669.576 234.94C668.096 236.42 666.416 238.04 664.536 239.8L659.016 244.96V245.38H677.676V253Z" fill="#B73D24"/>
<path d="M627.288 296.744H634.712V300.168H627.288V296.744ZM620.472 291.432C621.965 291.432 623.299 291.741 624.472 292.36C625.667 292.957 626.605 293.789 627.288 294.856C627.971 295.901 628.312 297.117 628.312 298.504C628.312 299.869 627.971 301.085 627.288 302.152C626.605 303.219 625.667 304.061 624.472 304.68C623.299 305.277 621.965 305.576 620.472 305.576C619 305.576 617.667 305.277 616.472 304.68C615.299 304.061 614.371 303.219 613.688 302.152C613.005 301.085 612.664 299.869 612.664 298.504C612.664 297.117 613.005 295.901 613.688 294.856C614.371 293.789 615.299 292.957 616.472 292.36C617.667 291.741 619 291.432 620.472 291.432ZM620.472 294.952C619.747 294.952 619.096 295.091 618.52 295.368C617.965 295.645 617.528 296.051 617.208 296.584C616.888 297.117 616.728 297.757 616.728 298.504C616.728 299.229 616.888 299.859 617.208 300.392C617.528 300.925 617.965 301.331 618.52 301.608C619.096 301.885 619.747 302.024 620.472 302.024C621.197 302.024 621.837 301.885 622.392 301.608C622.968 301.331 623.416 300.925 623.736 300.392C624.056 299.859 624.216 299.229 624.216 298.504C624.216 297.757 624.056 297.117 623.736 296.584C623.416 296.051 622.968 295.645 622.392 295.368C621.837 295.091 621.197 294.952 620.472 294.952ZM632.824 290.216H637.112V306.12H632.824V290.216ZM617.432 307.432H621.656V310.216H632.888V307.432H637.112V319.528H617.432V307.432ZM621.656 313.48V316.136H632.888V313.48H621.656ZM652.534 298.024H658.518V301.384H652.534V298.024ZM652.374 305.416H658.422V308.808H652.374V305.416ZM662.55 290.184H666.614V319.816H662.55V290.184ZM656.47 290.824H660.438V318.504H656.47V290.824ZM649.782 293.672H653.846C653.846 296.488 653.515 299.112 652.854 301.544C652.214 303.955 651.104 306.173 649.526 308.2C647.968 310.227 645.814 312.051 643.062 313.672L640.662 310.696C642.902 309.352 644.683 307.891 646.006 306.312C647.35 304.712 648.31 302.952 648.886 301.032C649.483 299.091 649.782 296.925 649.782 294.536V293.672ZM642.358 293.672H651.19V297.096H642.358V293.672ZM681.747 301.096H686.611V304.52H681.747V301.096ZM691.283 290.184H695.347V319.816H691.283V290.184ZM685.267 290.664H689.235V318.504H685.267V290.664ZM676.563 292.264C677.864 292.264 678.995 292.701 679.955 293.576C680.936 294.429 681.683 295.667 682.195 297.288C682.728 298.888 682.995 300.808 682.995 303.048C682.995 305.267 682.728 307.187 682.195 308.808C681.683 310.429 680.936 311.677 679.955 312.552C678.995 313.405 677.854 313.832 676.531 313.832C675.251 313.832 674.12 313.405 673.139 312.552C672.179 311.677 671.432 310.429 670.899 308.808C670.387 307.187 670.131 305.267 670.131 303.048C670.131 300.808 670.387 298.888 670.899 297.288C671.432 295.667 672.179 294.429 673.139 293.576C674.12 292.701 675.262 292.264 676.563 292.264ZM676.563 296.296C676.03 296.296 675.571 296.541 675.187 297.032C674.803 297.523 674.504 298.269 674.291 299.272C674.099 300.253 674.003 301.512 674.003 303.048C674.003 304.541 674.099 305.789 674.291 306.792C674.504 307.795 674.803 308.552 675.187 309.064C675.571 309.555 676.03 309.8 676.563 309.8C677.096 309.8 677.555 309.555 677.939 309.064C678.344 308.552 678.643 307.795 678.835 306.792C679.027 305.789 679.123 304.541 679.123 303.048C679.123 301.512 679.027 300.253 678.835 299.272C678.643 298.269 678.344 297.523 677.939 297.032C677.555 296.541 677.096 296.296 676.563 296.296ZM727.753 290.184H731.817V319.816H727.753V290.184ZM723.817 301.608H728.745V305.032H723.817V301.608ZM721.129 290.696H725.065V318.44H721.129V290.696ZM707.209 309.64H709.257C710.494 309.64 711.668 309.629 712.777 309.608C713.886 309.565 714.985 309.491 716.073 309.384C717.182 309.256 718.313 309.096 719.465 308.904L719.817 312.36C718.622 312.573 717.46 312.744 716.329 312.872C715.198 313 714.057 313.085 712.905 313.128C711.753 313.149 710.537 313.16 709.257 313.16H707.209V309.64ZM707.209 293.64H718.121V297.064H711.401V311.336H707.209V293.64ZM754.215 290.216H758.471V312.36H754.215V290.216ZM757.287 299.24H762.407V302.76H757.287V299.24ZM735.175 293.32H752.583V296.648H735.175V293.32ZM743.879 297.704C745.308 297.704 746.567 297.949 747.655 298.44C748.764 298.909 749.628 299.581 750.247 300.456C750.865 301.309 751.175 302.291 751.175 303.4C751.175 304.531 750.865 305.533 750.247 306.408C749.628 307.261 748.764 307.933 747.655 308.424C746.567 308.893 745.308 309.128 743.879 309.128C742.471 309.128 741.212 308.893 740.103 308.424C738.993 307.933 738.129 307.261 737.511 306.408C736.892 305.533 736.583 304.531 736.583 303.4C736.583 302.291 736.892 301.309 737.511 300.456C738.129 299.581 738.993 298.909 740.103 298.44C741.212 297.949 742.471 297.704 743.879 297.704ZM743.879 300.936C742.94 300.936 742.172 301.149 741.575 301.576C740.977 302.003 740.679 302.621 740.679 303.432C740.679 304.221 740.977 304.829 741.575 305.256C742.172 305.683 742.94 305.896 743.879 305.896C744.839 305.896 745.607 305.683 746.183 305.256C746.78 304.829 747.079 304.221 747.079 303.432C747.079 302.621 746.78 302.003 746.183 301.576C745.607 301.149 744.839 300.936 743.879 300.936ZM741.767 290.184H745.991V294.92H741.767V290.184ZM739.367 315.912H759.527V319.336H739.367V315.912ZM739.367 310.696H743.655V317.384H739.367V310.696ZM786.749 294.536H794.045V297.928H786.749V294.536ZM792.157 290.216H796.445V305.256H792.157V290.216ZM776.861 306.472H796.445V314.472H781.117V318.184H776.893V311.4H792.221V309.768H776.861V306.472ZM776.893 316.2H797.277V319.528H776.893V316.2ZM778.397 291.144H781.853V293.288C781.853 295.123 781.554 296.861 780.957 298.504C780.381 300.147 779.485 301.576 778.269 302.792C777.053 303.987 775.495 304.883 773.597 305.48L771.421 302.152C773.063 301.64 774.397 300.936 775.421 300.04C776.445 299.123 777.191 298.077 777.661 296.904C778.151 295.731 778.397 294.525 778.397 293.288V291.144ZM779.261 291.144H782.685V293.288C782.685 294.141 782.813 294.995 783.069 295.848C783.346 296.701 783.751 297.501 784.285 298.248C784.818 298.995 785.501 299.656 786.333 300.232C787.186 300.808 788.189 301.277 789.341 301.64L787.165 304.904C785.373 304.328 783.89 303.464 782.717 302.312C781.543 301.16 780.669 299.805 780.093 298.248C779.538 296.691 779.261 295.037 779.261 293.288V291.144ZM814.746 294.472H822.298V297.864H814.746V294.472ZM814.746 300.392H822.426V303.784H814.746V300.392ZM820.954 290.216H825.242V307.56H820.954V290.216ZM801.626 292.328H815.642V305.96H801.626V292.328ZM811.482 295.688H805.818V302.632H811.482V295.688ZM815.194 308.328C818.33 308.328 820.805 308.84 822.618 309.864C824.431 310.867 825.338 312.264 825.338 314.056C825.338 315.891 824.431 317.309 822.618 318.312C820.805 319.336 818.33 319.848 815.194 319.848C812.058 319.848 809.583 319.336 807.77 318.312C805.957 317.309 805.05 315.891 805.05 314.056C805.05 312.264 805.957 310.867 807.77 309.864C809.583 308.84 812.058 308.328 815.194 308.328ZM815.194 311.592C813.914 311.592 812.837 311.677 811.962 311.848C811.087 312.019 810.415 312.296 809.946 312.68C809.498 313.043 809.274 313.512 809.274 314.088C809.274 314.643 809.498 315.112 809.946 315.496C810.415 315.859 811.087 316.136 811.962 316.328C812.837 316.499 813.914 316.584 815.194 316.584C816.474 316.584 817.551 316.499 818.426 316.328C819.301 316.136 819.962 315.859 820.41 315.496C820.858 315.112 821.082 314.643 821.082 314.088C821.082 313.512 820.858 313.043 820.41 312.68C819.962 312.296 819.301 312.019 818.426 311.848C817.551 311.677 816.474 311.592 815.194 311.592ZM829.208 305.32H856.024V308.68H829.208V305.32ZM832.472 315.912H853.016V319.336H832.472V315.912ZM832.472 310.664H836.728V317H832.472V310.664ZM842.616 291.08C844.77 291.08 846.648 291.325 848.248 291.816C849.869 292.307 851.128 293.011 852.024 293.928C852.92 294.845 853.368 295.923 853.368 297.16C853.368 298.419 852.92 299.507 852.024 300.424C851.128 301.341 849.869 302.045 848.248 302.536C846.648 303.027 844.77 303.272 842.616 303.272C840.482 303.272 838.605 303.027 836.984 302.536C835.384 302.045 834.136 301.341 833.24 300.424C832.344 299.507 831.896 298.419 831.896 297.16C831.896 295.923 832.344 294.845 833.24 293.928C834.136 293.011 835.384 292.307 836.984 291.816C838.605 291.325 840.482 291.08 842.616 291.08ZM842.616 294.44C841.314 294.44 840.184 294.547 839.224 294.76C838.264 294.973 837.538 295.283 837.048 295.688C836.557 296.072 836.312 296.563 836.312 297.16C836.312 297.757 836.557 298.259 837.048 298.664C837.538 299.069 838.264 299.379 839.224 299.592C840.184 299.805 841.314 299.912 842.616 299.912C843.96 299.912 845.101 299.805 846.04 299.592C846.978 299.379 847.693 299.069 848.184 298.664C848.696 298.259 848.952 297.757 848.952 297.16C848.952 296.563 848.696 296.072 848.184 295.688C847.693 295.283 846.978 294.973 846.04 294.76C845.101 294.547 843.96 294.44 842.616 294.44ZM632.728 341.216H637.016V356.384H632.728V341.216ZM616.952 357.568H637.016V365.568H621.208V369.12H616.984V362.496H632.76V360.832H616.952V357.568ZM616.984 367.328H637.816V370.656H616.984V367.328ZM613.56 342.976H629.528V346.272H613.56V342.976ZM613.24 355.872L612.824 352.48C614.552 352.48 616.429 352.469 618.456 352.448C620.483 352.405 622.541 352.331 624.632 352.224C626.744 352.117 628.749 351.947 630.648 351.712L630.872 354.72C628.909 355.061 626.893 355.307 624.824 355.456C622.776 355.605 620.76 355.712 618.776 355.776C616.792 355.819 614.947 355.851 613.24 355.872ZM615.928 344.48H619.992V354.176H615.928V344.48ZM623.096 344.48H627.192V354.176H623.096V344.48ZM646.998 356.256H651.254V364.544H646.998V356.256ZM657.75 356.256H662.006V364.544H657.75V356.256ZM641.11 363.936H667.958V367.392H641.11V363.936ZM654.486 342.656C656.619 342.656 658.518 342.987 660.182 343.648C661.867 344.309 663.179 345.237 664.118 346.432C665.078 347.605 665.558 349.003 665.558 350.624C665.558 352.224 665.078 353.621 664.118 354.816C663.179 355.989 661.867 356.907 660.182 357.568C658.518 358.229 656.619 358.56 654.486 358.56C652.374 358.56 650.475 358.229 648.79 357.568C647.126 356.907 645.814 355.989 644.854 354.816C643.894 353.621 643.414 352.224 643.414 350.624C643.414 349.003 643.894 347.605 644.854 346.432C645.814 345.237 647.126 344.309 648.79 343.648C650.475 342.987 652.374 342.656 654.486 342.656ZM654.486 345.952C653.12 345.952 651.915 346.144 650.87 346.528C649.846 346.891 649.046 347.413 648.47 348.096C647.894 348.779 647.606 349.621 647.606 350.624C647.606 351.584 647.894 352.416 648.47 353.12C649.046 353.803 649.846 354.336 650.87 354.72C651.915 355.083 653.12 355.264 654.486 355.264C655.872 355.264 657.078 355.083 658.102 354.72C659.147 354.336 659.947 353.803 660.502 353.12C661.078 352.416 661.366 351.584 661.366 350.624C661.366 349.621 661.078 348.779 660.502 348.096C659.947 347.413 659.147 346.891 658.102 346.528C657.078 346.144 655.872 345.952 654.486 345.952ZM680.812 358.56H684.78V361.472H687.724V358.56H691.628V370.528H680.812V358.56ZM684.78 364.544V367.328H687.724V364.544H684.78ZM696.236 358.304H699.436V360.512C699.436 361.963 699.233 363.371 698.828 364.736C698.422 366.08 697.761 367.275 696.844 368.32C695.948 369.387 694.764 370.208 693.292 370.784L691.212 367.616C692.406 367.125 693.366 366.507 694.092 365.76C694.838 364.992 695.382 364.16 695.724 363.264C696.065 362.347 696.236 361.429 696.236 360.512V358.304ZM697.196 358.304H700.46V360.512C700.46 361.536 700.62 362.517 700.94 363.456C701.281 364.373 701.814 365.195 702.54 365.92C703.286 366.645 704.257 367.211 705.452 367.616L703.34 370.784C701.846 370.251 700.652 369.472 699.756 368.448C698.86 367.424 698.209 366.24 697.804 364.896C697.398 363.531 697.196 362.069 697.196 360.512V358.304ZM692.556 347.552H699.98V350.976H692.556V347.552ZM685.74 342.304C687.233 342.304 688.566 342.603 689.74 343.2C690.934 343.797 691.873 344.619 692.556 345.664C693.238 346.709 693.58 347.915 693.58 349.28C693.58 350.645 693.238 351.861 692.556 352.928C691.873 353.973 690.934 354.795 689.74 355.392C688.566 355.989 687.233 356.288 685.74 356.288C684.268 356.288 682.934 355.989 681.74 355.392C680.566 354.795 679.638 353.973 678.956 352.928C678.273 351.861 677.932 350.645 677.932 349.28C677.932 347.915 678.273 346.709 678.956 345.664C679.638 344.619 680.566 343.797 681.74 343.2C682.934 342.603 684.268 342.304 685.74 342.304ZM685.74 345.792C685.014 345.792 684.364 345.931 683.788 346.208C683.233 346.485 682.796 346.891 682.476 347.424C682.156 347.936 681.996 348.555 681.996 349.28C681.996 350.005 682.156 350.635 682.476 351.168C682.796 351.701 683.233 352.107 683.788 352.384C684.364 352.661 685.014 352.8 685.74 352.8C686.465 352.8 687.105 352.661 687.66 352.384C688.236 352.107 688.684 351.701 689.004 351.168C689.324 350.635 689.484 350.005 689.484 349.28C689.484 348.555 689.324 347.936 689.004 347.424C688.684 346.891 688.236 346.485 687.66 346.208C687.105 345.931 686.465 345.792 685.74 345.792ZM698.092 341.216H702.38V356.896H698.092V341.216ZM709.481 358.944H713.705V361.44H725.577V358.944H729.769V370.528H709.481V358.944ZM713.705 364.64V367.2H725.577V364.64H713.705ZM706.345 354.144H733.161V357.472H706.345V354.144ZM717.577 341.504H721.225V342.4C721.225 343.445 721.044 344.437 720.681 345.376C720.34 346.315 719.838 347.189 719.177 348C718.516 348.811 717.694 349.547 716.713 350.208C715.753 350.848 714.644 351.392 713.385 351.84C712.126 352.267 710.729 352.587 709.193 352.8L707.657 349.504C709.001 349.355 710.206 349.109 711.273 348.768C712.34 348.427 713.268 348.021 714.057 347.552C714.846 347.061 715.497 346.539 716.009 345.984C716.542 345.408 716.937 344.821 717.193 344.224C717.449 343.605 717.577 342.997 717.577 342.4V341.504ZM718.281 341.504H721.929V342.4C721.929 342.997 722.057 343.605 722.313 344.224C722.569 344.821 722.953 345.408 723.465 345.984C723.998 346.539 724.66 347.061 725.449 347.552C726.238 348.021 727.166 348.427 728.233 348.768C729.321 349.109 730.526 349.355 731.849 349.504L730.313 352.8C728.777 352.587 727.38 352.267 726.121 351.84C724.884 351.392 723.774 350.848 722.793 350.208C721.812 349.547 720.99 348.811 720.329 348C719.668 347.189 719.156 346.315 718.793 345.376C718.452 344.416 718.281 343.424 718.281 342.4V341.504ZM755.687 341.184H759.911V370.816H755.687V341.184ZM736.711 344H740.967V362.432H736.711V344ZM736.711 359.904H739.335C741.511 359.904 743.783 359.819 746.151 359.648C748.519 359.456 750.929 359.115 753.383 358.624L753.831 362.176C751.313 362.709 748.828 363.072 746.375 363.264C743.943 363.435 741.596 363.52 739.335 363.52H736.711V359.904ZM782.884 341.152H787.172V370.88H782.884V341.152ZM786.244 352.128H791.46V355.648H786.244V352.128ZM765.092 360.256H767.588C769.273 360.256 770.852 360.235 772.324 360.192C773.796 360.128 775.225 360.032 776.612 359.904C777.999 359.755 779.417 359.552 780.868 359.296L781.284 362.816C779.791 363.072 778.319 363.275 776.868 363.424C775.439 363.573 773.967 363.669 772.452 363.712C770.937 363.755 769.316 363.776 767.588 363.776H765.092V360.256ZM765.092 343.904H778.916V347.328H769.348V361.92H765.092V343.904Z" fill="#534F4B"/>
<path d="M623.726 393.114H625.22V409.422H623.726V393.114ZM616.634 394.374C617.438 394.374 618.146 394.608 618.758 395.076C619.382 395.532 619.868 396.186 620.216 397.038C620.576 397.89 620.756 398.892 620.756 400.044C620.756 401.196 620.576 402.198 620.216 403.05C619.868 403.902 619.382 404.562 618.758 405.03C618.146 405.498 617.438 405.732 616.634 405.732C615.83 405.732 615.116 405.498 614.492 405.03C613.868 404.562 613.376 403.902 613.016 403.05C612.668 402.198 612.494 401.196 612.494 400.044C612.494 398.892 612.668 397.89 613.016 397.038C613.376 396.186 613.868 395.532 614.492 395.076C615.116 394.608 615.83 394.374 616.634 394.374ZM616.634 395.706C616.094 395.706 615.62 395.886 615.212 396.246C614.816 396.594 614.504 397.098 614.276 397.758C614.048 398.406 613.934 399.168 613.934 400.044C613.934 400.92 614.048 401.688 614.276 402.348C614.504 402.996 614.816 403.5 615.212 403.86C615.62 404.22 616.094 404.4 616.634 404.4C617.162 404.4 617.624 404.22 618.02 403.86C618.428 403.5 618.746 402.996 618.974 402.348C619.202 401.688 619.316 400.92 619.316 400.044C619.316 399.168 619.202 398.406 618.974 397.758C618.746 397.098 618.428 396.594 618.02 396.246C617.624 395.886 617.162 395.706 616.634 395.706ZM629.017 394.716H636.505V405.318H629.017V394.716ZM635.065 395.904H630.493V404.112H635.065V395.904ZM639.925 393.114H641.419V409.422H639.925V393.114ZM659.629 393.114H661.123V409.422H659.629V393.114ZM660.781 399.54H663.787V400.782H660.781V399.54ZM649.315 404.094H650.593C651.589 404.094 652.501 404.082 653.329 404.058C654.169 404.022 654.973 403.962 655.741 403.878C656.521 403.794 657.313 403.68 658.117 403.536L658.297 404.814C657.457 404.958 656.641 405.072 655.849 405.156C655.069 405.24 654.253 405.294 653.401 405.318C652.549 405.342 651.613 405.354 650.593 405.354H649.315V404.094ZM649.315 394.698H656.857V395.922H650.791V404.67H649.315V394.698ZM676.921 396.12H681.277V397.326H676.921V396.12ZM676.777 399.504H681.169V400.728H676.777V399.504ZM681.025 393.132H682.519V402.87H681.025V393.132ZM675.931 394.338H677.515C677.515 395.73 677.209 396.984 676.597 398.1C675.997 399.216 675.127 400.176 673.987 400.98C672.859 401.772 671.515 402.402 669.955 402.87L669.343 401.682C670.723 401.274 671.905 400.746 672.889 400.098C673.873 399.438 674.623 398.682 675.139 397.83C675.667 396.966 675.931 396.018 675.931 394.986V394.338ZM670.171 394.338H676.939V395.562H670.171V394.338ZM677.227 403.05C678.331 403.05 679.279 403.176 680.071 403.428C680.875 403.68 681.499 404.04 681.943 404.508C682.387 404.976 682.609 405.534 682.609 406.182C682.609 406.842 682.387 407.406 681.943 407.874C681.499 408.33 680.875 408.684 680.071 408.936C679.279 409.2 678.331 409.332 677.227 409.332C676.135 409.332 675.181 409.2 674.365 408.936C673.561 408.684 672.937 408.33 672.493 407.874C672.049 407.406 671.827 406.842 671.827 406.182C671.827 405.534 672.049 404.976 672.493 404.508C672.937 404.04 673.561 403.68 674.365 403.428C675.181 403.176 676.135 403.05 677.227 403.05ZM677.227 404.238C676.435 404.238 675.745 404.316 675.157 404.472C674.569 404.628 674.113 404.85 673.789 405.138C673.465 405.426 673.303 405.774 673.303 406.182C673.303 406.59 673.465 406.938 673.789 407.226C674.113 407.514 674.569 407.736 675.157 407.892C675.745 408.048 676.435 408.126 677.227 408.126C678.031 408.126 678.721 408.048 679.297 407.892C679.873 407.736 680.323 407.514 680.647 407.226C680.971 406.938 681.133 406.59 681.133 406.182C681.133 405.774 680.971 405.426 680.647 405.138C680.323 404.85 679.873 404.628 679.297 404.472C678.721 404.316 678.031 404.238 677.227 404.238ZM697.224 393.114H698.718V402.978H697.224V393.114ZM694.524 398.064H697.89V399.306H694.524V398.064ZM688.152 403.842H698.718V409.188H688.152V403.842ZM697.26 405.048H689.628V407.964H697.26V405.048ZM685.344 394.806H694.758V396.03H685.344V394.806ZM690.06 396.858C690.792 396.858 691.44 396.978 692.004 397.218C692.568 397.458 693.006 397.8 693.318 398.244C693.642 398.676 693.804 399.18 693.804 399.756C693.804 400.344 693.642 400.854 693.318 401.286C693.006 401.718 692.568 402.054 692.004 402.294C691.44 402.534 690.792 402.654 690.06 402.654C689.328 402.654 688.674 402.534 688.098 402.294C687.534 402.054 687.09 401.718 686.766 401.286C686.454 400.854 686.298 400.344 686.298 399.756C686.298 399.18 686.454 398.676 686.766 398.244C687.09 397.8 687.534 397.458 688.098 397.218C688.674 396.978 689.328 396.858 690.06 396.858ZM690.06 398.01C689.604 398.01 689.196 398.082 688.836 398.226C688.488 398.37 688.212 398.574 688.008 398.838C687.816 399.102 687.72 399.408 687.72 399.756C687.72 400.104 687.816 400.41 688.008 400.674C688.212 400.938 688.488 401.148 688.836 401.304C689.196 401.448 689.604 401.52 690.06 401.52C690.516 401.52 690.918 401.448 691.266 401.304C691.614 401.148 691.884 400.938 692.076 400.674C692.28 400.41 692.382 400.104 692.382 399.756C692.382 399.408 692.28 399.102 692.076 398.838C691.884 398.574 691.614 398.37 691.266 398.226C690.918 398.082 690.516 398.01 690.06 398.01ZM689.322 392.97H690.798V395.688H689.322V392.97ZM701.489 395.904H709.571V397.128H701.489V395.904ZM705.539 398.208C706.223 398.208 706.823 398.364 707.339 398.676C707.867 398.988 708.281 399.426 708.581 399.99C708.881 400.542 709.031 401.184 709.031 401.916C709.031 402.648 708.881 403.296 708.581 403.86C708.281 404.412 707.867 404.85 707.339 405.174C706.823 405.486 706.223 405.642 705.539 405.642C704.867 405.642 704.267 405.486 703.739 405.174C703.211 404.85 702.797 404.412 702.497 403.86C702.197 403.296 702.047 402.648 702.047 401.916C702.047 401.184 702.197 400.542 702.497 399.99C702.797 399.438 703.211 399.006 703.739 398.694C704.267 398.37 704.867 398.208 705.539 398.208ZM705.539 399.468C705.131 399.468 704.759 399.576 704.423 399.792C704.099 399.996 703.841 400.284 703.649 400.656C703.469 401.016 703.379 401.436 703.379 401.916C703.379 402.396 703.469 402.822 703.649 403.194C703.841 403.566 704.099 403.854 704.423 404.058C704.759 404.262 705.131 404.364 705.539 404.364C705.959 404.364 706.331 404.262 706.655 404.058C706.979 403.854 707.231 403.566 707.411 403.194C707.603 402.822 707.699 402.396 707.699 401.916C707.699 401.436 707.603 401.016 707.411 400.656C707.231 400.284 706.979 399.996 706.655 399.792C706.331 399.576 705.959 399.468 705.539 399.468ZM713.873 393.114H715.295V409.404H713.873V393.114ZM711.263 399.972H714.341V401.196H711.263V399.972ZM710.381 393.492H711.785V408.612H710.381V393.492ZM704.801 393.6H706.277V396.642H704.801V393.6ZM719.667 393.762H721.143V395.796H729.027V393.762H730.503V400.278H719.667V393.762ZM721.143 396.984V399.072H729.027V396.984H721.143ZM717.723 402.006H732.429V403.23H717.723V402.006ZM724.329 399.558H725.823V402.546H724.329V399.558ZM719.613 407.82H730.791V409.044H719.613V407.82ZM719.613 404.526H721.107V408.234H719.613V404.526ZM738.22 401.718H752.98V402.924H738.22V401.718ZM744.952 402.33H746.446V406.074H744.952V402.33ZM740.092 407.82H751.342V409.044H740.092V407.82ZM740.092 404.616H741.568V408.27H740.092V404.616ZM740.182 393.636H741.658V395.706H749.542V393.636H751.018V400.152H740.182V393.636ZM741.658 396.858V398.946H749.542V396.858H741.658ZM758.756 394.374C759.56 394.374 760.268 394.608 760.88 395.076C761.492 395.532 761.972 396.186 762.32 397.038C762.668 397.89 762.842 398.892 762.842 400.044C762.842 401.196 762.668 402.198 762.32 403.05C761.972 403.902 761.492 404.562 760.88 405.03C760.268 405.498 759.56 405.732 758.756 405.732C757.964 405.732 757.256 405.498 756.632 405.03C756.02 404.562 755.54 403.902 755.192 403.05C754.844 402.198 754.67 401.196 754.67 400.044C754.67 398.892 754.844 397.89 755.192 397.038C755.54 396.186 756.02 395.532 756.632 395.076C757.256 394.608 757.964 394.374 758.756 394.374ZM758.756 395.706C758.24 395.706 757.778 395.886 757.37 396.246C756.974 396.594 756.662 397.098 756.434 397.758C756.206 398.406 756.092 399.168 756.092 400.044C756.092 400.92 756.206 401.688 756.434 402.348C756.662 402.996 756.974 403.5 757.37 403.86C757.778 404.22 758.246 404.4 758.774 404.4C759.29 404.4 759.746 404.22 760.142 403.86C760.55 403.5 760.862 402.996 761.078 402.348C761.306 401.688 761.42 400.92 761.42 400.044C761.42 399.168 761.306 398.406 761.078 397.758C760.862 397.098 760.55 396.594 760.142 396.246C759.746 395.886 759.284 395.706 758.756 395.706ZM766.532 397.2H769.538V398.46H766.532V397.2ZM766.532 402.06H769.538V403.302H766.532V402.06ZM765.452 393.114H766.946V409.404H765.452V393.114ZM786.794 393.114H788.288V401.862H786.794V393.114ZM777.812 402.672H779.27V404.634H786.812V402.672H788.288V409.188H777.812V402.672ZM779.27 405.822V407.964H786.812V405.822H779.27ZM779.558 393.888C780.386 393.888 781.118 394.05 781.754 394.374C782.39 394.686 782.888 395.124 783.248 395.688C783.62 396.252 783.806 396.906 783.806 397.65C783.806 398.382 783.62 399.036 783.248 399.612C782.888 400.176 782.39 400.614 781.754 400.926C781.118 401.238 780.386 401.394 779.558 401.394C778.742 401.394 778.01 401.238 777.362 400.926C776.726 400.614 776.222 400.176 775.85 399.612C775.49 399.036 775.31 398.382 775.31 397.65C775.31 396.906 775.49 396.252 775.85 395.688C776.222 395.124 776.726 394.686 777.362 394.374C778.01 394.05 778.742 393.888 779.558 393.888ZM779.558 395.148C779.018 395.148 778.538 395.256 778.118 395.472C777.698 395.676 777.368 395.97 777.128 396.354C776.888 396.726 776.768 397.158 776.768 397.65C776.768 398.13 776.888 398.562 777.128 398.946C777.368 399.318 777.698 399.612 778.118 399.828C778.538 400.044 779.018 400.152 779.558 400.152C780.098 400.152 780.578 400.044 780.998 399.828C781.418 399.612 781.748 399.318 781.988 398.946C782.228 398.562 782.348 398.13 782.348 397.65C782.348 397.158 782.228 396.726 781.988 396.354C781.748 395.97 781.418 395.676 780.998 395.472C780.578 395.256 780.098 395.148 779.558 395.148ZM802.993 393.114H804.469V409.404H802.993V393.114ZM792.175 394.716H793.651V404.796H792.175V394.716ZM792.175 403.914H793.507C794.755 403.914 796.021 403.86 797.305 403.752C798.601 403.632 799.933 403.434 801.301 403.158L801.499 404.418C800.083 404.718 798.721 404.928 797.413 405.048C796.105 405.156 794.803 405.21 793.507 405.21H792.175V403.914ZM818.364 393.114H819.858V409.422H818.364V393.114ZM819.516 399.54H822.522V400.782H819.516V399.54ZM808.05 404.094H809.328C810.324 404.094 811.236 404.082 812.064 404.058C812.904 404.022 813.708 403.962 814.476 403.878C815.256 403.794 816.048 403.68 816.852 403.536L817.032 404.814C816.192 404.958 815.376 405.072 814.584 405.156C813.804 405.24 812.988 405.294 812.136 405.318C811.284 405.342 810.348 405.354 809.328 405.354H808.05V404.094ZM808.05 394.698H815.592V395.922H809.526V404.67H808.05V394.698ZM823.942 407.028C823.942 406.584 824.05 406.272 824.266 406.092C824.482 405.912 824.74 405.822 825.04 405.822C825.352 405.822 825.616 405.912 825.832 406.092C826.06 406.272 826.174 406.584 826.174 407.028C826.174 407.46 826.06 407.772 825.832 407.964C825.616 408.156 825.352 408.252 825.04 408.252C824.74 408.252 824.482 408.156 824.266 407.964C824.05 407.772 823.942 407.46 823.942 407.028Z" fill="#534F4B"/>
</svg>
