<svg width="980" height="319" viewBox="0 0 980 319" fill="none" xmlns="http://www.w3.org/2000/svg">
<rect width="980" height="319" rx="8" fill="#F1F1F1"/>
<path d="M112.1 102.58C112.1 106.02 111.82 109.1 111.26 111.82C110.74 114.54 109.88 116.86 108.68 118.78C107.52 120.66 105.98 122.1 104.06 123.1C102.18 124.1 99.86 124.6 97.1 124.6C93.66 124.6 90.84 123.72 88.64 121.96C86.44 120.2 84.8 117.68 83.72 114.4C82.68 111.12 82.16 107.18 82.16 102.58C82.16 97.94 82.64 93.98 83.6 90.7C84.56 87.42 86.14 84.9 88.34 83.14C90.54 81.38 93.46 80.5 97.1 80.5C100.54 80.5 103.36 81.38 105.56 83.14C107.76 84.86 109.4 87.38 110.48 90.7C111.56 93.98 112.1 97.94 112.1 102.58ZM91.16 102.58C91.16 105.82 91.34 108.54 91.7 110.74C92.06 112.9 92.66 114.54 93.5 115.66C94.38 116.74 95.58 117.28 97.1 117.28C98.62 117.28 99.8 116.74 100.64 115.66C101.52 114.58 102.14 112.96 102.5 110.8C102.9 108.6 103.1 105.86 103.1 102.58C103.1 99.3 102.9 96.58 102.5 94.42C102.14 92.22 101.52 90.58 100.64 89.5C99.8 88.38 98.62 87.82 97.1 87.82C95.58 87.82 94.38 88.38 93.5 89.5C92.66 90.58 92.06 92.22 91.7 94.42C91.34 96.58 91.16 99.3 91.16 102.58ZM139.116 124H130.056V99.22C130.056 98.54 130.056 97.7 130.056 96.7C130.096 95.7 130.136 94.66 130.176 93.58C130.216 92.5 130.256 91.54 130.296 90.7C130.096 90.94 129.656 91.38 128.976 92.02C128.336 92.62 127.736 93.16 127.176 93.64L122.256 97.6L117.876 92.14L131.676 81.16H139.116V124Z" fill="#B73D24"/>
<path d="M96.352 170.272C96.352 171.317 96.128 172.224 95.68 172.992C95.2533 173.76 94.6667 174.389 93.92 174.88C93.1947 175.371 92.3627 175.733 91.424 175.968V176.064C93.2587 176.277 94.6453 176.832 95.584 177.728C96.544 178.624 97.024 179.829 97.024 181.344C97.024 182.667 96.6933 183.861 96.032 184.928C95.392 185.973 94.3893 186.805 93.024 187.424C91.68 188.021 89.9413 188.32 87.808 188.32C86.5493 188.32 85.376 188.213 84.288 188C83.2 187.787 82.176 187.477 81.216 187.072V182.976C82.1973 183.467 83.2213 183.84 84.288 184.096C85.376 184.352 86.3787 184.48 87.296 184.48C89.024 184.48 90.2293 184.181 90.912 183.584C91.616 182.987 91.968 182.144 91.968 181.056C91.968 180.416 91.808 179.883 91.488 179.456C91.168 179.008 90.6027 178.677 89.792 178.464C89.0027 178.229 87.8933 178.112 86.464 178.112H84.736V174.4H86.496C87.904 174.4 88.9707 174.272 89.696 174.016C90.4427 173.739 90.944 173.376 91.2 172.928C91.4773 172.459 91.616 171.925 91.616 171.328C91.616 170.517 91.36 169.888 90.848 169.44C90.3573 168.971 89.5253 168.736 88.352 168.736C87.6267 168.736 86.9653 168.832 86.368 169.024C85.7707 169.195 85.2267 169.408 84.736 169.664C84.2667 169.92 83.8507 170.165 83.488 170.4L81.248 167.072C81.8453 166.645 82.5067 166.261 83.232 165.92C83.9787 165.579 84.8 165.312 85.696 165.12C86.592 164.928 87.5947 164.832 88.704 164.832C91.0507 164.832 92.9067 165.312 94.272 166.272C95.6587 167.211 96.352 168.544 96.352 170.272ZM112.073 165.056H120.841V168.48H112.073V165.056ZM112.073 171.648H120.841V175.04H112.073V171.648ZM107.145 162.784C108.638 162.784 109.971 163.104 111.145 163.744C112.318 164.363 113.246 165.216 113.929 166.304C114.633 167.392 114.985 168.64 114.985 170.048C114.985 171.435 114.633 172.672 113.929 173.76C113.246 174.848 112.318 175.712 111.145 176.352C109.971 176.971 108.638 177.28 107.145 177.28C105.694 177.28 104.371 176.971 103.177 176.352C102.003 175.712 101.065 174.848 100.361 173.76C99.6778 172.672 99.3365 171.435 99.3365 170.048C99.3365 168.64 99.6778 167.392 100.361 166.304C101.065 165.216 102.003 164.363 103.177 163.744C104.371 163.104 105.694 162.784 107.145 162.784ZM107.145 166.368C106.441 166.368 105.801 166.517 105.225 166.816C104.649 167.093 104.19 167.509 103.849 168.064C103.529 168.597 103.369 169.259 103.369 170.048C103.369 170.795 103.529 171.445 103.849 172C104.19 172.555 104.649 172.981 105.225 173.28C105.801 173.557 106.441 173.696 107.145 173.696C107.891 173.696 108.542 173.557 109.097 173.28C109.673 172.981 110.121 172.555 110.441 172C110.761 171.445 110.921 170.795 110.921 170.048C110.921 169.259 110.761 168.597 110.441 168.064C110.121 167.509 109.673 167.093 109.097 166.816C108.542 166.517 107.891 166.368 107.145 166.368ZM119.497 161.216H123.785V178.56H119.497V161.216ZM113.737 179.168C115.827 179.168 117.619 179.403 119.113 179.872C120.627 180.32 121.801 180.981 122.633 181.856C123.465 182.731 123.881 183.776 123.881 184.992C123.881 186.208 123.465 187.253 122.633 188.128C121.801 189.024 120.627 189.696 119.113 190.144C117.619 190.613 115.827 190.848 113.737 190.848C111.646 190.848 109.843 190.613 108.329 190.144C106.814 189.696 105.641 189.024 104.809 188.128C103.998 187.253 103.593 186.208 103.593 184.992C103.593 183.776 103.998 182.731 104.809 181.856C105.641 180.981 106.814 180.32 108.329 179.872C109.843 179.403 111.646 179.168 113.737 179.168ZM113.737 182.432C112.457 182.432 111.369 182.528 110.473 182.72C109.577 182.912 108.905 183.2 108.457 183.584C108.009 183.947 107.785 184.416 107.785 184.992C107.785 185.568 108.009 186.048 108.457 186.432C108.905 186.816 109.577 187.104 110.473 187.296C111.369 187.467 112.457 187.552 113.737 187.552C115.038 187.552 116.126 187.467 117.001 187.296C117.897 187.104 118.569 186.816 119.017 186.432C119.465 186.048 119.689 185.568 119.689 184.992C119.689 184.416 119.465 183.947 119.017 183.584C118.569 183.2 117.897 182.912 117.001 182.72C116.126 182.528 115.038 182.432 113.737 182.432ZM142.758 167.744H150.182V171.168H142.758V167.744ZM135.942 162.432C137.435 162.432 138.769 162.741 139.942 163.36C141.137 163.957 142.075 164.789 142.758 165.856C143.441 166.901 143.782 168.117 143.782 169.504C143.782 170.869 143.441 172.085 142.758 173.152C142.075 174.219 141.137 175.061 139.942 175.68C138.769 176.277 137.435 176.576 135.942 176.576C134.47 176.576 133.137 176.277 131.942 175.68C130.769 175.061 129.841 174.219 129.158 173.152C128.475 172.085 128.134 170.869 128.134 169.504C128.134 168.117 128.475 166.901 129.158 165.856C129.841 164.789 130.769 163.957 131.942 163.36C133.137 162.741 134.47 162.432 135.942 162.432ZM135.942 165.952C135.217 165.952 134.566 166.091 133.99 166.368C133.435 166.645 132.998 167.051 132.678 167.584C132.358 168.117 132.198 168.757 132.198 169.504C132.198 170.229 132.358 170.859 132.678 171.392C132.998 171.925 133.435 172.331 133.99 172.608C134.566 172.885 135.217 173.024 135.942 173.024C136.667 173.024 137.307 172.885 137.862 172.608C138.438 172.331 138.886 171.925 139.206 171.392C139.526 170.859 139.686 170.229 139.686 169.504C139.686 168.757 139.526 168.117 139.206 167.584C138.886 167.051 138.438 166.645 137.862 166.368C137.307 166.091 136.667 165.952 135.942 165.952ZM148.294 161.216H152.582V177.12H148.294V161.216ZM132.902 178.432H137.126V181.216H148.358V178.432H152.582V190.528H132.902V178.432ZM137.126 184.48V187.136H148.358V184.48H137.126ZM164.9 162.048C166.436 162.048 167.79 162.347 168.964 162.944C170.158 163.52 171.097 164.32 171.78 165.344C172.484 166.347 172.836 167.509 172.836 168.832C172.836 170.155 172.484 171.328 171.78 172.352C171.097 173.355 170.158 174.144 168.964 174.72C167.79 175.296 166.436 175.584 164.9 175.584C163.406 175.584 162.062 175.296 160.868 174.72C159.673 174.144 158.724 173.355 158.02 172.352C157.337 171.328 156.996 170.155 156.996 168.832C156.996 167.509 157.337 166.336 158.02 165.312C158.724 164.288 159.673 163.488 160.868 162.912C162.062 162.336 163.406 162.048 164.9 162.048ZM164.932 165.504C164.206 165.504 163.556 165.643 162.98 165.92C162.404 166.176 161.945 166.549 161.604 167.04C161.284 167.531 161.124 168.128 161.124 168.832C161.124 169.536 161.284 170.144 161.604 170.656C161.945 171.147 162.393 171.52 162.948 171.776C163.524 172.032 164.185 172.16 164.932 172.16C165.657 172.16 166.297 172.032 166.852 171.776C167.428 171.52 167.876 171.147 168.196 170.656C168.537 170.144 168.708 169.536 168.708 168.832C168.708 168.128 168.537 167.531 168.196 167.04C167.876 166.549 167.428 166.176 166.852 165.92C166.276 165.643 165.636 165.504 164.932 165.504ZM176.932 161.216H181.188V176.032H176.932V161.216ZM161.444 177.248H181.188V185.344H165.668V188.96H161.476V182.272H176.964V180.512H161.444V177.248ZM161.476 187.2H181.924V190.528H161.476V187.2ZM213.37 161.152H217.626V190.88H213.37V161.152ZM201.658 163.232C203.172 163.232 204.516 163.669 205.69 164.544C206.863 165.397 207.78 166.624 208.442 168.224C209.124 169.803 209.466 171.669 209.466 173.824C209.466 176 209.124 177.888 208.442 179.488C207.78 181.067 206.863 182.293 205.69 183.168C204.516 184.021 203.172 184.448 201.658 184.448C200.164 184.448 198.831 184.021 197.658 183.168C196.484 182.293 195.556 181.067 194.874 179.488C194.212 177.888 193.882 176 193.882 173.824C193.882 171.669 194.212 169.803 194.874 168.224C195.556 166.624 196.484 165.397 197.658 164.544C198.831 163.669 200.164 163.232 201.658 163.232ZM201.658 167.104C200.932 167.104 200.292 167.36 199.738 167.872C199.183 168.384 198.746 169.141 198.426 170.144C198.127 171.125 197.978 172.352 197.978 173.824C197.978 175.275 198.127 176.512 198.426 177.536C198.746 178.539 199.183 179.296 199.738 179.808C200.292 180.32 200.932 180.576 201.658 180.576C202.404 180.576 203.055 180.32 203.61 179.808C204.164 179.296 204.591 178.539 204.89 177.536C205.21 176.512 205.37 175.275 205.37 173.824C205.37 172.352 205.21 171.125 204.89 170.144C204.591 169.141 204.164 168.384 203.61 167.872C203.055 167.36 202.404 167.104 201.658 167.104ZM243.159 161.184H247.191V190.816H243.159V161.184ZM239.287 172.608H244.215V176.032H239.287V172.608ZM236.535 161.696H240.503V189.44H236.535V161.696ZM222.999 164.48H227.255V181.6H222.999V164.48ZM222.999 179.968H225.047C226.476 179.968 228.012 179.925 229.655 179.84C231.319 179.733 233.068 179.499 234.903 179.136L235.287 182.784C233.367 183.125 231.554 183.349 229.847 183.456C228.14 183.563 226.54 183.616 225.047 183.616H222.999V179.968ZM278.669 161.216H282.925V182.816H278.669V161.216ZM263.181 186.912H283.693V190.336H263.181V186.912ZM263.181 180.736H267.437V188.672H263.181V180.736ZM265.261 162.848H268.781V165.728C268.781 167.648 268.472 169.483 267.853 171.232C267.256 172.981 266.338 174.517 265.101 175.84C263.864 177.163 262.285 178.165 260.365 178.848L258.189 175.456C259.853 174.88 261.197 174.08 262.221 173.056C263.266 172.032 264.034 170.88 264.525 169.6C265.016 168.32 265.261 167.029 265.261 165.728V162.848ZM266.125 162.848H269.581V165.728C269.581 166.688 269.709 167.637 269.965 168.576C270.242 169.493 270.658 170.368 271.213 171.2C271.768 172.011 272.482 172.747 273.357 173.408C274.232 174.069 275.266 174.592 276.461 174.976L274.317 178.336C272.44 177.717 270.893 176.779 269.677 175.52C268.461 174.261 267.565 172.789 266.989 171.104C266.413 169.419 266.125 167.627 266.125 165.728V162.848ZM293.739 166.4H297.195V167.456C297.195 169.184 296.896 170.816 296.299 172.352C295.701 173.888 294.784 175.221 293.547 176.352C292.331 177.483 290.784 178.325 288.907 178.88L286.891 175.584C288.491 175.115 289.792 174.464 290.795 173.632C291.819 172.779 292.565 171.819 293.035 170.752C293.504 169.664 293.739 168.565 293.739 167.456V166.4ZM294.539 166.4H297.995V167.456C297.995 168.224 298.123 168.981 298.379 169.728C298.656 170.475 299.072 171.179 299.627 171.84C300.203 172.501 300.928 173.088 301.803 173.6C302.677 174.112 303.701 174.528 304.875 174.848L302.955 178.176C301.077 177.664 299.509 176.885 298.251 175.84C297.013 174.773 296.085 173.515 295.467 172.064C294.848 170.613 294.539 169.077 294.539 167.456V166.4ZM287.915 164.256H303.851V167.616H287.915V164.256ZM293.739 161.088H297.995V165.6H293.739V161.088ZM303.019 169.088H308.651V172.512H303.019V169.088ZM307.627 161.216H311.915V179.104H307.627V161.216ZM301.867 179.584C305.003 179.584 307.477 180.075 309.291 181.056C311.104 182.037 312.011 183.424 312.011 185.216C312.011 186.987 311.104 188.363 309.291 189.344C307.477 190.347 305.003 190.848 301.867 190.848C298.731 190.848 296.256 190.347 294.443 189.344C292.629 188.363 291.723 186.987 291.723 185.216C291.723 183.424 292.629 182.037 294.443 181.056C296.256 180.075 298.731 179.584 301.867 179.584ZM301.867 182.848C300.587 182.848 299.499 182.933 298.603 183.104C297.728 183.275 297.067 183.541 296.619 183.904C296.171 184.245 295.947 184.683 295.947 185.216C295.947 185.728 296.171 186.165 296.619 186.528C297.067 186.891 297.728 187.157 298.603 187.328C299.499 187.499 300.587 187.584 301.867 187.584C303.168 187.584 304.256 187.499 305.131 187.328C306.005 187.157 306.656 186.891 307.083 186.528C307.531 186.165 307.755 185.728 307.755 185.216C307.755 184.683 307.531 184.245 307.083 183.904C306.656 183.541 306.005 183.275 305.131 183.104C304.256 182.933 303.168 182.848 301.867 182.848ZM330.856 170.464H338.664V173.888H330.856V170.464ZM322.792 163.456H326.216V167.776C326.216 169.632 326.056 171.435 325.736 173.184C325.416 174.933 324.925 176.565 324.264 178.08C323.603 179.595 322.76 180.928 321.736 182.08C320.733 183.232 319.539 184.16 318.152 184.864L315.496 181.472C316.755 180.875 317.832 180.096 318.728 179.136C319.645 178.176 320.403 177.088 321 175.872C321.619 174.635 322.067 173.333 322.344 171.968C322.643 170.581 322.792 169.184 322.792 167.776V163.456ZM323.656 163.456H327.048V167.776C327.048 169.163 327.187 170.539 327.464 171.904C327.741 173.248 328.157 174.507 328.712 175.68C329.288 176.853 330.024 177.899 330.92 178.816C331.816 179.712 332.883 180.437 334.12 180.992L331.56 184.384C330.173 183.701 328.979 182.805 327.976 181.696C326.973 180.565 326.152 179.275 325.512 177.824C324.893 176.373 324.424 174.795 324.104 173.088C323.805 171.381 323.656 169.611 323.656 167.776V163.456ZM336.52 161.152H340.776V190.88H336.52V161.152ZM368.414 167.84H374.014V171.264H368.414V167.84ZM372.894 161.216H377.15V177.408H372.894V161.216ZM357.502 178.592H361.726V181.312H372.958V178.592H377.15V190.528H357.502V178.592ZM361.726 184.576V187.104H372.958V184.576H361.726ZM359.23 163.488H362.686V165.376C362.686 167.232 362.387 169.003 361.79 170.688C361.193 172.373 360.275 173.845 359.038 175.104C357.822 176.363 356.254 177.312 354.334 177.952L352.222 174.592C353.438 174.165 354.483 173.632 355.358 172.992C356.254 172.352 356.979 171.616 357.534 170.784C358.11 169.952 358.537 169.077 358.814 168.16C359.091 167.243 359.23 166.315 359.23 165.376V163.488ZM360.126 163.488H363.518V165.344C363.518 166.496 363.753 167.648 364.222 168.8C364.691 169.931 365.417 170.955 366.398 171.872C367.401 172.789 368.681 173.515 370.238 174.048L368.158 177.376C366.323 176.757 364.809 175.84 363.614 174.624C362.441 173.408 361.566 172 360.99 170.4C360.414 168.8 360.126 167.115 360.126 165.344V163.488ZM353.374 162.56H369.31V165.92H353.374V162.56ZM392.347 162.048H396.059V163.456C396.059 164.587 395.878 165.685 395.515 166.752C395.174 167.797 394.662 168.779 393.979 169.696C393.297 170.613 392.465 171.435 391.483 172.16C390.502 172.885 389.361 173.504 388.059 174.016C386.779 174.507 385.371 174.88 383.835 175.136L382.171 171.712C383.537 171.541 384.753 171.253 385.819 170.848C386.907 170.443 387.857 169.963 388.667 169.408C389.499 168.853 390.182 168.245 390.715 167.584C391.249 166.923 391.654 166.24 391.931 165.536C392.209 164.832 392.347 164.139 392.347 163.456V162.048ZM393.147 162.048H396.859V163.456C396.859 164.139 396.998 164.832 397.275 165.536C397.553 166.24 397.958 166.923 398.491 167.584C399.025 168.245 399.697 168.853 400.507 169.408C401.339 169.963 402.289 170.443 403.355 170.848C404.443 171.253 405.67 171.541 407.035 171.712L405.371 175.136C403.814 174.88 402.395 174.507 401.115 174.016C399.835 173.504 398.705 172.885 397.723 172.16C396.742 171.413 395.91 170.581 395.227 169.664C394.545 168.747 394.022 167.765 393.659 166.72C393.318 165.675 393.147 164.587 393.147 163.456V162.048ZM392.347 179.968H396.603V190.848H392.347V179.968ZM381.179 177.28H407.995V180.736H381.179V177.28ZM417.649 183.936H444.497V187.392H417.649V183.936ZM428.913 177.6H433.137V184.768H428.913V177.6ZM420.465 163.072H424.721V167.648H437.329V163.072H441.553V178.496H420.465V163.072ZM424.721 170.976V175.104H437.329V170.976H424.721ZM453.039 164.512H456.527V166.368C456.527 168.245 456.218 170.027 455.599 171.712C455.002 173.397 454.084 174.88 452.847 176.16C451.61 177.419 450.042 178.357 448.143 178.976L446.031 175.616C447.652 175.083 448.975 174.336 449.999 173.376C451.044 172.395 451.812 171.296 452.303 170.08C452.794 168.843 453.039 167.605 453.039 166.368V164.512ZM453.903 164.512H457.327V166.368C457.327 167.52 457.562 168.64 458.031 169.728C458.5 170.795 459.226 171.755 460.207 172.608C461.21 173.461 462.511 174.133 464.111 174.624L462.063 177.952C460.186 177.397 458.639 176.544 457.423 175.392C456.228 174.219 455.343 172.864 454.767 171.328C454.191 169.771 453.903 168.117 453.903 166.368V164.512ZM447.119 163.168H463.151V166.56H447.119V163.168ZM465.487 161.216H469.743V178.784H465.487V161.216ZM468.591 168H473.679V171.488H468.591V168ZM460.079 179.296C462.148 179.296 463.93 179.531 465.423 180C466.916 180.448 468.068 181.099 468.879 181.952C469.69 182.805 470.095 183.84 470.095 185.056C470.095 186.272 469.69 187.307 468.879 188.16C468.068 189.035 466.916 189.696 465.423 190.144C463.93 190.613 462.148 190.848 460.079 190.848C458.031 190.848 456.25 190.613 454.735 190.144C453.242 189.696 452.079 189.035 451.247 188.16C450.436 187.307 450.031 186.272 450.031 185.056C450.031 183.84 450.436 182.805 451.247 181.952C452.079 181.099 453.242 180.448 454.735 180C456.25 179.531 458.031 179.296 460.079 179.296ZM460.079 182.624C458.82 182.624 457.764 182.709 456.911 182.88C456.058 183.051 455.407 183.317 454.959 183.68C454.511 184.043 454.287 184.501 454.287 185.056C454.287 185.632 454.511 186.101 454.959 186.464C455.407 186.827 456.058 187.104 456.911 187.296C457.764 187.467 458.82 187.552 460.079 187.552C461.338 187.552 462.394 187.467 463.247 187.296C464.122 187.104 464.772 186.827 465.199 186.464C465.647 186.101 465.871 185.632 465.871 185.056C465.871 184.501 465.647 184.043 465.199 183.68C464.772 183.317 464.122 183.051 463.247 182.88C462.394 182.709 461.338 182.624 460.079 182.624Z" fill="#534F4B"/>
<path d="M93.284 213.114H94.706V229.404H93.284V213.114ZM90.53 219.648H93.662V220.872H90.53V219.648ZM89.594 213.474H90.98V228.558H89.594V213.474ZM81.476 224.13H82.538C83.342 224.13 84.068 224.124 84.716 224.112C85.376 224.088 86 224.04 86.588 223.968C87.188 223.896 87.8 223.794 88.424 223.662L88.568 224.904C87.92 225.036 87.29 225.138 86.678 225.21C86.078 225.282 85.442 225.33 84.77 225.354C84.11 225.378 83.366 225.39 82.538 225.39H81.476V224.13ZM81.476 215.094H87.524V216.318H82.97V224.706H81.476V215.094ZM101.185 221.934H102.679V226.578H101.185V221.934ZM106.189 221.952H107.683V226.596H106.189V221.952ZM97.0986 226.182H111.859V227.424H97.0986V226.182ZM98.3946 214.626H110.473V215.85H98.3946V214.626ZM98.4306 221.124H110.437V222.348H98.4306V221.124ZM100.915 215.616H102.409V221.376H100.915V215.616ZM106.459 215.616H107.935V221.376H106.459V215.616ZM125.141 213.114H126.635V222.33H125.141V213.114ZM114.305 214.068H115.799V220.692H114.305V214.068ZM114.305 219.864H115.619C116.987 219.864 118.295 219.81 119.543 219.702C120.791 219.594 122.063 219.402 123.359 219.126L123.575 220.368C122.231 220.644 120.923 220.842 119.651 220.962C118.379 221.07 117.035 221.124 115.619 221.124H114.305V219.864ZM116.123 223.122H126.635V229.17H116.123V223.122ZM125.159 224.31H117.581V227.964H125.159V224.31ZM129.496 219.918H144.22V221.124H129.496V219.918ZM131.458 217.398H142.456V218.604H131.458V217.398ZM131.458 213.654H142.294V214.86H132.934V218.352H131.458V213.654ZM131.278 222.546H142.312V226.362H132.772V228.414H131.314V225.246H140.854V223.716H131.278V222.546ZM131.314 228.018H142.798V229.206H131.314V228.018ZM150.968 214.302C151.82 214.302 152.57 214.464 153.218 214.788C153.878 215.1 154.394 215.544 154.766 216.12C155.138 216.696 155.324 217.368 155.324 218.136C155.324 218.892 155.138 219.564 154.766 220.152C154.394 220.728 153.878 221.178 153.218 221.502C152.57 221.814 151.82 221.97 150.968 221.97C150.128 221.97 149.378 221.814 148.718 221.502C148.058 221.178 147.536 220.728 147.152 220.152C146.78 219.564 146.594 218.892 146.594 218.136C146.594 217.368 146.78 216.696 147.152 216.12C147.536 215.544 148.058 215.1 148.718 214.788C149.378 214.464 150.128 214.302 150.968 214.302ZM150.968 215.598C150.416 215.598 149.918 215.706 149.474 215.922C149.042 216.126 148.7 216.42 148.448 216.804C148.196 217.188 148.07 217.632 148.07 218.136C148.07 218.64 148.196 219.084 148.448 219.468C148.7 219.852 149.042 220.152 149.474 220.368C149.918 220.572 150.416 220.674 150.968 220.674C151.532 220.674 152.03 220.572 152.462 220.368C152.894 220.152 153.236 219.852 153.488 219.468C153.74 219.084 153.866 218.64 153.866 218.136C153.866 217.632 153.74 217.188 153.488 216.804C153.236 216.42 152.894 216.126 152.462 215.922C152.03 215.706 151.532 215.598 150.968 215.598ZM157.466 213.114H158.96V229.422H157.466V213.114ZM145.982 225.858L145.784 224.598C146.78 224.598 147.872 224.592 149.06 224.58C150.248 224.556 151.472 224.508 152.732 224.436C154.004 224.352 155.228 224.22 156.404 224.04L156.53 225.138C155.306 225.366 154.064 225.534 152.804 225.642C151.556 225.738 150.35 225.798 149.186 225.822C148.022 225.846 146.954 225.858 145.982 225.858ZM169.863 214.482C170.571 214.482 171.183 214.71 171.699 215.166C172.227 215.622 172.635 216.276 172.923 217.128C173.211 217.98 173.355 218.982 173.355 220.134C173.355 221.298 173.211 222.306 172.923 223.158C172.635 224.01 172.227 224.67 171.699 225.138C171.183 225.594 170.571 225.822 169.863 225.822C169.179 225.822 168.573 225.594 168.045 225.138C167.529 224.67 167.127 224.01 166.839 223.158C166.551 222.306 166.407 221.298 166.407 220.134C166.407 218.982 166.551 217.98 166.839 217.128C167.127 216.276 167.529 215.622 168.045 215.166C168.573 214.71 169.179 214.482 169.863 214.482ZM169.863 215.868C169.443 215.868 169.077 216.042 168.765 216.39C168.453 216.738 168.213 217.23 168.045 217.866C167.877 218.502 167.793 219.258 167.793 220.134C167.793 221.01 167.877 221.772 168.045 222.42C168.213 223.056 168.453 223.548 168.765 223.896C169.077 224.244 169.443 224.418 169.863 224.418C170.295 224.418 170.667 224.244 170.979 223.896C171.291 223.548 171.531 223.056 171.699 222.42C171.879 221.772 171.969 221.01 171.969 220.134C171.969 219.258 171.879 218.502 171.699 217.866C171.531 217.23 171.291 216.738 170.979 216.39C170.667 216.042 170.295 215.868 169.863 215.868ZM178.611 213.114H180.051V229.404H178.611V213.114ZM176.019 219.558H179.151V220.8H176.019V219.558ZM174.993 213.456H176.415V228.576H174.993V213.456ZM183.109 224.238H184.387C185.383 224.238 186.295 224.226 187.123 224.202C187.951 224.178 188.749 224.13 189.517 224.058C190.297 223.986 191.095 223.878 191.911 223.734L192.055 224.958C191.227 225.102 190.417 225.216 189.625 225.3C188.833 225.372 188.011 225.42 187.159 225.444C186.319 225.468 185.395 225.48 184.387 225.48H183.109V224.238ZM183.109 214.59H190.687V215.832H184.603V224.67H183.109V214.59ZM184.225 219.162H190.327V220.368H184.225V219.162ZM193.423 213.114H194.917V229.404H193.423V213.114ZM194.575 219.648H197.581V220.908H194.575V219.648ZM200.586 218.01H211.656V219.216H200.586V218.01ZM198.588 221.394H213.348V222.618H198.588V221.394ZM200.586 213.708H202.062V218.622H200.586V213.708ZM200.478 227.784H211.746V229.008H200.478V227.784ZM200.478 224.256H201.972V228.108H200.478V224.256ZM219.768 214.752H227.238V225.264H219.768V214.752ZM225.762 215.94H221.226V224.058H225.762V215.94ZM230.136 213.114H231.63V229.404H230.136V213.114ZM231.288 219.612H234.294V220.872H231.288V219.612ZM242.663 213.474C243.839 213.474 244.853 213.6 245.705 213.852C246.569 214.092 247.229 214.44 247.685 214.896C248.153 215.352 248.387 215.91 248.387 216.57C248.387 217.206 248.153 217.758 247.685 218.226C247.229 218.682 246.569 219.03 245.705 219.27C244.853 219.51 243.839 219.63 242.663 219.63C241.499 219.63 240.485 219.51 239.621 219.27C238.769 219.03 238.109 218.682 237.641 218.226C237.173 217.758 236.939 217.206 236.939 216.57C236.939 215.91 237.173 215.352 237.641 214.896C238.109 214.44 238.769 214.092 239.621 213.852C240.485 213.6 241.499 213.474 242.663 213.474ZM242.663 214.662C241.811 214.662 241.067 214.74 240.431 214.896C239.807 215.04 239.321 215.256 238.973 215.544C238.637 215.82 238.469 216.162 238.469 216.57C238.469 216.954 238.637 217.29 238.973 217.578C239.321 217.854 239.807 218.07 240.431 218.226C241.067 218.37 241.811 218.442 242.663 218.442C243.527 218.442 244.271 218.37 244.895 218.226C245.531 218.07 246.017 217.854 246.353 217.578C246.689 217.29 246.857 216.954 246.857 216.57C246.857 216.162 246.689 215.82 246.353 215.544C246.017 215.256 245.531 215.04 244.895 214.896C244.271 214.74 243.527 214.662 242.663 214.662ZM237.119 223.824H248.225V229.188H237.119V223.824ZM246.767 225.03H238.577V227.964H246.767V225.03ZM235.319 221.016H250.025V222.24H235.319V221.016ZM258.861 213.402C260.661 213.402 262.065 213.648 263.073 214.14C264.081 214.62 264.585 215.31 264.585 216.21C264.585 217.122 264.081 217.824 263.073 218.316C262.065 218.796 260.661 219.036 258.861 219.036C257.073 219.036 255.669 218.796 254.649 218.316C253.641 217.824 253.137 217.122 253.137 216.21C253.137 215.31 253.641 214.62 254.649 214.14C255.669 213.648 257.073 213.402 258.861 213.402ZM258.861 214.518C257.985 214.518 257.235 214.584 256.611 214.716C255.987 214.848 255.507 215.04 255.171 215.292C254.847 215.544 254.685 215.85 254.685 216.21C254.685 216.57 254.847 216.882 255.171 217.146C255.507 217.398 255.987 217.59 256.611 217.722C257.235 217.842 257.985 217.902 258.861 217.902C259.749 217.902 260.505 217.842 261.129 217.722C261.753 217.59 262.227 217.398 262.551 217.146C262.887 216.882 263.055 216.57 263.055 216.21C263.055 215.85 262.887 215.544 262.551 215.292C262.227 215.04 261.753 214.848 261.129 214.716C260.505 214.584 259.749 214.518 258.861 214.518ZM251.517 220.134H266.223V221.34H251.517V220.134ZM253.299 222.726H264.333V226.398H254.793V228.36H253.335V225.3H262.875V223.878H253.299V222.726ZM253.335 228.054H264.819V229.224H253.335V228.054ZM273.922 218.586H285.082V219.81H273.922V218.586ZM272.032 222.24H286.792V223.482H272.032V222.24ZM278.602 222.906H280.096V229.404H278.602V222.906ZM273.922 213.942H275.416V219.18H273.922V213.942ZM290.066 214.176H300.254V215.382H290.066V214.176ZM288.23 221.16H302.936V222.402H288.23V221.16ZM294.8 221.988H296.294V229.422H294.8V221.988ZM299.534 214.176H301.01V215.598C301.01 216.162 300.998 216.756 300.974 217.38C300.962 218.004 300.914 218.694 300.83 219.45C300.746 220.194 300.602 221.022 300.398 221.934L298.904 221.736C299.228 220.428 299.414 219.282 299.462 218.298C299.51 217.314 299.534 216.414 299.534 215.598V214.176ZM304.429 226.092H319.189V227.334H304.429V226.092ZM311.035 222.186H312.511V226.452H311.035V222.186ZM306.157 214.266H307.651V217.164H315.931V214.266H317.407V222.6H306.157V214.266ZM307.651 218.388V221.376H315.931V218.388H307.651ZM331.644 213.114H333.138V229.422H331.644V213.114ZM332.796 219.54H335.802V220.782H332.796V219.54ZM321.33 224.094H322.608C323.604 224.094 324.516 224.082 325.344 224.058C326.184 224.022 326.988 223.962 327.756 223.878C328.536 223.794 329.328 223.68 330.132 223.536L330.312 224.814C329.472 224.958 328.656 225.072 327.864 225.156C327.084 225.24 326.268 225.294 325.416 225.318C324.564 225.342 323.628 225.354 322.608 225.354H321.33V224.094ZM321.33 214.698H328.872V215.922H322.806V224.67H321.33V214.698ZM338.698 220.728H349.876V221.934H338.698V220.728ZM336.826 226.11H351.586V227.352H336.826V226.11ZM343.432 221.25H344.908V226.596H343.432V221.25ZM338.698 214.41H349.714V215.652H340.192V221.268H338.698V214.41ZM361.337 214.392H362.543V215.688C362.543 216.624 362.351 217.488 361.967 218.28C361.583 219.072 361.043 219.762 360.347 220.35C359.663 220.926 358.859 221.358 357.935 221.646L357.197 220.476C358.025 220.224 358.745 219.858 359.357 219.378C359.981 218.898 360.467 218.34 360.815 217.704C361.163 217.068 361.337 216.396 361.337 215.688V214.392ZM361.607 214.392H362.831V215.67C362.831 216.306 362.999 216.918 363.335 217.506C363.671 218.082 364.139 218.592 364.739 219.036C365.339 219.48 366.041 219.822 366.845 220.062L366.143 221.232C365.231 220.968 364.433 220.566 363.749 220.026C363.077 219.474 362.549 218.826 362.165 218.082C361.793 217.338 361.607 216.534 361.607 215.67V214.392ZM357.701 214.014H366.413V215.238H357.701V214.014ZM368.483 213.114H369.977V221.502H368.483V213.114ZM369.311 216.66H372.371V217.884H369.311V216.66ZM359.627 222.276H369.977V226.218H361.139V228.72H359.681V225.102H368.501V223.446H359.627V222.276ZM359.681 228.072H370.553V229.242H359.681V228.072ZM388.997 213.114H390.491V221.394H388.997V213.114ZM389.825 216.624H392.885V217.866H389.825V216.624ZM380.141 222.168H390.491V226.164H381.653V228.612H380.195V225.048H389.015V223.356H380.141V222.168ZM380.195 227.982H391.067V229.188H380.195V227.982ZM382.355 213.708C383.171 213.708 383.891 213.858 384.515 214.158C385.151 214.458 385.649 214.884 386.009 215.436C386.369 215.976 386.549 216.606 386.549 217.326C386.549 218.034 386.369 218.664 386.009 219.216C385.649 219.756 385.151 220.182 384.515 220.494C383.891 220.794 383.171 220.944 382.355 220.944C381.551 220.944 380.831 220.794 380.195 220.494C379.559 220.182 379.055 219.756 378.683 219.216C378.323 218.664 378.143 218.028 378.143 217.308C378.143 216.6 378.323 215.976 378.683 215.436C379.055 214.884 379.559 214.458 380.195 214.158C380.831 213.858 381.551 213.708 382.355 213.708ZM382.355 214.932C381.827 214.932 381.353 215.034 380.933 215.238C380.525 215.442 380.201 215.724 379.961 216.084C379.721 216.432 379.601 216.846 379.601 217.326C379.601 217.794 379.721 218.208 379.961 218.568C380.201 218.928 380.525 219.216 380.933 219.432C381.353 219.636 381.827 219.738 382.355 219.738C382.883 219.738 383.351 219.636 383.759 219.432C384.179 219.216 384.509 218.928 384.749 218.568C384.989 218.208 385.109 217.794 385.109 217.326C385.109 216.846 384.989 216.432 384.749 216.084C384.509 215.724 384.179 215.442 383.759 215.238C383.351 215.034 382.883 214.932 382.355 214.932ZM405.916 213.114H407.41V229.404H405.916V213.114ZM401.146 214.878H402.622C402.622 216.054 402.478 217.188 402.19 218.28C401.914 219.372 401.476 220.41 400.876 221.394C400.276 222.366 399.496 223.272 398.536 224.112C397.576 224.952 396.412 225.702 395.044 226.362L394.252 225.156C395.824 224.4 397.12 223.518 398.14 222.51C399.16 221.502 399.916 220.38 400.408 219.144C400.9 217.896 401.146 216.552 401.146 215.112V214.878ZM395.008 214.878H401.776V216.084H395.008V214.878ZM416.858 219.45H419.918V220.674H416.858V219.45ZM422.654 213.114H424.094V229.404H422.654V213.114ZM419.414 213.456H420.836V228.576H419.414V213.456ZM413.906 214.482C414.614 214.482 415.226 214.71 415.742 215.166C416.27 215.622 416.678 216.276 416.966 217.128C417.254 217.98 417.398 218.982 417.398 220.134C417.398 221.298 417.254 222.306 416.966 223.158C416.678 224.01 416.27 224.67 415.742 225.138C415.226 225.594 414.614 225.822 413.906 225.822C413.222 225.822 412.616 225.594 412.088 225.138C411.572 224.67 411.17 224.01 410.882 223.158C410.594 222.306 410.45 221.298 410.45 220.134C410.45 218.982 410.594 217.98 410.882 217.128C411.17 216.276 411.572 215.622 412.088 215.166C412.616 214.71 413.222 214.482 413.906 214.482ZM413.906 215.868C413.486 215.868 413.12 216.042 412.808 216.39C412.496 216.738 412.256 217.23 412.088 217.866C411.92 218.502 411.836 219.258 411.836 220.134C411.836 221.01 411.92 221.772 412.088 222.42C412.256 223.056 412.496 223.548 412.808 223.896C413.12 224.244 413.486 224.418 413.906 224.418C414.338 224.418 414.71 224.244 415.022 223.896C415.346 223.548 415.592 223.056 415.76 222.42C415.928 221.772 416.012 221.01 416.012 220.134C416.012 219.258 415.928 218.502 415.76 217.866C415.592 217.23 415.346 216.738 415.022 216.39C414.71 216.042 414.338 215.868 413.906 215.868ZM442.251 213.114H443.727V229.404H442.251V213.114ZM442.881 219.468H445.887V220.728H442.881V219.468ZM431.073 214.626H432.351V218.802H434.313V214.626H435.573V225.462H431.073V214.626ZM432.351 220.008V224.22H434.313V220.008H432.351ZM436.437 214.626H437.697V218.802H439.605V214.626H440.865V225.462H436.437V214.626ZM437.697 220.008V224.22H439.605V220.008H437.697ZM446.965 226.11H461.725V227.352H446.965V226.11ZM448.765 214.356H459.889V219.306H450.277V222.546H448.801V218.1H458.413V215.58H448.765V214.356ZM448.801 221.934H460.267V223.14H448.801V221.934ZM475.566 213.114H477.006V229.404H475.566V213.114ZM468.492 219.774H472.596V220.98H468.492V219.774ZM472.182 213.546H473.586V228.576H472.182V213.546ZM468.69 215.184H470.13C470.13 216.6 469.926 217.962 469.518 219.27C469.122 220.566 468.474 221.778 467.574 222.906C466.674 224.022 465.492 225.018 464.028 225.894L463.164 224.814C464.436 224.046 465.48 223.182 466.296 222.222C467.112 221.25 467.712 220.2 468.096 219.072C468.492 217.932 468.69 216.726 468.69 215.454V215.184ZM463.866 215.184H469.248V216.408H463.866V215.184ZM487.458 223.194H488.988V229.404H487.458V223.194ZM493.056 223.194H494.568V229.404H493.056V223.194ZM483.66 222.384H498.42V223.608H483.66V222.384ZM491.004 213.762C492.144 213.762 493.14 213.912 493.992 214.212C494.844 214.5 495.51 214.908 495.99 215.436C496.47 215.964 496.71 216.594 496.71 217.326C496.71 218.034 496.47 218.658 495.99 219.198C495.51 219.726 494.844 220.134 493.992 220.422C493.14 220.71 492.144 220.854 491.004 220.854C489.888 220.854 488.898 220.71 488.034 220.422C487.182 220.134 486.516 219.726 486.036 219.198C485.556 218.658 485.316 218.034 485.316 217.326C485.316 216.594 485.556 215.964 486.036 215.436C486.516 214.908 487.182 214.5 488.034 214.212C488.898 213.912 489.888 213.762 491.004 213.762ZM491.004 214.968C490.188 214.968 489.462 215.064 488.826 215.256C488.202 215.448 487.716 215.724 487.368 216.084C487.02 216.432 486.846 216.846 486.846 217.326C486.846 217.794 487.02 218.208 487.368 218.568C487.716 218.916 488.202 219.186 488.826 219.378C489.462 219.558 490.188 219.648 491.004 219.648C491.844 219.648 492.576 219.558 493.2 219.378C493.824 219.186 494.31 218.916 494.658 218.568C495.006 218.208 495.18 217.794 495.18 217.326C495.18 216.846 495.006 216.432 494.658 216.084C494.31 215.724 493.824 215.448 493.2 215.256C492.576 215.064 491.844 214.968 491.004 214.968ZM80.9 246.142H95.624V247.348H80.9V246.142ZM87.524 243.532H88.982V246.646H87.524V243.532ZM82.754 243.064H93.896V244.27H82.754V243.064ZM82.754 238.87H93.788V240.058H84.23V243.784H82.754V238.87ZM88.244 248.518C89.984 248.518 91.346 248.776 92.33 249.292C93.314 249.796 93.806 250.516 93.806 251.452C93.806 252.388 93.314 253.108 92.33 253.612C91.346 254.128 89.984 254.386 88.244 254.386C86.504 254.386 85.136 254.128 84.14 253.612C83.156 253.108 82.664 252.388 82.664 251.452C82.664 250.516 83.156 249.796 84.14 249.292C85.136 248.776 86.504 248.518 88.244 248.518ZM88.226 249.688C87.386 249.688 86.66 249.76 86.048 249.904C85.448 250.036 84.986 250.234 84.662 250.498C84.338 250.75 84.176 251.068 84.176 251.452C84.176 251.824 84.338 252.142 84.662 252.406C84.986 252.67 85.448 252.868 86.048 253C86.66 253.144 87.386 253.216 88.226 253.216C89.09 253.216 89.822 253.144 90.422 253C91.034 252.868 91.502 252.67 91.826 252.406C92.15 252.142 92.312 251.824 92.312 251.452C92.312 251.068 92.15 250.75 91.826 250.498C91.502 250.234 91.034 250.036 90.422 249.904C89.822 249.76 89.09 249.688 88.226 249.688ZM101.203 239.032H102.445V240.706C102.445 241.762 102.253 242.734 101.869 243.622C101.497 244.51 100.969 245.29 100.285 245.962C99.6126 246.622 98.8086 247.126 97.8726 247.474L97.0806 246.268C97.9206 245.968 98.6466 245.542 99.2586 244.99C99.8706 244.438 100.345 243.796 100.681 243.064C101.029 242.32 101.203 241.534 101.203 240.706V239.032ZM101.473 239.032H102.679V240.652C102.679 241.42 102.847 242.146 103.183 242.83C103.519 243.514 103.981 244.12 104.569 244.648C105.169 245.164 105.865 245.554 106.657 245.818L105.847 246.988C104.971 246.652 104.203 246.178 103.543 245.566C102.883 244.954 102.373 244.228 102.013 243.388C101.653 242.548 101.473 241.636 101.473 240.652V239.032ZM108.997 238.114H110.491V247.744H108.997V238.114ZM105.127 248.23C106.807 248.23 108.127 248.5 109.087 249.04C110.059 249.58 110.545 250.336 110.545 251.308C110.545 252.268 110.059 253.018 109.087 253.558C108.127 254.098 106.807 254.368 105.127 254.368C103.447 254.368 102.121 254.098 101.149 253.558C100.189 253.018 99.7086 252.268 99.7086 251.308C99.7086 250.336 100.189 249.58 101.149 249.04C102.121 248.5 103.447 248.23 105.127 248.23ZM105.127 249.418C104.311 249.418 103.609 249.496 103.021 249.652C102.433 249.796 101.977 250.012 101.653 250.3C101.341 250.576 101.185 250.912 101.185 251.308C101.185 251.692 101.341 252.028 101.653 252.316C101.977 252.592 102.433 252.808 103.021 252.964C103.609 253.108 104.311 253.18 105.127 253.18C105.955 253.18 106.657 253.108 107.233 252.964C107.821 252.808 108.271 252.592 108.583 252.316C108.907 252.028 109.069 251.692 109.069 251.308C109.069 250.912 108.907 250.576 108.583 250.3C108.271 250.012 107.821 249.796 107.233 249.652C106.657 249.496 105.955 249.418 105.127 249.418ZM105.451 241.552H109.303V242.794H105.451V241.552ZM117.595 246.43H132.355V247.654H117.595V246.43ZM124.327 247.204H125.821V250.948H124.327V247.204ZM119.503 238.888H130.429V244.594H119.503V238.888ZM128.971 240.076H120.961V243.406H128.971V240.076ZM119.467 252.82H130.717V254.044H119.467V252.82ZM119.467 249.382H120.961V253.234H119.467V249.382ZM146.196 238.114H147.618V254.404H146.196V238.114ZM140.256 243.964H143.388V245.188H140.256V243.964ZM142.938 238.492H144.342V253.558H142.938V238.492ZM137.142 240.652H138.294V242.722C138.294 243.61 138.21 244.48 138.042 245.332C137.874 246.172 137.628 246.964 137.304 247.708C136.98 248.44 136.584 249.106 136.116 249.706C135.648 250.294 135.12 250.774 134.532 251.146L133.614 250.03C134.37 249.574 135.006 248.962 135.522 248.194C136.05 247.426 136.452 246.568 136.728 245.62C137.004 244.672 137.142 243.706 137.142 242.722V240.652ZM137.448 240.652H138.582V242.722C138.582 243.658 138.714 244.576 138.978 245.476C139.254 246.376 139.644 247.192 140.148 247.924C140.664 248.644 141.294 249.22 142.038 249.652L141.138 250.768C140.346 250.276 139.674 249.622 139.122 248.806C138.582 247.978 138.168 247.042 137.88 245.998C137.592 244.942 137.448 243.85 137.448 242.722V240.652ZM134.064 240.022H141.498V241.246H134.064V240.022ZM149.992 245.674H164.752V246.826H149.992V245.674ZM151.756 248.122H162.916V251.596H153.268V253.504H151.792V250.57H161.44V249.202H151.756V248.122ZM151.792 253.108H163.438V254.188H151.792V253.108ZM151.864 238.6H162.862V241.984H153.376V243.748H151.9V240.976H161.386V239.662H151.864V238.6ZM151.9 243.388H163.15V244.468H151.9V243.388ZM170.489 240.904H178.571V242.128H170.489V240.904ZM174.539 243.208C175.223 243.208 175.823 243.364 176.339 243.676C176.867 243.988 177.281 244.426 177.581 244.99C177.881 245.542 178.031 246.184 178.031 246.916C178.031 247.648 177.881 248.296 177.581 248.86C177.281 249.412 176.867 249.85 176.339 250.174C175.823 250.486 175.223 250.642 174.539 250.642C173.867 250.642 173.267 250.486 172.739 250.174C172.211 249.85 171.797 249.412 171.497 248.86C171.197 248.296 171.047 247.648 171.047 246.916C171.047 246.184 171.197 245.542 171.497 244.99C171.797 244.438 172.211 244.006 172.739 243.694C173.267 243.37 173.867 243.208 174.539 243.208ZM174.539 244.468C174.131 244.468 173.759 244.576 173.423 244.792C173.099 244.996 172.841 245.284 172.649 245.656C172.469 246.016 172.379 246.436 172.379 246.916C172.379 247.396 172.469 247.822 172.649 248.194C172.841 248.566 173.099 248.854 173.423 249.058C173.759 249.262 174.131 249.364 174.539 249.364C174.959 249.364 175.331 249.262 175.655 249.058C175.979 248.854 176.231 248.566 176.411 248.194C176.603 247.822 176.699 247.396 176.699 246.916C176.699 246.436 176.603 246.016 176.411 245.656C176.231 245.284 175.979 244.996 175.655 244.792C175.331 244.576 174.959 244.468 174.539 244.468ZM182.873 238.114H184.295V254.404H182.873V238.114ZM180.263 244.972H183.341V246.196H180.263V244.972ZM179.381 238.492H180.785V253.612H179.381V238.492ZM173.801 238.6H175.277V241.642H173.801V238.6ZM198.621 238.114H200.115V246.43H198.621V238.114ZM193.473 238.924H195.093C195.093 240.28 194.787 241.48 194.175 242.524C193.575 243.568 192.711 244.45 191.583 245.17C190.455 245.878 189.099 246.418 187.515 246.79L186.993 245.566C188.397 245.242 189.579 244.798 190.539 244.234C191.499 243.658 192.225 242.986 192.717 242.218C193.221 241.438 193.473 240.58 193.473 239.644V238.924ZM187.821 238.924H194.139V240.148H187.821V238.924ZM194.499 240.472H198.855V241.642H194.499V240.472ZM194.355 243.586H198.765V244.756H194.355V243.586ZM189.639 247.168H200.115V251.164H191.151V253.756H189.675V250.03H198.621V248.374H189.639V247.168ZM189.675 253.036H200.655V254.242H189.675V253.036ZM202.886 240.904H210.968V242.128H202.886V240.904ZM206.936 243.208C207.62 243.208 208.22 243.364 208.736 243.676C209.264 243.988 209.678 244.426 209.978 244.99C210.278 245.542 210.428 246.184 210.428 246.916C210.428 247.648 210.278 248.296 209.978 248.86C209.678 249.412 209.264 249.85 208.736 250.174C208.22 250.486 207.62 250.642 206.936 250.642C206.264 250.642 205.664 250.486 205.136 250.174C204.608 249.85 204.194 249.412 203.894 248.86C203.594 248.296 203.444 247.648 203.444 246.916C203.444 246.184 203.594 245.542 203.894 244.99C204.194 244.438 204.608 244.006 205.136 243.694C205.664 243.37 206.264 243.208 206.936 243.208ZM206.936 244.468C206.528 244.468 206.156 244.576 205.82 244.792C205.496 244.996 205.238 245.284 205.046 245.656C204.866 246.016 204.776 246.436 204.776 246.916C204.776 247.396 204.866 247.822 205.046 248.194C205.238 248.566 205.496 248.854 205.82 249.058C206.156 249.262 206.528 249.364 206.936 249.364C207.356 249.364 207.728 249.262 208.052 249.058C208.376 248.854 208.628 248.566 208.808 248.194C209 247.822 209.096 247.396 209.096 246.916C209.096 246.436 209 246.016 208.808 245.656C208.628 245.284 208.376 244.996 208.052 244.792C207.728 244.576 207.356 244.468 206.936 244.468ZM215.27 238.114H216.692V254.404H215.27V238.114ZM212.66 244.972H215.738V246.196H212.66V244.972ZM211.778 238.492H213.182V253.612H211.778V238.492ZM206.198 238.6H207.674V241.642H206.198V238.6ZM220.992 245.926H232.17V247.15H220.992V245.926ZM219.12 250.948H233.88V252.19H219.12V250.948ZM220.992 239.626H232.008V240.85H222.468V246.466H220.992V239.626ZM247.181 238.114H248.657V254.422H247.181V238.114ZM236.255 249.238H237.605C238.529 249.238 239.417 249.226 240.269 249.202C241.133 249.166 242.003 249.106 242.879 249.022C243.767 248.938 244.691 248.818 245.651 248.662L245.795 249.886C244.331 250.126 242.951 250.288 241.655 250.372C240.359 250.444 239.009 250.48 237.605 250.48H236.255V249.238ZM236.219 239.626H243.743V245.44H237.767V249.706H236.255V244.234H242.231V240.85H236.219V239.626ZM257.169 239.32H258.663C258.663 240.616 258.423 241.804 257.943 242.884C257.475 243.952 256.779 244.9 255.855 245.728C254.931 246.556 253.791 247.264 252.435 247.852L251.679 246.736C252.879 246.244 253.881 245.656 254.685 244.972C255.501 244.288 256.119 243.514 256.539 242.65C256.959 241.774 257.169 240.82 257.169 239.788V239.32ZM252.363 239.32H257.745V240.544H252.363V239.32ZM263.811 238.132H265.233V247.528H263.811V238.132ZM256.989 242.74H260.913V243.964H256.989V242.74ZM260.571 238.474H261.975V247.276H260.571V238.474ZM255.747 248.086H256.881V249.148C256.881 249.856 256.737 250.552 256.449 251.236C256.173 251.92 255.759 252.532 255.207 253.072C254.655 253.612 253.989 254.038 253.209 254.35L252.471 253.234C253.155 252.982 253.737 252.64 254.217 252.208C254.709 251.764 255.087 251.272 255.351 250.732C255.615 250.192 255.747 249.664 255.747 249.148V248.086ZM256.071 248.086H257.169V249.148C257.169 249.688 257.277 250.234 257.493 250.786C257.709 251.326 258.033 251.824 258.465 252.28C258.897 252.724 259.437 253.084 260.085 253.36L259.455 254.476C258.675 254.164 258.033 253.726 257.529 253.162C257.037 252.61 256.671 251.986 256.431 251.29C256.191 250.582 256.071 249.868 256.071 249.148V248.086ZM261.723 248.086H262.821V249.148C262.821 249.784 262.701 250.45 262.461 251.146C262.221 251.842 261.855 252.484 261.363 253.072C260.871 253.672 260.235 254.14 259.455 254.476L258.807 253.36C259.455 253.06 259.995 252.67 260.427 252.19C260.859 251.698 261.183 251.188 261.399 250.66C261.615 250.12 261.723 249.616 261.723 249.148V248.086ZM262.029 248.086H263.181V249.148C263.181 249.712 263.307 250.264 263.559 250.804C263.823 251.332 264.201 251.812 264.693 252.244C265.185 252.676 265.767 253.006 266.439 253.234L265.719 254.35C264.927 254.05 264.255 253.636 263.703 253.108C263.163 252.592 262.749 251.992 262.461 251.308C262.173 250.612 262.029 249.892 262.029 249.148V248.086ZM269.57 247.888H271.046V249.76H279.02V247.888H280.496V254.188H269.57V247.888ZM271.046 250.93V252.982H279.02V250.93H271.046ZM267.716 245.53H282.422V246.754H267.716V245.53ZM274.304 238.294H275.6V239.032C275.6 239.596 275.48 240.13 275.24 240.634C275 241.126 274.67 241.582 274.25 242.002C273.842 242.41 273.362 242.776 272.81 243.1C272.27 243.424 271.682 243.694 271.046 243.91C270.422 244.126 269.774 244.288 269.102 244.396L268.544 243.208C269.132 243.124 269.702 242.992 270.254 242.812C270.818 242.632 271.346 242.416 271.838 242.164C272.33 241.9 272.762 241.606 273.134 241.282C273.506 240.946 273.794 240.592 273.998 240.22C274.202 239.836 274.304 239.44 274.304 239.032V238.294ZM274.556 238.294H275.834V239.032C275.834 239.428 275.936 239.818 276.14 240.202C276.356 240.574 276.65 240.928 277.022 241.264C277.394 241.588 277.82 241.882 278.3 242.146C278.792 242.41 279.314 242.638 279.866 242.83C280.43 243.01 281 243.136 281.576 243.208L281.036 244.396C280.364 244.288 279.71 244.126 279.074 243.91C278.45 243.694 277.862 243.424 277.31 243.1C276.77 242.764 276.29 242.386 275.87 241.966C275.462 241.546 275.138 241.09 274.898 240.598C274.67 240.106 274.556 239.584 274.556 239.032V238.294ZM295.759 238.114H297.235V254.404H295.759V238.114ZM284.941 239.716H286.417V249.796H284.941V239.716ZM284.941 248.914H286.273C287.521 248.914 288.787 248.86 290.071 248.752C291.367 248.632 292.699 248.434 294.067 248.158L294.265 249.418C292.849 249.718 291.487 249.928 290.179 250.048C288.871 250.156 287.569 250.21 286.273 250.21H284.941V248.914ZM311.129 238.114H312.623V254.422H311.129V238.114ZM312.281 244.54H315.287V245.782H312.281V244.54ZM300.815 249.094H302.093C303.089 249.094 304.001 249.082 304.829 249.058C305.669 249.022 306.473 248.962 307.241 248.878C308.021 248.794 308.813 248.68 309.617 248.536L309.797 249.814C308.957 249.958 308.141 250.072 307.349 250.156C306.569 250.24 305.753 250.294 304.901 250.318C304.049 250.342 303.113 250.354 302.093 250.354H300.815V249.094ZM300.815 239.698H308.357V240.922H302.291V249.67H300.815V239.698ZM316.708 252.028C316.708 251.584 316.816 251.272 317.032 251.092C317.248 250.912 317.506 250.822 317.806 250.822C318.118 250.822 318.382 250.912 318.598 251.092C318.826 251.272 318.94 251.584 318.94 252.028C318.94 252.46 318.826 252.772 318.598 252.964C318.382 253.156 318.118 253.252 317.806 253.252C317.506 253.252 317.248 253.156 317.032 252.964C316.816 252.772 316.708 252.46 316.708 252.028Z" fill="#534F4B"/>
<rect x="579" y="199.613" width="240" height="59.387" fill="#9B938C"/>
<path d="M579 259L579 100.14" stroke="#9B938C"/>
<rect x="579" y="125.38" width="103" height="59.387" fill="#B73D24"/>
<path d="M576.78 69.08H577.732V70.368C577.732 71.18 577.587 71.936 577.298 72.636C577.018 73.336 576.617 73.9473 576.094 74.47C575.571 74.9833 574.96 75.3753 574.26 75.646L573.63 74.722C574.274 74.4887 574.829 74.1527 575.296 73.714C575.772 73.2753 576.136 72.7713 576.388 72.202C576.649 71.6233 576.78 71.012 576.78 70.368V69.08ZM576.99 69.08H577.928V70.466C577.928 70.886 578.003 71.3013 578.152 71.712C578.301 72.1133 578.511 72.4867 578.782 72.832C579.062 73.1773 579.389 73.4853 579.762 73.756C580.135 74.0173 580.551 74.2273 581.008 74.386L580.392 75.296C579.72 75.044 579.127 74.68 578.614 74.204C578.101 73.7187 577.699 73.1587 577.41 72.524C577.13 71.88 576.99 71.194 576.99 70.466V69.08ZM582.366 68.422H583.528V76.108H582.366V68.422ZM583.206 71.698H585.39V72.678H583.206V71.698ZM579.496 76.444C580.355 76.444 581.092 76.5373 581.708 76.724C582.333 76.9013 582.814 77.1627 583.15 77.508C583.486 77.8533 583.654 78.2687 583.654 78.754C583.654 79.2393 583.486 79.6547 583.15 80C582.814 80.3453 582.333 80.6067 581.708 80.784C581.092 80.9707 580.355 81.064 579.496 81.064C578.637 81.064 577.895 80.9707 577.27 80.784C576.645 80.6067 576.164 80.3453 575.828 80C575.492 79.6547 575.324 79.2393 575.324 78.754C575.324 78.2687 575.492 77.8533 575.828 77.508C576.164 77.1627 576.645 76.9013 577.27 76.724C577.895 76.5373 578.637 76.444 579.496 76.444ZM579.496 77.368C578.871 77.368 578.329 77.424 577.872 77.536C577.424 77.648 577.079 77.8067 576.836 78.012C576.593 78.2173 576.472 78.4647 576.472 78.754C576.472 79.0527 576.593 79.3047 576.836 79.51C577.079 79.7153 577.424 79.874 577.872 79.986C578.329 80.0887 578.871 80.14 579.496 80.14C580.121 80.14 580.658 80.0887 581.106 79.986C581.554 79.874 581.899 79.7153 582.142 79.51C582.385 79.3047 582.506 79.0527 582.506 78.754C582.506 78.4647 582.385 78.2173 582.142 78.012C581.899 77.8067 581.554 77.648 581.106 77.536C580.658 77.424 580.121 77.368 579.496 77.368ZM594.965 68.422H596.127V75.59H594.965V68.422ZM595.805 71.516H597.989V72.482H595.805V71.516ZM586.887 73.924H587.867C588.735 73.924 589.496 73.9147 590.149 73.896C590.802 73.868 591.404 73.826 591.955 73.77C592.506 73.7047 593.061 73.616 593.621 73.504L593.761 74.442C593.173 74.5633 592.594 74.6567 592.025 74.722C591.465 74.7873 590.854 74.8293 590.191 74.848C589.528 74.8667 588.754 74.876 587.867 74.876H586.887V73.924ZM586.887 69.276H592.445V70.214H588.035V74.47H586.887V69.276ZM588.175 76.262H596.127V80.91H588.175V76.262ZM594.979 77.2H589.309V79.972H594.979V77.2ZM602.23 69.514H603.196V71.782C603.196 72.51 603.102 73.2193 602.916 73.91C602.738 74.5913 602.482 75.2307 602.146 75.828C601.819 76.416 601.432 76.9387 600.984 77.396C600.545 77.844 600.064 78.1987 599.542 78.46L598.828 77.494C599.304 77.2793 599.747 76.9713 600.158 76.57C600.568 76.1687 600.928 75.716 601.236 75.212C601.544 74.6987 601.786 74.148 601.964 73.56C602.141 72.972 602.23 72.3793 602.23 71.782V69.514ZM602.426 69.514H603.392V71.782C603.392 72.3607 603.476 72.93 603.644 73.49C603.821 74.05 604.064 74.582 604.372 75.086C604.689 75.5807 605.048 76.0193 605.45 76.402C605.86 76.7753 606.299 77.0693 606.766 77.284L606.066 78.208C605.552 77.9653 605.076 77.6247 604.638 77.186C604.199 76.7473 603.812 76.2433 603.476 75.674C603.149 75.1047 602.892 74.4887 602.706 73.826C602.519 73.1633 602.426 72.482 602.426 71.782V69.514ZM608.096 68.422H609.258V81.106H608.096V68.422ZM614.619 69.724H615.571V70.746C615.571 71.5207 615.421 72.244 615.123 72.916C614.833 73.5787 614.427 74.1573 613.905 74.652C613.382 75.1373 612.766 75.506 612.057 75.758L611.441 74.862C612.075 74.638 612.631 74.316 613.107 73.896C613.583 73.476 613.951 73 614.213 72.468C614.483 71.9267 614.619 71.3527 614.619 70.746V69.724ZM614.829 69.724H615.781V70.746C615.781 71.2967 615.907 71.8287 616.159 72.342C616.411 72.8553 616.765 73.308 617.223 73.7C617.689 74.092 618.231 74.3953 618.847 74.61L618.259 75.52C617.568 75.268 616.961 74.9087 616.439 74.442C615.925 73.966 615.529 73.4107 615.249 72.776C614.969 72.1413 614.829 71.4647 614.829 70.746V69.724ZM611.791 69.304H618.567V70.256H611.791V69.304ZM620.163 68.422H621.325V76.052H620.163V68.422ZM621.003 71.754H623.187V72.734H621.003V71.754ZM613.093 76.724H621.325V81.092H620.163V77.676H613.093V76.724Z" fill="#534F4B"/>
<path d="M682 184.767L682 100.14" stroke="#9B938C"/>
<path d="M683.028 72.72H686.542V73.672H683.028V72.72ZM679.962 69.514H680.914V71.782C680.914 72.482 680.825 73.1727 680.648 73.854C680.48 74.5353 680.237 75.17 679.92 75.758C679.603 76.346 679.229 76.8687 678.8 77.326C678.38 77.7833 677.918 78.1473 677.414 78.418L676.686 77.48C677.153 77.256 677.582 76.9433 677.974 76.542C678.375 76.1407 678.725 75.6833 679.024 75.17C679.323 74.6473 679.551 74.1013 679.71 73.532C679.878 72.9533 679.962 72.37 679.962 71.782V69.514ZM680.2 69.514H681.138V71.782C681.138 72.3513 681.217 72.916 681.376 73.476C681.544 74.036 681.777 74.5633 682.076 75.058C682.375 75.5433 682.72 75.9773 683.112 76.36C683.513 76.7427 683.943 77.0413 684.4 77.256L683.7 78.194C683.196 77.9327 682.729 77.5827 682.3 77.144C681.871 76.7053 681.497 76.2013 681.18 75.632C680.872 75.0627 680.629 74.4513 680.452 73.798C680.284 73.1447 680.2 72.4727 680.2 71.782V69.514ZM685.968 68.422H687.116V81.106H685.968V68.422ZM689.285 75.968H700.765V76.906H689.285V75.968ZM692.267 76.486H693.429V81.092H692.267V76.486ZM696.621 76.486H697.783V81.092H696.621V76.486ZM690.657 68.912H699.379V72.174H691.861V74.358H690.699V71.292H698.203V69.864H690.657V68.912ZM690.699 73.728H699.659V74.68H690.699V73.728ZM708.646 71.488H711.46V72.454H708.646V71.488ZM711.152 68.422H712.3V75.31H711.152V68.422ZM704.208 75.912H705.356V77.466H711.152V75.912H712.3V80.924H704.208V75.912ZM705.356 78.39V79.972H711.152V78.39H705.356ZM705.118 69.416H706.07V70.452C706.07 71.2173 705.92 71.936 705.622 72.608C705.332 73.28 704.922 73.868 704.39 74.372C703.858 74.876 703.242 75.2587 702.542 75.52L701.94 74.596C702.406 74.428 702.831 74.204 703.214 73.924C703.606 73.644 703.946 73.322 704.236 72.958C704.525 72.5847 704.744 72.188 704.894 71.768C705.043 71.3387 705.118 70.9 705.118 70.452V69.416ZM705.342 69.416H706.294V70.452C706.294 70.9933 706.42 71.5207 706.672 72.034C706.924 72.538 707.283 72.9907 707.75 73.392C708.216 73.784 708.753 74.092 709.36 74.316L708.772 75.226C708.081 74.974 707.479 74.61 706.966 74.134C706.452 73.658 706.051 73.1027 705.762 72.468C705.482 71.824 705.342 71.152 705.342 70.452V69.416ZM702.304 69.178H709.066V70.13H702.304V69.178ZM719.621 68.87H720.643V69.584C720.643 70.0693 720.549 70.5267 720.363 70.956C720.176 71.376 719.919 71.7633 719.593 72.118C719.275 72.4727 718.902 72.79 718.473 73.07C718.043 73.35 717.577 73.5833 717.073 73.77C716.578 73.9567 716.069 74.092 715.547 74.176L715.071 73.238C715.537 73.1727 715.99 73.0607 716.429 72.902C716.877 72.7433 717.292 72.552 717.675 72.328C718.057 72.0947 718.393 71.8333 718.683 71.544C718.981 71.2547 719.21 70.9467 719.369 70.62C719.537 70.284 719.621 69.9387 719.621 69.584V68.87ZM719.817 68.87H720.825V69.584C720.825 69.9387 720.909 70.2793 721.077 70.606C721.245 70.9327 721.473 71.2407 721.763 71.53C722.061 71.8193 722.402 72.0807 722.785 72.314C723.167 72.5473 723.578 72.7433 724.017 72.902C724.465 73.0607 724.917 73.1727 725.375 73.238L724.913 74.176C724.39 74.092 723.881 73.9567 723.387 73.77C722.892 73.574 722.425 73.336 721.987 73.056C721.557 72.776 721.179 72.4587 720.853 72.104C720.535 71.7493 720.283 71.362 720.097 70.942C719.91 70.5127 719.817 70.06 719.817 69.584V68.87ZM719.621 76.276H720.769V81.092H719.621V76.276ZM714.497 75.548H725.935V76.514H714.497V75.548Z" fill="#534F4B"/>
<path d="M819 259L819 174.374" stroke="#9B938C"/>
<path d="M820.028 147.007H823.542V147.959H820.028V147.007ZM816.962 143.801H817.914V146.069C817.914 146.769 817.825 147.459 817.648 148.141C817.48 148.822 817.237 149.457 816.92 150.045C816.603 150.633 816.229 151.155 815.8 151.613C815.38 152.07 814.918 152.434 814.414 152.705L813.686 151.767C814.153 151.543 814.582 151.23 814.974 150.829C815.375 150.427 815.725 149.97 816.024 149.457C816.323 148.934 816.551 148.388 816.71 147.819C816.878 147.24 816.962 146.657 816.962 146.069V143.801ZM817.2 143.801H818.138V146.069C818.138 146.638 818.217 147.203 818.376 147.763C818.544 148.323 818.777 148.85 819.076 149.345C819.375 149.83 819.72 150.264 820.112 150.647C820.513 151.029 820.943 151.328 821.4 151.543L820.7 152.481C820.196 152.219 819.729 151.869 819.3 151.431C818.871 150.992 818.497 150.488 818.18 149.919C817.872 149.349 817.629 148.738 817.452 148.085C817.284 147.431 817.2 146.759 817.2 146.069V143.801ZM822.968 142.709H824.116V155.393H822.968V142.709ZM826.285 150.255H837.765V151.193H826.285V150.255ZM829.267 150.773H830.429V155.379H829.267V150.773ZM833.621 150.773H834.783V155.379H833.621V150.773ZM827.657 143.199H836.379V146.461H828.861V148.645H827.699V145.579H835.203V144.151H827.657V143.199ZM827.699 148.015H836.659V148.967H827.699V148.015ZM845.646 145.775H848.46V146.741H845.646V145.775ZM848.152 142.709H849.3V149.597H848.152V142.709ZM841.208 150.199H842.356V151.753H848.152V150.199H849.3V155.211H841.208V150.199ZM842.356 152.677V154.259H848.152V152.677H842.356ZM842.118 143.703H843.07V144.739C843.07 145.504 842.92 146.223 842.622 146.895C842.332 147.567 841.922 148.155 841.39 148.659C840.858 149.163 840.242 149.545 839.542 149.807L838.94 148.883C839.406 148.715 839.831 148.491 840.214 148.211C840.606 147.931 840.946 147.609 841.236 147.245C841.525 146.871 841.744 146.475 841.894 146.055C842.043 145.625 842.118 145.187 842.118 144.739V143.703ZM842.342 143.703H843.294V144.739C843.294 145.28 843.42 145.807 843.672 146.321C843.924 146.825 844.283 147.277 844.75 147.679C845.216 148.071 845.753 148.379 846.36 148.603L845.772 149.513C845.081 149.261 844.479 148.897 843.966 148.421C843.452 147.945 843.051 147.389 842.762 146.755C842.482 146.111 842.342 145.439 842.342 144.739V143.703ZM839.304 143.465H846.066V144.417H839.304V143.465ZM856.621 143.157H857.643V143.871C857.643 144.356 857.549 144.813 857.363 145.243C857.176 145.663 856.919 146.05 856.593 146.405C856.275 146.759 855.902 147.077 855.473 147.357C855.043 147.637 854.577 147.87 854.073 148.057C853.578 148.243 853.069 148.379 852.547 148.463L852.071 147.525C852.537 147.459 852.99 147.347 853.429 147.189C853.877 147.03 854.292 146.839 854.675 146.615C855.057 146.381 855.393 146.12 855.683 145.831C855.981 145.541 856.21 145.233 856.369 144.907C856.537 144.571 856.621 144.225 856.621 143.871V143.157ZM856.817 143.157H857.825V143.871C857.825 144.225 857.909 144.566 858.077 144.893C858.245 145.219 858.473 145.527 858.763 145.817C859.061 146.106 859.402 146.367 859.785 146.601C860.167 146.834 860.578 147.03 861.017 147.189C861.465 147.347 861.917 147.459 862.375 147.525L861.913 148.463C861.39 148.379 860.881 148.243 860.387 148.057C859.892 147.861 859.425 147.623 858.987 147.343C858.557 147.063 858.179 146.745 857.853 146.391C857.535 146.036 857.283 145.649 857.097 145.229C856.91 144.799 856.817 144.347 856.817 143.871V143.157ZM856.621 150.563H857.769V155.379H856.621V150.563ZM851.497 149.835H862.935V150.801H851.497V149.835Z" fill="#534F4B"/>
<path d="M707.874 153.411C707.874 153.987 707.766 154.485 707.55 154.905C707.334 155.325 707.022 155.667 706.614 155.931C706.218 156.195 705.75 156.381 705.21 156.489V156.561C706.242 156.681 707.01 157.005 707.514 157.533C708.018 158.061 708.27 158.751 708.27 159.603C708.27 160.347 708.096 161.013 707.748 161.601C707.4 162.177 706.86 162.627 706.128 162.951C705.408 163.275 704.478 163.437 703.338 163.437C702.666 163.437 702.042 163.383 701.466 163.275C700.89 163.179 700.338 162.999 699.81 162.735V161.259C700.35 161.523 700.932 161.733 701.556 161.889C702.18 162.033 702.78 162.105 703.356 162.105C704.508 162.105 705.336 161.883 705.84 161.439C706.356 160.983 706.614 160.359 706.614 159.567C706.614 159.027 706.47 158.595 706.182 158.271C705.906 157.935 705.498 157.689 704.958 157.533C704.418 157.377 703.77 157.299 703.014 157.299H701.772V155.949H703.032C703.74 155.949 704.328 155.847 704.796 155.643C705.276 155.439 705.636 155.157 705.876 154.797C706.128 154.425 706.254 153.999 706.254 153.519C706.254 152.895 706.044 152.415 705.624 152.079C705.204 151.731 704.634 151.557 703.914 151.557C703.458 151.557 703.044 151.605 702.672 151.701C702.3 151.785 701.952 151.911 701.628 152.079C701.316 152.235 700.998 152.421 700.674 152.637L699.882 151.557C700.194 151.317 700.548 151.095 700.944 150.891C701.352 150.687 701.802 150.525 702.294 150.405C702.786 150.285 703.32 150.225 703.896 150.225C705.24 150.225 706.236 150.525 706.884 151.125C707.544 151.725 707.874 152.487 707.874 153.411ZM714.413 148.965C715.229 148.965 715.949 149.121 716.573 149.433C717.209 149.733 717.707 150.153 718.067 150.693C718.427 151.233 718.607 151.863 718.607 152.583C718.607 153.291 718.427 153.921 718.067 154.473C717.707 155.013 717.209 155.433 716.573 155.733C715.949 156.033 715.229 156.183 714.413 156.183C713.609 156.183 712.889 156.033 712.253 155.733C711.617 155.433 711.113 155.013 710.741 154.473C710.381 153.921 710.201 153.291 710.201 152.583C710.201 151.863 710.381 151.233 710.741 150.693C711.113 150.153 711.617 149.733 712.253 149.433C712.889 149.121 713.609 148.965 714.413 148.965ZM714.413 150.207C713.885 150.207 713.411 150.309 712.991 150.513C712.583 150.705 712.259 150.981 712.019 151.341C711.779 151.701 711.659 152.115 711.659 152.583C711.659 153.051 711.779 153.465 712.019 153.825C712.259 154.173 712.583 154.449 712.991 154.653C713.411 154.857 713.885 154.959 714.413 154.959C714.941 154.959 715.409 154.857 715.817 154.653C716.237 154.449 716.567 154.173 716.807 153.825C717.047 153.465 717.167 153.051 717.167 152.583C717.167 152.115 717.047 151.701 716.807 151.341C716.567 150.981 716.237 150.705 715.817 150.513C715.409 150.309 714.941 150.207 714.413 150.207ZM721.685 148.371H723.179V156.705H721.685V148.371ZM712.649 157.515H723.179V161.457H714.143V163.905H712.703V160.341H721.703V158.703H712.649V157.515ZM712.703 163.239H723.737V164.445H712.703V163.239Z" fill="#534F4B"/>
<path d="M838.448 237.49L843.722 226.078H836.792V224.638H845.414V225.862L840.194 237.49H838.448ZM851.413 223.198C852.229 223.198 852.949 223.354 853.573 223.666C854.209 223.966 854.707 224.386 855.067 224.926C855.427 225.466 855.607 226.096 855.607 226.816C855.607 227.524 855.427 228.154 855.067 228.706C854.707 229.246 854.209 229.666 853.573 229.966C852.949 230.266 852.229 230.416 851.413 230.416C850.609 230.416 849.889 230.266 849.253 229.966C848.617 229.666 848.113 229.246 847.741 228.706C847.381 228.154 847.201 227.524 847.201 226.816C847.201 226.096 847.381 225.466 847.741 224.926C848.113 224.386 848.617 223.966 849.253 223.666C849.889 223.354 850.609 223.198 851.413 223.198ZM851.413 224.44C850.885 224.44 850.411 224.542 849.991 224.746C849.583 224.938 849.259 225.214 849.019 225.574C848.779 225.934 848.659 226.348 848.659 226.816C848.659 227.284 848.779 227.698 849.019 228.058C849.259 228.406 849.583 228.682 849.991 228.886C850.411 229.09 850.885 229.192 851.413 229.192C851.941 229.192 852.409 229.09 852.817 228.886C853.237 228.682 853.567 228.406 853.807 228.058C854.047 227.698 854.167 227.284 854.167 226.816C854.167 226.348 854.047 225.934 853.807 225.574C853.567 225.214 853.237 224.938 852.817 224.746C852.409 224.542 851.941 224.44 851.413 224.44ZM858.685 222.604H860.179V230.938H858.685V222.604ZM849.649 231.748H860.179V235.69H851.143V238.138H849.703V234.574H858.703V232.936H849.649V231.748ZM849.703 237.472H860.737V238.678H849.703V237.472ZM879.181 222.604H880.675V238.912H879.181V222.604ZM872.089 223.864C872.893 223.864 873.601 224.098 874.213 224.566C874.837 225.022 875.323 225.676 875.671 226.528C876.031 227.38 876.211 228.382 876.211 229.534C876.211 230.686 876.031 231.688 875.671 232.54C875.323 233.392 874.837 234.052 874.213 234.52C873.601 234.988 872.893 235.222 872.089 235.222C871.285 235.222 870.571 234.988 869.947 234.52C869.323 234.052 868.831 233.392 868.471 232.54C868.123 231.688 867.949 230.686 867.949 229.534C867.949 228.382 868.123 227.38 868.471 226.528C868.831 225.676 869.323 225.022 869.947 224.566C870.571 224.098 871.285 223.864 872.089 223.864ZM872.089 225.196C871.549 225.196 871.075 225.376 870.667 225.736C870.271 226.084 869.959 226.588 869.731 227.248C869.503 227.896 869.389 228.658 869.389 229.534C869.389 230.41 869.503 231.178 869.731 231.838C869.959 232.486 870.271 232.99 870.667 233.35C871.075 233.71 871.549 233.89 872.089 233.89C872.617 233.89 873.079 233.71 873.475 233.35C873.883 232.99 874.201 232.486 874.429 231.838C874.657 231.178 874.771 230.41 874.771 229.534C874.771 228.658 874.657 227.896 874.429 227.248C874.201 226.588 873.883 226.084 873.475 225.736C873.079 225.376 872.617 225.196 872.089 225.196ZM887.514 223.45H888.738V225.106C888.738 226.15 888.552 227.122 888.18 228.022C887.82 228.922 887.304 229.708 886.632 230.38C885.96 231.04 885.174 231.544 884.274 231.892L883.464 230.704C884.292 230.404 885.006 229.972 885.606 229.408C886.218 228.844 886.686 228.196 887.01 227.464C887.346 226.72 887.514 225.934 887.514 225.106V223.45ZM887.784 223.45H888.99V225.232C888.99 225.772 889.086 226.306 889.278 226.834C889.47 227.35 889.74 227.83 890.088 228.274C890.448 228.718 890.868 229.114 891.348 229.462C891.828 229.798 892.362 230.068 892.95 230.272L892.158 231.442C891.294 231.118 890.532 230.65 889.872 230.038C889.212 229.414 888.696 228.694 888.324 227.878C887.964 227.05 887.784 226.168 887.784 225.232V223.45ZM894.696 222.604H896.19V232.486H894.696V222.604ZM895.776 226.816H898.584V228.076H895.776V226.816ZM891.006 232.918C892.11 232.918 893.058 233.038 893.85 233.278C894.654 233.506 895.272 233.842 895.704 234.286C896.136 234.73 896.352 235.264 896.352 235.888C896.352 236.512 896.136 237.046 895.704 237.49C895.272 237.934 894.654 238.27 893.85 238.498C893.058 238.738 892.11 238.858 891.006 238.858C889.902 238.858 888.948 238.738 888.144 238.498C887.34 238.27 886.722 237.934 886.29 237.49C885.858 237.046 885.642 236.512 885.642 235.888C885.642 235.264 885.858 234.73 886.29 234.286C886.722 233.842 887.34 233.506 888.144 233.278C888.948 233.038 889.902 232.918 891.006 232.918ZM891.006 234.106C890.202 234.106 889.506 234.178 888.918 234.322C888.342 234.466 887.898 234.67 887.586 234.934C887.274 235.198 887.118 235.516 887.118 235.888C887.118 236.272 887.274 236.596 887.586 236.86C887.898 237.124 888.342 237.328 888.918 237.472C889.506 237.604 890.202 237.67 891.006 237.67C891.81 237.67 892.5 237.604 893.076 237.472C893.652 237.328 894.096 237.124 894.408 236.86C894.72 236.596 894.876 236.272 894.876 235.888C894.876 235.516 894.72 235.198 894.408 234.934C894.096 234.67 893.652 234.466 893.076 234.322C892.5 234.178 891.81 234.106 891.006 234.106Z" fill="#534F4B"/>
<path d="M601.93 149.145H604V150.351C604 151.071 603.898 151.773 603.694 152.457C603.502 153.129 603.214 153.765 602.83 154.365C602.446 154.965 601.972 155.511 601.408 156.003C600.856 156.483 600.22 156.897 599.5 157.245C598.78 157.593 597.988 157.851 597.124 158.019L596.098 156.021C596.842 155.889 597.52 155.691 598.132 155.427C598.756 155.151 599.302 154.821 599.77 154.437C600.238 154.053 600.634 153.639 600.958 153.195C601.282 152.739 601.522 152.271 601.678 151.791C601.846 151.299 601.93 150.819 601.93 150.351V149.145ZM602.398 149.145H604.486V150.351C604.486 150.831 604.564 151.317 604.72 151.809C604.888 152.301 605.128 152.775 605.44 153.231C605.764 153.675 606.16 154.083 606.628 154.455C607.096 154.827 607.636 155.151 608.248 155.427C608.86 155.691 609.55 155.889 610.318 156.021L609.292 158.019C608.428 157.851 607.636 157.593 606.916 157.245C606.196 156.897 605.554 156.483 604.99 156.003C604.438 155.523 603.964 154.983 603.568 154.383C603.184 153.783 602.89 153.141 602.686 152.457C602.494 151.773 602.398 151.071 602.398 150.351V149.145ZM595.738 160.863H610.84V162.825H595.738V160.863ZM612.495 156.255H613.647C614.451 156.255 615.171 156.249 615.807 156.237C616.455 156.225 617.067 156.195 617.643 156.147C618.219 156.087 618.813 156.003 619.425 155.895L619.641 157.803C619.005 157.899 618.387 157.977 617.787 158.037C617.187 158.097 616.551 158.139 615.879 158.163C615.219 158.175 614.475 158.181 613.647 158.181H612.495V156.255ZM612.495 149.487H619.047V151.395H614.799V157.029H612.495V149.487ZM614.115 152.889H618.885V154.707H614.115V152.889ZM623.853 148.173H626.139V160.593H623.853V148.173ZM621.819 152.781H624.465V154.707H621.819V152.781ZM620.307 148.479H622.539V160.251H620.307V148.479ZM614.907 162.645H626.553V164.571H614.907V162.645ZM614.907 159.225H617.319V163.887H614.907V159.225ZM638.773 148.155H641.185V164.877H638.773V148.155ZM640.663 154.329H643.597V156.309H640.663V154.329ZM628.765 158.901H630.169C631.117 158.901 632.005 158.889 632.833 158.865C633.661 158.829 634.465 158.775 635.245 158.703C636.025 158.619 636.823 158.505 637.639 158.361L637.873 160.341C637.033 160.485 636.205 160.599 635.389 160.683C634.585 160.767 633.757 160.821 632.905 160.845C632.053 160.869 631.141 160.881 630.169 160.881H628.765V158.901ZM628.765 149.703H636.541V151.629H631.159V159.837H628.765V149.703ZM646.098 155.877H657.816V157.767H646.098V155.877ZM644.334 160.899H659.436V162.843H644.334V160.899ZM646.098 149.541H657.69V151.485H648.474V156.669H646.098V149.541Z" fill="white"/>
<path d="M596.386 233.386H597.772C598.708 233.386 599.584 233.38 600.4 233.368C601.216 233.344 602.014 233.302 602.794 233.242C603.574 233.17 604.384 233.074 605.224 232.954L605.44 234.844C604.6 234.976 603.772 235.078 602.956 235.15C602.152 235.222 601.324 235.27 600.472 235.294C599.632 235.306 598.732 235.312 597.772 235.312H596.386V233.386ZM596.386 223.792H604.216V225.736H598.78V234.016H596.386V223.792ZM598.204 228.436H603.982V230.308H598.204V228.436ZM606.376 222.424H608.788V239.092H606.376V222.424ZM608.266 228.742H611.2V230.704H608.266V228.742ZM615.681 223.702H617.607V226.114C617.607 227.146 617.517 228.154 617.337 229.138C617.157 230.11 616.875 231.016 616.491 231.856C616.119 232.696 615.645 233.446 615.069 234.106C614.493 234.754 613.815 235.27 613.035 235.654L611.595 233.728C612.303 233.404 612.909 232.972 613.413 232.432C613.929 231.892 614.355 231.28 614.691 230.596C615.027 229.912 615.273 229.192 615.429 228.436C615.597 227.668 615.681 226.894 615.681 226.114V223.702ZM616.149 223.702H618.075V226.114C618.075 226.87 618.147 227.614 618.291 228.346C618.447 229.078 618.681 229.774 618.993 230.434C619.317 231.082 619.719 231.664 620.199 232.18C620.679 232.696 621.255 233.122 621.927 233.458L620.469 235.366C619.725 234.982 619.077 234.478 618.525 233.854C617.985 233.218 617.541 232.492 617.193 231.676C616.845 230.848 616.581 229.966 616.401 229.03C616.233 228.082 616.149 227.11 616.149 226.114V223.702ZM622.575 222.424H624.987V239.092H622.575V222.424ZM624.465 228.832H627.399V230.812H624.465V228.832Z" fill="white"/>
</svg>
