<svg width="330" height="259" viewBox="0 0 330 259" fill="none" xmlns="http://www.w3.org/2000/svg">
<path d="M45.8104 57.7627C49.8429 53.7255 43.639 47.9803 43.639 47.9803L54.9218 47.9803C54.9218 47.9803 52.0143 57.7627 45.8104 57.7627Z" fill="white"/>
<rect x="7.03613" width="273.688" height="53.8441" rx="4.96882" fill="white"/>
<path d="M40.1734 20.5701C40.0654 21.0381 39.9514 21.5361 39.8314 22.0641C39.7234 22.5921 39.6214 23.1081 39.5254 23.6121C39.4294 24.1041 39.3514 24.5601 39.2914 24.9801H36.8254L36.6994 24.7821C36.8074 24.3501 36.9454 23.8941 37.1134 23.4141C37.2814 22.9341 37.4614 22.4481 37.6534 21.9561C37.8574 21.4641 38.0554 21.0021 38.2474 20.5701H40.1734ZM36.0694 20.5701C35.9614 21.0381 35.8474 21.5361 35.7274 22.0641C35.6194 22.5921 35.5174 23.1081 35.4214 23.6121C35.3254 24.1041 35.2474 24.5601 35.1874 24.9801H32.7214L32.5954 24.7821C32.7034 24.3501 32.8414 23.8941 33.0094 23.4141C33.1774 22.9341 33.3574 22.4481 33.5494 21.9561C33.7534 21.4641 33.9514 21.0021 34.1434 20.5701H36.0694ZM48.945 21.1281H53.193V23.0361H48.945V21.1281ZM48.945 24.7101H53.247V26.6181H48.945V24.7101ZM52.311 18.3561H54.723V30.6501H52.311V18.3561ZM43.689 32.8101H55.083V34.7361H43.689V32.8101ZM43.689 29.4441H46.083V33.9081H43.689V29.4441ZM41.457 19.4541H43.833V21.9741H47.001V19.4541H49.359V28.0581H41.457V19.4541ZM43.833 23.8101V26.1501H47.001V23.8101H43.833ZM57.6196 20.4261H71.3536V22.3341H57.6196V20.4261ZM56.9716 31.4241H72.0736V33.3501H56.9716V31.4241ZM63.2896 29.2101H65.6836V32.1801H63.2896V29.2101ZM64.4776 23.0361C65.6296 23.0361 66.6256 23.1681 67.4656 23.4321C68.3176 23.6841 68.9716 24.0561 69.4276 24.5481C69.8836 25.0281 70.1116 25.6101 70.1116 26.2941C70.1116 26.9781 69.8836 27.5661 69.4276 28.0581C68.9716 28.5381 68.3176 28.9101 67.4656 29.1741C66.6256 29.4261 65.6236 29.5521 64.4596 29.5521C63.3076 29.5521 62.3056 29.4261 61.4536 29.1741C60.6136 28.9101 59.9656 28.5381 59.5096 28.0581C59.0536 27.5661 58.8256 26.9781 58.8256 26.2941C58.8256 25.6101 59.0536 25.0281 59.5096 24.5481C59.9656 24.0561 60.6136 23.6841 61.4536 23.4321C62.3056 23.1681 63.3136 23.0361 64.4776 23.0361ZM64.4596 24.8901C63.7756 24.8901 63.1936 24.9441 62.7136 25.0521C62.2336 25.1481 61.8676 25.2981 61.6156 25.5021C61.3756 25.7061 61.2556 25.9701 61.2556 26.2941C61.2556 26.6061 61.3756 26.8701 61.6156 27.0861C61.8676 27.2901 62.2336 27.4401 62.7136 27.5361C63.1936 27.6321 63.7756 27.6801 64.4596 27.6801C65.1676 27.6801 65.7556 27.6321 66.2236 27.5361C66.6916 27.4401 67.0456 27.2901 67.2856 27.0861C67.5376 26.8701 67.6636 26.6061 67.6636 26.2941C67.6636 25.9701 67.5376 25.7061 67.2856 25.5021C67.0456 25.2981 66.6916 25.1481 66.2236 25.0521C65.7556 24.9441 65.1676 24.8901 64.4596 24.8901ZM63.2896 18.5181H65.6836V21.6141H63.2896V18.5181ZM76.9142 19.6341H78.8402V22.0461C78.8402 23.0781 78.7502 24.0861 78.5702 25.0701C78.3902 26.0421 78.1082 26.9481 77.7242 27.7881C77.3522 28.6281 76.8782 29.3781 76.3022 30.0381C75.7262 30.6861 75.0482 31.2021 74.2682 31.5861L72.8282 29.6601C73.5362 29.3361 74.1422 28.9041 74.6462 28.3641C75.1622 27.8241 75.5882 27.2121 75.9242 26.5281C76.2602 25.8441 76.5062 25.1241 76.6622 24.3681C76.8302 23.6001 76.9142 22.8261 76.9142 22.0461V19.6341ZM77.3822 19.6341H79.3082V22.0461C79.3082 22.8021 79.3802 23.5461 79.5242 24.2781C79.6802 25.0101 79.9142 25.7061 80.2262 26.3661C80.5502 27.0141 80.9522 27.5961 81.4322 28.1121C81.9122 28.6281 82.4882 29.0541 83.1602 29.3901L81.7022 31.2981C80.9582 30.9141 80.3102 30.4101 79.7582 29.7861C79.2182 29.1501 78.7742 28.4241 78.4262 27.6081C78.0782 26.7801 77.8142 25.8981 77.6342 24.9621C77.4662 24.0141 77.3822 23.0421 77.3822 22.0461V19.6341ZM83.8082 18.3561H86.2202V35.0241H83.8082V18.3561ZM85.6982 24.7641H88.6322V26.7441H85.6982V24.7641ZM100.007 18.3201H102.419V34.9881H100.007V18.3201ZM101.807 24.7101H104.741V26.6721H101.807V24.7101ZM95.6328 20.0481H97.9908C97.9908 21.7161 97.7508 23.2941 97.2708 24.7821C96.8028 26.2701 96.0228 27.6381 94.9308 28.8861C93.8508 30.1221 92.3868 31.2021 90.5388 32.1261L89.1888 30.3081C90.6528 29.5521 91.8588 28.7001 92.8068 27.7521C93.7668 26.8041 94.4748 25.7301 94.9308 24.5301C95.3988 23.3181 95.6328 21.9681 95.6328 20.4801V20.0481ZM90.1068 20.0481H96.8748V21.9741H90.1068V20.0481ZM117.407 20.6601H122.321V22.5861H117.407V20.6601ZM117.407 24.7101H122.321V26.6361H117.407V24.7101ZM121.421 18.3561H123.833V30.5421H121.421V18.3561ZM112.817 32.8101H124.211V34.7361H112.817V32.8101ZM112.817 29.3541H115.211V33.8181H112.817V29.3541ZM114.473 19.3461C115.301 19.3461 116.045 19.5321 116.705 19.9041C117.377 20.2641 117.905 20.7681 118.289 21.4161C118.685 22.0641 118.883 22.8081 118.883 23.6481C118.883 24.4761 118.685 25.2201 118.289 25.8801C117.905 26.5281 117.377 27.0381 116.705 27.4101C116.045 27.7821 115.301 27.9681 114.473 27.9681C113.657 27.9681 112.913 27.7821 112.241 27.4101C111.581 27.0381 111.053 26.5281 110.657 25.8801C110.273 25.2201 110.081 24.4761 110.081 23.6481C110.081 22.8081 110.273 22.0641 110.657 21.4161C111.053 20.7681 111.581 20.2641 112.241 19.9041C112.913 19.5321 113.657 19.3461 114.473 19.3461ZM114.473 21.4341C114.077 21.4341 113.717 21.5241 113.393 21.7041C113.069 21.8841 112.811 22.1421 112.619 22.4781C112.439 22.8021 112.349 23.1921 112.349 23.6481C112.349 24.1161 112.439 24.5181 112.619 24.8541C112.811 25.1781 113.069 25.4301 113.393 25.6101C113.717 25.7781 114.077 25.8621 114.473 25.8621C114.881 25.8621 115.241 25.7781 115.553 25.6101C115.877 25.4301 116.129 25.1781 116.309 24.8541C116.501 24.5181 116.597 24.1161 116.597 23.6481C116.597 23.1921 116.501 22.8021 116.309 22.4781C116.129 22.1421 115.877 21.8841 115.553 21.7041C115.241 21.5241 114.881 21.4341 114.473 21.4341ZM126.676 25.9701H128.08C129.172 25.9701 130.144 25.9581 130.996 25.9341C131.86 25.9101 132.658 25.8621 133.39 25.7901C134.134 25.7061 134.89 25.5981 135.658 25.4661L135.874 27.3741C135.106 27.5181 134.332 27.6321 133.552 27.7161C132.784 27.7881 131.956 27.8361 131.068 27.8601C130.192 27.8841 129.196 27.8961 128.08 27.8961H126.676V25.9701ZM126.64 19.2561H134.254V24.3861H129.034V26.8701H126.676V22.6221H131.896V21.1641H126.64V19.2561ZM136.792 18.3561H139.186V28.4901H136.792V18.3561ZM138.52 22.3161H141.4V24.2961H138.52V22.3161ZM128.062 29.2461H139.186V35.0241H136.792V31.1361H128.062V29.2461ZM153.71 18.3201H156.104V35.0421H153.71V18.3201ZM147.122 19.4901C147.974 19.4901 148.73 19.7361 149.39 20.2281C150.05 20.7081 150.566 21.3981 150.938 22.2981C151.322 23.1861 151.514 24.2361 151.514 25.4481C151.514 26.6721 151.322 27.7341 150.938 28.6341C150.566 29.5221 150.05 30.2121 149.39 30.7041C148.73 31.1841 147.974 31.4241 147.122 31.4241C146.282 31.4241 145.532 31.1841 144.872 30.7041C144.212 30.2121 143.69 29.5221 143.306 28.6341C142.934 27.7341 142.748 26.6721 142.748 25.4481C142.748 24.2361 142.934 23.1861 143.306 22.2981C143.69 21.3981 144.212 20.7081 144.872 20.2281C145.532 19.7361 146.282 19.4901 147.122 19.4901ZM147.122 21.6681C146.714 21.6681 146.354 21.8121 146.042 22.1001C145.73 22.3881 145.484 22.8141 145.304 23.3781C145.136 23.9301 145.052 24.6201 145.052 25.4481C145.052 26.2641 145.136 26.9601 145.304 27.5361C145.484 28.1001 145.73 28.5261 146.042 28.8141C146.354 29.1021 146.714 29.2461 147.122 29.2461C147.542 29.2461 147.908 29.1021 148.22 28.8141C148.532 28.5261 148.772 28.1001 148.94 27.5361C149.12 26.9601 149.21 26.2641 149.21 25.4481C149.21 24.6201 149.12 23.9301 148.94 23.3781C148.772 22.8141 148.532 22.3881 148.22 22.1001C147.908 21.8121 147.542 21.6681 147.122 21.6681ZM166.449 19.5981H168.411V20.6061C168.411 21.5901 168.237 22.5201 167.889 23.3961C167.553 24.2721 167.031 25.0341 166.323 25.6821C165.615 26.3301 164.715 26.8101 163.623 27.1221L162.471 25.2321C163.407 24.9681 164.169 24.5961 164.757 24.1161C165.345 23.6361 165.771 23.0901 166.035 22.4781C166.311 21.8541 166.449 21.2301 166.449 20.6061V19.5981ZM166.953 19.5981H168.879V20.6061C168.879 21.1701 169.011 21.7341 169.275 22.2981C169.551 22.8621 169.971 23.3721 170.535 23.8281C171.111 24.2841 171.843 24.6381 172.731 24.8901L171.633 26.7441C170.577 26.4561 169.701 26.0061 169.005 25.3941C168.309 24.7821 167.793 24.0621 167.457 23.2341C167.121 22.4061 166.953 21.5301 166.953 20.6061V19.5981ZM163.137 19.0941H172.137V21.0021H163.137V19.0941ZM173.505 18.3561H175.899V26.8701H173.505V18.3561ZM174.945 21.6141H178.095V23.5581H174.945V21.6141ZM164.901 27.5181H175.899V31.9821H167.295V34.0881H164.919V30.2901H173.541V29.3181H164.901V27.5181ZM164.919 33.0441H176.385V34.8621H164.919V33.0441ZM194.019 18.3561H196.413V30.4701H194.019V18.3561ZM195.747 23.1081H198.627V25.0881H195.747V23.1081ZM185.667 32.8101H197.007V34.7361H185.667V32.8101ZM185.667 29.2101H188.079V33.6741H185.667V29.2101ZM187.935 19.4181C188.787 19.4181 189.555 19.5981 190.239 19.9581C190.923 20.3181 191.463 20.8161 191.859 21.4521C192.267 22.0881 192.471 22.8201 192.471 23.6481C192.471 24.4641 192.267 25.1961 191.859 25.8441C191.463 26.4801 190.923 26.9841 190.239 27.3561C189.555 27.7161 188.787 27.8961 187.935 27.8961C187.083 27.8961 186.315 27.7161 185.631 27.3561C184.947 26.9841 184.407 26.4801 184.011 25.8441C183.615 25.1961 183.417 24.4641 183.417 23.6481C183.417 22.8201 183.615 22.0881 184.011 21.4521C184.407 20.8161 184.947 20.3181 185.631 19.9581C186.315 19.5981 187.083 19.4181 187.935 19.4181ZM187.935 21.4881C187.527 21.4881 187.155 21.5781 186.819 21.7581C186.495 21.9261 186.237 22.1721 186.045 22.4961C185.853 22.8081 185.757 23.1921 185.757 23.6481C185.757 24.1041 185.853 24.4941 186.045 24.8181C186.237 25.1301 186.495 25.3761 186.819 25.5561C187.155 25.7241 187.527 25.8081 187.935 25.8081C188.355 25.8081 188.727 25.7241 189.051 25.5561C189.387 25.3761 189.651 25.1301 189.843 24.8181C190.035 24.4941 190.131 24.1041 190.131 23.6481C190.131 23.1921 190.035 22.8081 189.843 22.4961C189.651 22.1721 189.387 21.9261 189.051 21.7581C188.727 21.5781 188.355 21.4881 187.935 21.4881ZM203.774 23.9361H206.186V26.6361H203.774V23.9361ZM211.028 18.3381H213.422V28.0221H211.028V18.3381ZM199.832 27.8421L199.544 25.9881C200.54 25.9881 201.626 25.9821 202.802 25.9701C203.99 25.9461 205.196 25.8981 206.42 25.8261C207.656 25.7541 208.844 25.6401 209.984 25.4841L210.146 27.1221C208.97 27.3381 207.77 27.5001 206.546 27.6081C205.334 27.7041 204.152 27.7641 203 27.7881C201.86 27.8121 200.804 27.8301 199.832 27.8421ZM200.948 22.7481H209.048V24.6381H200.948V22.7481ZM200.948 19.1121H208.94V21.0021H203.342V23.3601H200.948V19.1121ZM202.136 28.6881H204.494V29.9301H211.046V28.6881H213.422V34.8441H202.136V28.6881ZM204.494 31.7301V32.9541H211.046V31.7301H204.494ZM227.244 18.3381H229.62V35.0061H227.244V18.3381ZM216.57 19.9221H218.964V30.2901H216.57V19.9221ZM216.57 28.8681H218.046C219.27 28.8681 220.548 28.8201 221.88 28.7241C223.212 28.6161 224.568 28.4241 225.948 28.1481L226.2 30.1461C224.784 30.4461 223.386 30.6501 222.006 30.7581C220.638 30.8541 219.318 30.9021 218.046 30.9021H216.57V28.8681ZM242.543 18.3201H244.955V35.0421H242.543V18.3201ZM244.433 24.4941H247.367V26.4741H244.433V24.4941ZM232.535 29.0661H233.939C234.887 29.0661 235.775 29.0541 236.603 29.0301C237.431 28.9941 238.235 28.9401 239.015 28.8681C239.795 28.7841 240.593 28.6701 241.409 28.5261L241.643 30.5061C240.803 30.6501 239.975 30.7641 239.159 30.8481C238.355 30.9321 237.527 30.9861 236.675 31.0101C235.823 31.0341 234.911 31.0461 233.939 31.0461H232.535V29.0661ZM232.535 19.8681H240.311V21.7941H234.929V30.0021H232.535V19.8681ZM255.159 20.7681C255.051 21.1881 254.913 21.6441 254.745 22.1361C254.577 22.6161 254.397 23.1021 254.205 23.5941C254.013 24.0741 253.815 24.5361 253.611 24.9801H251.685C251.805 24.5001 251.919 24.0021 252.027 23.4861C252.135 22.9581 252.237 22.4421 252.333 21.9381C252.429 21.4341 252.507 20.9781 252.567 20.5701H255.033L255.159 20.7681ZM251.055 20.7681C250.947 21.1881 250.809 21.6441 250.641 22.1361C250.473 22.6161 250.293 23.1021 250.101 23.5941C249.909 24.0741 249.711 24.5361 249.507 24.9801H247.581C247.665 24.6201 247.749 24.2481 247.833 23.8641C247.917 23.4801 247.995 23.0961 248.067 22.7121C248.151 22.3161 248.223 21.9381 248.283 21.5781C248.355 21.2181 248.415 20.8821 248.463 20.5701H250.929L251.055 20.7681Z" fill="#534F4B"/>
<path d="M216.345 259C212.312 254.963 218.516 249.218 218.516 249.218L207.234 249.218C207.234 249.218 210.141 259 216.345 259Z" fill="white"/>
<rect x="59.8912" y="201.237" width="220.688" height="53.8441" rx="4.96882" fill="white"/>
<path d="M92.9843 221.807C92.8763 222.275 92.7623 222.773 92.6423 223.301C92.5343 223.829 92.4323 224.345 92.3363 224.849C92.2403 225.341 92.1623 225.797 92.1023 226.217H89.6363L89.5103 226.019C89.6183 225.587 89.7563 225.131 89.9243 224.651C90.0923 224.171 90.2723 223.685 90.4643 223.193C90.6683 222.701 90.8663 222.239 91.0583 221.807H92.9843ZM88.8803 221.807C88.7723 222.275 88.6583 222.773 88.5383 223.301C88.4303 223.829 88.3283 224.345 88.2323 224.849C88.1363 225.341 88.0583 225.797 87.9983 226.217H85.5323L85.4063 226.019C85.5143 225.587 85.6523 225.131 85.8203 224.651C85.9883 224.171 86.1683 223.685 86.3603 223.193C86.5643 222.701 86.7623 222.239 86.9543 221.807H88.8803ZM104.222 219.557H106.634V236.225H104.222V219.557ZM106.022 225.947H108.956V227.909H106.022V225.947ZM99.8479 221.285H102.206C102.206 222.953 101.966 224.531 101.486 226.019C101.018 227.507 100.238 228.875 99.1459 230.123C98.0659 231.359 96.6019 232.439 94.7539 233.363L93.4039 231.545C94.8679 230.789 96.0739 229.937 97.0219 228.989C97.9819 228.041 98.6899 226.967 99.1459 225.767C99.6139 224.555 99.8479 223.205 99.8479 221.717V221.285ZM94.3219 221.285H101.09V223.211H94.3219V221.285ZM116.1 220.637H118.62C118.62 222.125 118.314 223.451 117.702 224.615C117.102 225.779 116.226 226.769 115.074 227.585C113.922 228.401 112.518 229.031 110.862 229.475L109.944 227.603C111.312 227.243 112.452 226.775 113.364 226.199C114.276 225.611 114.96 224.945 115.416 224.201C115.872 223.457 116.1 222.659 116.1 221.807V220.637ZM110.88 220.637H117.648V222.545H110.88V220.637ZM112.356 230.177H123.732V236.207H121.32V232.067H112.356V230.177ZM121.32 219.575H123.732V229.475H121.32V219.575ZM117.828 222.257H121.734V224.165H117.828V222.257ZM117.666 225.803H121.572V227.729H117.666V225.803ZM137.411 219.557H139.805V236.279H137.411V219.557ZM130.823 220.727C131.675 220.727 132.431 220.973 133.091 221.465C133.751 221.945 134.267 222.635 134.639 223.535C135.023 224.423 135.215 225.473 135.215 226.685C135.215 227.909 135.023 228.971 134.639 229.871C134.267 230.759 133.751 231.449 133.091 231.941C132.431 232.421 131.675 232.661 130.823 232.661C129.983 232.661 129.233 232.421 128.573 231.941C127.913 231.449 127.391 230.759 127.007 229.871C126.635 228.971 126.449 227.909 126.449 226.685C126.449 225.473 126.635 224.423 127.007 223.535C127.391 222.635 127.913 221.945 128.573 221.465C129.233 220.973 129.983 220.727 130.823 220.727ZM130.823 222.905C130.415 222.905 130.055 223.049 129.743 223.337C129.431 223.625 129.185 224.051 129.005 224.615C128.837 225.167 128.753 225.857 128.753 226.685C128.753 227.501 128.837 228.197 129.005 228.773C129.185 229.337 129.431 229.763 129.743 230.051C130.055 230.339 130.415 230.483 130.823 230.483C131.243 230.483 131.609 230.339 131.921 230.051C132.233 229.763 132.473 229.337 132.641 228.773C132.821 228.197 132.911 227.501 132.911 226.685C132.911 225.857 132.821 225.167 132.641 224.615C132.473 224.051 132.233 223.625 131.921 223.337C131.609 223.049 131.243 222.905 130.823 222.905ZM158.087 219.575H160.481V236.297H158.087V219.575ZM153.605 224.741H158.789V226.667H153.605V224.741ZM147.341 221.357H149.717V231.725H147.341V221.357ZM147.341 230.393H148.763C149.555 230.393 150.353 230.375 151.157 230.339C151.973 230.291 152.801 230.219 153.641 230.123C154.481 230.027 155.327 229.895 156.179 229.727L156.431 231.689C155.543 231.869 154.667 232.013 153.803 232.121C152.939 232.217 152.087 232.289 151.247 232.337C150.407 232.373 149.579 232.391 148.763 232.391H147.341V230.393ZM162.694 228.899H177.778V230.825H162.694V228.899ZM168.976 230.123H171.37V236.261H168.976V230.123ZM164.422 220.403H175.978V227.117H164.422V220.403ZM173.638 222.275H166.78V225.245H173.638V222.275ZM194.638 219.557H197.032V236.279H194.638V219.557ZM184.018 220.889H186.394V224.957H189.85V220.889H192.226V232.391H184.018V220.889ZM186.394 226.811V230.483H189.85V226.811H186.394ZM210.621 219.593H213.033V228.683H210.621V219.593ZM211.827 223.067H214.689V225.029H211.827V223.067ZM201.783 229.349H204.159V230.861H210.657V229.349H213.033V236.045H201.783V229.349ZM204.159 232.715V234.137H210.657V232.715H204.159ZM201.495 220.295H203.187V221.123C203.187 221.831 203.145 222.539 203.061 223.247C202.977 223.943 202.827 224.615 202.611 225.263C202.407 225.899 202.125 226.481 201.765 227.009C201.405 227.525 200.937 227.957 200.361 228.305L199.083 226.613C199.563 226.301 199.959 225.941 200.271 225.533C200.583 225.113 200.829 224.663 201.009 224.183C201.189 223.691 201.315 223.187 201.387 222.671C201.459 222.155 201.495 221.639 201.495 221.123V220.295ZM202.089 220.295H203.745V221.123C203.745 221.615 203.769 222.119 203.817 222.635C203.877 223.151 203.985 223.661 204.141 224.165C204.297 224.657 204.519 225.125 204.807 225.569C205.107 226.013 205.491 226.403 205.959 226.739L204.825 228.485C204.249 228.101 203.781 227.633 203.421 227.081C203.061 226.529 202.785 225.923 202.593 225.263C202.401 224.591 202.269 223.901 202.197 223.193C202.125 222.485 202.089 221.795 202.089 221.123V220.295ZM205.923 220.295H207.579V221.123C207.579 221.807 207.543 222.503 207.471 223.211C207.399 223.919 207.267 224.609 207.075 225.281C206.883 225.941 206.607 226.547 206.247 227.099C205.887 227.651 205.413 228.113 204.825 228.485L203.709 226.739C204.177 226.403 204.555 226.019 204.843 225.587C205.143 225.143 205.371 224.675 205.527 224.183C205.683 223.679 205.785 223.169 205.833 222.653C205.893 222.137 205.923 221.627 205.923 221.123V220.295ZM206.463 220.295H208.173V221.123C208.173 221.831 208.239 222.527 208.371 223.211C208.503 223.895 208.743 224.531 209.091 225.119C209.439 225.707 209.931 226.205 210.567 226.613L209.289 228.305C208.533 227.849 207.951 227.243 207.543 226.487C207.135 225.731 206.853 224.891 206.697 223.967C206.541 223.043 206.463 222.095 206.463 221.123V220.295ZM227.144 219.575H229.52V236.243H227.144V219.575ZM216.47 221.159H218.864V231.527H216.47V221.159ZM216.47 230.105H217.946C219.17 230.105 220.448 230.057 221.78 229.961C223.112 229.853 224.468 229.661 225.848 229.385L226.1 231.383C224.684 231.683 223.286 231.887 221.906 231.995C220.538 232.091 219.218 232.139 217.946 232.139H216.47V230.105ZM242.442 219.557H244.854V236.279H242.442V219.557ZM244.332 225.731H247.266V227.711H244.332V225.731ZM232.434 230.303H233.838C234.786 230.303 235.674 230.291 236.502 230.267C237.33 230.231 238.134 230.177 238.914 230.105C239.694 230.021 240.492 229.907 241.308 229.763L241.542 231.743C240.702 231.887 239.874 232.001 239.058 232.085C238.254 232.169 237.426 232.223 236.574 232.247C235.722 232.271 234.81 232.283 233.838 232.283H232.434V230.303ZM232.434 221.105H240.21V223.031H234.828V231.239H232.434V221.105ZM255.059 222.005C254.951 222.425 254.813 222.881 254.645 223.373C254.477 223.853 254.297 224.339 254.105 224.831C253.913 225.311 253.715 225.773 253.511 226.217H251.585C251.705 225.737 251.819 225.239 251.927 224.723C252.035 224.195 252.137 223.679 252.233 223.175C252.329 222.671 252.407 222.215 252.467 221.807H254.933L255.059 222.005ZM250.955 222.005C250.847 222.425 250.709 222.881 250.541 223.373C250.373 223.853 250.193 224.339 250.001 224.831C249.809 225.311 249.611 225.773 249.407 226.217H247.481C247.565 225.857 247.649 225.485 247.733 225.101C247.817 224.717 247.895 224.333 247.967 223.949C248.051 223.553 248.123 223.175 248.183 222.815C248.255 222.455 248.315 222.119 248.363 221.807H250.829L250.955 222.005Z" fill="#534F4B"/>
<path d="M38.7744 191.921C42.8069 187.884 36.603 182.139 36.603 182.139L47.8857 182.139C47.8857 182.139 44.9783 191.921 38.7744 191.921Z" fill="white"/>
<rect y="134.158" width="309.688" height="53.8441" rx="4.96882" fill="white"/>
<path d="M32.7808 154.728C32.6728 155.196 32.5588 155.694 32.4388 156.222C32.3308 156.75 32.2288 157.266 32.1328 157.77C32.0368 158.262 31.9588 158.718 31.8988 159.138H29.4328L29.3068 158.94C29.4148 158.508 29.5528 158.052 29.7208 157.572C29.8888 157.092 30.0688 156.606 30.2608 156.114C30.4648 155.622 30.6628 155.16 30.8548 154.728H32.7808ZM28.6768 154.728C28.5688 155.196 28.4548 155.694 28.3348 156.222C28.2268 156.75 28.1248 157.266 28.0288 157.77C27.9328 158.262 27.8548 158.718 27.7948 159.138H25.3288L25.2028 158.94C25.3108 158.508 25.4488 158.052 25.6168 157.572C25.7848 157.092 25.9648 156.606 26.1568 156.114C26.3608 155.622 26.5588 155.16 26.7508 154.728H28.6768ZM37.1244 153.792H39.0504V156.204C39.0504 157.236 38.9604 158.244 38.7804 159.228C38.6004 160.2 38.3184 161.106 37.9344 161.946C37.5624 162.786 37.0884 163.536 36.5124 164.196C35.9364 164.844 35.2584 165.36 34.4784 165.744L33.0384 163.818C33.7464 163.494 34.3524 163.062 34.8564 162.522C35.3724 161.982 35.7984 161.37 36.1344 160.686C36.4704 160.002 36.7164 159.282 36.8724 158.526C37.0404 157.758 37.1244 156.984 37.1244 156.204V153.792ZM37.5924 153.792H39.5184V156.204C39.5184 156.96 39.5904 157.704 39.7344 158.436C39.8904 159.168 40.1244 159.864 40.4364 160.524C40.7604 161.172 41.1624 161.754 41.6424 162.27C42.1224 162.786 42.6984 163.212 43.3704 163.548L41.9124 165.456C41.1684 165.072 40.5204 164.568 39.9684 163.944C39.4284 163.308 38.9844 162.582 38.6364 161.766C38.2884 160.938 38.0244 160.056 37.8444 159.12C37.6764 158.172 37.5924 157.2 37.5924 156.204V153.792ZM44.0184 152.514H46.4304V169.182H44.0184V152.514ZM45.9084 158.922H48.8424V160.902H45.9084V158.922ZM61.117 152.496H63.529V164.682H61.117V152.496ZM58.255 157.356H61.459V159.3H58.255V157.356ZM55.879 153.756H58.381C58.381 155.256 58.081 156.612 57.481 157.824C56.881 159.036 56.011 160.086 54.871 160.974C53.743 161.862 52.369 162.564 50.749 163.08L49.759 161.172C51.043 160.764 52.141 160.248 53.053 159.624C53.965 158.988 54.661 158.268 55.141 157.464C55.633 156.648 55.879 155.772 55.879 154.836V153.756ZM50.623 153.756H57.391V155.664H50.623V153.756ZM52.603 166.968H63.943V168.894H52.603V166.968ZM52.603 163.476H54.997V168.084H52.603V163.476ZM79.1114 156.24H82.2614V158.166H79.1114V156.24ZM81.6314 152.514H84.0254V161.622H81.6314V152.514ZM72.9734 162.288H75.3494V163.818H81.6674V162.288H84.0254V169.002H72.9734V162.288ZM75.3494 165.654V167.076H81.6674V165.654H75.3494ZM73.9454 153.792H75.8894V154.854C75.8894 155.898 75.7214 156.894 75.3854 157.842C75.0494 158.79 74.5334 159.618 73.8374 160.326C73.1534 161.034 72.2714 161.568 71.1914 161.928L70.0034 160.038C70.6874 159.798 71.2754 159.498 71.7674 159.138C72.2714 158.778 72.6794 158.364 72.9914 157.896C73.3154 157.428 73.5554 156.936 73.7114 156.42C73.8674 155.904 73.9454 155.382 73.9454 154.854V153.792ZM74.4494 153.792H76.3574V154.836C76.3574 155.484 76.4894 156.132 76.7534 156.78C77.0174 157.416 77.4254 157.992 77.9774 158.508C78.5414 159.024 79.2614 159.432 80.1374 159.732L78.9674 161.604C77.9354 161.256 77.0834 160.74 76.4114 160.056C75.7514 159.372 75.2594 158.58 74.9354 157.68C74.6114 156.78 74.4494 155.832 74.4494 154.836V153.792ZM70.6514 153.27H79.6154V155.16H70.6514V153.27ZM92.574 152.982H94.662V153.774C94.662 154.41 94.56 155.028 94.356 155.628C94.164 156.216 93.876 156.768 93.492 157.284C93.108 157.8 92.64 158.262 92.088 158.67C91.536 159.078 90.894 159.426 90.162 159.714C89.442 159.99 88.65 160.2 87.786 160.344L86.85 158.418C87.618 158.322 88.302 158.16 88.902 157.932C89.514 157.704 90.048 157.434 90.504 157.122C90.972 156.81 91.356 156.468 91.656 156.096C91.956 155.724 92.184 155.34 92.34 154.944C92.496 154.548 92.574 154.158 92.574 153.774V152.982ZM93.024 152.982H95.112V153.774C95.112 154.158 95.19 154.548 95.346 154.944C95.502 155.34 95.73 155.724 96.03 156.096C96.33 156.468 96.708 156.81 97.164 157.122C97.632 157.434 98.166 157.704 98.766 157.932C99.378 158.16 100.068 158.322 100.836 158.418L99.9 160.344C99.024 160.2 98.226 159.99 97.506 159.714C96.786 159.426 96.15 159.078 95.598 158.67C95.046 158.25 94.578 157.782 94.194 157.266C93.81 156.75 93.516 156.198 93.312 155.61C93.12 155.022 93.024 154.41 93.024 153.774V152.982ZM92.574 163.062H94.968V169.182H92.574V163.062ZM86.292 161.55H101.376V163.494H86.292V161.55ZM113.129 152.478H115.541V169.146H113.129V152.478ZM114.929 158.868H117.863V160.83H114.929V158.868ZM108.755 154.206H111.113C111.113 155.874 110.873 157.452 110.393 158.94C109.925 160.428 109.145 161.796 108.053 163.044C106.973 164.28 105.509 165.36 103.661 166.284L102.311 164.466C103.775 163.71 104.981 162.858 105.929 161.91C106.889 160.962 107.597 159.888 108.053 158.688C108.521 157.476 108.755 156.126 108.755 154.638V154.206ZM103.229 154.206H109.997V156.132H103.229V154.206ZM134.381 152.514H136.739V169.182H134.381V152.514ZM135.425 158.652H138.359V160.632H135.425V158.652ZM123.077 154.026H125.057V157.86H126.029V154.026H127.955V165.312H123.077V154.026ZM125.057 159.732V163.404H126.029V159.732H125.057ZM128.603 154.026H130.547V157.86H131.555V154.026H133.517V165.312H128.603V154.026ZM130.547 159.732V163.404H131.555V159.732H130.547ZM139.204 165.348H154.306V167.31H139.204V165.348ZM140.914 153.612H152.596V159.192H143.308V161.982H140.932V157.32H150.22V155.538H140.914V153.612ZM140.932 161.046H152.974V162.954H140.932V161.046ZM167.462 152.496H169.748V169.164H167.462V152.496ZM160.874 158.886H164.42V160.794H160.874V158.886ZM163.952 152.856H166.184V168.426H163.952V152.856ZM160.334 154.458H162.638C162.638 156.042 162.452 157.518 162.08 158.886C161.708 160.254 161.078 161.508 160.19 162.648C159.314 163.788 158.096 164.808 156.536 165.708L155.186 164.034C156.446 163.278 157.448 162.456 158.192 161.568C158.948 160.668 159.494 159.678 159.83 158.598C160.166 157.506 160.334 156.288 160.334 154.944V154.458ZM156.104 154.458H161.072V156.384H156.104V154.458ZM177.032 159.246H185.744V161.172H177.032V159.246ZM180.164 160.794H182.576V164.322H180.164V160.794ZM177.032 153.972H185.654V155.88H179.444V159.84H177.032V153.972ZM187.418 152.478H189.812V169.2H187.418V152.478ZM176.258 165.924L175.988 163.98C177.056 163.98 178.184 163.974 179.372 163.962C180.56 163.95 181.76 163.92 182.972 163.872C184.196 163.812 185.378 163.716 186.518 163.584L186.68 165.33C185.48 165.522 184.274 165.66 183.062 165.744C181.862 165.828 180.686 165.882 179.534 165.906C178.394 165.918 177.302 165.924 176.258 165.924ZM196.129 155.142H198.037V157.014C198.037 157.974 197.935 158.916 197.731 159.84C197.539 160.764 197.245 161.634 196.849 162.45C196.465 163.254 195.979 163.968 195.391 164.592C194.803 165.204 194.119 165.69 193.339 166.05L191.971 164.16C192.667 163.836 193.273 163.416 193.789 162.9C194.317 162.384 194.749 161.808 195.085 161.172C195.433 160.524 195.691 159.846 195.859 159.138C196.039 158.418 196.129 157.71 196.129 157.014V155.142ZM196.651 155.142H198.541V157.014C198.541 157.674 198.625 158.346 198.793 159.03C198.973 159.702 199.231 160.344 199.567 160.956C199.903 161.556 200.329 162.096 200.845 162.576C201.361 163.056 201.973 163.44 202.681 163.728L201.367 165.636C200.575 165.288 199.885 164.82 199.297 164.232C198.709 163.644 198.217 162.966 197.821 162.198C197.425 161.43 197.131 160.608 196.939 159.732C196.747 158.844 196.651 157.938 196.651 157.014V155.142ZM192.637 154.098H201.997V156.078H192.637V154.098ZM203.545 152.514H205.939V169.182H203.545V152.514ZM217.165 153.306C218.029 153.306 218.791 153.474 219.451 153.81C220.123 154.146 220.651 154.608 221.035 155.196C221.431 155.772 221.629 156.438 221.629 157.194C221.629 157.95 221.431 158.622 221.035 159.21C220.651 159.798 220.123 160.26 219.451 160.596C218.791 160.932 218.029 161.1 217.165 161.1C216.325 161.1 215.569 160.932 214.897 160.596C214.237 160.26 213.709 159.798 213.313 159.21C212.929 158.622 212.737 157.95 212.737 157.194C212.737 156.438 212.929 155.772 213.313 155.196C213.709 154.608 214.237 154.146 214.897 153.81C215.569 153.474 216.325 153.306 217.165 153.306ZM217.183 155.25C216.775 155.25 216.409 155.328 216.085 155.484C215.761 155.628 215.503 155.85 215.311 156.15C215.131 156.438 215.041 156.786 215.041 157.194C215.041 157.602 215.131 157.95 215.311 158.238C215.503 158.526 215.761 158.748 216.085 158.904C216.409 159.06 216.775 159.138 217.183 159.138C217.591 159.138 217.951 159.06 218.263 158.904C218.587 158.748 218.839 158.526 219.019 158.238C219.211 157.95 219.307 157.602 219.307 157.194C219.307 156.786 219.211 156.438 219.019 156.15C218.839 155.85 218.587 155.628 218.263 155.484C217.951 155.328 217.591 155.25 217.183 155.25ZM223.339 152.514H225.733V160.704H223.339V152.514ZM224.797 155.952H227.947V157.914H224.797V155.952ZM214.087 166.824H215.023C215.503 166.824 215.965 166.812 216.409 166.788C216.865 166.764 217.303 166.716 217.723 166.644C218.155 166.56 218.575 166.446 218.983 166.302L219.325 168.192C218.869 168.348 218.413 168.462 217.957 168.534C217.501 168.618 217.033 168.672 216.553 168.696C216.085 168.732 215.575 168.75 215.023 168.75H214.087V166.824ZM214.087 162.306H216.409V167.418H214.087V162.306ZM218.749 162.36H227.065V164.07H218.749V162.36ZM222.907 164.502C223.855 164.502 224.629 164.718 225.229 165.15C225.829 165.57 226.129 166.134 226.129 166.842C226.129 167.574 225.829 168.15 225.229 168.57C224.629 168.99 223.855 169.2 222.907 169.2C221.959 169.2 221.185 168.99 220.585 168.57C219.985 168.15 219.685 167.574 219.685 166.842C219.685 166.134 219.985 165.57 220.585 165.15C221.185 164.718 221.959 164.502 222.907 164.502ZM222.907 166.122C222.595 166.122 222.331 166.182 222.115 166.302C221.911 166.422 221.809 166.602 221.809 166.842C221.809 167.094 221.911 167.28 222.115 167.4C222.331 167.52 222.595 167.58 222.907 167.58C223.219 167.58 223.477 167.52 223.681 167.4C223.897 167.28 224.005 167.094 224.005 166.842C224.005 166.602 223.897 166.422 223.681 166.302C223.477 166.182 223.219 166.122 222.907 166.122ZM221.755 161.172H224.077V163.656H221.755V161.172ZM230.574 162.486H232.95V163.89H239.628V162.486H241.986V169.002H230.574V162.486ZM232.95 165.69V167.13H239.628V165.69H232.95ZM228.81 159.786H243.894V161.658H228.81V159.786ZM235.128 152.676H237.18V153.18C237.18 153.768 237.078 154.326 236.874 154.854C236.682 155.382 236.4 155.874 236.028 156.33C235.656 156.786 235.194 157.2 234.642 157.572C234.102 157.932 233.478 158.238 232.77 158.49C232.062 158.73 231.276 158.91 230.412 159.03L229.548 157.176C230.304 157.092 230.982 156.954 231.582 156.762C232.182 156.57 232.704 156.342 233.148 156.078C233.592 155.802 233.958 155.508 234.246 155.196C234.546 154.872 234.768 154.542 234.912 154.206C235.056 153.858 235.128 153.516 235.128 153.18V152.676ZM235.524 152.676H237.576V153.18C237.576 153.516 237.648 153.858 237.792 154.206C237.936 154.542 238.152 154.872 238.44 155.196C238.74 155.508 239.112 155.802 239.556 156.078C240 156.342 240.522 156.57 241.122 156.762C241.734 156.954 242.412 157.092 243.156 157.176L242.292 159.03C241.428 158.91 240.642 158.73 239.934 158.49C239.238 158.238 238.614 157.932 238.062 157.572C237.51 157.2 237.048 156.786 236.676 156.33C236.304 155.874 236.016 155.382 235.812 154.854C235.62 154.314 235.524 153.756 235.524 153.18V152.676ZM256.565 152.496H258.941V169.164H256.565V152.496ZM245.891 154.08H248.285V164.448H245.891V154.08ZM245.891 163.026H247.367C248.591 163.026 249.869 162.978 251.201 162.882C252.533 162.774 253.889 162.582 255.269 162.306L255.521 164.304C254.105 164.604 252.707 164.808 251.327 164.916C249.959 165.012 248.639 165.06 247.367 165.06H245.891V163.026ZM271.863 152.478H274.275V169.2H271.863V152.478ZM273.753 158.652H276.687V160.632H273.753V158.652ZM261.855 163.224H263.259C264.207 163.224 265.095 163.212 265.923 163.188C266.751 163.152 267.555 163.098 268.335 163.026C269.115 162.942 269.913 162.828 270.729 162.684L270.963 164.664C270.123 164.808 269.295 164.922 268.479 165.006C267.675 165.09 266.847 165.144 265.995 165.168C265.143 165.192 264.231 165.204 263.259 165.204H261.855V163.224ZM261.855 154.026H269.631V155.952H264.249V164.16H261.855V154.026ZM284.48 154.926C284.372 155.346 284.234 155.802 284.066 156.294C283.898 156.774 283.718 157.26 283.526 157.752C283.334 158.232 283.136 158.694 282.932 159.138H281.006C281.126 158.658 281.24 158.16 281.348 157.644C281.456 157.116 281.558 156.6 281.654 156.096C281.75 155.592 281.828 155.136 281.888 154.728H284.354L284.48 154.926ZM280.376 154.926C280.268 155.346 280.13 155.802 279.962 156.294C279.794 156.774 279.614 157.26 279.422 157.752C279.23 158.232 279.032 158.694 278.828 159.138H276.902C276.986 158.778 277.07 158.406 277.154 158.022C277.238 157.638 277.316 157.254 277.388 156.87C277.472 156.474 277.544 156.096 277.604 155.736C277.676 155.376 277.736 155.04 277.784 154.728H280.25L280.376 154.926Z" fill="#534F4B"/>
<path d="M251.928 124.842C247.895 120.805 254.099 115.059 254.099 115.059L242.816 115.059C242.816 115.059 245.724 124.842 251.928 124.842Z" fill="white"/>
<rect x="39.6389" y="67.0791" width="289.688" height="53.8441" rx="4.96882" fill="white"/>
<path d="M72.6769 87.6492C72.5689 88.1172 72.4549 88.6152 72.3349 89.1432C72.2269 89.6712 72.1249 90.1872 72.0289 90.6912C71.9329 91.1832 71.8549 91.6392 71.7949 92.0592H69.3289L69.2029 91.8612C69.3109 91.4292 69.4489 90.9732 69.6169 90.4932C69.7849 90.0132 69.9649 89.5272 70.1569 89.0352C70.3609 88.5432 70.5589 88.0812 70.7509 87.6492H72.6769ZM68.5729 87.6492C68.4649 88.1172 68.3509 88.6152 68.2309 89.1432C68.1229 89.6712 68.0209 90.1872 67.9249 90.6912C67.8289 91.1832 67.7509 91.6392 67.6909 92.0592H65.2249L65.0989 91.8612C65.2069 91.4292 65.3449 90.9732 65.5129 90.4932C65.6809 90.0132 65.8609 89.5272 66.0529 89.0352C66.2569 88.5432 66.4549 88.0812 66.6469 87.6492H68.5729ZM81.7005 89.1072H85.8765V91.0332H81.7005V89.1072ZM77.8665 86.1192C78.7065 86.1192 79.4565 86.2932 80.1165 86.6412C80.7885 86.9772 81.3165 87.4452 81.7005 88.0452C82.0845 88.6332 82.2765 89.3172 82.2765 90.0972C82.2765 90.8652 82.0845 91.5492 81.7005 92.1492C81.3165 92.7492 80.7885 93.2232 80.1165 93.5712C79.4565 93.9072 78.7065 94.0752 77.8665 94.0752C77.0385 94.0752 76.2885 93.9072 75.6165 93.5712C74.9565 93.2232 74.4345 92.7492 74.0505 92.1492C73.6665 91.5492 73.4745 90.8652 73.4745 90.0972C73.4745 89.3172 73.6665 88.6332 74.0505 88.0452C74.4345 87.4452 74.9565 86.9772 75.6165 86.6412C76.2885 86.2932 77.0385 86.1192 77.8665 86.1192ZM77.8665 88.0992C77.4585 88.0992 77.0925 88.1772 76.7685 88.3332C76.4565 88.4892 76.2105 88.7172 76.0305 89.0172C75.8505 89.3172 75.7605 89.6772 75.7605 90.0972C75.7605 90.5052 75.8505 90.8592 76.0305 91.1592C76.2105 91.4592 76.4565 91.6872 76.7685 91.8432C77.0925 91.9992 77.4585 92.0772 77.8665 92.0772C78.2745 92.0772 78.6345 91.9992 78.9465 91.8432C79.2705 91.6872 79.5225 91.4592 79.7025 91.1592C79.8825 90.8592 79.9725 90.5052 79.9725 90.0972C79.9725 89.6772 79.8825 89.3172 79.7025 89.0172C79.5225 88.7172 79.2705 88.4892 78.9465 88.3332C78.6345 88.1772 78.2745 88.0992 77.8665 88.0992ZM84.8145 85.4352H87.2265V94.3812H84.8145V85.4352ZM76.1565 95.1192H78.5325V96.6852H84.8505V95.1192H87.2265V101.923H76.1565V95.1192ZM78.5325 98.5212V100.015H84.8505V98.5212H78.5325ZM95.9011 89.8272H99.2671V91.7172H95.9011V89.8272ZM95.8111 93.9852H99.2131V95.8932H95.8111V93.9852ZM101.535 85.4172H103.821V102.085H101.535V85.4172ZM98.1151 85.7772H100.347V101.347H98.1151V85.7772ZM94.3531 87.3792H96.6391C96.6391 88.9632 96.4531 90.4392 96.0811 91.8072C95.7211 93.1632 95.0971 94.4112 94.2091 95.5512C93.3331 96.6912 92.1211 97.7172 90.5731 98.6292L89.2231 96.9552C90.4831 96.1992 91.4851 95.3772 92.2291 94.4892C92.9851 93.5892 93.5251 92.5992 93.8491 91.5192C94.1851 90.4272 94.3531 89.2092 94.3531 87.8652V87.3792ZM90.1771 87.3792H95.1451V89.3052H90.1771V87.3792ZM112.334 91.5552H115.07V93.4812H112.334V91.5552ZM117.698 85.4172H119.984V102.085H117.698V85.4172ZM114.314 85.6872H116.546V101.347H114.314V85.6872ZM109.418 86.5872C110.15 86.5872 110.786 86.8332 111.326 87.3252C111.878 87.8052 112.298 88.5012 112.586 89.4132C112.886 90.3132 113.036 91.3932 113.036 92.6532C113.036 93.9012 112.886 94.9812 112.586 95.8932C112.298 96.8052 111.878 97.5072 111.326 97.9992C110.786 98.4792 110.144 98.7192 109.4 98.7192C108.68 98.7192 108.044 98.4792 107.492 97.9992C106.952 97.5072 106.532 96.8052 106.232 95.8932C105.944 94.9812 105.8 93.9012 105.8 92.6532C105.8 91.3932 105.944 90.3132 106.232 89.4132C106.532 88.5012 106.952 87.8052 107.492 87.3252C108.044 86.8332 108.686 86.5872 109.418 86.5872ZM109.418 88.8552C109.118 88.8552 108.86 88.9932 108.644 89.2692C108.428 89.5452 108.26 89.9652 108.14 90.5292C108.032 91.0812 107.978 91.7892 107.978 92.6532C107.978 93.4932 108.032 94.1952 108.14 94.7592C108.26 95.3232 108.428 95.7492 108.644 96.0372C108.86 96.3132 109.118 96.4512 109.418 96.4512C109.718 96.4512 109.976 96.3132 110.192 96.0372C110.42 95.7492 110.588 95.3232 110.696 94.7592C110.804 94.1952 110.858 93.4932 110.858 92.6532C110.858 91.7892 110.804 91.0812 110.696 90.5292C110.588 89.9652 110.42 89.5452 110.192 89.2692C109.976 88.9932 109.718 88.8552 109.418 88.8552ZM138.212 85.4172H140.498V102.085H138.212V85.4172ZM135.998 91.8432H138.77V93.7692H135.998V91.8432ZM134.486 85.7052H136.7V101.311H134.486V85.7052ZM126.656 96.3612H127.808C128.504 96.3612 129.164 96.3552 129.788 96.3432C130.412 96.3192 131.03 96.2772 131.642 96.2172C132.266 96.1452 132.902 96.0552 133.55 95.9472L133.748 97.8912C133.076 98.0112 132.422 98.1072 131.786 98.1792C131.15 98.2512 130.508 98.2992 129.86 98.3232C129.212 98.3352 128.528 98.3412 127.808 98.3412H126.656V96.3612ZM126.656 87.3612H132.794V89.2872H129.014V97.3152H126.656V87.3612ZM153.097 85.4352H155.491V97.8912H153.097V85.4352ZM154.825 90.5112H157.705V92.4912H154.825V90.5112ZM142.387 87.1812H152.179V89.0532H142.387V87.1812ZM147.283 89.6472C148.087 89.6472 148.795 89.7852 149.407 90.0612C150.031 90.3252 150.517 90.7032 150.865 91.1952C151.213 91.6752 151.387 92.2272 151.387 92.8512C151.387 93.4872 151.213 94.0512 150.865 94.5432C150.517 95.0232 150.031 95.4012 149.407 95.6772C148.795 95.9412 148.087 96.0732 147.283 96.0732C146.491 96.0732 145.783 95.9412 145.159 95.6772C144.535 95.4012 144.049 95.0232 143.701 94.5432C143.353 94.0512 143.179 93.4872 143.179 92.8512C143.179 92.2272 143.353 91.6752 143.701 91.1952C144.049 90.7032 144.535 90.3252 145.159 90.0612C145.783 89.7852 146.491 89.6472 147.283 89.6472ZM147.283 91.4652C146.755 91.4652 146.323 91.5852 145.987 91.8252C145.651 92.0652 145.483 92.4132 145.483 92.8692C145.483 93.3132 145.651 93.6552 145.987 93.8952C146.323 94.1352 146.755 94.2552 147.283 94.2552C147.823 94.2552 148.255 94.1352 148.579 93.8952C148.915 93.6552 149.083 93.3132 149.083 92.8692C149.083 92.4132 148.915 92.0652 148.579 91.8252C148.255 91.5852 147.823 91.4652 147.283 91.4652ZM146.095 85.4172H148.471V88.0812H146.095V85.4172ZM144.745 99.8892H156.085V101.815H144.745V99.8892ZM144.745 96.9552H147.157V100.717H144.745V96.9552ZM174.331 85.3992H176.725V102.121H174.331V85.3992ZM167.743 86.5692C168.595 86.5692 169.351 86.8152 170.011 87.3072C170.671 87.7872 171.187 88.4772 171.559 89.3772C171.943 90.2652 172.135 91.3152 172.135 92.5272C172.135 93.7512 171.943 94.8132 171.559 95.7132C171.187 96.6012 170.671 97.2912 170.011 97.7832C169.351 98.2632 168.595 98.5032 167.743 98.5032C166.903 98.5032 166.153 98.2632 165.493 97.7832C164.833 97.2912 164.311 96.6012 163.927 95.7132C163.555 94.8132 163.369 93.7512 163.369 92.5272C163.369 91.3152 163.555 90.2652 163.927 89.3772C164.311 88.4772 164.833 87.7872 165.493 87.3072C166.153 86.8152 166.903 86.5692 167.743 86.5692ZM167.743 88.7472C167.335 88.7472 166.975 88.8912 166.663 89.1792C166.351 89.4672 166.105 89.8932 165.925 90.4572C165.757 91.0092 165.673 91.6992 165.673 92.5272C165.673 93.3432 165.757 94.0392 165.925 94.6152C166.105 95.1792 166.351 95.6052 166.663 95.8932C166.975 96.1812 167.335 96.3252 167.743 96.3252C168.163 96.3252 168.529 96.1812 168.841 95.8932C169.153 95.6052 169.393 95.1792 169.561 94.6152C169.741 94.0392 169.831 93.3432 169.831 92.5272C169.831 91.6992 169.741 91.0092 169.561 90.4572C169.393 89.8932 169.153 89.4672 168.841 89.1792C168.529 88.8912 168.163 88.7472 167.743 88.7472ZM179.082 87.9372H187.056V89.8272H179.082V87.9372ZM183.096 90.5832C183.804 90.5832 184.428 90.7512 184.968 91.0872C185.52 91.4232 185.952 91.8912 186.264 92.4912C186.588 93.0792 186.75 93.7632 186.75 94.5432C186.75 95.3232 186.588 96.0132 186.264 96.6132C185.952 97.2012 185.52 97.6632 184.968 97.9992C184.428 98.3352 183.804 98.5032 183.096 98.5032C182.388 98.5032 181.758 98.3352 181.206 97.9992C180.654 97.6632 180.222 97.2012 179.91 96.6132C179.598 96.0132 179.442 95.3232 179.442 94.5432C179.442 93.7632 179.598 93.0792 179.91 92.4912C180.222 91.8912 180.654 91.4232 181.206 91.0872C181.77 90.7512 182.4 90.5832 183.096 90.5832ZM183.096 92.5632C182.808 92.5632 182.544 92.6412 182.304 92.7972C182.064 92.9532 181.878 93.1812 181.746 93.4812C181.614 93.7692 181.548 94.1232 181.548 94.5432C181.548 94.9632 181.614 95.3232 181.746 95.6232C181.878 95.9232 182.064 96.1512 182.304 96.3072C182.544 96.4512 182.808 96.5232 183.096 96.5232C183.396 96.5232 183.66 96.4512 183.888 96.3072C184.116 96.1512 184.296 95.9232 184.428 95.6232C184.56 95.3232 184.626 94.9632 184.626 94.5432C184.626 94.1232 184.56 93.7692 184.428 93.4812C184.296 93.1812 184.116 92.9532 183.888 92.7972C183.66 92.6412 183.396 92.5632 183.096 92.5632ZM191.142 85.4172H193.41V102.085H191.142V85.4172ZM189.144 92.2032H191.88V94.1292H189.144V92.2032ZM187.632 85.7232H189.864V101.383H187.632V85.7232ZM181.926 85.8672H184.284V89.1252H181.926V85.8672ZM197.062 92.8512H208.78V94.7772H197.062V92.8512ZM195.298 98.2692H210.4V100.231H195.298V98.2692ZM201.634 93.7332H204.01V98.8992H201.634V93.7332ZM197.062 86.5692H208.654V88.4772H199.438V93.6792H197.062V86.5692ZM222.135 85.3992H224.547V102.067H222.135V85.3992ZM223.935 91.7892H226.869V93.7512H223.935V91.7892ZM217.761 87.1272H220.119C220.119 88.7952 219.879 90.3732 219.399 91.8612C218.931 93.3492 218.151 94.7172 217.059 95.9652C215.979 97.2012 214.515 98.2812 212.667 99.2052L211.317 97.3872C212.781 96.6312 213.987 95.7792 214.935 94.8312C215.895 93.8832 216.603 92.8092 217.059 91.6092C217.527 90.3972 217.761 89.0472 217.761 87.5592V87.1272ZM212.235 87.1272H219.003V89.0532H212.235V87.1272ZM242.721 85.4172H245.115V94.5432H242.721V85.4172ZM244.467 89.0532H247.329V91.0152H244.467V89.0532ZM232.677 86.2092H235.071V93.0492H232.677V86.2092ZM232.677 91.7892H234.063C235.203 91.7892 236.385 91.7472 237.609 91.6632C238.845 91.5672 240.117 91.3872 241.425 91.1232L241.695 93.0492C240.351 93.3132 239.037 93.4992 237.753 93.6072C236.481 93.7032 235.251 93.7512 234.063 93.7512H232.677V91.7892ZM238.473 96.3072H240.507V96.7212C240.507 97.3692 240.375 97.9812 240.111 98.5572C239.847 99.1332 239.451 99.6552 238.923 100.123C238.407 100.591 237.765 100.975 236.997 101.275C236.229 101.587 235.347 101.815 234.351 101.959L233.469 100.141C234.333 100.045 235.077 99.8832 235.701 99.6552C236.337 99.4272 236.859 99.1572 237.267 98.8452C237.675 98.5212 237.975 98.1792 238.167 97.8192C238.371 97.4472 238.473 97.0812 238.473 96.7212V96.3072ZM239.013 96.3072H241.047V96.7212C241.047 97.0692 241.143 97.4232 241.335 97.7832C241.539 98.1432 241.845 98.4852 242.253 98.8092C242.673 99.1332 243.195 99.4152 243.819 99.6552C244.443 99.8952 245.181 100.069 246.033 100.177L245.169 101.977C244.173 101.845 243.291 101.617 242.523 101.293C241.755 100.969 241.107 100.573 240.579 100.105C240.063 99.6252 239.673 99.1032 239.409 98.5392C239.145 97.9632 239.013 97.3572 239.013 96.7212V96.3072ZM234.171 95.2452H245.331V97.1172H234.171V95.2452ZM249.956 95.4072H252.332V96.8112H259.01V95.4072H261.368V101.923H249.956V95.4072ZM252.332 98.6112V100.051H259.01V98.6112H252.332ZM248.192 92.7072H263.276V94.5792H248.192V92.7072ZM254.51 85.5972H256.562V86.1012C256.562 86.6892 256.46 87.2472 256.256 87.7752C256.064 88.3032 255.782 88.7952 255.41 89.2512C255.038 89.7072 254.576 90.1212 254.024 90.4932C253.484 90.8532 252.86 91.1592 252.152 91.4112C251.444 91.6512 250.658 91.8312 249.794 91.9512L248.93 90.0972C249.686 90.0132 250.364 89.8752 250.964 89.6832C251.564 89.4912 252.086 89.2632 252.53 88.9992C252.974 88.7232 253.34 88.4292 253.628 88.1172C253.928 87.7932 254.15 87.4632 254.294 87.1272C254.438 86.7792 254.51 86.4372 254.51 86.1012V85.5972ZM254.906 85.5972H256.958V86.1012C256.958 86.4372 257.03 86.7792 257.174 87.1272C257.318 87.4632 257.534 87.7932 257.822 88.1172C258.122 88.4292 258.494 88.7232 258.938 88.9992C259.382 89.2632 259.904 89.4912 260.504 89.6832C261.116 89.8752 261.794 90.0132 262.538 90.0972L261.674 91.9512C260.81 91.8312 260.024 91.6512 259.316 91.4112C258.62 91.1592 257.996 90.8532 257.444 90.4932C256.892 90.1212 256.43 89.7072 256.058 89.2512C255.686 88.7952 255.398 88.3032 255.194 87.7752C255.002 87.2352 254.906 86.6772 254.906 86.1012V85.5972ZM275.946 85.4172H278.322V102.085H275.946V85.4172ZM265.272 87.0012H267.666V97.3692H265.272V87.0012ZM265.272 95.9472H266.748C267.972 95.9472 269.25 95.8992 270.582 95.8032C271.914 95.6952 273.27 95.5032 274.65 95.2272L274.902 97.2252C273.486 97.5252 272.088 97.7292 270.708 97.8372C269.34 97.9332 268.02 97.9812 266.748 97.9812H265.272V95.9472ZM291.245 85.3992H293.657V102.121H291.245V85.3992ZM293.135 91.5732H296.069V93.5532H293.135V91.5732ZM281.237 96.1452H282.641C283.589 96.1452 284.477 96.1332 285.305 96.1092C286.133 96.0732 286.937 96.0192 287.717 95.9472C288.497 95.8632 289.295 95.7492 290.111 95.6052L290.345 97.5852C289.505 97.7292 288.677 97.8432 287.861 97.9272C287.057 98.0112 286.229 98.0652 285.377 98.0892C284.525 98.1132 283.613 98.1252 282.641 98.1252H281.237V96.1452ZM281.237 86.9472H289.013V88.8732H283.631V97.0812H281.237V86.9472ZM303.862 87.8472C303.754 88.2672 303.616 88.7232 303.448 89.2152C303.28 89.6952 303.1 90.1812 302.908 90.6732C302.716 91.1532 302.518 91.6152 302.314 92.0592H300.388C300.508 91.5792 300.622 91.0812 300.73 90.5652C300.838 90.0372 300.94 89.5212 301.036 89.0172C301.132 88.5132 301.21 88.0572 301.27 87.6492H303.736L303.862 87.8472ZM299.758 87.8472C299.65 88.2672 299.512 88.7232 299.344 89.2152C299.176 89.6952 298.996 90.1812 298.804 90.6732C298.612 91.1532 298.414 91.6152 298.21 92.0592H296.284C296.368 91.6992 296.452 91.3272 296.536 90.9432C296.62 90.5592 296.698 90.1752 296.77 89.7912C296.854 89.3952 296.926 89.0172 296.986 88.6572C297.058 88.2972 297.118 87.9612 297.166 87.6492H299.632L299.758 87.8472Z" fill="#534F4B"/>
</svg>
