<svg width="398" height="570" viewBox="0 0 398 570" fill="none" xmlns="http://www.w3.org/2000/svg">
<rect x="0.5" y="31.9629" width="397" height="537" rx="7.5" fill="white" stroke="#9B938C"/>
<path d="M199 436.118C195.084 436.118 191.748 434.748 188.992 432.008C186.235 429.268 184.857 425.952 184.857 422.059C184.857 418.166 186.235 414.85 188.992 412.11C191.748 409.37 195.084 408 199 408C202.916 408 206.252 409.37 209.008 412.11C211.765 414.85 213.143 418.166 213.143 422.059C213.143 425.952 211.765 429.268 209.008 432.008C206.252 434.748 202.916 436.118 199 436.118ZM166 465.136V462.286C166 460.352 166.566 458.544 167.697 456.86C168.832 455.172 170.356 453.863 172.27 452.932C176.72 450.811 181.174 449.221 185.63 448.162C190.084 447.1 194.54 446.568 199 446.568C203.46 446.568 207.918 447.1 212.374 448.162C216.831 449.224 221.281 450.814 225.725 452.932C227.642 453.863 229.167 455.172 230.298 456.86C231.433 458.544 232 460.352 232 462.286V465.136C232 466.51 231.53 467.666 230.59 468.603C229.651 469.534 228.488 470 227.102 470H170.903C169.517 470 168.354 469.533 167.414 468.599C166.475 467.665 166.003 466.51 166 465.136Z" fill="#9B938C"/>
<path d="M184.264 486.346C184.926 486.346 185.51 486.472 186.014 486.724C186.527 486.967 186.928 487.312 187.218 487.76C187.507 488.208 187.652 488.731 187.652 489.328C187.652 489.916 187.507 490.439 187.218 490.896C186.928 491.344 186.527 491.694 186.014 491.946C185.51 492.189 184.926 492.31 184.264 492.31C183.61 492.31 183.027 492.189 182.514 491.946C182 491.694 181.594 491.344 181.296 490.896C181.006 490.439 180.862 489.916 180.862 489.328C180.862 488.731 181.006 488.208 181.296 487.76C181.594 487.312 182 486.967 182.514 486.724C183.027 486.472 183.61 486.346 184.264 486.346ZM184.264 487.354C183.834 487.354 183.447 487.438 183.102 487.606C182.766 487.765 182.5 487.993 182.304 488.292C182.108 488.591 182.01 488.936 182.01 489.328C182.01 489.72 182.108 490.065 182.304 490.364C182.5 490.663 182.766 490.896 183.102 491.064C183.447 491.223 183.834 491.302 184.264 491.302C184.702 491.302 185.09 491.223 185.426 491.064C185.762 490.896 186.028 490.663 186.224 490.364C186.42 490.065 186.518 489.72 186.518 489.328C186.518 488.936 186.42 488.591 186.224 488.292C186.028 487.993 185.762 487.765 185.426 487.606C185.09 487.438 184.702 487.354 184.264 487.354ZM189.318 485.422H190.48V498.106H189.318V485.422ZM180.386 495.334L180.232 494.354C181.006 494.354 181.856 494.349 182.78 494.34C183.704 494.321 184.656 494.284 185.636 494.228C186.625 494.163 187.577 494.06 188.492 493.92L188.59 494.774C187.638 494.951 186.672 495.082 185.692 495.166C184.721 495.241 183.783 495.287 182.878 495.306C181.972 495.325 181.142 495.334 180.386 495.334ZM193.727 486.598H200.083V489.958H194.903V491.904H193.755V489.076H198.935V487.536H193.727V486.598ZM193.755 491.54H200.419V492.464H193.755V491.54ZM196.387 492.184H197.549V494.872H196.387V492.184ZM201.917 485.422H203.079V498.106H201.917V485.422ZM192.985 495.628L192.831 494.648C193.661 494.648 194.543 494.643 195.477 494.634C196.41 494.615 197.357 494.583 198.319 494.536C199.28 494.48 200.204 494.401 201.091 494.298L201.189 495.152C200.265 495.292 199.322 495.399 198.361 495.474C197.409 495.549 196.475 495.595 195.561 495.614C194.655 495.623 193.797 495.628 192.985 495.628ZM214.571 485.436H215.733V494.676H214.571V485.436ZM207.599 496.86H216.125V497.812H207.599V496.86ZM207.599 493.738H208.761V497.182H207.599V493.738ZM208.943 486.318C209.578 486.318 210.143 486.449 210.637 486.71C211.132 486.971 211.524 487.34 211.813 487.816C212.103 488.283 212.247 488.819 212.247 489.426C212.247 490.033 212.103 490.574 211.813 491.05C211.524 491.517 211.132 491.885 210.637 492.156C210.143 492.417 209.578 492.548 208.943 492.548C208.318 492.548 207.753 492.417 207.249 492.156C206.755 491.885 206.363 491.517 206.073 491.05C205.784 490.574 205.639 490.033 205.639 489.426C205.639 488.819 205.784 488.283 206.073 487.816C206.363 487.34 206.755 486.971 207.249 486.71C207.753 486.449 208.318 486.318 208.943 486.318ZM208.943 487.326C208.533 487.326 208.164 487.415 207.837 487.592C207.511 487.769 207.249 488.017 207.053 488.334C206.867 488.651 206.773 489.015 206.773 489.426C206.773 489.846 206.867 490.215 207.053 490.532C207.249 490.84 207.511 491.083 207.837 491.26C208.164 491.437 208.533 491.526 208.943 491.526C209.354 491.526 209.723 491.437 210.049 491.26C210.385 491.083 210.647 490.84 210.833 490.532C211.02 490.215 211.113 489.846 211.113 489.426C211.113 489.015 211.02 488.651 210.833 488.334C210.647 488.017 210.385 487.769 210.049 487.592C209.723 487.415 209.354 487.326 208.943 487.326Z" fill="#9B938C"/>
<path d="M199 283.118C195.084 283.118 191.748 281.748 188.992 279.008C186.235 276.268 184.857 272.952 184.857 269.059C184.857 265.166 186.235 261.85 188.992 259.11C191.748 256.37 195.084 255 199 255C202.916 255 206.252 256.37 209.008 259.11C211.765 261.85 213.143 265.166 213.143 269.059C213.143 272.952 211.765 276.268 209.008 279.008C206.252 281.748 202.916 283.118 199 283.118ZM166 312.136V309.286C166 307.352 166.566 305.544 167.697 303.86C168.832 302.172 170.356 300.863 172.27 299.932C176.72 297.811 181.174 296.221 185.63 295.162C190.084 294.1 194.54 293.568 199 293.568C203.46 293.568 207.918 294.1 212.374 295.162C216.831 296.224 221.281 297.814 225.725 299.932C227.642 300.863 229.167 302.172 230.298 303.86C231.433 305.544 232 307.352 232 309.286V312.136C232 313.51 231.53 314.666 230.59 315.603C229.651 316.534 228.488 317 227.102 317H170.903C169.517 317 168.354 316.533 167.414 315.599C166.475 314.665 166.003 313.51 166 312.136Z" fill="#9B938C"/>
<path d="M183.256 333.514H184.208V335.782C184.208 336.482 184.119 337.168 183.942 337.84C183.774 338.512 183.531 339.142 183.214 339.73C182.896 340.318 182.523 340.841 182.094 341.298C181.664 341.755 181.198 342.119 180.694 342.39L179.98 341.452C180.446 341.219 180.876 340.906 181.268 340.514C181.669 340.113 182.019 339.655 182.318 339.142C182.616 338.629 182.845 338.087 183.004 337.518C183.172 336.939 183.256 336.361 183.256 335.782V333.514ZM183.466 333.514H184.404V335.782C184.404 336.342 184.483 336.897 184.642 337.448C184.81 337.999 185.043 338.517 185.342 339.002C185.64 339.487 185.981 339.921 186.364 340.304C186.756 340.687 187.176 340.99 187.624 341.214L186.91 342.138C186.415 341.886 185.958 341.541 185.538 341.102C185.127 340.663 184.763 340.164 184.446 339.604C184.138 339.035 183.895 338.428 183.718 337.784C183.55 337.131 183.466 336.463 183.466 335.782V333.514ZM188.73 332.422H189.892V345.092H188.73V332.422ZM189.626 337.546H191.964V338.54H189.626V337.546ZM192.747 339.772H204.227V340.724H192.747V339.772ZM197.885 340.36H199.033V345.078H197.885V340.36ZM194.217 333.122H202.757V338.064H194.217V333.122ZM201.609 334.06H195.351V337.14H201.609V334.06ZM208.481 333.78H209.433V334.802C209.433 335.586 209.284 336.309 208.985 336.972C208.696 337.635 208.285 338.213 207.753 338.708C207.231 339.203 206.61 339.581 205.891 339.842L205.303 338.918C205.938 338.694 206.493 338.377 206.969 337.966C207.445 337.546 207.814 337.065 208.075 336.524C208.346 335.983 208.481 335.409 208.481 334.802V333.78ZM208.691 333.78H209.643V334.802C209.643 335.353 209.769 335.875 210.021 336.37C210.273 336.865 210.628 337.299 211.085 337.672C211.543 338.045 212.079 338.339 212.695 338.554L212.149 339.464C211.44 339.221 210.829 338.871 210.315 338.414C209.802 337.957 209.401 337.42 209.111 336.804C208.831 336.179 208.691 335.511 208.691 334.802V333.78ZM205.653 333.36H212.429V334.312H205.653V333.36ZM214.025 332.422H215.187V340.052H214.025V332.422ZM214.865 335.642H217.049V336.608H214.865V335.642ZM211.155 340.402C212.014 340.402 212.751 340.495 213.367 340.682C213.993 340.859 214.473 341.121 214.809 341.466C215.145 341.811 215.313 342.231 215.313 342.726C215.313 343.221 215.145 343.641 214.809 343.986C214.473 344.331 213.993 344.597 213.367 344.784C212.751 344.971 212.014 345.064 211.155 345.064C210.297 345.064 209.555 344.971 208.929 344.784C208.304 344.597 207.823 344.331 207.487 343.986C207.151 343.641 206.983 343.221 206.983 342.726C206.983 342.231 207.151 341.811 207.487 341.466C207.823 341.121 208.304 340.859 208.929 340.682C209.555 340.495 210.297 340.402 211.155 340.402ZM211.155 341.326C210.53 341.326 209.989 341.382 209.531 341.494C209.083 341.606 208.738 341.765 208.495 341.97C208.253 342.175 208.131 342.427 208.131 342.726C208.131 343.025 208.253 343.281 208.495 343.496C208.738 343.701 209.083 343.86 209.531 343.972C209.989 344.084 210.53 344.14 211.155 344.14C211.781 344.14 212.317 344.084 212.765 343.972C213.213 343.86 213.559 343.701 213.801 343.496C214.044 343.281 214.165 343.025 214.165 342.726C214.165 342.427 214.044 342.175 213.801 341.97C213.559 341.765 213.213 341.606 212.765 341.494C212.317 341.382 211.781 341.326 211.155 341.326Z" fill="#9B938C"/>
<path d="M199 130.118C195.084 130.118 191.748 128.748 188.992 126.008C186.235 123.268 184.857 119.952 184.857 116.059C184.857 112.166 186.235 108.85 188.992 106.11C191.748 103.37 195.084 102 199 102C202.916 102 206.252 103.37 209.008 106.11C211.765 108.85 213.143 112.166 213.143 116.059C213.143 119.952 211.765 123.268 209.008 126.008C206.252 128.748 202.916 130.118 199 130.118ZM166 159.136V156.286C166 154.352 166.566 152.544 167.697 150.86C168.832 149.172 170.356 147.863 172.27 146.932C176.72 144.811 181.174 143.221 185.63 142.162C190.084 141.1 194.54 140.568 199 140.568C203.46 140.568 207.918 141.1 212.374 142.162C216.831 143.224 221.281 144.814 225.725 146.932C227.642 147.863 229.167 149.172 230.298 150.86C231.433 152.544 232 154.352 232 156.286V159.136C232 160.51 231.53 161.666 230.59 162.603C229.651 163.534 228.488 164 227.102 164H170.903C169.517 164 168.354 163.533 167.414 162.599C166.475 161.665 166.003 160.51 166 159.136Z" fill="#9B938C"/>
<path d="M186.21 181.746H189.85V182.698H186.21V181.746ZM186.21 184.476H189.878V185.428H186.21V184.476ZM189.416 179.436H190.578V188.802H189.416V179.436ZM182.444 190.86H190.872V191.812H182.444V190.86ZM182.444 187.892H183.606V191.336H182.444V187.892ZM180.778 180.276H181.94V182.502H185.356V180.276H186.504V186.646H180.778V180.276ZM181.94 183.412V185.708H185.356V183.412H181.94ZM193.321 181.284H203.611V182.236H193.321V181.284ZM192.761 189.656H204.241V190.608H192.761V189.656ZM197.899 187.64H199.047V190.02H197.899V187.64ZM198.473 183.076C199.322 183.076 200.055 183.174 200.671 183.37C201.296 183.557 201.777 183.827 202.113 184.182C202.449 184.537 202.617 184.971 202.617 185.484C202.617 185.988 202.449 186.422 202.113 186.786C201.777 187.15 201.296 187.43 200.671 187.626C200.055 187.813 199.322 187.906 198.473 187.906C197.623 187.906 196.886 187.813 196.261 187.626C195.645 187.43 195.169 187.15 194.833 186.786C194.497 186.422 194.329 185.988 194.329 185.484C194.329 184.971 194.497 184.537 194.833 184.182C195.169 183.827 195.645 183.557 196.261 183.37C196.886 183.174 197.623 183.076 198.473 183.076ZM198.473 184C197.857 184 197.325 184.061 196.877 184.182C196.438 184.294 196.097 184.462 195.855 184.686C195.621 184.901 195.505 185.167 195.505 185.484C195.505 185.792 195.621 186.058 195.855 186.282C196.097 186.506 196.438 186.679 196.877 186.8C197.325 186.912 197.857 186.968 198.473 186.968C199.089 186.968 199.616 186.912 200.055 186.8C200.493 186.679 200.834 186.506 201.077 186.282C201.319 186.058 201.441 185.792 201.441 185.484C201.441 185.167 201.319 184.901 201.077 184.686C200.834 184.462 200.493 184.294 200.055 184.182C199.616 184.061 199.089 184 198.473 184ZM197.899 179.632H199.047V181.858H197.899V179.632ZM208.453 180.514H209.405V182.782C209.405 183.482 209.317 184.168 209.139 184.84C208.971 185.512 208.729 186.142 208.411 186.73C208.094 187.318 207.721 187.841 207.291 188.298C206.862 188.755 206.395 189.119 205.891 189.39L205.177 188.452C205.644 188.219 206.073 187.906 206.465 187.514C206.867 187.113 207.217 186.655 207.515 186.142C207.814 185.629 208.043 185.087 208.201 184.518C208.369 183.939 208.453 183.361 208.453 182.782V180.514ZM208.663 180.514H209.601V182.782C209.601 183.342 209.681 183.897 209.839 184.448C210.007 184.999 210.241 185.517 210.539 186.002C210.838 186.487 211.179 186.921 211.561 187.304C211.953 187.687 212.373 187.99 212.821 188.214L212.107 189.138C211.613 188.886 211.155 188.541 210.735 188.102C210.325 187.663 209.961 187.164 209.643 186.604C209.335 186.035 209.093 185.428 208.915 184.784C208.747 184.131 208.663 183.463 208.663 182.782V180.514ZM213.927 179.422H215.089V192.092H213.927V179.422ZM214.823 184.546H217.161V185.54H214.823V184.546Z" fill="#9B938C"/>
<path d="M305 436.118C301.084 436.118 297.748 434.748 294.992 432.008C292.235 429.268 290.857 425.952 290.857 422.059C290.857 418.166 292.235 414.85 294.992 412.11C297.748 409.37 301.084 408 305 408C308.916 408 312.252 409.37 315.008 412.11C317.765 414.85 319.143 418.166 319.143 422.059C319.143 425.952 317.765 429.268 315.008 432.008C312.252 434.748 308.916 436.118 305 436.118ZM272 465.136V462.286C272 460.352 272.566 458.544 273.697 456.86C274.832 455.172 276.356 453.863 278.27 452.932C282.72 450.811 287.174 449.221 291.63 448.162C296.084 447.1 300.54 446.568 305 446.568C309.46 446.568 313.918 447.1 318.374 448.162C322.831 449.224 327.281 450.814 331.725 452.932C333.642 453.863 335.167 455.172 336.298 456.86C337.433 458.544 338 460.352 338 462.286V465.136C338 466.51 337.53 467.666 336.59 468.603C335.651 469.534 334.488 470 333.102 470H276.903C275.517 470 274.354 469.533 273.414 468.599C272.475 467.665 272.003 466.51 272 465.136Z" fill="#9B938C"/>
<path d="M290.264 486.346C290.926 486.346 291.51 486.472 292.014 486.724C292.527 486.967 292.928 487.312 293.218 487.76C293.507 488.208 293.652 488.731 293.652 489.328C293.652 489.916 293.507 490.439 293.218 490.896C292.928 491.344 292.527 491.694 292.014 491.946C291.51 492.189 290.926 492.31 290.264 492.31C289.61 492.31 289.027 492.189 288.514 491.946C288 491.694 287.594 491.344 287.296 490.896C287.006 490.439 286.862 489.916 286.862 489.328C286.862 488.731 287.006 488.208 287.296 487.76C287.594 487.312 288 486.967 288.514 486.724C289.027 486.472 289.61 486.346 290.264 486.346ZM290.264 487.354C289.834 487.354 289.447 487.438 289.102 487.606C288.766 487.765 288.5 487.993 288.304 488.292C288.108 488.591 288.01 488.936 288.01 489.328C288.01 489.72 288.108 490.065 288.304 490.364C288.5 490.663 288.766 490.896 289.102 491.064C289.447 491.223 289.834 491.302 290.264 491.302C290.702 491.302 291.09 491.223 291.426 491.064C291.762 490.896 292.028 490.663 292.224 490.364C292.42 490.065 292.518 489.72 292.518 489.328C292.518 488.936 292.42 488.591 292.224 488.292C292.028 487.993 291.762 487.765 291.426 487.606C291.09 487.438 290.702 487.354 290.264 487.354ZM295.318 485.422H296.48V498.106H295.318V485.422ZM286.386 495.334L286.232 494.354C287.006 494.354 287.856 494.349 288.78 494.34C289.704 494.321 290.656 494.284 291.636 494.228C292.625 494.163 293.577 494.06 294.492 493.92L294.59 494.774C293.638 494.951 292.672 495.082 291.692 495.166C290.721 495.241 289.783 495.287 288.878 495.306C287.972 495.325 287.142 495.334 286.386 495.334ZM299.727 486.598H306.083V489.958H300.903V491.904H299.755V489.076H304.935V487.536H299.727V486.598ZM299.755 491.54H306.419V492.464H299.755V491.54ZM302.387 492.184H303.549V494.872H302.387V492.184ZM307.917 485.422H309.079V498.106H307.917V485.422ZM298.985 495.628L298.831 494.648C299.661 494.648 300.543 494.643 301.477 494.634C302.41 494.615 303.357 494.583 304.319 494.536C305.28 494.48 306.204 494.401 307.091 494.298L307.189 495.152C306.265 495.292 305.322 495.399 304.361 495.474C303.409 495.549 302.475 495.595 301.561 495.614C300.655 495.623 299.797 495.628 298.985 495.628ZM320.571 485.436H321.733V494.676H320.571V485.436ZM313.599 496.86H322.125V497.812H313.599V496.86ZM313.599 493.738H314.761V497.182H313.599V493.738ZM314.943 486.318C315.578 486.318 316.143 486.449 316.637 486.71C317.132 486.971 317.524 487.34 317.813 487.816C318.103 488.283 318.247 488.819 318.247 489.426C318.247 490.033 318.103 490.574 317.813 491.05C317.524 491.517 317.132 491.885 316.637 492.156C316.143 492.417 315.578 492.548 314.943 492.548C314.318 492.548 313.753 492.417 313.249 492.156C312.755 491.885 312.363 491.517 312.073 491.05C311.784 490.574 311.639 490.033 311.639 489.426C311.639 488.819 311.784 488.283 312.073 487.816C312.363 487.34 312.755 486.971 313.249 486.71C313.753 486.449 314.318 486.318 314.943 486.318ZM314.943 487.326C314.533 487.326 314.164 487.415 313.837 487.592C313.511 487.769 313.249 488.017 313.053 488.334C312.867 488.651 312.773 489.015 312.773 489.426C312.773 489.846 312.867 490.215 313.053 490.532C313.249 490.84 313.511 491.083 313.837 491.26C314.164 491.437 314.533 491.526 314.943 491.526C315.354 491.526 315.723 491.437 316.049 491.26C316.385 491.083 316.647 490.84 316.833 490.532C317.02 490.215 317.113 489.846 317.113 489.426C317.113 489.015 317.02 488.651 316.833 488.334C316.647 488.017 316.385 487.769 316.049 487.592C315.723 487.415 315.354 487.326 314.943 487.326Z" fill="#9B938C"/>
<path d="M93 436.118C89.084 436.118 85.7479 434.748 82.9916 432.008C80.2353 429.268 78.8571 425.952 78.8571 422.059C78.8571 418.166 80.2353 414.85 82.9916 412.11C85.7479 409.37 89.084 408 93 408C96.916 408 100.252 409.37 103.008 412.11C105.765 414.85 107.143 418.166 107.143 422.059C107.143 425.952 105.765 429.268 103.008 432.008C100.252 434.748 96.916 436.118 93 436.118ZM60 465.136V462.286C60 460.352 60.5657 458.544 61.6971 456.86C62.8317 455.172 64.356 453.863 66.27 452.932C70.7203 450.811 75.1737 449.221 79.6303 448.162C84.0837 447.1 88.5403 446.568 93 446.568C97.4597 446.568 101.918 447.1 106.374 448.162C110.831 449.224 115.281 450.814 119.725 452.932C121.642 453.863 123.167 455.172 124.298 456.86C125.433 458.544 126 460.352 126 462.286V465.136C126 466.51 125.53 467.666 124.59 468.603C123.651 469.534 122.488 470 121.102 470H64.9029C63.5169 470 62.354 469.533 61.4143 468.599C60.4746 467.665 60.0031 466.51 60 465.136Z" fill="#9B938C"/>
<path d="M78.2636 486.346C78.9263 486.346 79.5096 486.472 80.0136 486.724C80.527 486.967 80.9283 487.312 81.2176 487.76C81.507 488.208 81.6516 488.731 81.6516 489.328C81.6516 489.916 81.507 490.439 81.2176 490.896C80.9283 491.344 80.527 491.694 80.0136 491.946C79.5096 492.189 78.9263 492.31 78.2636 492.31C77.6103 492.31 77.027 492.189 76.5136 491.946C76.0003 491.694 75.5943 491.344 75.2956 490.896C75.0063 490.439 74.8616 489.916 74.8616 489.328C74.8616 488.731 75.0063 488.208 75.2956 487.76C75.5943 487.312 76.0003 486.967 76.5136 486.724C77.027 486.472 77.6103 486.346 78.2636 486.346ZM78.2636 487.354C77.8343 487.354 77.447 487.438 77.1016 487.606C76.7656 487.765 76.4996 487.993 76.3036 488.292C76.1076 488.591 76.0096 488.936 76.0096 489.328C76.0096 489.72 76.1076 490.065 76.3036 490.364C76.4996 490.663 76.7656 490.896 77.1016 491.064C77.447 491.223 77.8343 491.302 78.2636 491.302C78.7023 491.302 79.0896 491.223 79.4256 491.064C79.7616 490.896 80.0276 490.663 80.2236 490.364C80.4196 490.065 80.5176 489.72 80.5176 489.328C80.5176 488.936 80.4196 488.591 80.2236 488.292C80.0276 487.993 79.7616 487.765 79.4256 487.606C79.0896 487.438 78.7023 487.354 78.2636 487.354ZM83.3176 485.422H84.4796V498.106H83.3176V485.422ZM74.3856 495.334L74.2316 494.354C75.0063 494.354 75.8556 494.349 76.7796 494.34C77.7036 494.321 78.6556 494.284 79.6356 494.228C80.625 494.163 81.577 494.06 82.4916 493.92L82.5896 494.774C81.6376 494.951 80.6716 495.082 79.6916 495.166C78.721 495.241 77.783 495.287 76.8776 495.306C75.9723 495.325 75.1416 495.334 74.3856 495.334ZM87.7265 486.598H94.0825V489.958H88.9025V491.904H87.7545V489.076H92.9345V487.536H87.7265V486.598ZM87.7545 491.54H94.4185V492.464H87.7545V491.54ZM90.3865 492.184H91.5485V494.872H90.3865V492.184ZM95.9165 485.422H97.0785V498.106H95.9165V485.422ZM86.9845 495.628L86.8305 494.648C87.6612 494.648 88.5432 494.643 89.4765 494.634C90.4099 494.615 91.3572 494.583 92.3185 494.536C93.2799 494.48 94.2039 494.401 95.0905 494.298L95.1885 495.152C94.2645 495.292 93.3219 495.399 92.3605 495.474C91.4085 495.549 90.4752 495.595 89.5605 495.614C88.6552 495.623 87.7965 495.628 86.9845 495.628ZM108.571 485.436H109.733V494.676H108.571V485.436ZM101.599 496.86H110.125V497.812H101.599V496.86ZM101.599 493.738H102.761V497.182H101.599V493.738ZM102.943 486.318C103.578 486.318 104.143 486.449 104.637 486.71C105.132 486.971 105.524 487.34 105.813 487.816C106.103 488.283 106.247 488.819 106.247 489.426C106.247 490.033 106.103 490.574 105.813 491.05C105.524 491.517 105.132 491.885 104.637 492.156C104.143 492.417 103.578 492.548 102.943 492.548C102.318 492.548 101.753 492.417 101.249 492.156C100.755 491.885 100.363 491.517 100.073 491.05C99.7841 490.574 99.6395 490.033 99.6395 489.426C99.6395 488.819 99.7841 488.283 100.073 487.816C100.363 487.34 100.755 486.971 101.249 486.71C101.753 486.449 102.318 486.318 102.943 486.318ZM102.943 487.326C102.533 487.326 102.164 487.415 101.837 487.592C101.511 487.769 101.249 488.017 101.053 488.334C100.867 488.651 100.773 489.015 100.773 489.426C100.773 489.846 100.867 490.215 101.053 490.532C101.249 490.84 101.511 491.083 101.837 491.26C102.164 491.437 102.533 491.526 102.943 491.526C103.354 491.526 103.723 491.437 104.049 491.26C104.385 491.083 104.647 490.84 104.833 490.532C105.02 490.215 105.113 489.846 105.113 489.426C105.113 489.015 105.02 488.651 104.833 488.334C104.647 488.017 104.385 487.769 104.049 487.592C103.723 487.415 103.354 487.326 102.943 487.326Z" fill="#9B938C"/>
<path d="M199 211L196.113 216L201.887 216L199 211ZM199.5 239L199.5 215.5L198.5 215.5L198.5 239L199.5 239Z" fill="#9B938C"/>
<path d="M199 364L196.113 369L201.887 369L199 364ZM199.5 392L199.5 368.5L198.5 368.5L198.5 392L199.5 392Z" fill="#9B938C"/>
<path d="M166 364L160.298 363.095L162.365 368.486L166 364ZM93.1791 392.467L161.978 366.078L161.619 365.145L92.8209 391.533L93.1791 392.467Z" fill="#9B938C"/>
<path d="M232 364L235.635 368.486L237.702 363.095L232 364ZM305.179 391.533L236.381 365.145L236.022 366.078L304.821 392.467L305.179 391.533Z" fill="#9B938C"/>
<rect x="78" width="243" height="62" rx="8" fill="#9B938C"/>
<path d="M103.848 34.528H105.696C106.944 34.528 108.112 34.52 109.2 34.504C110.288 34.472 111.352 34.416 112.392 34.336C113.432 34.24 114.512 34.112 115.632 33.952L115.92 36.472C114.8 36.648 113.696 36.784 112.608 36.88C111.536 36.976 110.432 37.04 109.296 37.072C108.176 37.088 106.976 37.096 105.696 37.096H103.848V34.528ZM103.848 21.736H114.288V24.328H107.04V35.368H103.848V21.736ZM106.272 27.928H113.976V30.424H106.272V27.928ZM117.168 19.912H120.384V42.136H117.168V19.912ZM119.688 28.336H123.6V30.952H119.688V28.336ZM129.574 21.616H132.142V24.832C132.142 26.208 132.022 27.552 131.782 28.864C131.542 30.16 131.166 31.368 130.654 32.488C130.158 33.608 129.526 34.608 128.758 35.488C127.99 36.352 127.086 37.04 126.046 37.552L124.126 34.984C125.07 34.552 125.878 33.976 126.55 33.256C127.238 32.536 127.806 31.72 128.254 30.808C128.702 29.896 129.03 28.936 129.238 27.928C129.462 26.904 129.574 25.872 129.574 24.832V21.616ZM130.198 21.616H132.766V24.832C132.766 25.84 132.862 26.832 133.054 27.808C133.262 28.784 133.574 29.712 133.99 30.592C134.422 31.456 134.958 32.232 135.598 32.92C136.238 33.608 137.006 34.176 137.902 34.624L135.958 37.168C134.966 36.656 134.102 35.984 133.366 35.152C132.646 34.304 132.054 33.336 131.59 32.248C131.126 31.144 130.774 29.968 130.534 28.72C130.31 27.456 130.198 26.16 130.198 24.832V21.616ZM138.766 19.912H141.982V42.136H138.766V19.912ZM141.286 28.456H145.198V31.096H141.286V28.456ZM157.551 33.424H160.743V37.024H157.551V33.424ZM167.271 19.912H170.463V42.136H167.271V19.912ZM152.415 38.44L152.031 35.848C153.375 35.848 154.839 35.84 156.423 35.824C158.007 35.808 159.631 35.752 161.295 35.656C162.975 35.56 164.591 35.408 166.143 35.2L166.359 37.504C164.743 37.792 163.111 38.008 161.463 38.152C159.831 38.28 158.247 38.36 156.711 38.392C155.175 38.424 153.743 38.44 152.415 38.44ZM152.463 22.36H165.855V24.856H152.463V22.36ZM159.159 25.72C160.247 25.72 161.207 25.896 162.039 26.248C162.871 26.6 163.519 27.088 163.983 27.712C164.463 28.336 164.703 29.064 164.703 29.896C164.703 30.712 164.463 31.44 163.983 32.08C163.519 32.704 162.871 33.192 162.039 33.544C161.207 33.896 160.247 34.072 159.159 34.072C158.071 34.072 157.111 33.896 156.279 33.544C155.447 33.192 154.791 32.704 154.311 32.08C153.847 31.44 153.615 30.712 153.615 29.896C153.615 29.064 153.847 28.336 154.311 27.712C154.791 27.088 155.447 26.6 156.279 26.248C157.111 25.896 158.071 25.72 159.159 25.72ZM159.159 28.12C158.423 28.12 157.823 28.28 157.359 28.6C156.895 28.904 156.663 29.336 156.663 29.896C156.663 30.472 156.895 30.912 157.359 31.216C157.823 31.52 158.423 31.672 159.159 31.672C159.895 31.672 160.495 31.52 160.959 31.216C161.423 30.912 161.655 30.472 161.655 29.896C161.655 29.336 161.423 28.904 160.959 28.6C160.495 28.28 159.895 28.12 159.159 28.12ZM157.551 19.984H160.767V23.8H157.551V19.984ZM177.517 21.232H180.013V23.8C180.013 25.064 179.837 26.296 179.485 27.496C179.133 28.68 178.581 29.744 177.829 30.688C177.077 31.632 176.093 32.36 174.877 32.872L173.221 30.424C174.245 29.96 175.069 29.376 175.693 28.672C176.333 27.952 176.797 27.168 177.085 26.32C177.373 25.472 177.517 24.632 177.517 23.8V21.232ZM178.117 21.232H180.613V23.8C180.613 24.6 180.749 25.384 181.021 26.152C181.293 26.904 181.733 27.592 182.341 28.216C182.965 28.84 183.757 29.352 184.717 29.752L183.037 32.176C181.885 31.712 180.941 31.056 180.205 30.208C179.485 29.344 178.957 28.368 178.621 27.28C178.285 26.176 178.117 25.016 178.117 23.8V21.232ZM189.421 19.912H192.469V33.496H189.421V19.912ZM186.757 25.312H190.285V27.88H186.757V25.312ZM184.741 20.32H187.717V32.8H184.741V20.32ZM184.933 33.808C186.485 33.808 187.829 33.976 188.965 34.312C190.117 34.632 191.005 35.104 191.629 35.728C192.253 36.352 192.565 37.096 192.565 37.96C192.565 38.84 192.253 39.592 191.629 40.216C191.005 40.84 190.117 41.312 188.965 41.632C187.829 41.968 186.485 42.136 184.933 42.136C183.381 42.136 182.029 41.968 180.877 41.632C179.725 41.312 178.837 40.84 178.213 40.216C177.589 39.592 177.277 38.84 177.277 37.96C177.277 37.096 177.589 36.352 178.213 35.728C178.837 35.104 179.725 34.632 180.877 34.312C182.029 33.976 183.381 33.808 184.933 33.808ZM184.933 36.208C183.493 36.208 182.381 36.352 181.597 36.64C180.829 36.928 180.445 37.368 180.445 37.96C180.445 38.552 180.829 39 181.597 39.304C182.381 39.592 183.493 39.736 184.933 39.736C185.877 39.736 186.677 39.672 187.333 39.544C188.005 39.4 188.509 39.2 188.845 38.944C189.197 38.688 189.373 38.36 189.373 37.96C189.373 37.368 188.989 36.928 188.221 36.64C187.453 36.352 186.357 36.208 184.933 36.208ZM203.939 22.864L197.555 40H194.315L200.699 22.864H203.939ZM204.853 21.952H217.117V24.472H204.853V21.952ZM204.613 37.048L204.277 34.456C205.557 34.456 206.957 34.448 208.477 34.432C210.013 34.4 211.573 34.344 213.157 34.264C214.757 34.168 216.293 34.032 217.765 33.856L217.933 36.16C216.429 36.416 214.885 36.608 213.301 36.736C211.733 36.864 210.205 36.952 208.717 37C207.245 37.032 205.877 37.048 204.613 37.048ZM206.749 23.944H209.845V35.152H206.749V23.944ZM212.125 23.944H215.197V35.152H212.125V23.944ZM218.749 19.912H221.965V42.136H218.749V19.912ZM221.269 28.312H225.181V30.952H221.269V28.312ZM231.131 21.256H233.771V23.656C233.771 25.128 233.539 26.512 233.075 27.808C232.627 29.088 231.939 30.208 231.011 31.168C230.099 32.128 228.931 32.848 227.507 33.328L225.803 30.856C227.067 30.44 228.091 29.864 228.875 29.128C229.659 28.376 230.227 27.528 230.579 26.584C230.947 25.624 231.131 24.648 231.131 23.656V21.256ZM231.779 21.256H234.371V23.68C234.371 24.384 234.467 25.08 234.659 25.768C234.851 26.44 235.155 27.08 235.571 27.688C235.987 28.28 236.515 28.816 237.155 29.296C237.795 29.76 238.563 30.136 239.459 30.424L237.827 32.92C236.435 32.456 235.291 31.768 234.395 30.856C233.515 29.928 232.859 28.848 232.427 27.616C231.995 26.384 231.779 25.072 231.779 23.68V21.256ZM240.443 19.912H243.635V36.16H240.443V19.912ZM242.747 26.344H246.587V28.96H242.747V26.344ZM229.331 39.184H244.427V41.752H229.331V39.184ZM229.331 34.6H232.547V40.552H229.331V34.6ZM253.516 37.096H273.652V39.688H253.516V37.096ZM261.964 32.872H265.132V38.128H261.964V32.872ZM255.796 21.328H271.372V28.744H258.988V32.464H255.82V26.248H268.204V23.872H255.796V21.328ZM255.82 31.216H271.876V33.76H255.82V31.216ZM287.378 25.264H292.37V27.832H287.378V25.264ZM290.498 19.912H293.714V32.872H290.498V19.912ZM278.882 33.856H293.714V41.896H278.882V33.856ZM290.57 36.352H282.026V39.376H290.57V36.352ZM275.642 21.232H287.474V23.752H275.642V21.232ZM275.426 32.344L275.114 29.728C276.378 29.728 277.754 29.72 279.242 29.704C280.746 29.688 282.274 29.64 283.826 29.56C285.378 29.48 286.85 29.352 288.242 29.176L288.458 31.504C287.018 31.744 285.53 31.928 283.994 32.056C282.474 32.168 280.978 32.248 279.506 32.296C278.034 32.328 276.674 32.344 275.426 32.344ZM277.418 23.248H280.49V30.688H277.418V23.248ZM282.65 23.248H285.722V30.688H282.65V23.248Z" fill="white"/>
</svg>
