<svg width="980" height="603" viewBox="0 0 980 603" fill="none" xmlns="http://www.w3.org/2000/svg">
<rect width="980" height="603" rx="8" fill="#F1F1F1"/>
<rect x="80" y="60" width="471" height="483" fill="#F1F1F1"/>
<path d="M643.1 224.58C643.1 228.02 642.82 231.1 642.26 233.82C641.74 236.54 640.88 238.86 639.68 240.78C638.52 242.66 636.98 244.1 635.06 245.1C633.18 246.1 630.86 246.6 628.1 246.6C624.66 246.6 621.84 245.72 619.64 243.96C617.44 242.2 615.8 239.68 614.72 236.4C613.68 233.12 613.16 229.18 613.16 224.58C613.16 219.94 613.64 215.98 614.6 212.7C615.56 209.42 617.14 206.9 619.34 205.14C621.54 203.38 624.46 202.5 628.1 202.5C631.54 202.5 634.36 203.38 636.56 205.14C638.76 206.86 640.4 209.38 641.48 212.7C642.56 215.98 643.1 219.94 643.1 224.58ZM622.16 224.58C622.16 227.82 622.34 230.54 622.7 232.74C623.06 234.9 623.66 236.54 624.5 237.66C625.38 238.74 626.58 239.28 628.1 239.28C629.62 239.28 630.8 238.74 631.64 237.66C632.52 236.58 633.14 234.96 633.5 232.8C633.9 230.6 634.1 227.86 634.1 224.58C634.1 221.3 633.9 218.58 633.5 216.42C633.14 214.22 632.52 212.58 631.64 211.5C630.8 210.38 629.62 209.82 628.1 209.82C626.58 209.82 625.38 210.38 624.5 211.5C623.66 212.58 623.06 214.22 622.7 216.42C622.34 218.58 622.16 221.3 622.16 224.58ZM677.676 246H647.736V239.7L658.476 228.84C660.636 226.6 662.376 224.74 663.696 223.26C665.016 221.74 665.976 220.38 666.576 219.18C667.176 217.94 667.476 216.62 667.476 215.22C667.476 213.5 666.996 212.22 666.036 211.38C665.116 210.54 663.856 210.12 662.256 210.12C660.616 210.12 659.016 210.5 657.456 211.26C655.896 212.02 654.256 213.1 652.536 214.5L647.616 208.68C648.856 207.6 650.156 206.6 651.516 205.68C652.916 204.76 654.516 204.02 656.316 203.46C658.156 202.86 660.356 202.56 662.916 202.56C665.716 202.56 668.116 203.08 670.116 204.12C672.156 205.12 673.716 206.5 674.796 208.26C675.916 209.98 676.476 211.94 676.476 214.14C676.476 215.94 676.196 217.6 675.636 219.12C675.116 220.64 674.336 222.12 673.296 223.56C672.296 224.96 671.056 226.42 669.576 227.94C668.096 229.42 666.416 231.04 664.536 232.8L659.016 237.96V238.38H677.676V246Z" fill="#B73D24"/>
<path d="M629.324 292.212H637.676V296.064H629.324V292.212ZM621.656 286.236C623.336 286.236 624.836 286.584 626.156 287.28C627.5 287.952 628.556 288.888 629.324 290.088C630.092 291.264 630.476 292.632 630.476 294.192C630.476 295.728 630.092 297.096 629.324 298.296C628.556 299.496 627.5 300.444 626.156 301.14C624.836 301.812 623.336 302.148 621.656 302.148C620 302.148 618.5 301.812 617.156 301.14C615.836 300.444 614.792 299.496 614.024 298.296C613.256 297.096 612.872 295.728 612.872 294.192C612.872 292.632 613.256 291.264 614.024 290.088C614.792 288.888 615.836 287.952 617.156 287.28C618.5 286.584 620 286.236 621.656 286.236ZM621.656 290.196C620.84 290.196 620.108 290.352 619.46 290.664C618.836 290.976 618.344 291.432 617.984 292.032C617.624 292.632 617.444 293.352 617.444 294.192C617.444 295.008 617.624 295.716 617.984 296.316C618.344 296.916 618.836 297.372 619.46 297.684C620.108 297.996 620.84 298.152 621.656 298.152C622.472 298.152 623.192 297.996 623.816 297.684C624.464 297.372 624.968 296.916 625.328 296.316C625.688 295.716 625.868 295.008 625.868 294.192C625.868 293.352 625.688 292.632 625.328 292.032C624.968 291.432 624.464 290.976 623.816 290.664C623.192 290.352 622.472 290.196 621.656 290.196ZM635.552 284.868H640.376V302.76H635.552V284.868ZM618.236 304.236H622.988V307.368H635.624V304.236H640.376V317.844H618.236V304.236ZM622.988 311.04V314.028H635.624V311.04H622.988ZM657.725 293.652H664.457V297.432H657.725V293.652ZM657.545 301.968H664.349V305.784H657.545V301.968ZM668.993 284.832H673.565V318.168H668.993V284.832ZM662.153 285.552H666.617V316.692H662.153V285.552ZM654.629 288.756H659.201C659.201 291.924 658.829 294.876 658.085 297.612C657.365 300.324 656.117 302.82 654.341 305.1C652.589 307.38 650.165 309.432 647.069 311.256L644.369 307.908C646.889 306.396 648.893 304.752 650.381 302.976C651.893 301.176 652.973 299.196 653.621 297.036C654.293 294.852 654.629 292.416 654.629 289.728V288.756ZM646.277 288.756H656.213V292.608H646.277V288.756ZM690.59 297.108H696.062V300.96H690.59V297.108ZM701.318 284.832H705.89V318.168H701.318V284.832ZM694.55 285.372H699.014V316.692H694.55V285.372ZM684.758 287.172C686.222 287.172 687.494 287.664 688.574 288.648C689.678 289.608 690.518 291 691.094 292.824C691.694 294.624 691.994 296.784 691.994 299.304C691.994 301.8 691.694 303.96 691.094 305.784C690.518 307.608 689.678 309.012 688.574 309.996C687.494 310.956 686.21 311.436 684.722 311.436C683.282 311.436 682.01 310.956 680.906 309.996C679.826 309.012 678.986 307.608 678.386 305.784C677.81 303.96 677.522 301.8 677.522 299.304C677.522 296.784 677.81 294.624 678.386 292.824C678.986 291 679.826 289.608 680.906 288.648C682.01 287.664 683.294 287.172 684.758 287.172ZM684.758 291.708C684.158 291.708 683.642 291.984 683.21 292.536C682.778 293.088 682.442 293.928 682.202 295.056C681.986 296.16 681.878 297.576 681.878 299.304C681.878 300.984 681.986 302.388 682.202 303.516C682.442 304.644 682.778 305.496 683.21 306.072C683.642 306.624 684.158 306.9 684.758 306.9C685.358 306.9 685.874 306.624 686.306 306.072C686.762 305.496 687.098 304.644 687.314 303.516C687.53 302.388 687.638 300.984 687.638 299.304C687.638 297.576 687.53 296.16 687.314 295.056C687.098 293.928 686.762 293.088 686.306 292.536C685.874 291.984 685.358 291.708 684.758 291.708ZM742.347 284.832H746.919V318.168H742.347V284.832ZM737.919 297.684H743.463V301.536H737.919V297.684ZM734.895 285.408H739.323V316.62H734.895V285.408ZM719.235 306.72H721.539C722.931 306.72 724.251 306.708 725.499 306.684C726.747 306.636 727.983 306.552 729.207 306.432C730.455 306.288 731.727 306.108 733.023 305.892L733.419 309.78C732.075 310.02 730.767 310.212 729.495 310.356C728.223 310.5 726.939 310.596 725.643 310.644C724.347 310.668 722.979 310.68 721.539 310.68H719.235V306.72ZM719.235 288.72H731.511V292.572H723.951V308.628H719.235V288.72ZM772.116 284.868H776.904V309.78H772.116V284.868ZM775.572 295.02H781.332V298.98H775.572V295.02ZM750.696 288.36H770.28V292.104H750.696V288.36ZM760.488 293.292C762.096 293.292 763.512 293.568 764.736 294.12C765.984 294.648 766.956 295.404 767.652 296.388C768.348 297.348 768.696 298.452 768.696 299.7C768.696 300.972 768.348 302.1 767.652 303.084C766.956 304.044 765.984 304.8 764.736 305.352C763.512 305.88 762.096 306.144 760.488 306.144C758.904 306.144 757.488 305.88 756.24 305.352C754.992 304.8 754.02 304.044 753.324 303.084C752.628 302.1 752.28 300.972 752.28 299.7C752.28 298.452 752.628 297.348 753.324 296.388C754.02 295.404 754.992 294.648 756.24 294.12C757.488 293.568 758.904 293.292 760.488 293.292ZM760.488 296.928C759.432 296.928 758.568 297.168 757.896 297.648C757.224 298.128 756.888 298.824 756.888 299.736C756.888 300.624 757.224 301.308 757.896 301.788C758.568 302.268 759.432 302.508 760.488 302.508C761.568 302.508 762.432 302.268 763.08 301.788C763.752 301.308 764.088 300.624 764.088 299.736C764.088 298.824 763.752 298.128 763.08 297.648C762.432 297.168 761.568 296.928 760.488 296.928ZM758.112 284.832H762.864V290.16H758.112V284.832ZM755.412 313.776H778.092V317.628H755.412V313.776ZM755.412 307.908H760.236V315.432H755.412V307.908ZM808.717 289.728H816.925V293.544H808.717V289.728ZM814.801 284.868H819.625V301.788H814.801V284.868ZM797.593 303.156H819.625V312.156H802.381V316.332H797.629V308.7H814.873V306.864H797.593V303.156ZM797.629 314.1H820.561V317.844H797.629V314.1ZM799.321 285.912H803.209V288.324C803.209 290.388 802.873 292.344 802.201 294.192C801.553 296.04 800.545 297.648 799.177 299.016C797.809 300.36 796.057 301.368 793.921 302.04L791.473 298.296C793.321 297.72 794.821 296.928 795.973 295.92C797.125 294.888 797.965 293.712 798.493 292.392C799.045 291.072 799.321 289.716 799.321 288.324V285.912ZM800.293 285.912H804.145V288.324C804.145 289.284 804.289 290.244 804.577 291.204C804.889 292.164 805.345 293.064 805.945 293.904C806.545 294.744 807.313 295.488 808.249 296.136C809.209 296.784 810.337 297.312 811.633 297.72L809.185 301.392C807.169 300.744 805.501 299.772 804.181 298.476C802.861 297.18 801.877 295.656 801.229 293.904C800.605 292.152 800.293 290.292 800.293 288.324V285.912ZM840.214 289.656H848.71V293.472H840.214V289.656ZM840.214 296.316H848.854V300.132H840.214V296.316ZM847.198 284.868H852.022V304.38H847.198V284.868ZM825.454 287.244H841.222V302.58H825.454V287.244ZM836.542 291.024H830.17V298.836H836.542V291.024ZM840.718 305.244C844.246 305.244 847.03 305.82 849.07 306.972C851.11 308.1 852.13 309.672 852.13 311.688C852.13 313.752 851.11 315.348 849.07 316.476C847.03 317.628 844.246 318.204 840.718 318.204C837.19 318.204 834.406 317.628 832.366 316.476C830.326 315.348 829.306 313.752 829.306 311.688C829.306 309.672 830.326 308.1 832.366 306.972C834.406 305.82 837.19 305.244 840.718 305.244ZM840.718 308.916C839.278 308.916 838.066 309.012 837.082 309.204C836.098 309.396 835.342 309.708 834.814 310.14C834.31 310.548 834.058 311.076 834.058 311.724C834.058 312.348 834.31 312.876 834.814 313.308C835.342 313.716 836.098 314.028 837.082 314.244C838.066 314.436 839.278 314.532 840.718 314.532C842.158 314.532 843.37 314.436 844.354 314.244C845.338 314.028 846.082 313.716 846.586 313.308C847.09 312.876 847.342 312.348 847.342 311.724C847.342 311.076 847.09 310.548 846.586 310.14C846.082 309.708 845.338 309.396 844.354 309.204C843.37 309.012 842.158 308.916 840.718 308.916ZM856.483 301.86H886.651V305.64H856.483V301.86ZM860.155 313.776H883.267V317.628H860.155V313.776ZM860.155 307.872H864.943V315H860.155V307.872ZM871.567 285.84C873.991 285.84 876.103 286.116 877.903 286.668C879.727 287.22 881.143 288.012 882.151 289.044C883.159 290.076 883.663 291.288 883.663 292.68C883.663 294.096 883.159 295.32 882.151 296.352C881.143 297.384 879.727 298.176 877.903 298.728C876.103 299.28 873.991 299.556 871.567 299.556C869.167 299.556 867.055 299.28 865.231 298.728C863.431 298.176 862.027 297.384 861.019 296.352C860.011 295.32 859.507 294.096 859.507 292.68C859.507 291.288 860.011 290.076 861.019 289.044C862.027 288.012 863.431 287.22 865.231 286.668C867.055 286.116 869.167 285.84 871.567 285.84ZM871.567 289.62C870.103 289.62 868.831 289.74 867.751 289.98C866.671 290.22 865.855 290.568 865.303 291.024C864.751 291.456 864.475 292.008 864.475 292.68C864.475 293.352 864.751 293.916 865.303 294.372C865.855 294.828 866.671 295.176 867.751 295.416C868.831 295.656 870.103 295.776 871.567 295.776C873.079 295.776 874.363 295.656 875.419 295.416C876.475 295.176 877.279 294.828 877.831 294.372C878.407 293.916 878.695 293.352 878.695 292.68C878.695 292.008 878.407 291.456 877.831 291.024C877.279 290.568 876.475 290.22 875.419 289.98C874.363 289.74 873.079 289.62 871.567 289.62ZM635.444 342.868H640.268V359.932H635.444V342.868ZM617.696 361.264H640.268V370.264H622.484V374.26H617.732V366.808H635.48V364.936H617.696V361.264ZM617.732 372.244H641.168V375.988H617.732V372.244ZM613.88 344.848H631.844V348.556H613.88V344.848ZM613.52 359.356L613.052 355.54C614.996 355.54 617.108 355.528 619.388 355.504C621.668 355.456 623.984 355.372 626.336 355.252C628.712 355.132 630.968 354.94 633.104 354.676L633.356 358.06C631.148 358.444 628.88 358.72 626.552 358.888C624.248 359.056 621.98 359.176 619.748 359.248C617.516 359.296 615.44 359.332 613.52 359.356ZM616.544 346.54H621.116V357.448H616.544V346.54ZM624.608 346.54H629.216V357.448H624.608V346.54ZM651.497 359.788H656.285V369.112H651.497V359.788ZM663.593 359.788H668.381V369.112H663.593V359.788ZM644.873 368.428H675.077V372.316H644.873V368.428ZM659.921 344.488C662.321 344.488 664.457 344.86 666.329 345.604C668.225 346.348 669.701 347.392 670.757 348.736C671.837 350.056 672.377 351.628 672.377 353.452C672.377 355.252 671.837 356.824 670.757 358.168C669.701 359.488 668.225 360.52 666.329 361.264C664.457 362.008 662.321 362.38 659.921 362.38C657.545 362.38 655.409 362.008 653.513 361.264C651.641 360.52 650.165 359.488 649.085 358.168C648.005 356.824 647.465 355.252 647.465 353.452C647.465 351.628 648.005 350.056 649.085 348.736C650.165 347.392 651.641 346.348 653.513 345.604C655.409 344.86 657.545 344.488 659.921 344.488ZM659.921 348.196C658.385 348.196 657.029 348.412 655.853 348.844C654.701 349.252 653.801 349.84 653.153 350.608C652.505 351.376 652.181 352.324 652.181 353.452C652.181 354.532 652.505 355.468 653.153 356.26C653.801 357.028 654.701 357.628 655.853 358.06C657.029 358.468 658.385 358.672 659.921 358.672C661.481 358.672 662.837 358.468 663.989 358.06C665.165 357.628 666.065 357.028 666.689 356.26C667.337 355.468 667.661 354.532 667.661 353.452C667.661 352.324 667.337 351.376 666.689 350.608C666.065 349.84 665.165 349.252 663.989 348.844C662.837 348.412 661.481 348.196 659.921 348.196ZM689.538 362.38H694.002V365.656H697.314V362.38H701.706V375.844H689.538V362.38ZM694.002 369.112V372.244H697.314V369.112H694.002ZM706.89 362.092H710.49V364.576C710.49 366.208 710.262 367.792 709.806 369.328C709.35 370.84 708.606 372.184 707.574 373.36C706.566 374.56 705.234 375.484 703.578 376.132L701.238 372.568C702.582 372.016 703.662 371.32 704.478 370.48C705.318 369.616 705.93 368.68 706.314 367.672C706.698 366.64 706.89 365.608 706.89 364.576V362.092ZM707.97 362.092H711.642V364.576C711.642 365.728 711.822 366.832 712.182 367.888C712.566 368.92 713.166 369.844 713.982 370.66C714.822 371.476 715.914 372.112 717.258 372.568L714.882 376.132C713.202 375.532 711.858 374.656 710.85 373.504C709.842 372.352 709.11 371.02 708.654 369.508C708.198 367.972 707.97 366.328 707.97 364.576V362.092ZM702.75 349.996H711.102V353.848H702.75V349.996ZM695.082 344.092C696.762 344.092 698.262 344.428 699.582 345.1C700.926 345.772 701.982 346.696 702.75 347.872C703.518 349.048 703.902 350.404 703.902 351.94C703.902 353.476 703.518 354.844 702.75 356.044C701.982 357.22 700.926 358.144 699.582 358.816C698.262 359.488 696.762 359.824 695.082 359.824C693.426 359.824 691.926 359.488 690.582 358.816C689.262 358.144 688.218 357.22 687.45 356.044C686.682 354.844 686.298 353.476 686.298 351.94C686.298 350.404 686.682 349.048 687.45 347.872C688.218 346.696 689.262 345.772 690.582 345.1C691.926 344.428 693.426 344.092 695.082 344.092ZM695.082 348.016C694.266 348.016 693.534 348.172 692.886 348.484C692.262 348.796 691.77 349.252 691.41 349.852C691.05 350.428 690.87 351.124 690.87 351.94C690.87 352.756 691.05 353.464 691.41 354.064C691.77 354.664 692.262 355.12 692.886 355.432C693.534 355.744 694.266 355.9 695.082 355.9C695.898 355.9 696.618 355.744 697.242 355.432C697.89 355.12 698.394 354.664 698.754 354.064C699.114 353.464 699.294 352.756 699.294 351.94C699.294 351.124 699.114 350.428 698.754 349.852C698.394 349.252 697.89 348.796 697.242 348.484C696.618 348.172 695.898 348.016 695.082 348.016ZM708.978 342.868H713.802V360.508H708.978V342.868ZM721.791 362.812H726.543V365.62H739.899V362.812H744.615V375.844H721.791V362.812ZM726.543 369.22V372.1H739.899V369.22H726.543ZM718.263 357.412H748.431V361.156H718.263V357.412ZM730.899 343.192H735.003V344.2C735.003 345.376 734.799 346.492 734.391 347.548C734.007 348.604 733.443 349.588 732.699 350.5C731.955 351.412 731.031 352.24 729.927 352.984C728.847 353.704 727.599 354.316 726.183 354.82C724.767 355.3 723.195 355.66 721.467 355.9L719.739 352.192C721.251 352.024 722.607 351.748 723.807 351.364C725.007 350.98 726.051 350.524 726.939 349.996C727.827 349.444 728.559 348.856 729.135 348.232C729.735 347.584 730.179 346.924 730.467 346.252C730.755 345.556 730.899 344.872 730.899 344.2V343.192ZM731.691 343.192H735.795V344.2C735.795 344.872 735.939 345.556 736.227 346.252C736.515 346.924 736.947 347.584 737.523 348.232C738.123 348.856 738.867 349.444 739.755 349.996C740.643 350.524 741.687 350.98 742.887 351.364C744.111 351.748 745.467 352.024 746.955 352.192L745.227 355.9C743.499 355.66 741.927 355.3 740.511 354.82C739.119 354.316 737.871 353.704 736.767 352.984C735.663 352.24 734.739 351.412 733.995 350.5C733.251 349.588 732.675 348.604 732.267 347.548C731.883 346.468 731.691 345.352 731.691 344.2V343.192ZM773.772 342.832H778.524V376.168H773.772V342.832ZM752.424 346H757.212V366.736H752.424V346ZM752.424 363.892H755.376C757.824 363.892 760.38 363.796 763.044 363.604C765.708 363.388 768.42 363.004 771.18 362.452L771.684 366.448C768.852 367.048 766.056 367.456 763.296 367.672C760.56 367.864 757.92 367.96 755.376 367.96H752.424V363.892ZM804.369 342.796H809.193V376.24H804.369V342.796ZM808.149 355.144H814.017V359.104H808.149V355.144ZM784.353 364.288H787.161C789.057 364.288 790.833 364.264 792.489 364.216C794.145 364.144 795.753 364.036 797.313 363.892C798.873 363.724 800.469 363.496 802.101 363.208L802.569 367.168C800.889 367.456 799.233 367.684 797.601 367.852C795.993 368.02 794.337 368.128 792.633 368.176C790.929 368.224 789.105 368.248 787.161 368.248H784.353V364.288ZM784.353 345.892H799.905V349.744H789.141V366.16H784.353V345.892Z" fill="#534F4B"/>
<path d="M623.726 400.114H625.22V416.422H623.726V400.114ZM616.634 401.374C617.438 401.374 618.146 401.608 618.758 402.076C619.382 402.532 619.868 403.186 620.216 404.038C620.576 404.89 620.756 405.892 620.756 407.044C620.756 408.196 620.576 409.198 620.216 410.05C619.868 410.902 619.382 411.562 618.758 412.03C618.146 412.498 617.438 412.732 616.634 412.732C615.83 412.732 615.116 412.498 614.492 412.03C613.868 411.562 613.376 410.902 613.016 410.05C612.668 409.198 612.494 408.196 612.494 407.044C612.494 405.892 612.668 404.89 613.016 404.038C613.376 403.186 613.868 402.532 614.492 402.076C615.116 401.608 615.83 401.374 616.634 401.374ZM616.634 402.706C616.094 402.706 615.62 402.886 615.212 403.246C614.816 403.594 614.504 404.098 614.276 404.758C614.048 405.406 613.934 406.168 613.934 407.044C613.934 407.92 614.048 408.688 614.276 409.348C614.504 409.996 614.816 410.5 615.212 410.86C615.62 411.22 616.094 411.4 616.634 411.4C617.162 411.4 617.624 411.22 618.02 410.86C618.428 410.5 618.746 409.996 618.974 409.348C619.202 408.688 619.316 407.92 619.316 407.044C619.316 406.168 619.202 405.406 618.974 404.758C618.746 404.098 618.428 403.594 618.02 403.246C617.624 402.886 617.162 402.706 616.634 402.706ZM629.017 401.716H636.505V412.318H629.017V401.716ZM635.065 402.904H630.493V411.112H635.065V402.904ZM639.925 400.114H641.419V416.422H639.925V400.114ZM659.629 400.114H661.123V416.422H659.629V400.114ZM660.781 406.54H663.787V407.782H660.781V406.54ZM649.315 411.094H650.593C651.589 411.094 652.501 411.082 653.329 411.058C654.169 411.022 654.973 410.962 655.741 410.878C656.521 410.794 657.313 410.68 658.117 410.536L658.297 411.814C657.457 411.958 656.641 412.072 655.849 412.156C655.069 412.24 654.253 412.294 653.401 412.318C652.549 412.342 651.613 412.354 650.593 412.354H649.315V411.094ZM649.315 401.698H656.857V402.922H650.791V411.67H649.315V401.698ZM676.921 403.12H681.277V404.326H676.921V403.12ZM676.777 406.504H681.169V407.728H676.777V406.504ZM681.025 400.132H682.519V409.87H681.025V400.132ZM675.931 401.338H677.515C677.515 402.73 677.209 403.984 676.597 405.1C675.997 406.216 675.127 407.176 673.987 407.98C672.859 408.772 671.515 409.402 669.955 409.87L669.343 408.682C670.723 408.274 671.905 407.746 672.889 407.098C673.873 406.438 674.623 405.682 675.139 404.83C675.667 403.966 675.931 403.018 675.931 401.986V401.338ZM670.171 401.338H676.939V402.562H670.171V401.338ZM677.227 410.05C678.331 410.05 679.279 410.176 680.071 410.428C680.875 410.68 681.499 411.04 681.943 411.508C682.387 411.976 682.609 412.534 682.609 413.182C682.609 413.842 682.387 414.406 681.943 414.874C681.499 415.33 680.875 415.684 680.071 415.936C679.279 416.2 678.331 416.332 677.227 416.332C676.135 416.332 675.181 416.2 674.365 415.936C673.561 415.684 672.937 415.33 672.493 414.874C672.049 414.406 671.827 413.842 671.827 413.182C671.827 412.534 672.049 411.976 672.493 411.508C672.937 411.04 673.561 410.68 674.365 410.428C675.181 410.176 676.135 410.05 677.227 410.05ZM677.227 411.238C676.435 411.238 675.745 411.316 675.157 411.472C674.569 411.628 674.113 411.85 673.789 412.138C673.465 412.426 673.303 412.774 673.303 413.182C673.303 413.59 673.465 413.938 673.789 414.226C674.113 414.514 674.569 414.736 675.157 414.892C675.745 415.048 676.435 415.126 677.227 415.126C678.031 415.126 678.721 415.048 679.297 414.892C679.873 414.736 680.323 414.514 680.647 414.226C680.971 413.938 681.133 413.59 681.133 413.182C681.133 412.774 680.971 412.426 680.647 412.138C680.323 411.85 679.873 411.628 679.297 411.472C678.721 411.316 678.031 411.238 677.227 411.238ZM697.224 400.114H698.718V409.978H697.224V400.114ZM694.524 405.064H697.89V406.306H694.524V405.064ZM688.152 410.842H698.718V416.188H688.152V410.842ZM697.26 412.048H689.628V414.964H697.26V412.048ZM685.344 401.806H694.758V403.03H685.344V401.806ZM690.06 403.858C690.792 403.858 691.44 403.978 692.004 404.218C692.568 404.458 693.006 404.8 693.318 405.244C693.642 405.676 693.804 406.18 693.804 406.756C693.804 407.344 693.642 407.854 693.318 408.286C693.006 408.718 692.568 409.054 692.004 409.294C691.44 409.534 690.792 409.654 690.06 409.654C689.328 409.654 688.674 409.534 688.098 409.294C687.534 409.054 687.09 408.718 686.766 408.286C686.454 407.854 686.298 407.344 686.298 406.756C686.298 406.18 686.454 405.676 686.766 405.244C687.09 404.8 687.534 404.458 688.098 404.218C688.674 403.978 689.328 403.858 690.06 403.858ZM690.06 405.01C689.604 405.01 689.196 405.082 688.836 405.226C688.488 405.37 688.212 405.574 688.008 405.838C687.816 406.102 687.72 406.408 687.72 406.756C687.72 407.104 687.816 407.41 688.008 407.674C688.212 407.938 688.488 408.148 688.836 408.304C689.196 408.448 689.604 408.52 690.06 408.52C690.516 408.52 690.918 408.448 691.266 408.304C691.614 408.148 691.884 407.938 692.076 407.674C692.28 407.41 692.382 407.104 692.382 406.756C692.382 406.408 692.28 406.102 692.076 405.838C691.884 405.574 691.614 405.37 691.266 405.226C690.918 405.082 690.516 405.01 690.06 405.01ZM689.322 399.97H690.798V402.688H689.322V399.97ZM701.489 402.904H709.571V404.128H701.489V402.904ZM705.539 405.208C706.223 405.208 706.823 405.364 707.339 405.676C707.867 405.988 708.281 406.426 708.581 406.99C708.881 407.542 709.031 408.184 709.031 408.916C709.031 409.648 708.881 410.296 708.581 410.86C708.281 411.412 707.867 411.85 707.339 412.174C706.823 412.486 706.223 412.642 705.539 412.642C704.867 412.642 704.267 412.486 703.739 412.174C703.211 411.85 702.797 411.412 702.497 410.86C702.197 410.296 702.047 409.648 702.047 408.916C702.047 408.184 702.197 407.542 702.497 406.99C702.797 406.438 703.211 406.006 703.739 405.694C704.267 405.37 704.867 405.208 705.539 405.208ZM705.539 406.468C705.131 406.468 704.759 406.576 704.423 406.792C704.099 406.996 703.841 407.284 703.649 407.656C703.469 408.016 703.379 408.436 703.379 408.916C703.379 409.396 703.469 409.822 703.649 410.194C703.841 410.566 704.099 410.854 704.423 411.058C704.759 411.262 705.131 411.364 705.539 411.364C705.959 411.364 706.331 411.262 706.655 411.058C706.979 410.854 707.231 410.566 707.411 410.194C707.603 409.822 707.699 409.396 707.699 408.916C707.699 408.436 707.603 408.016 707.411 407.656C707.231 407.284 706.979 406.996 706.655 406.792C706.331 406.576 705.959 406.468 705.539 406.468ZM713.873 400.114H715.295V416.404H713.873V400.114ZM711.263 406.972H714.341V408.196H711.263V406.972ZM710.381 400.492H711.785V415.612H710.381V400.492ZM704.801 400.6H706.277V403.642H704.801V400.6ZM719.667 400.762H721.143V402.796H729.027V400.762H730.503V407.278H719.667V400.762ZM721.143 403.984V406.072H729.027V403.984H721.143ZM717.723 409.006H732.429V410.23H717.723V409.006ZM724.329 406.558H725.823V409.546H724.329V406.558ZM719.613 414.82H730.791V416.044H719.613V414.82ZM719.613 411.526H721.107V415.234H719.613V411.526ZM738.22 408.718H752.98V409.924H738.22V408.718ZM744.952 409.33H746.446V413.074H744.952V409.33ZM740.092 414.82H751.342V416.044H740.092V414.82ZM740.092 411.616H741.568V415.27H740.092V411.616ZM740.182 400.636H741.658V402.706H749.542V400.636H751.018V407.152H740.182V400.636ZM741.658 403.858V405.946H749.542V403.858H741.658ZM758.756 401.374C759.56 401.374 760.268 401.608 760.88 402.076C761.492 402.532 761.972 403.186 762.32 404.038C762.668 404.89 762.842 405.892 762.842 407.044C762.842 408.196 762.668 409.198 762.32 410.05C761.972 410.902 761.492 411.562 760.88 412.03C760.268 412.498 759.56 412.732 758.756 412.732C757.964 412.732 757.256 412.498 756.632 412.03C756.02 411.562 755.54 410.902 755.192 410.05C754.844 409.198 754.67 408.196 754.67 407.044C754.67 405.892 754.844 404.89 755.192 404.038C755.54 403.186 756.02 402.532 756.632 402.076C757.256 401.608 757.964 401.374 758.756 401.374ZM758.756 402.706C758.24 402.706 757.778 402.886 757.37 403.246C756.974 403.594 756.662 404.098 756.434 404.758C756.206 405.406 756.092 406.168 756.092 407.044C756.092 407.92 756.206 408.688 756.434 409.348C756.662 409.996 756.974 410.5 757.37 410.86C757.778 411.22 758.246 411.4 758.774 411.4C759.29 411.4 759.746 411.22 760.142 410.86C760.55 410.5 760.862 409.996 761.078 409.348C761.306 408.688 761.42 407.92 761.42 407.044C761.42 406.168 761.306 405.406 761.078 404.758C760.862 404.098 760.55 403.594 760.142 403.246C759.746 402.886 759.284 402.706 758.756 402.706ZM766.532 404.2H769.538V405.46H766.532V404.2ZM766.532 409.06H769.538V410.302H766.532V409.06ZM765.452 400.114H766.946V416.404H765.452V400.114ZM786.794 400.114H788.288V408.862H786.794V400.114ZM777.812 409.672H779.27V411.634H786.812V409.672H788.288V416.188H777.812V409.672ZM779.27 412.822V414.964H786.812V412.822H779.27ZM779.558 400.888C780.386 400.888 781.118 401.05 781.754 401.374C782.39 401.686 782.888 402.124 783.248 402.688C783.62 403.252 783.806 403.906 783.806 404.65C783.806 405.382 783.62 406.036 783.248 406.612C782.888 407.176 782.39 407.614 781.754 407.926C781.118 408.238 780.386 408.394 779.558 408.394C778.742 408.394 778.01 408.238 777.362 407.926C776.726 407.614 776.222 407.176 775.85 406.612C775.49 406.036 775.31 405.382 775.31 404.65C775.31 403.906 775.49 403.252 775.85 402.688C776.222 402.124 776.726 401.686 777.362 401.374C778.01 401.05 778.742 400.888 779.558 400.888ZM779.558 402.148C779.018 402.148 778.538 402.256 778.118 402.472C777.698 402.676 777.368 402.97 777.128 403.354C776.888 403.726 776.768 404.158 776.768 404.65C776.768 405.13 776.888 405.562 777.128 405.946C777.368 406.318 777.698 406.612 778.118 406.828C778.538 407.044 779.018 407.152 779.558 407.152C780.098 407.152 780.578 407.044 780.998 406.828C781.418 406.612 781.748 406.318 781.988 405.946C782.228 405.562 782.348 405.13 782.348 404.65C782.348 404.158 782.228 403.726 781.988 403.354C781.748 402.97 781.418 402.676 780.998 402.472C780.578 402.256 780.098 402.148 779.558 402.148ZM802.993 400.114H804.469V416.404H802.993V400.114ZM792.175 401.716H793.651V411.796H792.175V401.716ZM792.175 410.914H793.507C794.755 410.914 796.021 410.86 797.305 410.752C798.601 410.632 799.933 410.434 801.301 410.158L801.499 411.418C800.083 411.718 798.721 411.928 797.413 412.048C796.105 412.156 794.803 412.21 793.507 412.21H792.175V410.914ZM818.364 400.114H819.858V416.422H818.364V400.114ZM819.516 406.54H822.522V407.782H819.516V406.54ZM808.05 411.094H809.328C810.324 411.094 811.236 411.082 812.064 411.058C812.904 411.022 813.708 410.962 814.476 410.878C815.256 410.794 816.048 410.68 816.852 410.536L817.032 411.814C816.192 411.958 815.376 412.072 814.584 412.156C813.804 412.24 812.988 412.294 812.136 412.318C811.284 412.342 810.348 412.354 809.328 412.354H808.05V411.094ZM808.05 401.698H815.592V402.922H809.526V411.67H808.05V401.698ZM823.942 414.028C823.942 413.584 824.05 413.272 824.266 413.092C824.482 412.912 824.74 412.822 825.04 412.822C825.352 412.822 825.616 412.912 825.832 413.092C826.06 413.272 826.174 413.584 826.174 414.028C826.174 414.46 826.06 414.772 825.832 414.964C825.616 415.156 825.352 415.252 825.04 415.252C824.74 415.252 824.482 415.156 824.266 414.964C824.05 414.772 823.942 414.46 823.942 414.028Z" fill="#534F4B"/>
</svg>
